<svg width="1440" height="1281" viewBox="0 0 1440 1281" fill="none" xmlns="http://www.w3.org/2000/svg">
<path d="M1449.33 169.4C1449.33 172.423 1448.82 175.417 1447.83 178.214C1446.82 181.1 1445.32 183.723 1443.42 185.931C1441.56 188.107 1439.35 189.833 1436.91 191.012C1434.48 192.191 1431.86 192.799 1429.22 192.801H1331.1C1325.77 192.801 1320.66 190.335 1316.89 185.947C1313.12 181.559 1311 175.607 1311 169.4C1311 163.194 1313.12 157.242 1316.89 152.854C1320.66 148.465 1325.77 146 1331.1 146H1429.24C1434.57 146.006 1439.68 148.474 1443.44 152.861C1447.21 157.249 1449.33 163.198 1449.33 169.4Z" fill="#7384AE"/>
<path d="M1497.81 201.593C1497.84 207.701 1495.9 213.599 1492.37 218.123C1490.72 220.266 1488.71 221.984 1486.45 223.168C1484.2 224.352 1481.76 224.976 1479.29 225H1388.89C1378.71 225 1370.38 214.464 1370.38 201.593C1370.37 198.582 1370.84 195.596 1371.75 192.78C1372.67 189.928 1374.05 187.31 1375.82 185.07C1377.47 182.926 1379.48 181.207 1381.73 180.023C1383.98 178.839 1386.42 178.215 1388.89 178.192H1479.29C1489.48 178.214 1497.81 188.779 1497.81 201.593Z" fill="#7384AE"/>
<path d="M1447.85 178.214C1448.84 175.417 1449.34 172.423 1449.34 169.4C1449.34 168.477 1449.3 167.555 1449.2 166.638C1450.04 169.98 1451.79 172.914 1454.18 175.001C1456.58 177.088 1459.49 178.215 1462.48 178.214H1447.85Z" fill="#7384AE"/>
<path d="M1449.2 166.638C1448.94 165.627 1448.77 164.587 1448.7 163.535C1448.93 164.555 1449.1 165.592 1449.2 166.638Z" fill="#7384AE"/>
<path d="M1371.93 192.8C1370.94 195.59 1370.44 198.576 1370.44 201.592C1370.44 202.515 1370.48 203.438 1370.58 204.354C1369.74 201.013 1367.99 198.079 1365.59 195.992C1363.2 193.905 1360.29 192.777 1357.3 192.779L1371.93 192.8Z" fill="#7384AE"/>
<path d="M1350.9 1218.64C1350.9 1221.05 1351.37 1223.43 1352.28 1225.66C1353.22 1227.96 1354.61 1230.05 1356.36 1231.81C1358.09 1233.54 1360.14 1234.92 1362.4 1235.86C1364.65 1236.8 1367.07 1237.28 1369.52 1237.28H1460.38C1465.32 1237.28 1470.06 1235.32 1473.55 1231.82C1477.04 1228.33 1479 1223.59 1479 1218.64C1479 1213.7 1477.04 1208.96 1473.55 1205.46C1470.06 1201.96 1465.32 1200 1460.38 1200H1369.5C1364.56 1200 1359.83 1201.97 1356.35 1205.47C1352.86 1208.96 1350.9 1213.7 1350.9 1218.64V1218.64Z" fill="#7384AE"/>
<path d="M1306 1244.29C1305.97 1249.15 1307.77 1253.85 1311.04 1257.46C1312.56 1259.16 1314.43 1260.53 1316.52 1261.47C1318.6 1262.42 1320.86 1262.91 1323.15 1262.93H1406.87C1416.3 1262.93 1424.01 1254.54 1424.01 1244.29C1424.02 1241.89 1423.59 1239.51 1422.74 1237.27C1421.89 1234.99 1420.61 1232.91 1418.97 1231.12C1417.45 1229.42 1415.58 1228.05 1413.5 1227.1C1411.41 1226.16 1409.15 1225.66 1406.87 1225.65H1323.15C1313.71 1225.66 1306 1234.08 1306 1244.29Z" fill="#7384AE"/>
<path d="M1352.26 1225.66C1351.35 1223.43 1350.88 1221.05 1350.88 1218.64C1350.88 1217.91 1350.93 1217.17 1351.01 1216.44C1350.24 1219.1 1348.62 1221.44 1346.4 1223.1C1344.18 1224.77 1341.49 1225.66 1338.72 1225.66H1352.26Z" fill="#7384AE"/>
<path d="M1351.01 1216.44C1351.25 1215.64 1351.41 1214.81 1351.48 1213.97C1351.27 1214.78 1351.11 1215.61 1351.01 1216.44V1216.44Z" fill="#7384AE"/>
<path d="M1422.58 1237.28C1423.49 1239.5 1423.96 1241.88 1423.96 1244.29C1423.96 1245.02 1423.91 1245.76 1423.83 1246.49C1424.6 1243.83 1426.22 1241.49 1428.44 1239.83C1430.66 1238.16 1433.35 1237.26 1436.12 1237.27L1422.58 1237.28Z" fill="#7384AE"/>
<path d="M-32.7139 128H46.7139C59.5586 128 70 138.505 70 151.5C70 164.495 59.5586 175 46.7139 175H-32.7139C-45.5586 175 -56 164.495 -56 151.5C-56 138.505 -45.5586 128 -32.7139 128Z" stroke="#7384AE" stroke-width="4"/>
<path d="M1408.29 1231.82H1487.71C1500.56 1231.82 1511 1242.32 1511 1255.32C1511 1268.31 1500.56 1278.82 1487.71 1278.82H1408.29C1395.44 1278.82 1385 1268.31 1385 1255.32C1385 1242.32 1395.44 1231.82 1408.29 1231.82Z" stroke="#D5DDF0" stroke-width="4"/>
<path d="M988.714 0H909.286C895.321 0 884 11.4168 884 25.5001C884 39.5834 895.321 51 909.286 51H988.714C1002.68 51 1014 39.5834 1014 25.5001C1014 11.4168 1002.68 0 988.714 0Z" fill="#7384AE"/>
<path d="M17.7162 102H-39.7162C-49.814 102 -58 110.283 -58 120.5C-58 130.717 -49.814 139 -39.7162 139H17.7162C27.8141 139 36 130.717 36 120.5C36 110.283 27.8141 102 17.7162 102Z" fill="#D5DDF0"/>
<path d="M12.8916 880.027C12.8945 882.781 13.5522 885.495 14.8105 887.945C16.2186 890.637 18.1804 893 20.567 894.879C25.8451 898.96 32.3487 901.135 39.02 901.051H166.528C180.894 901.051 192.644 891.591 192.644 880.027C192.644 874.27 189.701 868.987 184.968 865.175C179.693 861.093 173.191 858.917 166.522 859.002H39.0136C26.9057 859.002 16.627 865.718 13.7295 874.756C13.439 875.666 13.2251 876.599 13.0899 877.545C12.9625 878.366 12.8962 879.196 12.8916 880.027Z" fill="#D5DDF0"/>
<path d="M-48 908.969C-47.9872 911.751 -47.4104 914.502 -46.3044 917.054C-45.1984 919.607 -43.5863 921.909 -41.5654 923.821C-37.3997 927.802 -31.855 930.016 -26.0931 930H80.8319C92.8759 930 102.732 920.534 102.732 908.969C102.734 906.247 102.181 903.553 101.108 901.051C99.9879 898.441 98.3518 896.085 96.2979 894.124C92.1345 890.143 86.5919 887.929 80.8319 887.945H-26.0931C-38.1435 887.945 -48 897.411 -48 908.969Z" fill="#D5DDF0"/>
<path d="M14.452 887.945C13.4206 885.433 12.8904 882.743 12.8913 880.027C12.8918 879.197 12.9409 878.369 13.0385 877.545C12.16 880.547 10.3318 883.183 7.82812 885.059C5.32448 886.934 2.28035 887.947 -0.847656 887.945H14.452Z" fill="#D5DDF0"/>
<path d="M13.0381 877.545C13.3109 876.637 13.4867 875.702 13.5626 874.756C13.3252 875.673 13.15 876.605 13.0381 877.545V877.545Z" fill="#D5DDF0"/>
<path d="M101.107 901.051C102.139 903.564 102.669 906.254 102.668 908.97C102.668 909.799 102.619 910.628 102.521 911.451C103.399 908.449 105.228 905.813 107.731 903.938C110.235 902.063 113.279 901.05 116.407 901.051H101.107Z" fill="#D5DDF0"/>
<rect x="132" y="37" width="52" height="37" rx="18.5" fill="#D5DDF0"/>
<rect x="1262" y="999" width="103" height="37" rx="18.5" fill="#D5DDF0"/>
<rect x="-8" y="1108" width="61" height="33" rx="16.5" stroke="#7384AE" stroke-width="4"/>
<path d="M1175.16 593H1112.84C1103.18 593 1095 584.245 1095 573C1095 561.755 1103.18 553 1112.84 553H1175.16C1184.82 553 1193 561.755 1193 573C1193 584.245 1184.82 593 1175.16 593Z" stroke="#7384AE" stroke-width="4"/>
<rect x="165" y="360" width="88" height="37" rx="18.5" fill="#D5DDF0"/>
<rect x="844" y="34" width="84" height="33" rx="16.5" stroke="#D5DDF0" stroke-width="4"/>
</svg>
