<svg width="1440" height="473" viewBox="0 0 1440 473" fill="none" xmlns="http://www.w3.org/2000/svg">
<ellipse cx="1002.31" cy="237.575" rx="6.52229" ry="6.91185" fill="#FEFEFE"/>
<ellipse cx="428.522" cy="431.912" rx="6.52229" ry="6.91185" fill="#FEFEFE"/>
<ellipse cx="539.223" cy="347.013" rx="3.26115" ry="3.45593" fill="#FEFEFE"/>
<ellipse cx="684.888" cy="265.223" rx="3.26115" ry="3.45593" fill="#FEFEFE"/>
<ellipse cx="459.869" cy="244.486" rx="3.26115" ry="3.45593" fill="#FEFEFE"/>
<ellipse cx="124.261" cy="3.45593" rx="3.26115" ry="3.45593" fill="#FEFEFE"/>
<ellipse cx="112.261" cy="400.456" rx="3.26115" ry="3.45593" fill="#FEFEFE"/>
<ellipse cx="252.242" cy="393.092" rx="3.26115" ry="3.45593" fill="#FEFEFE"/>
<ellipse cx="-1.04061" cy="313.605" rx="3.26115" ry="3.45593" fill="#FEFEFE"/>
<ellipse cx="101.142" cy="251.397" rx="3.26115" ry="3.45593" fill="#FEFEFE"/>
<ellipse cx="831.639" cy="386.18" rx="3.26115" ry="3.45593" fill="#FEFEFE"/>
<ellipse cx="627.261" cy="186.456" rx="3.26115" ry="3.45593" fill="#FEFEFE"/>
<ellipse cx="1340.38" cy="247.942" rx="3.26115" ry="3.45593" fill="#FEFEFE"/>
<ellipse cx="1319.72" cy="469.121" rx="3.26115" ry="3.45593" fill="#FEFEFE"/>
<ellipse cx="1440.39" cy="367.748" rx="3.26115" ry="3.45593" fill="#FEFEFE"/>
<ellipse cx="1039.27" cy="382.724" rx="3.26115" ry="3.45593" fill="#FEFEFE"/>
<ellipse cx="1039.27" cy="382.724" rx="3.26115" ry="3.45593" fill="#FEFEFE"/>
<ellipse cx="1181.67" cy="188.04" rx="3.26115" ry="3.45593" fill="#FEFEFE"/>
<ellipse cx="867.261" cy="132.456" rx="3.26115" ry="3.45593" fill="#FEFEFE"/>
<ellipse cx="434.867" cy="268.678" rx="3.26115" ry="3.45593" fill="#FEFEFE"/>
<ellipse cx="1256.68" cy="347.013" rx="3.26115" ry="3.45593" fill="#FEFEFE"/>
<ellipse cx="1265.37" cy="294.021" rx="3.26115" ry="3.45593" fill="#FEFEFE"/>
<ellipse cx="945.261" cy="53.4559" rx="3.26115" ry="3.45593" fill="#FEFEFE"/>
<ellipse cx="271.809" cy="268.678" rx="3.26115" ry="3.45593" fill="#FEFEFE"/>
<ellipse cx="160.93" cy="168.456" rx="3.26115" ry="3.45593" fill="#FEFEFE"/>
</svg>
