<svg width="164" height="1156" viewBox="0 0 164 1156" fill="none" xmlns="http://www.w3.org/2000/svg">
<path d="M-4.5 1154C-4.5 1154 285.829 907.592 94.1321 675.62C-97.5651 443.647 -13.7016 270.879 42.7824 186.19C99.2663 101.501 56.5556 1 56.5556 1" stroke="white" stroke-width="3" stroke-miterlimit="10"/>
<path d="M44.1046 1C44.1046 1 83.453 105.396 24.4304 183.82C-34.5923 262.245 -123.741 425.452 59.9297 675.883C243.601 926.314 -32.4495 1131.76 -32.4495 1131.76" stroke="white" stroke-width="3" stroke-miterlimit="10"/>
<path d="M23.6594 2.3916C23.6594 2.3916 61.8571 108.15 1.99317 184.545C-57.8707 260.94 -148.798 420.912 32.064 677.757C212.926 934.603 -65.2992 1130.3 -65.2992 1130.3" stroke="white" stroke-width="3" stroke-miterlimit="10"/>
<path d="M-0.0614816 1.68164C-0.0614816 1.68164 37.4219 108.249 -22.9737 183.338C-83.3694 258.428 -175.352 416.455 3.77973 677.218C182.911 937.98 -96.6231 1127.63 -96.6231 1127.63" stroke="white" stroke-width="3" stroke-miterlimit="10"/>
<path d="M-23.4404 235.931C-21.5095 228.019 -5.4884 164.368 17.8134 164.457C22.0577 164.457 29.0072 166.609 37.5331 179.593C40.798 172.151 61.8283 125.356 76.6368 127.853C90.0647 130.111 93.171 171.999 90.5871 192.786C87.7886 215.132 77.4856 235.927 77.4856 235.927" fill="#32467A"/>
<path d="M-27 235.728C-24.9995 227.533 -8.40085 161.611 15.7409 161.703C20.1382 161.703 27.3382 163.932 36.1715 177.379C39.554 169.671 61.3424 121.207 76.6847 123.793C90.5966 126.132 93.8149 169.514 91.1378 191.043C88.2385 214.186 77.5641 235.723 77.5641 235.723" fill="#32467A"/>
<mask id="mask0_910_5322" style="mask-type:alpha" maskUnits="userSpaceOnUse" x="-27" y="123" width="119" height="113">
<mask id="path-7-inside-1_910_5322" fill="white">
<path d="M-27 235.728C-24.9995 227.533 -8.40085 161.611 15.7409 161.703C20.1382 161.703 27.3382 163.932 36.1715 177.379C39.554 169.671 61.3424 121.207 76.6847 123.793C90.5966 126.132 93.8149 169.514 91.1378 191.043C88.2385 214.186 77.5641 235.723 77.5641 235.723"/>
</mask>
<path d="M-27 235.728C-24.9995 227.533 -8.40085 161.611 15.7409 161.703C20.1382 161.703 27.3382 163.932 36.1715 177.379C39.554 169.671 61.3424 121.207 76.6847 123.793C90.5966 126.132 93.8149 169.514 91.1378 191.043C88.2385 214.186 77.5641 235.723 77.5641 235.723" fill="#222F58"/>
<path d="M15.7409 161.703L15.7295 164.703H15.7409V161.703ZM36.1715 177.379L33.6641 179.026L36.6979 183.644L38.9185 178.584L36.1715 177.379ZM76.6847 123.793L76.186 126.751L76.1874 126.752L76.6847 123.793ZM91.1378 191.043L94.1146 191.415L94.1149 191.413L91.1378 191.043ZM-24.0856 236.439C-23.0939 232.376 -18.4898 214.04 -11.1705 196.779C-7.50402 188.132 -3.22717 179.927 1.51155 173.94C6.32904 167.853 11.1152 164.685 15.7295 164.703L15.7522 158.703C8.2957 158.674 1.95387 163.713 -3.19326 170.216C-8.41916 176.819 -12.9436 185.59 -16.6945 194.437C-24.2101 212.161 -28.9056 230.884 -29.9144 235.016L-24.0856 236.439ZM15.7409 164.703C18.7909 164.703 25.1707 166.097 33.6641 179.026L38.6788 175.731C29.5057 161.768 21.4855 158.703 15.7409 158.703V164.703ZM38.9185 178.584C40.5975 174.758 46.825 160.867 54.5037 148.289C58.3534 141.983 62.4792 136.156 66.4906 132.1C68.4957 130.073 70.3747 128.589 72.0778 127.69C73.7736 126.795 75.1159 126.571 76.186 126.751L77.1834 120.835C74.4179 120.369 71.7232 121.093 69.2776 122.384C66.8394 123.67 64.4726 125.608 62.2246 127.881C57.73 132.426 53.3206 138.712 49.3826 145.162C41.486 158.097 35.1279 172.291 33.4244 176.173L38.9185 178.584ZM76.1874 126.752C78.1265 127.078 80.3487 128.999 82.4717 133.532C84.518 137.902 86.0851 143.905 87.1697 150.695C89.3357 164.256 89.4631 180.199 88.1608 190.672L94.1149 191.413C95.4896 180.358 95.3464 163.846 93.0946 149.748C91.9702 142.71 90.2916 136.083 87.9054 130.988C85.5959 126.056 82.1989 121.678 77.1819 120.835L76.1874 126.752ZM88.1611 190.67C86.75 201.934 83.4351 212.869 80.4467 221.03C78.9562 225.1 77.5558 228.457 76.5307 230.79C76.0184 231.956 75.6004 232.865 75.3126 233.478C75.1687 233.785 75.0574 234.017 74.9831 234.171C74.946 234.248 74.9182 234.305 74.9001 234.342C74.8911 234.36 74.8846 234.374 74.8806 234.382C74.8785 234.386 74.8772 234.389 74.8764 234.39C74.8761 234.391 74.8759 234.392 74.8758 234.392C74.8758 234.392 74.8759 234.391 74.8759 234.392C74.876 234.391 74.8762 234.391 77.5641 235.723C80.2521 237.055 80.2523 237.055 80.2526 237.054C80.2528 237.054 80.2531 237.053 80.2534 237.053C80.254 237.052 80.2548 237.05 80.2557 237.048C80.2575 237.044 80.26 237.039 80.2632 237.033C80.2694 237.02 80.2782 237.002 80.2895 236.979C80.3121 236.933 80.3445 236.867 80.3863 236.78C80.4698 236.607 80.5907 236.354 80.7443 236.027C81.0516 235.372 81.4902 234.418 82.0239 233.203C83.0909 230.775 84.5402 227.3 86.0808 223.093C89.1544 214.7 92.6263 203.295 94.1146 191.415L88.1611 190.67Z" fill="#FEFEFE" mask="url(#path-7-inside-1_910_5322)"/>
</mask>
<g mask="url(#mask0_910_5322)">
<path d="M46.9492 234.511C61.5264 201.068 70.155 153.024 70.155 153.024" stroke="#1D193F" stroke-width="3" stroke-miterlimit="10" stroke-linecap="round"/>
<path d="M65.4043 176.752C65.4043 176.752 74.8631 172.949 77.9031 164.484" stroke="#1D193F" stroke-width="3" stroke-miterlimit="10" stroke-linecap="round"/>
<path d="M62.1982 189.942C62.1982 189.942 72.5558 187.938 78.1128 180.253" stroke="#1D193F" stroke-width="3" stroke-miterlimit="10" stroke-linecap="round"/>
<path d="M59.4443 199.505C59.4443 199.505 70.0093 198.283 76.5228 191.048" stroke="#1D193F" stroke-width="3" stroke-miterlimit="10" stroke-linecap="round"/>
<path d="M56.6201 209.912C56.6201 209.912 67.2614 210.663 75.8532 204.832" stroke="#1D193F" stroke-width="3" stroke-miterlimit="10" stroke-linecap="round"/>
<path d="M60.9656 193.38C60.9656 193.38 50.6082 191.377 45.0537 183.691" stroke="#1D193F" stroke-width="3" stroke-miterlimit="10" stroke-linecap="round"/>
<path d="M57.0619 206.081C57.0619 206.081 46.7019 204.078 41.1475 196.393" stroke="#1D193F" stroke-width="3" stroke-miterlimit="10" stroke-linecap="round"/>
<path d="M53.3831 217.978C53.3831 217.978 42.8733 216.467 36.7119 209.059" stroke="#1D193F" stroke-width="3" stroke-miterlimit="10" stroke-linecap="round"/>
<path d="M63.966 181.6C63.966 181.6 55.0564 177.1 53.1357 168.439" stroke="#1D193F" stroke-width="3" stroke-miterlimit="10" stroke-linecap="round"/>
<path d="M50.5479 226.108C50.5479 226.108 60.9053 228.114 70.5822 223.377" stroke="#1D193F" stroke-width="3" stroke-miterlimit="10" stroke-linecap="round"/>
<path d="M49.1032 228.956C49.1032 228.956 38.4909 228.009 31.6621 220.949" stroke="#1D193F" stroke-width="3" stroke-miterlimit="10" stroke-linecap="round"/>
<path d="M46.7334 233.966C46.7334 233.966 56.5155 237.253 67.0831 233.803" stroke="#1D193F" stroke-width="3" stroke-miterlimit="10" stroke-linecap="round"/>
<path d="M51.668 223.087C51.668 223.087 60.1205 224.522 66.6445 220.955" stroke="#1D193F" stroke-width="3" stroke-miterlimit="10" stroke-linecap="round"/>
<path d="M58.2176 202.316C58.2176 202.316 49.907 200.464 46.4414 194.932" stroke="#1D193F" stroke-width="3" stroke-miterlimit="10" stroke-linecap="round"/>
<path d="M65.9681 170.37C65.9681 170.37 59.7673 166.929 59.1367 162.055" stroke="#1D193F" stroke-width="3" stroke-miterlimit="10" stroke-linecap="round"/>
<path d="M54.8262 214.108C54.8262 214.108 63.389 215.086 69.5688 211.174" stroke="#1D193F" stroke-width="3" stroke-miterlimit="10" stroke-linecap="round"/>
<path d="M47.7867 231.714C47.7867 231.714 38.714 231.735 33.6299 227.392" stroke="#1D193F" stroke-width="3" stroke-miterlimit="10" stroke-linecap="round"/>
<path d="M-5.84668 259.889C8.73045 226.446 17.3591 178.402 17.3591 178.402" stroke="#1D193F" stroke-width="3" stroke-miterlimit="10" stroke-linecap="round"/>
<path d="M12.6084 202.13C12.6084 202.13 22.0672 198.327 25.1072 189.862" stroke="#1D193F" stroke-width="3" stroke-miterlimit="10" stroke-linecap="round"/>
<path d="M9.40234 215.32C9.40234 215.32 19.7599 213.316 25.3169 205.631" stroke="#1D193F" stroke-width="3" stroke-miterlimit="10" stroke-linecap="round"/>
<path d="M6.64844 224.883C6.64844 224.883 17.2134 223.661 23.7269 216.426" stroke="#1D193F" stroke-width="3" stroke-miterlimit="10" stroke-linecap="round"/>
<path d="M2.99121 235.282C2.99121 235.282 13.6325 236.033 22.2242 230.202" stroke="#1D193F" stroke-width="3" stroke-miterlimit="10" stroke-linecap="round"/>
<path d="M7.36018 218.376C7.36018 218.376 -2.9973 216.373 -8.55176 208.688" stroke="#1D193F" stroke-width="3" stroke-miterlimit="10" stroke-linecap="round"/>
<path d="M4.26601 231.459C4.26601 231.459 -6.094 229.456 -11.6484 221.771" stroke="#1D193F" stroke-width="3" stroke-miterlimit="10" stroke-linecap="round"/>
<path d="M0.587276 243.356C0.587276 243.356 -9.9226 241.845 -16.084 234.437" stroke="#1D193F" stroke-width="3" stroke-miterlimit="10" stroke-linecap="round"/>
<path d="M11.1701 206.978C11.1701 206.978 2.26051 202.478 0.339844 193.817" stroke="#1D193F" stroke-width="3" stroke-miterlimit="10" stroke-linecap="round"/>
<path d="M5.42175 227.694C5.42175 227.694 -2.88887 225.842 -6.35449 220.31" stroke="#1D193F" stroke-width="3" stroke-miterlimit="10" stroke-linecap="round"/>
<path d="M13.3773 195.362C13.3773 195.362 7.17649 191.921 6.5459 187.047" stroke="#1D193F" stroke-width="3" stroke-miterlimit="10" stroke-linecap="round"/>
<path d="M2.03027 239.486C2.03027 239.486 10.5931 240.464 16.7729 236.552" stroke="#1D193F" stroke-width="3" stroke-miterlimit="10" stroke-linecap="round"/>
</g>
<path d="M-36.6835 697.326C-86.7665 642.684 -84.4859 581.099 -76.8245 576.606C-71.9337 573.736 -62.0827 574.472 -36.4017 611.734C-42.0383 550.188 -30.8172 517.7 -20.68 516.069C-9.15977 514.199 14.1106 550.56 32.824 627.612C40.3394 606.894 47.0382 596.762 52.9204 597.215C63.257 598.007 84.225 630.204 76.3555 697.702" fill="#96A3C4"/>
<path d="M48.6798 696.571L54.3344 619.291M48.6798 696.571L64.5128 642.664M48.6798 696.571L68.6595 669.429M48.6798 696.571L64.5128 690.163M48.6798 696.571L40.0093 642.664M48.6798 696.571L30.9619 669.429M48.6798 696.571L33.9777 690.163" stroke="#32467A" stroke-width="4" stroke-linecap="round"/>
<path d="M-8.46546 697.837L-16.2056 550.756M-8.46546 697.837L4.70743 593.132M-8.46546 697.837L16.9256 642.99M-8.46546 697.837L14.8942 682.917M-8.46546 697.837L-33.5715 597.475M-8.46546 697.837L-41.9651 649.672M-8.46546 697.837L-32.8072 688.329" stroke="#32467A" stroke-width="4" stroke-linecap="round"/>
<path d="M86.0489 1126.45C80.6933 1124.5 75.6975 1121.72 71.2566 1118.21C68.0663 1115.69 59.7644 1109.04 54.387 1097.53C47.4002 1082.57 44.5219 1057.69 54.2488 1050.17C55.6667 1049.08 60.7109 1045.75 71.2105 1050.36C70.3668 1044.35 65.7445 1008.32 84.2021 988.951C86.6835 986.365 94.6911 978.152 102.444 980.378C112.543 983.278 117.498 1001.41 117.569 1015.96C117.675 1037.52 117.721 1047.37 117.721 1047.37C117.721 1047.37 120.097 1091.21 128.948 1063.3C137.799 1035.4 152.127 1034.41 152.127 1034.41C171.935 1030.92 158.862 1079.28 158.862 1079.28C153.432 1102.77 149.078 1102.55 152.127 1126.45" fill="#8A6F8E"/>
<mask id="mask1_910_5322" style="mask-type:alpha" maskUnits="userSpaceOnUse" x="48" y="980" width="116" height="147">
<path d="M86.0489 1126.45C80.6933 1124.5 75.6975 1121.72 71.2566 1118.21C68.0663 1115.69 59.7644 1109.04 54.387 1097.53C47.4002 1082.57 44.5219 1057.69 54.2488 1050.17C55.6667 1049.08 60.7109 1045.75 71.2105 1050.36C70.3668 1044.35 65.7445 1008.32 84.2021 988.951C86.6835 986.365 94.6911 978.152 102.444 980.378C112.543 983.278 117.498 1001.41 117.569 1015.96C117.675 1037.52 117.721 1047.37 117.721 1047.37C117.721 1047.37 120.097 1091.21 128.948 1063.3C137.799 1035.4 152.127 1034.41 152.127 1034.41C171.935 1030.92 158.862 1079.28 158.862 1079.28C153.432 1102.77 149.078 1102.55 152.127 1126.45" fill="#8A6F8E"/>
</mask>
<g mask="url(#mask1_910_5322)">
<path d="M59.9774 1064.98C59.9774 1064.98 76.157 1115.05 105.194 1133.1" stroke="#45406A" stroke-width="4" stroke-miterlimit="10" stroke-linecap="round"/>
<path d="M70.5101 1090.66C70.5101 1090.66 68.2341 1079.88 69.4969 1072.49" stroke="#45406A" stroke-width="4" stroke-miterlimit="10" stroke-linecap="round"/>
<path d="M86.2442 1114.57C86.2442 1114.57 83.9191 1106.56 84.4033 1099" stroke="#45406A" stroke-width="4" stroke-miterlimit="10" stroke-linecap="round"/>
<path d="M63.2715 1096.87C63.2715 1096.87 71.5667 1104.32 80.2583 1107.65" stroke="#45406A" stroke-width="4" stroke-miterlimit="10" stroke-linecap="round"/>
<path d="M56.3354 1076.83C56.3354 1076.83 64.5855 1088.94 71.5428 1092.52" stroke="#45406A" stroke-width="4" stroke-miterlimit="10" stroke-linecap="round"/>
<path d="M149.737 1054.64C149.737 1054.64 128.031 1116.14 144.11 1154.73" stroke="#45406A" stroke-width="4" stroke-miterlimit="10" stroke-linecap="round"/>
<path d="M142.916 1080.23C142.916 1080.23 148.79 1067.96 155.699 1061.51" stroke="#45406A" stroke-width="4" stroke-miterlimit="10" stroke-linecap="round"/>
<path d="M139.246 1101.85C139.246 1101.85 147.785 1082.06 152.494 1078.07" stroke="#45406A" stroke-width="4" stroke-miterlimit="10" stroke-linecap="round"/>
<path d="M138.179 1119.33C138.179 1119.33 141.867 1109.75 148.054 1102.58" stroke="#45406A" stroke-width="4" stroke-miterlimit="10" stroke-linecap="round"/>
<path d="M138.71 1131.69C138.71 1131.69 142.384 1123.36 148.055 1119.33" stroke="#45406A" stroke-width="4" stroke-miterlimit="10" stroke-linecap="round"/>
<path d="M129.026 1088.89C129.026 1088.89 131.829 1102.13 138.179 1111.56" stroke="#45406A" stroke-width="4" stroke-miterlimit="10" stroke-linecap="round"/>
<path d="M136.797 1062.45C136.797 1062.45 136.009 1080.39 140.427 1088.89" stroke="#45406A" stroke-width="4" stroke-miterlimit="10" stroke-linecap="round"/>
<path d="M125.256 1118.04C125.256 1118.04 129.064 1131.24 139.651 1139.91" stroke="#45406A" stroke-width="4" stroke-miterlimit="10" stroke-linecap="round"/>
<path d="M104.028 1105.11C104.028 1105.11 106.34 1091.76 118.701 1077.4" stroke="#45406A" stroke-width="4" stroke-miterlimit="10" stroke-linecap="round"/>
<path d="M95.8332 1013.84C95.8332 1013.84 94.4097 1111.25 119.916 1155" stroke="#45406A" stroke-width="4" stroke-miterlimit="10" stroke-linecap="round"/>
<path d="M82.5234 1028.96C82.5234 1028.96 83.5753 1036.2 96.6733 1052.46" stroke="#45406A" stroke-width="4" stroke-miterlimit="10" stroke-linecap="round"/>
<path d="M83.8047 1052.83C83.8047 1052.83 85.1682 1061.04 98.369 1074.18" stroke="#45406A" stroke-width="4" stroke-miterlimit="10" stroke-linecap="round"/>
<path d="M97.2375 1057.09C97.2375 1057.09 97.1561 1048.78 106.933 1034.84" stroke="#45406A" stroke-width="4" stroke-miterlimit="10" stroke-linecap="round"/>
<path d="M100.11 1080.56C100.11 1080.56 100.289 1069.32 112.775 1057.78" stroke="#45406A" stroke-width="4" stroke-miterlimit="10" stroke-linecap="round"/>
<path d="M108.218 1123.9C108.218 1123.9 109.047 1112.04 118.989 1104.73" stroke="#45406A" stroke-width="4" stroke-miterlimit="10" stroke-linecap="round"/>
<path d="M87.3643 1079.09C87.3643 1079.09 90.3317 1089.36 101.642 1097.69" stroke="#45406A" stroke-width="4" stroke-miterlimit="10" stroke-linecap="round"/>
<path d="M93.8545 1106.34C96.8816 1110.8 101.042 1114.41 105.915 1116.8" stroke="#45406A" stroke-width="4" stroke-miterlimit="10" stroke-linecap="round"/>
</g>
</svg>
