<svg width="1440" height="322" viewBox="0 0 1440 322" fill="none" xmlns="http://www.w3.org/2000/svg">
<ellipse rx="6.52229" ry="6.91185" transform="matrix(-1 0 0 1 467.693 72.5749)" fill="#FEFEFE"/>
<ellipse rx="3.26115" ry="3.45593" transform="matrix(-1 0 0 1 930.775 182.013)" fill="#FEFEFE"/>
<ellipse rx="3.26115" ry="3.45593" transform="matrix(-1 0 0 1 785.11 100.223)" fill="#FEFEFE"/>
<ellipse rx="3.26115" ry="3.45593" transform="matrix(-1 0 0 1 1010.13 79.4862)" fill="#FEFEFE"/>
<ellipse rx="3.26115" ry="3.45593" transform="matrix(-1 0 0 1 1319.94 317.945)" fill="#FEFEFE"/>
<ellipse rx="3.26115" ry="3.45593" transform="matrix(-1 0 0 1 1217.76 228.092)" fill="#FEFEFE"/>
<ellipse rx="3.26115" ry="3.45593" transform="matrix(-1 0 0 1 1368.86 86.3973)" fill="#FEFEFE"/>
<ellipse rx="3.26115" ry="3.45593" transform="matrix(-1 0 0 1 638.359 221.18)" fill="#FEFEFE"/>
<ellipse rx="3.26115" ry="3.45593" transform="matrix(-1 0 0 1 860.117 55.2948)" fill="#FEFEFE"/>
<ellipse rx="3.26115" ry="3.45593" transform="matrix(-1 0 0 1 129.62 82.9423)" fill="#FEFEFE"/>
<ellipse rx="3.26115" ry="3.45593" transform="matrix(-1 0 0 1 150.274 304.121)" fill="#FEFEFE"/>
<ellipse rx="3.26115" ry="3.45593" transform="matrix(-1 0 0 1 29.6119 202.748)" fill="#FEFEFE"/>
<ellipse rx="3.26115" ry="3.45593" transform="matrix(-1 0 0 1 6.78378 141.693)" fill="#FEFEFE"/>
<ellipse rx="3.26115" ry="3.45593" transform="matrix(-1 0 0 1 430.733 217.724)" fill="#FEFEFE"/>
<ellipse rx="3.26115" ry="3.45593" transform="matrix(-1 0 0 1 430.733 217.724)" fill="#FEFEFE"/>
<ellipse rx="3.26115" ry="3.45593" transform="matrix(-1 0 0 1 288.33 23.0399)" fill="#FEFEFE"/>
<ellipse rx="3.26115" ry="3.45593" transform="matrix(-1 0 0 1 624.227 82.9423)" fill="#FEFEFE"/>
<ellipse rx="3.26115" ry="3.45593" transform="matrix(-1 0 0 1 1035.13 103.678)" fill="#FEFEFE"/>
<ellipse rx="3.26115" ry="3.45593" transform="matrix(-1 0 0 1 213.323 182.013)" fill="#FEFEFE"/>
<ellipse rx="3.26115" ry="3.45593" transform="matrix(-1 0 0 1 204.627 129.021)" fill="#FEFEFE"/>
<ellipse rx="3.26115" ry="3.45593" transform="matrix(-1 0 0 1 1095.74 210.456)" fill="#FEFEFE"/>
<ellipse rx="3.26115" ry="3.45593" transform="matrix(-1 0 0 1 1198.19 103.678)" fill="#FEFEFE"/>
<ellipse rx="3.26115" ry="3.45593" transform="matrix(-1 0 0 1 1309.07 3.45593)" fill="#FEFEFE"/>
<ellipse rx="3.26115" ry="3.45593" transform="matrix(-1 0 0 1 1189.49 43.7753)" fill="#FEFEFE"/>
<ellipse rx="6.52229" ry="6.91185" transform="matrix(-1 0 0 1 10.0441 33.407)" fill="#FEFEFE"/>
</svg>
