<svg width="1440" height="1001" viewBox="0 0 1440 1001" fill="none" xmlns="http://www.w3.org/2000/svg">
<path d="M1393.09 0C1326.24 0 1284 639.582 1284 741.087C1284 842.591 1326.26 894.843 1393.09 894.843C1459.92 894.843 1502.18 839.815 1502.18 738.31C1502.18 636.805 1459.94 0 1393.09 0Z" fill="#7384AE"/>
<path d="M1392.06 168.977H1392.07C1395.26 168.977 1397.84 172.764 1397.84 177.436V992.541C1397.84 997.213 1395.26 1001 1392.07 1001H1392.06C1388.88 1001 1386.29 997.213 1386.29 992.541V177.436C1386.29 172.764 1388.88 168.977 1392.06 168.977Z" fill="#32467A"/>
<path d="M1390.2 363.405L1390.98 362.013C1391.13 361.698 1391.21 361.319 1391.21 360.931C1391.21 360.543 1391.13 360.165 1390.98 359.849L1346.62 270.443C1346.56 270.303 1346.47 270.187 1346.37 270.107C1346.27 270.027 1346.16 269.985 1346.05 269.985C1345.93 269.985 1345.82 270.027 1345.72 270.107C1345.62 270.187 1345.54 270.303 1345.47 270.443L1344.7 271.836C1344.55 272.151 1344.46 272.53 1344.46 272.918C1344.46 273.306 1344.55 273.684 1344.7 274L1389.06 363.405C1389.12 363.549 1389.2 363.669 1389.3 363.751C1389.4 363.834 1389.52 363.877 1389.63 363.877C1389.75 363.877 1389.86 363.834 1389.96 363.751C1390.06 363.669 1390.14 363.549 1390.2 363.405Z" fill="#32467A"/>
<path d="M1389.43 431.352L1390.09 430.156C1390.26 429.809 1390.35 429.394 1390.35 428.968C1390.35 428.542 1390.26 428.127 1390.09 427.78L1336.36 319.413C1336.29 319.263 1336.19 319.141 1336.09 319.056C1335.98 318.971 1335.86 318.927 1335.73 318.927C1335.61 318.927 1335.49 318.971 1335.38 319.056C1335.27 319.141 1335.18 319.263 1335.11 319.413L1334.45 320.609C1334.28 320.955 1334.19 321.371 1334.19 321.797C1334.19 322.223 1334.28 322.638 1334.45 322.985L1388.17 431.352C1388.24 431.505 1388.33 431.63 1388.44 431.717C1388.55 431.804 1388.68 431.85 1388.8 431.85C1388.93 431.85 1389.05 431.804 1389.16 431.717C1389.27 431.63 1389.36 431.505 1389.43 431.352Z" fill="#32467A"/>
<path d="M1388.8 550.176L1389.46 548.996C1389.63 548.648 1389.71 548.233 1389.71 547.808C1389.71 547.383 1389.63 546.968 1389.46 546.62L1335.73 438.253C1335.66 438.096 1335.57 437.964 1335.47 437.87C1335.36 437.776 1335.24 437.723 1335.12 437.716C1334.99 437.708 1334.87 437.746 1334.76 437.827C1334.65 437.907 1334.55 438.028 1334.48 438.178L1333.82 439.372C1333.65 439.719 1333.56 440.135 1333.56 440.561C1333.56 440.987 1333.65 441.402 1333.82 441.749L1387.55 550.176C1387.62 550.326 1387.71 550.449 1387.82 550.534C1387.93 550.619 1388.05 550.662 1388.18 550.662C1388.3 550.662 1388.42 550.619 1388.53 550.534C1388.64 550.449 1388.73 550.326 1388.8 550.176Z" fill="#32467A"/>
<path d="M1391.71 276.843L1392.48 275.451C1392.64 275.134 1392.72 274.753 1392.72 274.362C1392.72 273.97 1392.64 273.589 1392.48 273.272L1348.13 183.866C1348.06 183.729 1347.98 183.616 1347.88 183.538C1347.78 183.46 1347.67 183.42 1347.56 183.42C1347.45 183.42 1347.34 183.46 1347.24 183.538C1347.14 183.616 1347.05 183.729 1346.99 183.866L1346.22 185.258C1346.06 185.577 1345.98 185.958 1345.98 186.348C1345.98 186.738 1346.06 187.118 1346.22 187.437L1390.57 276.843C1390.64 276.98 1390.72 277.093 1390.82 277.171C1390.92 277.249 1391.03 277.29 1391.14 277.29C1391.25 277.29 1391.36 277.249 1391.46 277.171C1391.56 277.093 1391.65 276.98 1391.71 276.843Z" fill="#32467A"/>
<path d="M1389.43 586.494L1390.09 585.314C1390.26 584.965 1390.35 584.547 1390.35 584.119C1390.35 583.691 1390.26 583.273 1390.09 582.923L1336.4 474.511C1336.33 474.361 1336.24 474.238 1336.13 474.153C1336.02 474.068 1335.9 474.024 1335.77 474.024C1335.65 474.024 1335.53 474.068 1335.42 474.153C1335.31 474.238 1335.22 474.361 1335.15 474.511L1334.49 475.706C1334.32 476.053 1334.23 476.468 1334.23 476.894C1334.23 477.32 1334.32 477.735 1334.49 478.082L1388.18 586.494C1388.25 586.644 1388.34 586.767 1388.45 586.852C1388.56 586.937 1388.68 586.981 1388.8 586.981C1388.93 586.981 1389.05 586.937 1389.16 586.852C1389.27 586.767 1389.36 586.644 1389.43 586.494Z" fill="#32467A"/>
<path d="M1389.84 230.039L1390.81 228.298C1390.94 228.031 1391 227.715 1391 227.39C1391 227.066 1390.94 226.749 1390.81 226.482L1361.56 167.464C1361.5 167.352 1361.43 167.26 1361.35 167.196C1361.27 167.133 1361.17 167.1 1361.08 167.1C1360.99 167.1 1360.9 167.133 1360.81 167.196C1360.73 167.26 1360.66 167.352 1360.61 167.464L1359.64 169.204C1359.51 169.47 1359.44 169.787 1359.44 170.112C1359.44 170.437 1359.51 170.754 1359.64 171.02L1388.89 230.039C1388.94 230.154 1389.01 230.249 1389.1 230.314C1389.18 230.38 1389.27 230.415 1389.37 230.415C1389.46 230.415 1389.55 230.38 1389.64 230.314C1389.72 230.249 1389.79 230.154 1389.84 230.039Z" fill="#32467A"/>
<path d="M1386.51 330.854L1385.9 329.749C1385.75 329.429 1385.66 329.046 1385.66 328.653C1385.66 328.26 1385.75 327.876 1385.9 327.556L1435.54 227.436C1435.6 227.295 1435.69 227.18 1435.79 227.1C1435.89 227.021 1436 226.979 1436.12 226.979C1436.23 226.979 1436.34 227.021 1436.45 227.1C1436.55 227.18 1436.63 227.295 1436.7 227.436L1437.3 228.541C1437.46 228.861 1437.54 229.245 1437.54 229.638C1437.54 230.031 1437.46 230.415 1437.3 230.735L1387.67 330.748C1387.61 330.895 1387.53 331.019 1387.43 331.108C1387.33 331.198 1387.22 331.25 1387.11 331.261C1386.99 331.271 1386.88 331.239 1386.77 331.168C1386.67 331.097 1386.58 330.989 1386.51 330.854Z" fill="#32467A"/>
<path d="M1395.47 435.271L1394.87 434.182C1394.71 433.861 1394.63 433.478 1394.63 433.085C1394.63 432.691 1394.71 432.308 1394.87 431.987L1444.5 331.853C1444.57 331.715 1444.65 331.603 1444.76 331.525C1444.86 331.448 1444.97 331.407 1445.08 331.407C1445.2 331.407 1445.31 331.448 1445.41 331.525C1445.51 331.603 1445.59 331.715 1445.66 331.853L1446.27 332.957C1446.42 333.278 1446.51 333.661 1446.51 334.055C1446.51 334.448 1446.42 334.832 1446.27 335.152L1396.63 435.165C1396.57 435.312 1396.49 435.436 1396.39 435.525C1396.3 435.615 1396.19 435.667 1396.07 435.677C1395.96 435.688 1395.84 435.656 1395.74 435.585C1395.63 435.514 1395.54 435.406 1395.47 435.271Z" fill="#32467A"/>
<path d="M1395.47 526.115L1394.87 525.01C1394.71 524.69 1394.63 524.306 1394.63 523.913C1394.63 523.52 1394.71 523.136 1394.87 522.816L1444.5 422.696C1444.57 422.555 1444.65 422.44 1444.75 422.36C1444.85 422.281 1444.97 422.239 1445.08 422.239C1445.2 422.239 1445.31 422.281 1445.41 422.36C1445.51 422.44 1445.6 422.555 1445.66 422.696L1446.27 423.786C1446.42 424.108 1446.51 424.495 1446.51 424.89C1446.51 425.286 1446.42 425.672 1446.27 425.995L1396.63 526.115C1396.57 526.255 1396.48 526.371 1396.38 526.45C1396.28 526.53 1396.17 526.572 1396.05 526.572C1395.94 526.572 1395.82 526.53 1395.72 526.45C1395.62 526.371 1395.54 526.255 1395.47 526.115Z" fill="#32467A"/>
<path d="M1392.78 293.203L1392.07 291.917C1391.93 291.625 1391.85 291.277 1391.85 290.919C1391.85 290.561 1391.93 290.212 1392.07 289.92L1433.02 207.309C1433.08 207.19 1433.16 207.094 1433.25 207.027C1433.34 206.96 1433.44 206.926 1433.54 206.926C1433.64 206.926 1433.74 206.96 1433.83 207.027C1433.92 207.094 1434 207.19 1434.05 207.309L1434.78 208.595C1434.92 208.89 1434.99 209.241 1434.99 209.601C1434.99 209.961 1434.92 210.313 1434.78 210.608L1393.82 293.203C1393.77 293.325 1393.69 293.425 1393.6 293.493C1393.51 293.562 1393.41 293.597 1393.3 293.597C1393.2 293.597 1393.1 293.562 1393.01 293.493C1392.92 293.425 1392.84 293.325 1392.78 293.203Z" fill="#32467A"/>
<path d="M1395.47 561.161L1394.87 560.056C1394.71 559.736 1394.63 559.353 1394.63 558.96C1394.63 558.566 1394.71 558.183 1394.87 557.862L1444.5 457.743C1444.57 457.602 1444.65 457.487 1444.75 457.407C1444.85 457.327 1444.97 457.285 1445.08 457.285C1445.2 457.285 1445.31 457.327 1445.41 457.407C1445.51 457.487 1445.6 457.602 1445.66 457.743L1446.27 458.832C1446.42 459.155 1446.51 459.541 1446.51 459.937C1446.51 460.333 1446.42 460.719 1446.27 461.042L1396.63 561.161C1396.57 561.301 1396.48 561.417 1396.38 561.497C1396.28 561.577 1396.17 561.618 1396.05 561.618C1395.94 561.618 1395.82 561.577 1395.72 561.497C1395.62 561.417 1395.54 561.301 1395.47 561.161Z" fill="#32467A"/>
<path d="M1395.47 634.497L1394.87 633.393C1394.71 633.072 1394.63 632.689 1394.63 632.295C1394.63 631.902 1394.71 631.519 1394.87 631.198L1444.5 531.078C1444.57 530.938 1444.65 530.823 1444.75 530.743C1444.85 530.663 1444.97 530.621 1445.08 530.621C1445.2 530.621 1445.31 530.663 1445.41 530.743C1445.51 530.823 1445.6 530.938 1445.66 531.078L1446.27 532.183C1446.42 532.504 1446.51 532.887 1446.51 533.28C1446.51 533.674 1446.42 534.057 1446.27 534.378L1396.63 634.497C1396.57 634.638 1396.48 634.753 1396.38 634.833C1396.28 634.913 1396.17 634.954 1396.05 634.954C1395.94 634.954 1395.82 634.913 1395.72 634.833C1395.62 634.753 1395.54 634.638 1395.47 634.497Z" fill="#32467A"/>
<path d="M1395.26 664.64L1394.66 663.566C1394.5 663.242 1394.41 662.852 1394.41 662.453C1394.41 662.054 1394.5 661.665 1394.66 661.341L1443.96 561.903C1444.02 561.762 1444.11 561.647 1444.21 561.567C1444.31 561.487 1444.42 561.445 1444.53 561.445C1444.65 561.445 1444.76 561.487 1444.86 561.567C1444.96 561.647 1445.05 561.762 1445.11 561.903L1445.72 562.993C1445.88 563.315 1445.96 563.701 1445.96 564.097C1445.96 564.493 1445.88 564.879 1445.72 565.202L1396.42 664.64C1396.36 664.781 1396.27 664.896 1396.17 664.975C1396.07 665.055 1395.96 665.096 1395.84 665.096C1395.72 665.096 1395.61 665.055 1395.51 664.975C1395.41 664.896 1395.32 664.781 1395.26 664.64Z" fill="#32467A"/>
<path d="M1391.42 392.869L1390.81 391.764C1390.66 391.443 1390.58 391.06 1390.58 390.668C1390.58 390.275 1390.66 389.891 1390.81 389.57L1440.45 289.451C1440.51 289.31 1440.6 289.195 1440.7 289.115C1440.8 289.035 1440.91 288.993 1441.03 288.993C1441.14 288.993 1441.25 289.035 1441.36 289.115C1441.46 289.195 1441.54 289.31 1441.61 289.451L1442.22 290.54C1442.38 290.865 1442.46 291.25 1442.46 291.645C1442.46 292.04 1442.38 292.425 1442.22 292.75L1392.58 392.793C1392.52 392.938 1392.44 393.059 1392.34 393.146C1392.24 393.232 1392.13 393.282 1392.01 393.289C1391.9 393.297 1391.78 393.262 1391.68 393.189C1391.58 393.115 1391.49 393.005 1391.42 392.869Z" fill="#32467A"/>
<path d="M1395.02 714.428L1395.68 713.232C1395.85 712.885 1395.94 712.47 1395.94 712.044C1395.94 711.618 1395.85 711.203 1395.68 710.856L1342.03 602.489C1341.96 602.336 1341.87 602.21 1341.76 602.123C1341.65 602.036 1341.53 601.99 1341.41 601.99C1341.28 601.99 1341.16 602.036 1341.05 602.123C1340.94 602.21 1340.85 602.336 1340.78 602.489L1340.12 603.685C1339.95 604.031 1339.86 604.447 1339.86 604.873C1339.86 605.299 1339.95 605.714 1340.12 606.061L1393.84 714.428C1393.92 714.557 1394 714.661 1394.11 714.733C1394.21 714.805 1394.32 714.842 1394.43 714.842C1394.55 714.842 1394.66 714.805 1394.76 714.733C1394.86 714.661 1394.95 714.557 1395.02 714.428Z" fill="#32467A"/>
<path d="M1395.02 785.887L1395.67 784.737C1395.84 784.387 1395.93 783.97 1395.93 783.541C1395.93 783.113 1395.84 782.696 1395.67 782.346L1342.03 673.949C1341.96 673.799 1341.87 673.676 1341.76 673.591C1341.65 673.506 1341.53 673.462 1341.41 673.462C1341.28 673.462 1341.16 673.506 1341.05 673.591C1340.94 673.676 1340.85 673.799 1340.78 673.949L1340.12 675.144C1339.95 675.491 1339.86 675.907 1339.86 676.333C1339.86 676.759 1339.95 677.173 1340.12 677.52L1393.84 785.887C1393.92 786.014 1394.01 786.116 1394.11 786.186C1394.21 786.256 1394.32 786.293 1394.43 786.293C1394.54 786.293 1394.66 786.256 1394.76 786.186C1394.86 786.116 1394.95 786.014 1395.02 785.887Z" fill="#32467A"/>
<path d="M1388.8 813.806L1389.46 812.61C1389.63 812.262 1389.71 811.847 1389.71 811.422C1389.71 810.997 1389.63 810.583 1389.46 810.235L1335.73 701.868C1335.66 701.718 1335.56 701.595 1335.46 701.51C1335.35 701.425 1335.23 701.381 1335.1 701.381C1334.98 701.381 1334.86 701.425 1334.75 701.51C1334.64 701.595 1334.55 701.718 1334.48 701.868L1333.82 703.048C1333.65 703.394 1333.56 703.81 1333.56 704.236C1333.56 704.662 1333.65 705.077 1333.82 705.423L1387.54 813.806C1387.61 813.959 1387.7 814.085 1387.81 814.171C1387.92 814.258 1388.05 814.304 1388.17 814.304C1388.3 814.304 1388.42 814.258 1388.53 814.171C1388.64 814.085 1388.73 813.959 1388.8 813.806Z" fill="#32467A"/>
<path d="M1389.43 903.136L1390.09 901.94C1390.26 901.594 1390.35 901.178 1390.35 900.752C1390.35 900.326 1390.26 899.911 1390.09 899.564L1336.36 791.197C1336.29 791.043 1336.2 790.914 1336.1 790.823C1335.99 790.731 1335.87 790.679 1335.75 790.672C1335.62 790.664 1335.5 790.701 1335.39 790.78C1335.28 790.858 1335.18 790.976 1335.11 791.122L1334.45 792.317C1334.28 792.663 1334.19 793.079 1334.19 793.505C1334.19 793.931 1334.28 794.346 1334.45 794.693L1388.17 903.06C1388.23 903.22 1388.32 903.355 1388.43 903.451C1388.54 903.547 1388.66 903.602 1388.79 903.609C1388.91 903.617 1389.04 903.577 1389.15 903.494C1389.26 903.411 1389.36 903.288 1389.43 903.136Z" fill="#32467A"/>
<path d="M1395.34 747.387L1394.68 746.191C1394.51 745.845 1394.42 745.43 1394.42 745.004C1394.42 744.578 1394.51 744.162 1394.68 743.816L1448.4 635.449C1448.47 635.295 1448.56 635.166 1448.66 635.075C1448.77 634.983 1448.89 634.931 1449.01 634.924C1449.14 634.916 1449.26 634.953 1449.37 635.032C1449.48 635.11 1449.58 635.227 1449.65 635.373L1450.32 636.569C1450.49 636.915 1450.58 637.331 1450.58 637.757C1450.58 638.183 1450.49 638.598 1450.32 638.945L1396.6 747.312C1396.54 747.472 1396.45 747.607 1396.34 747.703C1396.23 747.799 1396.11 747.853 1395.98 747.861C1395.86 747.868 1395.73 747.829 1395.62 747.746C1395.51 747.663 1395.41 747.54 1395.34 747.387Z" fill="#32467A"/>
<path d="M1395.34 793.06L1394.68 791.864C1394.51 791.518 1394.42 791.102 1394.42 790.676C1394.42 790.25 1394.51 789.835 1394.68 789.489L1448.4 681.121C1448.47 680.967 1448.56 680.839 1448.66 680.747C1448.77 680.656 1448.89 680.604 1449.01 680.597C1449.14 680.589 1449.26 680.626 1449.37 680.705C1449.48 680.783 1449.58 680.9 1449.65 681.046L1450.32 682.241C1450.49 682.588 1450.58 683.004 1450.58 683.43C1450.58 683.856 1450.49 684.27 1450.32 684.617L1396.6 792.985C1396.54 793.145 1396.45 793.279 1396.34 793.375C1396.23 793.472 1396.11 793.526 1395.98 793.534C1395.86 793.541 1395.73 793.502 1395.62 793.419C1395.51 793.336 1395.41 793.212 1395.34 793.06Z" fill="#32467A"/>
<path d="M1395.34 870.269L1394.68 869.073C1394.51 868.727 1394.42 868.311 1394.42 867.885C1394.42 867.459 1394.51 867.044 1394.68 866.698L1448.4 758.33C1448.47 758.176 1448.56 758.048 1448.66 757.956C1448.77 757.865 1448.89 757.813 1449.01 757.806C1449.14 757.798 1449.26 757.835 1449.37 757.914C1449.48 757.992 1449.58 758.109 1449.65 758.255L1450.32 759.45C1450.49 759.797 1450.58 760.213 1450.58 760.639C1450.58 761.065 1450.49 761.479 1450.32 761.826L1396.6 870.194C1396.54 870.354 1396.45 870.488 1396.34 870.584C1396.23 870.681 1396.11 870.735 1395.98 870.743C1395.86 870.75 1395.73 870.711 1395.62 870.628C1395.51 870.545 1395.41 870.421 1395.34 870.269Z" fill="#32467A"/>
<path d="M1396.9 889.563L1396.23 888.382C1396.06 888.033 1395.97 887.615 1395.97 887.187C1395.97 886.759 1396.06 886.341 1396.23 885.991L1449.95 777.624C1450.02 777.474 1450.11 777.352 1450.22 777.267C1450.33 777.182 1450.45 777.138 1450.57 777.138C1450.7 777.138 1450.82 777.182 1450.93 777.267C1451.04 777.352 1451.13 777.474 1451.2 777.624L1451.86 778.819C1452.03 779.166 1452.12 779.582 1452.12 780.008C1452.12 780.434 1452.03 780.849 1451.86 781.196L1398.14 889.563C1398.07 889.709 1397.97 889.829 1397.87 889.912C1397.76 889.995 1397.64 890.038 1397.52 890.038C1397.39 890.038 1397.28 889.995 1397.17 889.912C1397.06 889.829 1396.97 889.709 1396.9 889.563Z" fill="#32467A"/>
<path d="M1396.82 351.768L1397.59 350.376C1397.74 350.06 1397.83 349.681 1397.83 349.293C1397.83 348.905 1397.74 348.527 1397.59 348.211L1353.23 258.806C1353.17 258.665 1353.09 258.55 1352.99 258.47C1352.89 258.39 1352.77 258.348 1352.66 258.348C1352.55 258.348 1352.43 258.39 1352.33 258.47C1352.23 258.55 1352.15 258.665 1352.09 258.806L1351.31 260.198C1351.16 260.515 1351.08 260.893 1351.08 261.28C1351.08 261.667 1351.16 262.045 1351.31 262.362L1395.67 351.768C1395.73 351.908 1395.82 352.024 1395.92 352.104C1396.02 352.184 1396.13 352.226 1396.24 352.226C1396.36 352.226 1396.47 352.184 1396.57 352.104C1396.67 352.024 1396.75 351.908 1396.82 351.768Z" fill="#32467A"/>
<path d="M23.4117 387C-26.474 387 -57.9996 803.373 -57.9996 869.457C-57.9996 935.54 -26.5107 969.558 23.4117 969.558C73.334 969.558 104.832 933.727 104.832 867.652C104.832 801.578 73.3065 387 23.4117 387Z" fill="#151B3C"/>
<path d="M23.2864 497.158H23.2925C25.1875 497.158 26.7236 499.443 26.7236 502.261V993.949C26.7236 996.767 25.1875 999.052 23.2925 999.052H23.2864C21.3915 999.052 19.8553 996.767 19.8553 993.949V502.261C19.8553 499.443 21.3915 497.158 23.2864 497.158Z" fill="#45406A"/>
<path d="M22.1812 614.442L22.6416 613.602C22.7331 613.411 22.7822 613.183 22.7822 612.949C22.7822 612.715 22.7331 612.487 22.6416 612.296L-3.75154 558.365C-3.78824 558.28 -3.83866 558.211 -3.89818 558.162C-3.95769 558.114 -4.0244 558.089 -4.0922 558.089C-4.16 558.089 -4.22674 558.114 -4.28625 558.162C-4.34577 558.211 -4.39616 558.28 -4.43285 558.365L-4.89319 559.205C-4.98467 559.395 -5.03387 559.624 -5.03387 559.858C-5.03387 560.092 -4.98467 560.32 -4.89319 560.511L21.4999 614.442C21.5356 614.529 21.5856 614.6 21.6452 614.65C21.7049 614.7 21.7722 614.726 21.8406 614.726C21.909 614.726 21.9763 614.7 22.0359 614.65C22.0956 614.6 22.1456 614.529 22.1812 614.442Z" fill="#45406A"/>
<path d="M21.7213 655.427L22.1141 654.706C22.2146 654.497 22.2686 654.246 22.2686 653.989C22.2686 653.732 22.2146 653.482 22.1141 653.273L-9.85844 587.904C-9.89946 587.813 -9.95478 587.74 -10.0195 587.688C-10.0843 587.637 -10.1565 587.61 -10.2298 587.61C-10.3031 587.61 -10.3753 587.637 -10.4401 587.688C-10.5048 587.74 -10.5601 587.813 -10.6011 587.904L-10.9939 588.625C-11.0944 588.834 -11.1484 589.085 -11.1484 589.342C-11.1484 589.599 -11.0944 589.849 -10.9939 590.058L20.9724 655.427C21.0132 655.52 21.0688 655.595 21.1341 655.648C21.1995 655.7 21.2726 655.728 21.3469 655.728C21.4211 655.728 21.4942 655.7 21.5595 655.648C21.6249 655.595 21.6805 655.52 21.7213 655.427Z" fill="#45406A"/>
<path d="M21.3471 727.105L21.7399 726.394C21.8386 726.184 21.8916 725.933 21.8916 725.677C21.8916 725.421 21.8386 725.17 21.7399 724.96L-10.2326 659.591C-10.27 659.496 -10.3229 659.417 -10.3863 659.36C-10.4497 659.304 -10.5217 659.272 -10.5956 659.267C-10.6695 659.263 -10.743 659.285 -10.8094 659.334C-10.8757 659.383 -10.9328 659.456 -10.9753 659.546L-11.3682 660.266C-11.4686 660.476 -11.5226 660.726 -11.5226 660.983C-11.5226 661.24 -11.4686 661.491 -11.3682 661.7L20.6044 727.105C20.6454 727.196 20.7007 727.27 20.7655 727.321C20.8302 727.372 20.9024 727.399 20.9757 727.399C21.049 727.399 21.1212 727.372 21.186 727.321C21.2507 727.27 21.306 727.196 21.3471 727.105Z" fill="#45406A"/>
<path d="M23.0774 562.225L23.5378 561.385C23.6307 561.194 23.6807 560.964 23.6807 560.728C23.6807 560.492 23.6307 560.262 23.5378 560.071L-2.85535 506.139C-2.89231 506.056 -2.94244 505.988 -3.00135 505.941C-3.06025 505.894 -3.12608 505.87 -3.19293 505.87C-3.25978 505.87 -3.32558 505.894 -3.38448 505.941C-3.44338 505.988 -3.49356 506.056 -3.53051 506.139L-3.99086 506.979C-4.082 507.171 -4.13093 507.401 -4.13093 507.637C-4.13093 507.872 -4.082 508.101 -3.99086 508.294L22.4023 562.225C22.4392 562.308 22.4894 562.376 22.5483 562.423C22.6072 562.47 22.673 562.494 22.7399 562.494C22.8067 562.494 22.8725 562.47 22.9314 562.423C22.9903 562.376 23.0405 562.308 23.0774 562.225Z" fill="#45406A"/>
<path d="M21.7219 749.014L22.1147 748.302C22.2148 748.091 22.2686 747.839 22.2686 747.581C22.2686 747.323 22.2148 747.071 22.1147 746.86L-9.8333 681.463C-9.87433 681.373 -9.92961 681.299 -9.99435 681.247C-10.0591 681.196 -10.1313 681.17 -10.2046 681.17C-10.278 681.17 -10.3501 681.196 -10.4149 681.247C-10.4796 681.299 -10.5349 681.373 -10.576 681.463L-10.9688 682.184C-11.0693 682.393 -11.1233 682.644 -11.1233 682.901C-11.1233 683.158 -11.0693 683.408 -10.9688 683.617L20.9792 749.014C21.0202 749.104 21.0755 749.179 21.1402 749.23C21.205 749.281 21.2772 749.307 21.3505 749.307C21.4238 749.307 21.496 749.281 21.5608 749.23C21.6255 749.179 21.6808 749.104 21.7219 749.014Z" fill="#45406A"/>
<path d="M21.9666 533.992L22.5436 532.941C22.6188 532.781 22.6592 532.59 22.6592 532.394C22.6592 532.198 22.6188 532.007 22.5436 531.846L5.13639 496.245C5.10474 496.177 5.06252 496.122 5.01336 496.084C4.96419 496.046 4.90952 496.025 4.85403 496.025C4.79854 496.025 4.7439 496.046 4.69473 496.084C4.64557 496.122 4.60335 496.177 4.57171 496.245L3.99474 497.295C3.91949 497.456 3.87917 497.647 3.87917 497.843C3.87917 498.038 3.91949 498.23 3.99474 498.39L21.4019 533.992C21.4326 534.061 21.4745 534.118 21.5238 534.158C21.5731 534.197 21.6283 534.218 21.6843 534.218C21.7403 534.218 21.7954 534.197 21.8447 534.158C21.894 534.118 21.9359 534.061 21.9666 533.992Z" fill="#45406A"/>
<path d="M19.9842 594.806L19.622 594.14C19.5295 593.947 19.4798 593.716 19.4798 593.479C19.4798 593.241 19.5295 593.01 19.622 592.817L49.1578 532.422C49.1952 532.338 49.2462 532.268 49.3062 532.22C49.3662 532.172 49.4333 532.146 49.5015 532.146C49.5697 532.146 49.6368 532.172 49.6968 532.22C49.7568 532.268 49.8078 532.338 49.8452 532.422L50.2074 533.089C50.2999 533.282 50.3496 533.513 50.3496 533.751C50.3496 533.988 50.2999 534.219 50.2074 534.413L20.6716 594.743C20.6379 594.831 20.5899 594.906 20.5319 594.96C20.4739 595.014 20.4078 595.045 20.3395 595.051C20.2713 595.058 20.203 595.039 20.141 594.996C20.0789 594.953 20.025 594.888 19.9842 594.806Z" fill="#45406A"/>
<path d="M25.3181 657.791L24.956 657.134C24.8635 656.941 24.8138 656.71 24.8138 656.472C24.8138 656.235 24.8635 656.004 24.956 655.811L54.4918 595.407C54.5302 595.325 54.5815 595.257 54.6413 595.21C54.7012 595.163 54.7679 595.139 54.8355 595.139C54.9031 595.139 54.9698 595.163 55.0296 595.21C55.0895 595.257 55.1409 595.325 55.1792 595.407L55.5413 596.074C55.6339 596.267 55.6836 596.498 55.6836 596.736C55.6836 596.973 55.6339 597.204 55.5413 597.398L26.0056 657.728C25.9719 657.816 25.9238 657.891 25.8659 657.945C25.8079 657.999 25.7418 658.03 25.6735 658.037C25.6053 658.043 25.537 658.024 25.475 657.981C25.4129 657.938 25.359 657.873 25.3181 657.791Z" fill="#45406A"/>
<path d="M25.3183 712.591L24.9562 711.924C24.8637 711.731 24.814 711.499 24.814 711.262C24.814 711.025 24.8637 710.794 24.9562 710.6L54.492 650.206C54.5294 650.121 54.5804 650.052 54.6404 650.004C54.7004 649.956 54.7675 649.931 54.8357 649.931C54.9039 649.931 54.971 649.956 55.031 650.004C55.091 650.052 55.142 650.121 55.1794 650.206L55.5415 650.864C55.6346 651.058 55.6846 651.291 55.6846 651.53C55.6846 651.769 55.6346 652.002 55.5415 652.196L26.0058 712.591C25.9684 712.675 25.9174 712.745 25.8574 712.793C25.7974 712.841 25.7302 712.866 25.6621 712.866C25.5939 712.866 25.5268 712.841 25.4668 712.793C25.4068 712.745 25.3558 712.675 25.3183 712.591Z" fill="#45406A"/>
<path d="M23.7159 572.093L23.2923 571.317C23.2083 571.141 23.1631 570.931 23.1631 570.715C23.1631 570.499 23.2083 570.288 23.2923 570.112L47.66 520.28C47.6953 520.208 47.7415 520.15 47.7948 520.11C47.8481 520.07 47.9071 520.049 47.9669 520.049C48.0266 520.049 48.0856 520.07 48.1389 520.11C48.1922 520.15 48.2384 520.208 48.2738 520.28L48.7034 521.056C48.7871 521.234 48.832 521.446 48.832 521.663C48.832 521.88 48.7871 522.092 48.7034 522.27L24.3358 572.093C24.3006 572.167 24.2541 572.227 24.2002 572.268C24.1463 572.309 24.0865 572.331 24.0258 572.331C23.9652 572.331 23.9054 572.309 23.8514 572.268C23.7975 572.227 23.7511 572.167 23.7159 572.093Z" fill="#45406A"/>
<path d="M25.3183 733.731L24.9562 733.065C24.8637 732.872 24.814 732.641 24.814 732.403C24.814 732.166 24.8637 731.935 24.9562 731.741L54.492 671.347C54.5294 671.262 54.5804 671.193 54.6404 671.145C54.7004 671.097 54.7675 671.071 54.8357 671.071C54.9039 671.071 54.971 671.097 55.031 671.145C55.091 671.193 55.142 671.262 55.1794 671.347L55.5415 672.005C55.6346 672.199 55.6846 672.432 55.6846 672.671C55.6846 672.91 55.6346 673.143 55.5415 673.337L26.0058 733.731C25.9684 733.816 25.9174 733.886 25.8574 733.934C25.7974 733.982 25.7302 734.007 25.6621 734.007C25.5939 734.007 25.5268 733.982 25.4668 733.934C25.4068 733.886 25.3558 733.816 25.3183 733.731Z" fill="#45406A"/>
<path d="M25.3181 777.97L24.956 777.304C24.8635 777.11 24.8138 776.879 24.8138 776.642C24.8138 776.404 24.8635 776.173 24.956 775.98L54.4918 715.585C54.5292 715.501 54.5802 715.431 54.6402 715.383C54.7002 715.335 54.7673 715.31 54.8355 715.31C54.9037 715.31 54.9708 715.335 55.0308 715.383C55.0908 715.431 55.1418 715.501 55.1792 715.585L55.5413 716.252C55.6339 716.445 55.6836 716.677 55.6836 716.914C55.6836 717.151 55.6339 717.382 55.5413 717.576L26.0056 777.97C25.9682 778.055 25.9172 778.124 25.8572 778.172C25.7972 778.22 25.73 778.245 25.6619 778.245C25.5937 778.245 25.5266 778.22 25.4666 778.172C25.4066 778.124 25.3556 778.055 25.3181 777.97Z" fill="#45406A"/>
<path d="M25.1886 796.153L24.8326 795.505C24.7382 795.309 24.6874 795.074 24.6874 794.833C24.6874 794.593 24.7382 794.358 24.8326 794.162L54.1658 734.179C54.2032 734.094 54.2542 734.025 54.3142 733.977C54.3742 733.929 54.4413 733.903 54.5095 733.903C54.5777 733.903 54.6448 733.929 54.7048 733.977C54.7648 734.025 54.8158 734.094 54.8532 734.179L55.2154 734.837C55.3084 735.031 55.3584 735.264 55.3584 735.503C55.3584 735.742 55.3084 735.975 55.2154 736.169L25.8822 796.153C25.844 796.237 25.7924 796.307 25.7319 796.355C25.6715 796.403 25.6039 796.428 25.5354 796.428C25.4668 796.428 25.3993 796.403 25.3388 796.355C25.2784 796.307 25.2267 796.237 25.1886 796.153Z" fill="#45406A"/>
<path d="M22.9057 632.214L22.5436 631.547C22.4519 631.353 22.4028 631.123 22.4028 630.886C22.4028 630.649 22.4519 630.418 22.5436 630.224L52.0793 569.83C52.1168 569.745 52.1678 569.675 52.2278 569.627C52.2878 569.579 52.3549 569.554 52.4231 569.554C52.4912 569.554 52.5584 569.579 52.6184 569.627C52.6784 569.675 52.7294 569.745 52.7668 569.83L53.1351 570.487C53.2264 570.683 53.2754 570.915 53.2754 571.153C53.2754 571.392 53.2264 571.624 53.1351 571.82L23.5932 632.168C23.5584 632.255 23.5095 632.328 23.4509 632.381C23.3923 632.433 23.326 632.463 23.2577 632.467C23.1895 632.472 23.1217 632.451 23.0602 632.407C22.9988 632.362 22.9457 632.296 22.9057 632.214Z" fill="#45406A"/>
<path d="M25.0484 826.185L25.4412 825.464C25.5417 825.255 25.5957 825.004 25.5957 824.747C25.5957 824.49 25.5417 824.24 25.4412 824.031L-6.48222 758.661C-6.52227 758.569 -6.57724 758.493 -6.64211 758.441C-6.70698 758.388 -6.77967 758.36 -6.85355 758.36C-6.92743 758.36 -7.00012 758.388 -7.06499 758.441C-7.12986 758.493 -7.18487 758.569 -7.22492 758.661L-7.61772 759.382C-7.71819 759.591 -7.77222 759.842 -7.77222 760.099C-7.77222 760.356 -7.71819 760.607 -7.61772 760.816L24.3486 826.185C24.3906 826.263 24.4439 826.326 24.5044 826.369C24.565 826.412 24.6313 826.435 24.6985 826.435C24.7657 826.435 24.832 826.412 24.8926 826.369C24.9532 826.326 25.0064 826.263 25.0484 826.185Z" fill="#45406A"/>
<path d="M25.0473 869.291L25.434 868.597C25.5341 868.386 25.5879 868.134 25.5879 867.876C25.5879 867.618 25.5341 867.366 25.434 867.155L-6.48328 801.767C-6.52431 801.677 -6.57963 801.603 -6.64437 801.552C-6.70912 801.5 -6.7813 801.474 -6.85462 801.474C-6.92794 801.474 -7.00015 801.5 -7.0649 801.552C-7.12964 801.603 -7.18496 801.677 -7.22599 801.767L-7.61879 802.489C-7.71926 802.698 -7.77328 802.948 -7.77328 803.205C-7.77328 803.462 -7.71926 803.713 -7.61879 803.922L24.3476 869.291C24.3902 869.367 24.4436 869.429 24.5041 869.471C24.5646 869.513 24.6306 869.536 24.6974 869.536C24.7643 869.536 24.8303 869.513 24.8907 869.471C24.9512 869.429 25.0047 869.367 25.0473 869.291Z" fill="#45406A"/>
<path d="M21.3471 886.131L21.7399 885.41C21.8386 885.2 21.8916 884.95 21.8916 884.693C21.8916 884.437 21.8386 884.187 21.7399 883.977L-10.2326 818.608C-10.2736 818.518 -10.329 818.444 -10.3937 818.392C-10.4585 818.341 -10.5307 818.314 -10.604 818.314C-10.6773 818.314 -10.7495 818.341 -10.8142 818.392C-10.879 818.444 -10.9343 818.518 -10.9753 818.608L-11.3682 819.32C-11.4686 819.529 -11.5226 819.78 -11.5226 820.037C-11.5226 820.294 -11.4686 820.544 -11.3682 820.753L20.5982 886.131C20.639 886.224 20.6946 886.3 20.76 886.352C20.8253 886.404 20.8984 886.432 20.9726 886.432C21.0469 886.432 21.12 886.404 21.1853 886.352C21.2507 886.3 21.3063 886.224 21.3471 886.131Z" fill="#45406A"/>
<path d="M21.7213 940.018L22.1141 939.297C22.2146 939.088 22.2686 938.837 22.2686 938.58C22.2686 938.323 22.2146 938.072 22.1141 937.863L-9.85844 872.494C-9.89689 872.401 -9.95013 872.323 -10.0135 872.268C-10.0768 872.213 -10.1483 872.182 -10.2216 872.177C-10.295 872.173 -10.368 872.195 -10.4341 872.242C-10.5003 872.29 -10.5577 872.361 -10.6011 872.449L-10.9939 873.17C-11.0944 873.379 -11.1484 873.629 -11.1484 873.886C-11.1484 874.143 -11.0944 874.394 -10.9939 874.603L20.9724 939.972C21.0095 940.069 21.0626 940.15 21.1266 940.208C21.1906 940.266 21.2635 940.299 21.3383 940.304C21.4132 940.308 21.4876 940.284 21.5546 940.234C21.6216 940.184 21.679 940.11 21.7213 940.018Z" fill="#45406A"/>
<path d="M25.2387 846.066L24.8459 845.345C24.7454 845.136 24.6914 844.886 24.6914 844.629C24.6914 844.372 24.7454 844.121 24.8459 843.912L56.8123 778.543C56.8507 778.45 56.9039 778.372 56.9673 778.317C57.0306 778.262 57.1021 778.231 57.1754 778.226C57.2488 778.222 57.3218 778.244 57.3879 778.291C57.4541 778.339 57.5115 778.409 57.555 778.497L57.9539 779.218C58.0544 779.427 58.1084 779.678 58.1084 779.935C58.1084 780.192 58.0544 780.443 57.9539 780.652L25.9875 846.021C25.9505 846.118 25.8974 846.199 25.8334 846.257C25.7694 846.315 25.6965 846.347 25.6216 846.352C25.5467 846.357 25.4723 846.333 25.4053 846.283C25.3384 846.233 25.281 846.158 25.2387 846.066Z" fill="#45406A"/>
<path d="M25.2387 873.617L24.8459 872.896C24.7454 872.687 24.6914 872.436 24.6914 872.179C24.6914 871.922 24.7454 871.672 24.8459 871.463L56.8123 806.093C56.8507 806 56.9039 805.923 56.9673 805.868C57.0306 805.813 57.1021 805.781 57.1754 805.777C57.2488 805.772 57.3218 805.795 57.3879 805.842C57.4541 805.889 57.5115 805.96 57.555 806.048L57.9539 806.769C58.0544 806.978 58.1084 807.229 58.1084 807.486C58.1084 807.743 58.0544 807.993 57.9539 808.202L25.9875 873.572C25.9505 873.668 25.8974 873.749 25.8334 873.807C25.7694 873.865 25.6965 873.898 25.6216 873.903C25.5467 873.907 25.4723 873.884 25.4053 873.834C25.3384 873.784 25.281 873.709 25.2387 873.617Z" fill="#45406A"/>
<path d="M25.2387 920.19L24.8459 919.469C24.7454 919.26 24.6914 919.009 24.6914 918.752C24.6914 918.495 24.7454 918.245 24.8459 918.036L56.8123 852.667C56.8507 852.574 56.9039 852.496 56.9673 852.441C57.0306 852.386 57.1021 852.355 57.1754 852.35C57.2488 852.346 57.3218 852.368 57.3879 852.415C57.4541 852.463 57.5115 852.533 57.555 852.621L57.9539 853.342C58.0544 853.551 58.1084 853.802 58.1084 854.059C58.1084 854.316 58.0544 854.566 57.9539 854.775L25.9875 920.145C25.9505 920.242 25.8974 920.323 25.8334 920.381C25.7694 920.439 25.6965 920.471 25.6216 920.476C25.5467 920.481 25.4723 920.457 25.4053 920.407C25.3384 920.357 25.281 920.282 25.2387 920.19Z" fill="#45406A"/>
<path d="M26.1651 931.831L25.7661 931.119C25.6659 930.908 25.6122 930.656 25.6122 930.398C25.6122 930.139 25.6659 929.887 25.7661 929.676L57.7325 864.307C57.7735 864.217 57.8288 864.143 57.8936 864.092C57.9583 864.041 58.0305 864.014 58.1038 864.014C58.1771 864.014 58.2493 864.041 58.3141 864.092C58.3788 864.143 58.4341 864.217 58.4752 864.307L58.868 865.028C58.9684 865.237 59.0225 865.488 59.0225 865.745C59.0225 866.002 58.9684 866.253 58.868 866.462L26.9016 931.831C26.8604 931.919 26.8053 931.991 26.7412 932.041C26.6771 932.091 26.6057 932.117 26.5333 932.117C26.4609 932.117 26.3896 932.091 26.3255 932.041C26.2613 931.991 26.2063 931.919 26.1651 931.831Z" fill="#45406A"/>
<path d="M26.1158 607.421L26.5761 606.581C26.6676 606.391 26.7168 606.162 26.7168 605.928C26.7168 605.694 26.6676 605.466 26.5761 605.276L0.182991 551.345C0.146299 551.26 0.0958767 551.19 0.0363598 551.142C-0.0231571 551.094 -0.0898609 551.068 -0.157661 551.068C-0.22546 551.068 -0.292164 551.094 -0.351681 551.142C-0.411198 551.19 -0.46162 551.26 -0.498312 551.345L-0.958656 552.184C-1.04843 552.376 -1.09656 552.604 -1.09656 552.837C-1.09656 553.071 -1.04843 553.299 -0.958656 553.49L25.4345 607.421C25.4712 607.506 25.5216 607.576 25.5811 607.624C25.6406 607.672 25.7073 607.698 25.7751 607.698C25.8429 607.698 25.9096 607.672 25.9691 607.624C26.0287 607.576 26.0791 607.506 26.1158 607.421Z" fill="#45406A"/>
<path d="M1183.01 824.923C1183.66 897.887 1217.62 936.085 1272.57 936.085C1327.52 936.085 1361.63 897.838 1362.28 824.845C1362.84 760.144 1327.56 563 1272.64 563C1217.72 563 1182.3 746.252 1183.01 824.923Z" fill="#8A6F8E"/>
<path d="M1273.87 678.604H1275.01C1277.5 678.604 1279.52 680.284 1279.52 682.357V995.245C1279.52 997.318 1277.5 998.999 1275.01 998.999H1273.87C1271.38 998.999 1269.36 997.318 1269.36 995.245V682.357C1269.36 680.284 1271.38 678.604 1273.87 678.604Z" fill="#C0AAC3"/>
<path d="M1273.38 752.985L1272.69 753.523C1272.41 753.747 1271.96 753.736 1271.69 753.499L1232.65 719.069C1232.38 718.832 1232.39 718.458 1232.68 718.234L1233.36 717.696C1233.64 717.472 1234.09 717.483 1234.36 717.72L1273.4 752.15C1273.67 752.387 1273.66 752.761 1273.38 752.985Z" fill="#C0AAC3"/>
<path d="M1272.59 779.229L1272.01 779.686C1271.7 779.932 1271.21 779.92 1270.91 779.66L1223.6 737.934C1223.3 737.674 1223.32 737.263 1223.63 737.017L1224.21 736.559C1224.52 736.313 1225.02 736.325 1225.31 736.585L1272.63 778.311C1272.92 778.572 1272.91 778.982 1272.59 779.229Z" fill="#C0AAC3"/>
<path d="M1272.03 824.997L1271.45 825.455C1271.14 825.701 1270.64 825.689 1270.35 825.429L1223.03 783.703C1222.74 783.442 1222.75 783.032 1223.06 782.785L1223.65 782.328C1223.96 782.082 1224.45 782.094 1224.75 782.354L1272.06 824.08C1272.36 824.34 1272.34 824.751 1272.03 824.997Z" fill="#C0AAC3"/>
<path d="M1279.2 717.909L1278.52 718.447C1278.23 718.671 1277.78 718.66 1277.51 718.423L1238.47 683.993C1238.2 683.756 1238.22 683.382 1238.5 683.158L1239.19 682.62C1239.47 682.396 1239.92 682.407 1240.19 682.644L1279.23 717.074C1279.5 717.312 1279.49 717.685 1279.2 717.909Z" fill="#C0AAC3"/>
<path d="M1272.59 838.966L1272.01 839.424C1271.7 839.67 1271.2 839.658 1270.91 839.397L1223.6 797.672C1223.3 797.411 1223.31 797 1223.63 796.754L1224.21 796.297C1224.52 796.05 1225.02 796.062 1225.31 796.323L1272.62 838.048C1272.92 838.309 1272.91 838.72 1272.59 838.966Z" fill="#C0AAC3"/>
<path d="M1272.03 909.73L1271.45 910.187C1271.13 910.433 1270.64 910.421 1270.35 910.161L1223.03 868.435C1222.74 868.175 1222.75 867.764 1223.06 867.518L1223.65 867.06C1223.96 866.814 1224.45 866.826 1224.75 867.086L1272.06 908.812C1272.36 909.073 1272.34 909.483 1272.03 909.73Z" fill="#C0AAC3"/>
<path d="M1272.04 870.771L1271.46 871.228C1271.14 871.474 1270.65 871.463 1270.35 871.202L1223.04 829.477C1222.75 829.216 1222.76 828.805 1223.07 828.559L1223.65 828.101C1223.97 827.855 1224.46 827.867 1224.76 828.128L1272.07 869.853C1272.37 870.114 1272.35 870.524 1272.04 870.771Z" fill="#C0AAC3"/>
<path d="M1273.37 882.328L1272.69 882.866C1272.41 883.09 1271.96 883.079 1271.69 882.842L1232.65 848.412C1232.38 848.174 1232.39 847.801 1232.68 847.577L1233.36 847.039C1233.64 846.815 1234.09 846.826 1234.36 847.063L1273.4 881.493C1273.67 881.73 1273.66 882.104 1273.37 882.328Z" fill="#C0AAC3"/>
<path d="M1273.24 701.493L1272.38 702.168C1272.14 702.354 1271.77 702.345 1271.54 702.148L1245.78 679.425C1245.55 679.228 1245.57 678.917 1245.8 678.731L1246.66 678.056C1246.9 677.87 1247.27 677.879 1247.49 678.076L1273.26 700.799C1273.48 700.996 1273.47 701.307 1273.24 701.493Z" fill="#C0AAC3"/>
<path d="M1315.26 698.554L1315.8 698.979C1316.08 699.205 1316.1 699.583 1315.83 699.822L1272.11 738.376C1271.84 738.616 1271.38 738.627 1271.1 738.401L1270.56 737.975C1270.27 737.749 1270.25 737.371 1270.53 737.132L1314.24 698.578C1314.51 698.338 1314.97 698.328 1315.26 698.554Z" fill="#C0AAC3"/>
<path d="M1321.54 741.22L1322.08 741.645C1322.37 741.871 1322.38 742.249 1322.11 742.488L1278.39 781.042C1278.12 781.282 1277.67 781.293 1277.38 781.067L1276.84 780.641C1276.55 780.415 1276.54 780.037 1276.81 779.798L1320.53 741.244C1320.8 741.004 1321.25 740.993 1321.54 741.22Z" fill="#C0AAC3"/>
<path d="M1321.53 781.131L1322.07 781.556C1322.36 781.782 1322.37 782.16 1322.1 782.399L1278.39 820.954C1278.11 821.193 1277.66 821.204 1277.37 820.978L1276.83 820.552C1276.54 820.326 1276.53 819.949 1276.8 819.709L1320.52 781.155C1320.79 780.915 1321.25 780.905 1321.53 781.131Z" fill="#C0AAC3"/>
<path d="M1311.35 690.135L1311.97 690.625C1312.24 690.833 1312.25 691.181 1312 691.402L1275.93 723.205C1275.68 723.426 1275.27 723.435 1275 723.227L1274.38 722.737C1274.11 722.529 1274.1 722.181 1274.35 721.96L1310.41 690.157C1310.66 689.936 1311.08 689.926 1311.35 690.135Z" fill="#C0AAC3"/>
<path d="M1321.54 789.693L1322.08 790.119C1322.37 790.345 1322.38 790.722 1322.11 790.962L1278.39 829.516C1278.12 829.756 1277.67 829.766 1277.38 829.54L1276.84 829.115C1276.55 828.888 1276.54 828.511 1276.81 828.272L1320.53 789.717C1320.8 789.478 1321.25 789.467 1321.54 789.693Z" fill="#C0AAC3"/>
<path d="M1321.54 817.934L1322.08 818.36C1322.37 818.586 1322.38 818.964 1322.11 819.203L1278.39 857.757C1278.12 857.997 1277.67 858.008 1277.38 857.781L1276.84 857.356C1276.55 857.13 1276.54 856.752 1276.81 856.513L1320.53 817.959C1320.8 817.719 1321.25 817.708 1321.54 817.934Z" fill="#C0AAC3"/>
<path d="M1321.39 857.063L1321.93 857.48C1322.22 857.708 1322.23 858.09 1321.95 858.331L1278.54 896.622C1278.26 896.864 1277.8 896.875 1277.51 896.646L1276.98 896.229C1276.69 896 1276.68 895.619 1276.95 895.377L1320.37 857.087C1320.65 856.845 1321.1 856.834 1321.39 857.063Z" fill="#C0AAC3"/>
<path d="M1321.53 868.694L1322.07 869.12C1322.36 869.346 1322.37 869.723 1322.1 869.963L1278.38 908.517C1278.11 908.757 1277.66 908.767 1277.37 908.541L1276.83 908.116C1276.54 907.889 1276.53 907.512 1276.8 907.273L1320.52 868.718C1320.79 868.479 1321.24 868.468 1321.53 868.694Z" fill="#C0AAC3"/>
<path d="M1321.54 722.323L1322.09 722.749C1322.37 722.975 1322.39 723.352 1322.11 723.592L1278.4 762.146C1278.13 762.385 1277.67 762.396 1277.39 762.17L1276.84 761.745C1276.56 761.518 1276.54 761.141 1276.82 760.901L1320.53 722.347C1320.8 722.108 1321.26 722.097 1321.54 722.323Z" fill="#C0AAC3"/>
</svg>
