<svg width="79" height="114" viewBox="0 0 79 114" fill="none" xmlns="http://www.w3.org/2000/svg">
<path d="M3 21.5621C3 18.4724 5.02564 15.7481 7.98446 14.8585L54.3918 0.905373C56.3071 0.329506 58.3772 0.6004 60.0798 1.6497L74.6863 10.6514C76.7544 11.9259 78.0138 14.1814 78.0138 16.6106V97.7066C78.0138 101.208 75.4262 104.171 71.9564 104.643L14.3479 112.472C12.9655 112.66 11.5585 112.43 10.3074 111.813L6.90216 110.133C4.51274 108.953 3 106.52 3 103.855V21.5621Z" fill="#FEFEFE"/>
<path d="M8.5 27.9523C8.5 24.7485 10.8345 22.0225 14.0002 21.5297L40.4406 17.4137L40.446 17.4129L66.4558 13.6519C70.375 13.0852 73.886 16.125 73.886 20.085V98.1048C73.886 101.361 71.4773 104.114 68.2505 104.547L15.8645 111.577C11.9661 112.1 8.5 109.068 8.5 105.135V27.9523Z" stroke="#6C7BA0"/>
<path d="M8.36719 24.0894C8.36719 23.2213 7.9168 22.4153 7.17743 21.9603L2.50032 19.0821C2.43942 19.0446 2.37556 19.0121 2.30938 18.9851C1.44582 18.6318 0.499743 19.2669 0.499743 20.2V106.642C0.499743 107.57 1.01287 108.421 1.83285 108.853L4.54213 110.283L4.74914 110.387L4.52555 110.834L4.74916 110.387C6.41141 111.218 8.36719 110.009 8.36719 108.151V24.0894Z" stroke="#6C7BA0"/>
<path d="M20.8711 61.8679C20.8711 58.5146 23.4221 55.7116 26.7606 55.3967L43.1618 53.8493L43.165 53.849L55.9816 52.8037C59.7673 52.4949 63.01 55.4839 63.01 59.2822V91.3613C63.01 94.6683 60.527 97.4482 57.241 97.8201L28.1021 101.118C24.2473 101.554 20.8711 98.5385 20.8711 94.6591V61.8679Z" stroke="#6C7BA0"/>
<path d="M24.4668 41.1066C24.4668 37.7537 27.0171 34.9509 30.3551 34.6354L42.9665 33.4433L52.3865 32.6736C56.1725 32.3642 59.4159 35.3534 59.4159 39.152V63.6492C59.4159 66.9557 56.9337 69.7353 53.6482 70.1078L31.6991 72.5966C27.8439 73.0337 24.4668 70.0179 24.4668 66.138V41.1066Z" stroke="#6C7BA0"/>
<path d="M35.616 7.47004L35.616 7.47007L35.6218 7.46823L53.4503 1.75361C53.8628 1.62138 54.3123 1.67396 54.6832 1.8978L69.384 10.7705C70.5888 11.4976 70.2193 13.3341 68.827 13.5387L9.02302 22.3302C8.67985 22.3807 8.32981 22.3107 8.03247 22.132L4.10167 19.7709C2.98905 19.1025 3.19282 17.4324 4.43349 17.0512L35.616 7.47004Z" stroke="#6C7BA0"/>
<path d="M35.7297 11.0566L35.7304 11.0564L55.5098 5.25342C57.5769 4.64699 59.8048 4.95861 61.6261 6.1089L63.1224 7.05386C63.1225 7.05397 63.1227 7.05408 63.1229 7.0542C63.2455 7.13282 63.2143 7.32025 63.0726 7.35477L35.7008 14.0214L6.55397 20.343C6.33222 20.3911 6.11997 20.2297 6.1071 20.0031C6.09735 19.8316 6.20727 19.6759 6.37224 19.6278L35.7297 11.0566Z" stroke="#6C7BA0"/>
</svg>
