<svg viewBox="0 0 126 163" fill="none" xmlns="http://www.w3.org/2000/svg">
<g filter="url(#filter0_d_658_9140)">
<path d="M25 46.5621C25 43.4724 27.0256 40.7481 29.9845 39.8585L76.3918 25.9054C78.3071 25.3295 80.3772 25.6004 82.0798 26.6497L96.6863 35.6514C98.7544 36.9259 100.014 39.1814 100.014 41.6106V122.707C100.014 126.208 97.4262 129.171 93.9564 129.643L36.3479 137.472C34.9655 137.66 33.5585 137.43 32.3074 136.813L28.9022 135.133C26.5127 133.953 25 131.52 25 128.855V46.5621Z" fill="#FEFEFE"/>
</g>
<path d="M30.5 52.9523C30.5 49.7485 32.8345 47.0225 36.0002 46.5297L62.4406 42.4137L62.446 42.4129L88.4558 38.6519C92.375 38.0852 95.886 41.125 95.886 45.085V123.105C95.886 126.361 93.4773 129.114 90.2505 129.547L37.8645 136.577C33.9661 137.1 30.5 134.068 30.5 130.135V52.9523Z" stroke="#6C7BA0"/>
<path d="M30.3672 49.0894C30.3672 48.2213 29.9168 47.4153 29.1774 46.9603L24.5003 44.0821C24.4394 44.0446 24.3756 44.0121 24.3094 43.9851C23.4458 43.6318 22.4997 44.2669 22.4997 45.2V131.642C22.4997 132.57 23.0129 133.421 23.8328 133.853L26.5421 135.283L26.7491 135.387L26.5255 135.834L26.7492 135.387C28.4114 136.218 30.3672 135.009 30.3672 133.151V49.0894Z" stroke="#6C7BA0"/>
<path d="M42.8711 86.8679C42.8711 83.5146 45.4221 80.7116 48.7606 80.3967L65.1618 78.8493L65.165 78.849L77.9816 77.8037C81.7673 77.4949 85.01 80.4839 85.01 84.2822V116.361C85.01 119.668 82.527 122.448 79.241 122.82L50.1021 126.118C46.2473 126.554 42.8711 123.539 42.8711 119.659V86.8679Z" stroke="#6C7BA0"/>
<path d="M46.4658 66.1066C46.4658 62.7537 49.0161 59.9509 52.3541 59.6354L64.9655 58.4433L74.3855 57.6736C78.1715 57.3642 81.4149 60.3534 81.4149 64.152V88.6492C81.4149 91.9557 78.9327 94.7353 75.6473 95.1078L53.6982 97.5966C49.8429 98.0337 46.4658 95.0179 46.4658 91.138V66.1066Z" stroke="#6C7BA0"/>
<path d="M57.616 32.47L57.616 32.4701L57.6218 32.4682L75.4503 26.7536C75.8628 26.6214 76.3123 26.674 76.6832 26.8978L91.384 35.7705C92.5888 36.4976 92.2193 38.3341 90.827 38.5387L31.023 47.3302C30.6799 47.3807 30.3298 47.3107 30.0325 47.132L26.1017 44.7709C24.989 44.1025 25.1928 42.4324 26.4335 42.0512L57.616 32.47Z" stroke="#6C7BA0"/>
<path d="M57.7288 36.0566L57.7294 36.0564L77.5089 30.2534C79.5759 29.647 81.8039 29.9586 83.6252 31.1089L85.1214 32.0539C85.1216 32.054 85.1217 32.0541 85.1219 32.0542C85.2445 32.1328 85.2133 32.3203 85.0716 32.3548L57.6999 39.0214L28.553 45.343C28.3312 45.3911 28.119 45.2297 28.1061 45.0031C28.0964 44.8316 28.2063 44.6759 28.3713 44.6278L57.7288 36.0566Z" stroke="#6C7BA0"/>
<defs>
<filter id="filter0_d_658_9140" x="0" y="0.608887" width="125.014" height="161.927" filterUnits="userSpaceOnUse" color-interpolation-filters="sRGB">
<feFlood flood-opacity="0" result="BackgroundImageFix"/>
<feColorMatrix in="SourceAlpha" type="matrix" values="0 0 0 0 0 0 0 0 0 0 0 0 0 0 0 0 0 0 127 0" result="hardAlpha"/>
<feOffset/>
<feGaussianBlur stdDeviation="12.5"/>
<feComposite in2="hardAlpha" operator="out"/>
<feColorMatrix type="matrix" values="0 0 0 0 0.995833 0 0 0 0 0.995833 0 0 0 0 0.995833 0 0 0 1 0"/>
<feBlend mode="normal" in2="BackgroundImageFix" result="effect1_dropShadow_658_9140"/>
<feBlend mode="normal" in="SourceGraphic" in2="effect1_dropShadow_658_9140" result="shape"/>
</filter>
</defs>
</svg>
