<svg viewBox="0 0 99 104" fill="none" xmlns="http://www.w3.org/2000/svg">
<path d="M27.2706 12.455C27.2701 14.064 27.533 15.6575 28.0443 17.146C28.572 18.6821 29.3491 20.0782 30.3308 21.2535C31.2967 22.4115 32.4442 23.3306 33.7077 23.9581C34.9713 24.5855 36.326 24.909 37.6943 24.91H88.5763C91.3408 24.91 93.9921 23.5978 95.947 21.2621C97.9018 18.9263 99 15.7583 99 12.455C99 9.15176 97.9018 5.98376 95.947 3.648C93.9921 1.31223 91.3408 3.9378e-07 88.5763 0H37.6848C34.9219 0.00301305 32.273 1.31663 30.3203 3.65207C28.3675 5.9875 27.2706 9.15373 27.2706 12.455Z" fill="#FEFEFE"/>
<path d="M2.12923 29.5896C2.11434 32.8407 3.12031 35.9802 4.94843 38.3881C5.80381 39.5284 6.84889 40.443 8.01689 41.0732C9.18489 41.7035 10.4501 42.0356 11.7316 42.0484H58.6083C63.8884 42.0484 68.2107 36.4404 68.2107 29.5896C68.2126 27.9872 67.9708 26.3978 67.4972 24.8987C67.0224 23.381 66.3063 21.9875 65.3884 20.795C64.534 19.6542 63.4895 18.7393 62.322 18.109C61.1544 17.4787 59.8895 17.1467 58.6083 17.1346H11.7316C6.44841 17.146 2.12923 22.7691 2.12923 29.5896Z" fill="#FEFEFE"/>
<path d="M28.0349 17.146C27.5235 15.6575 27.2606 14.064 27.2611 12.455C27.2613 11.9637 27.2857 11.4727 27.334 10.9848C26.8985 12.7633 25.9921 14.3251 24.7508 15.436C23.5095 16.5468 22.0002 17.1468 20.4493 17.146H28.0349Z" fill="#FEFEFE"/>
<path d="M27.334 10.9848C27.4695 10.4466 27.5566 9.89305 27.5943 9.33294C27.4764 9.87601 27.3896 10.4277 27.334 10.9848Z" fill="#FEFEFE"/>
<path d="M67.4055 24.9096C67.9156 26.3945 68.1785 27.9841 68.1792 29.5893C68.179 30.0806 68.1547 30.5715 68.1063 31.0594C68.5418 29.2809 69.4482 27.7192 70.6895 26.6083C71.9308 25.4975 73.4401 24.8975 74.991 24.8983L67.4055 24.9096Z" fill="#FEFEFE"/>
<path d="M93.199 5.80455L93.268 5.89078L93.2763 5.89491C95.1339 8.2862 96.1425 11.2244 96.1425 14.2491C96.1425 17.3106 95.1092 20.2834 93.2082 22.6902C92.3721 23.7379 91.3137 24.589 90.1087 25.1824C88.9044 25.7755 87.5835 26.0966 86.2402 26.1228H72.4376H72.4255L72.4133 26.1234C70.7899 26.2023 69.2453 26.8452 68.0481 27.9408L68.0465 27.9423C66.7765 29.1146 65.6247 30.6289 65.3679 32.471L65.3659 32.4854L65.3647 32.5C64.8771 38.5689 60.9073 43.1446 56.336 43.1446H9.59533C8.3782 43.1294 7.18335 42.8182 6.11481 42.2382C4.97723 41.6129 3.98909 40.7501 3.21803 39.7091C1.41132 37.2677 0.457305 34.3047 0.501467 31.2729H0.50152V31.2656C0.50152 27.981 1.54251 24.9968 3.20155 22.8438C4.86053 20.6909 7.11491 19.3919 9.56053 19.3919H18.5726H18.5867L18.6009 19.3911C20.2075 19.3 21.7333 18.6582 22.9194 17.5741L22.9194 17.5741L22.9223 17.5714C24.2723 16.3176 25.2136 14.6889 25.6238 12.8959C26.2472 10.1716 26.8671 7.78379 28.4955 5.81644L28.4963 5.81551C29.3738 4.75005 30.4673 3.88068 31.7054 3.26425L31.7067 3.26357C32.8697 2.68017 34.1532 2.37425 35.4556 2.37012H86.2294C87.5725 2.39777 88.893 2.71954 90.097 3.31251C91.3026 3.9062 92.3617 4.75712 93.199 5.80455Z" stroke="#6C7BA0"/>
<path d="M62.3188 88.2011C62.3188 95.4605 58.6648 101.345 54.1574 101.345C49.6501 101.345 45.9961 95.4605 45.9961 88.2011C45.9961 80.9418 49.6501 66.7412 54.1574 66.7412C58.6648 66.7412 62.3188 80.9418 62.3188 88.2011Z" fill="#FEFEFE"/>
<path d="M59.2055 90.1601C59.2055 93.7117 58.3107 96.9032 56.8903 99.1907C55.4653 101.486 53.5616 102.804 51.5442 102.804C49.5267 102.804 47.623 101.486 46.198 99.1907C44.7776 96.9032 43.8828 93.7117 43.8828 90.1601C43.8828 86.5928 44.7847 81.2812 46.2478 76.8652C46.9795 74.6568 47.8416 72.7033 48.7817 71.3124C49.7426 69.8905 50.6855 69.2002 51.5442 69.2002C52.4028 69.2002 53.3457 69.8905 54.3067 71.3124C55.2467 72.7033 56.1088 74.6568 56.8405 76.8652C58.3036 81.2812 59.2055 86.5928 59.2055 90.1601Z" stroke="#6C7BA0"/>
<path d="M96.0365 61.9892C96.0365 67.9073 93.0224 72.7049 89.3044 72.7049C85.5863 72.7049 82.5723 67.9073 82.5723 61.9892C82.5723 56.0711 85.5863 44.4941 89.3044 44.4941C93.0224 44.4941 96.0365 56.0711 96.0365 61.9892Z" fill="#FEFEFE"/>
<path d="M94.1673 64.1555C94.1673 66.966 93.4341 69.487 92.275 71.2901C91.1124 73.0985 89.5664 74.1277 87.9352 74.1277C86.304 74.1277 84.758 73.0985 83.5955 71.2901C82.4364 69.487 81.7031 66.966 81.7031 64.1555C81.7031 61.3283 82.4442 57.1091 83.6479 53.6002C84.2497 51.8457 84.9569 50.2998 85.7245 49.2029C86.5109 48.079 87.2658 47.5581 87.9352 47.5581C88.6046 47.5581 89.3596 48.079 90.146 49.2029C90.9135 50.2998 91.6207 51.8457 92.2226 53.6002C93.4263 57.1091 94.1673 61.3283 94.1673 64.1555Z" stroke="#6C7BA0"/>
<path d="M24.3327 69.846C24.3327 75.0354 21.7096 79.2422 18.474 79.2422C15.2383 79.2422 12.6152 75.0354 12.6152 69.846C12.6152 64.6567 15.2383 54.5054 18.474 54.5054C21.7096 54.5054 24.3327 64.6567 24.3327 69.846Z" fill="#FEFEFE"/>
<path d="M21.2292 71.7987C21.2292 74.3148 20.5922 76.569 19.5889 78.1782C18.5811 79.7945 17.2531 80.6948 15.8704 80.6948C14.4878 80.6948 13.1598 79.7945 12.152 78.1782C11.1486 76.569 10.5117 74.3148 10.5117 71.7987C10.5117 69.2666 11.1557 65.4851 12.2021 62.3402C12.7254 60.7675 13.3393 59.3849 14.0037 58.406C14.6887 57.3966 15.3287 56.958 15.8704 56.958C16.4121 56.958 17.0521 57.3966 17.7372 58.406C18.4016 59.3849 19.0155 60.7675 19.5387 62.3402C20.5851 65.4851 21.2292 69.2666 21.2292 71.7987Z" stroke="#6C7BA0"/>
</svg>
