<?xml version="1.0" standalone="no"?>
<!DOCTYPE svg PUBLIC "-//W3C//DTD SVG 20010904//EN"
 "http://www.w3.org/TR/2001/REC-SVG-20010904/DTD/svg10.dtd">
<svg version="1.0" xmlns="http://www.w3.org/2000/svg"
 width="612.000000pt" height="578.000000pt" viewBox="0 0 612.000000 578.000000"
 preserveAspectRatio="xMidYMid meet">

<g transform="translate(0.000000,578.000000) scale(0.100000,-0.100000)"
fill="#000000" stroke="none">
<path d="M1895 4247 c-86 -22 -147 -58 -216 -126 -115 -115 -169 -273 -169
-498 0 -244 73 -600 166 -812 13 -29 24 -57 24 -62 0 -5 -47 -9 -105 -9 -63 0
-105 -4 -105 -10 0 -6 44 -10 113 -10 l112 0 44 -87 c221 -433 625 -803 1173
-1074 l128 -64 107 54 c437 217 774 481 1008 792 71 95 163 241 201 322 l18
37 143 0 c89 0 143 4 143 10 0 6 -52 10 -135 10 -74 0 -135 3 -135 6 0 4 18
51 39 105 99 245 153 516 155 769 1 192 -14 278 -70 390 -93 186 -262 281
-474 267 -330 -23 -694 -287 -926 -673 -26 -43 -54 -89 -61 -102 -14 -22 -16
-20 -77 81 -117 195 -270 369 -431 489 -90 68 -270 159 -360 183 -82 22 -247
28 -310 12z m320 -38 c302 -93 589 -345 781 -685 33 -57 61 -104 65 -104 3 0
15 21 28 48 36 73 147 239 218 324 170 204 406 368 608 422 142 38 302 28 407
-25 110 -56 206 -190 242 -340 59 -242 2 -664 -136 -1018 l-41 -104 -459 4
-460 4 -126 -308 c-69 -169 -128 -304 -132 -300 -4 4 -121 288 -260 631 -140
342 -257 622 -261 622 -3 0 -65 -143 -136 -317 l-129 -318 -350 0 -349 0 -42
106 c-51 126 -94 286 -125 459 -32 183 -32 442 0 555 59 202 181 328 353 365
69 14 225 4 304 -21z m736 -1504 c220 -540 279 -671 279 -615 0 6 57 150 126
319 l126 309 392 -4 c215 -3 415 -7 443 -10 l53 -5 -31 -60 c-153 -304 -428
-605 -759 -828 -132 -90 -317 -197 -438 -253 l-83 -39 -94 45 c-302 144 -591
345 -802 558 -125 126 -188 202 -273 328 -54 80 -150 249 -150 263 0 4 156 7
348 7 l347 0 124 305 c69 168 127 305 131 305 4 0 121 -281 261 -625z"/>
</g>
</svg>
