<svg width="114" height="109" viewBox="0 0 114 109" fill="none" xmlns="http://www.w3.org/2000/svg">
<path d="M16.4297 103.853C16.4297 101.65 18.0661 99.7901 20.2511 99.5096L55.8061 94.9451C59.6208 94.4554 63.4825 94.4554 67.2972 94.9451L102.852 99.5096C105.037 99.7901 106.674 101.65 106.674 103.853C106.674 106.271 104.713 108.232 102.295 108.232H20.8087C18.3902 108.232 16.4297 106.271 16.4297 103.853Z" fill="#FEFEFE"/>
<path d="M19.5742 46.6322C18.7396 44.8215 19.4694 42.6744 21.2345 41.7473L62.3283 20.1639L90.9545 2.32091C92.7856 1.1796 95.1992 1.80639 96.2436 3.69439C97.2756 5.55996 96.5551 7.90942 94.6547 8.87577L66.3216 23.2834L24.912 48.2715C22.9998 49.4254 20.5091 48.6605 19.5742 46.6322Z" fill="#FEFEFE"/>
<path d="M60.7576 104.066C55.732 104.066 51.7481 99.827 52.0602 94.8111L57.2994 10.5936C57.4017 8.9491 58.7653 7.66771 60.413 7.66771C62.0509 7.66771 63.4099 8.93439 63.5249 10.5682L69.4503 94.7402C69.8052 99.7814 65.8113 104.066 60.7576 104.066Z" fill="#FEFEFE"/>
<path d="M23.8455 83.3945C14.8152 83.3945 8.44415 74.54 11.3138 65.9778L18.3955 44.8477C19.0404 42.9232 20.843 41.6262 22.8727 41.6262C24.7615 41.6262 26.4686 42.7518 27.2128 44.4878L35.9932 64.9703C39.7319 73.6918 33.3345 83.3945 23.8455 83.3945Z" fill="#FEFEFE"/>
<path d="M93.9549 43.959C84.9245 43.959 78.5535 35.1044 81.4231 26.5422L88.5048 5.41215C89.1498 3.48769 90.9524 2.19067 92.9821 2.19067C94.8709 2.19067 96.5779 3.3162 97.3221 5.0522L106.103 25.5347C109.841 34.2562 103.444 43.959 93.9549 43.959Z" fill="#FEFEFE"/>
<path d="M11.4531 103.682C11.4531 101.731 12.9027 100.083 14.8382 99.8347L50.3932 95.2702C54.1657 94.7859 57.9845 94.7859 61.757 95.2702L97.312 99.8347C99.2475 100.083 100.697 101.731 100.697 103.682C100.697 105.824 98.9604 107.561 96.8181 107.561H15.3321C13.1898 107.561 11.4531 105.824 11.4531 103.682Z" stroke="#6C7BA0"/>
<path d="M57.0842 20.4356L57.1006 20.4271L57.1162 20.4173L85.7425 2.57433C87.3305 1.58451 89.4238 2.1281 90.3295 3.76552C91.2245 5.38348 90.5997 7.4211 88.9515 8.25919L60.6184 22.6668L60.6022 22.675L60.5867 22.6844L19.1771 47.6725C17.5201 48.6724 15.3619 48.0096 14.5517 46.252C13.8285 44.683 14.4609 42.8224 15.9904 42.0191L57.0842 20.4356Z" stroke="#6C7BA0"/>
<path d="M55.281 103.396C50.5438 103.396 46.7885 99.3993 47.0826 94.6712L52.3219 10.4538C52.4078 9.07282 53.5528 7.99681 54.9364 7.99681C56.3118 7.99681 57.453 9.06047 57.5496 10.4324L63.475 94.6044C63.8095 99.3564 60.0448 103.396 55.281 103.396Z" stroke="#6C7BA0"/>
<path d="M18.3689 82.7236C9.68023 82.7236 3.55023 74.2041 6.31128 65.9657L13.393 44.8357C13.9697 43.115 15.5814 41.9553 17.3961 41.9553C19.0849 41.9553 20.6113 42.9617 21.2766 44.5139L30.057 64.9964C33.6543 73.3879 27.499 82.7236 18.3689 82.7236Z" stroke="#6C7BA0"/>
<path d="M88.4783 43.2881C79.7896 43.2881 73.6596 34.7685 76.4207 26.5302L83.5023 5.40014C84.079 3.67945 85.6908 2.51977 87.5055 2.51977C89.1943 2.51977 90.7206 3.52613 91.386 5.07831L100.166 25.5609C103.764 33.9524 97.6084 43.2881 88.4783 43.2881Z" stroke="#6C7BA0"/>
</svg>
