<svg viewBox="0 0 148 158" fill="none" xmlns="http://www.w3.org/2000/svg">
<g filter="url(#filter0_d_658_10368)">
<path d="M31.4316 127.853C31.4316 125.65 33.0681 123.79 35.253 123.51L70.8081 118.945C74.6228 118.455 78.4845 118.455 82.2992 118.945L117.854 123.51C120.039 123.79 121.676 125.65 121.676 127.853C121.676 130.271 119.715 132.232 117.297 132.232H35.8106C33.3922 132.232 31.4316 130.271 31.4316 127.853Z" fill="#FEFEFE"/>
<path d="M34.5752 70.6322C33.7406 68.8215 34.4704 66.6744 36.2355 65.7473L77.3293 44.1639L105.956 26.3209C107.787 25.1796 110.2 25.8064 111.245 27.6944C112.277 29.56 111.556 31.9094 109.656 32.8758L81.3226 47.2834L39.913 72.2715C38.0008 73.4254 35.5101 72.6605 34.5752 70.6322Z" fill="#FEFEFE"/>
<path d="M75.7595 128.066C70.734 128.066 66.7501 123.827 67.0621 118.811L72.3014 34.5936C72.4037 32.9491 73.7673 31.6677 75.4149 31.6677C77.0528 31.6677 78.4118 32.9344 78.5268 34.5682L84.4523 118.74C84.8072 123.781 80.8132 128.066 75.7595 128.066Z" fill="#FEFEFE"/>
<path d="M38.8465 107.395C29.8161 107.395 23.4451 98.54 26.3147 89.9778L33.3964 68.8477C34.0414 66.9232 35.844 65.6262 37.8737 65.6262C39.7625 65.6262 41.4695 66.7518 42.2137 68.4878L50.9941 88.9703C54.7328 97.6918 48.3355 107.395 38.8465 107.395Z" fill="#FEFEFE"/>
<path d="M108.955 67.959C99.9245 67.959 93.5535 59.1044 96.4231 50.5422L103.505 29.4121C104.15 27.4877 105.952 26.1907 107.982 26.1907C109.871 26.1907 111.578 27.3162 112.322 29.0522L121.103 49.5347C124.841 58.2562 118.444 67.959 108.955 67.959Z" fill="#FEFEFE"/>
</g>
<path d="M26.4541 127.682C26.4541 125.731 27.9037 124.083 29.8392 123.835L65.3942 119.27C69.1666 118.786 72.9855 118.786 76.7579 119.27L112.313 123.835C114.248 124.083 115.698 125.731 115.698 127.682C115.698 129.824 113.961 131.561 111.819 131.561H30.3331C28.1908 131.561 26.4541 129.824 26.4541 127.682Z" stroke="#6C7BA0"/>
<path d="M72.0842 44.4356L72.1006 44.4271L72.1162 44.4173L100.742 26.5743C102.33 25.5845 104.424 26.1281 105.33 27.7655C106.225 29.3835 105.6 31.4211 103.952 32.2592L75.6184 46.6668L75.6022 46.675L75.5867 46.6844L34.1771 71.6725C32.5201 72.6724 30.3619 72.0096 29.5517 70.252C28.8285 68.683 29.4609 66.8224 30.9904 66.0191L72.0842 44.4356Z" stroke="#6C7BA0"/>
<path d="M70.282 127.396C65.5448 127.396 61.7895 123.399 62.0836 118.671L67.3229 34.4538C67.4088 33.0728 68.5538 31.9968 69.9374 31.9968C71.3128 31.9968 72.4539 33.0605 72.5505 34.4324L78.476 118.604C78.8105 123.356 75.0457 127.396 70.282 127.396Z" stroke="#6C7BA0"/>
<path d="M33.3689 106.724C24.6802 106.724 18.5502 98.2041 21.3113 89.9657L28.393 68.8357C28.9697 67.115 30.5814 65.9553 32.3961 65.9553C34.0849 65.9553 35.6113 66.9617 36.2766 68.5139L45.057 88.9964C48.6543 97.3879 42.499 106.724 33.3689 106.724Z" stroke="#6C7BA0"/>
<path d="M103.477 67.2881C94.7886 67.2881 88.6586 58.7685 91.4197 50.5302L98.5014 29.4001C99.0781 27.6795 100.69 26.5198 102.505 26.5198C104.193 26.5198 105.72 27.5261 106.385 29.0783L115.165 49.5609C118.763 57.9524 112.607 67.2881 103.477 67.2881Z" stroke="#6C7BA0"/>
<defs>
<filter id="filter0_d_658_10368" x="0.619141" y="0.75" width="146.566" height="156.482" filterUnits="userSpaceOnUse" color-interpolation-filters="sRGB">
<feFlood flood-opacity="0" result="BackgroundImageFix"/>
<feColorMatrix in="SourceAlpha" type="matrix" values="0 0 0 0 0 0 0 0 0 0 0 0 0 0 0 0 0 0 127 0" result="hardAlpha"/>
<feOffset/>
<feGaussianBlur stdDeviation="12.5"/>
<feComposite in2="hardAlpha" operator="out"/>
<feColorMatrix type="matrix" values="0 0 0 0 0.995833 0 0 0 0 0.995833 0 0 0 0 0.995833 0 0 0 1 0"/>
<feBlend mode="normal" in2="BackgroundImageFix" result="effect1_dropShadow_658_10368"/>
<feBlend mode="normal" in="SourceGraphic" in2="effect1_dropShadow_658_10368" result="shape"/>
</filter>
</defs>
</svg>
