<svg viewBox="0 0 1440 618" fill="none" xmlns="http://www.w3.org/2000/svg">
<path d="M1707.17 478.797C1707.17 478.797 1384.3 170.841 986.46 267.569C588.617 364.297 331.053 237.771 207.427 162.279C83.8 86.7866 -81.6682 93.3483 -81.6682 93.3483" stroke="#FEFEFE" stroke-width="2" stroke-miterlimit="10"/>
<path d="M-84.2739 104.318C-84.2739 104.318 87.3772 101.97 201.162 177.927C314.946 253.885 557.506 382.406 984.556 298.438C1411.61 214.471 1688.89 519.996 1688.89 519.996" stroke="#FEFEFE" stroke-width="2" stroke-miterlimit="10"/>
<path d="M-80.6677 117.519C-80.6677 117.519 92.8585 122.876 200.471 202.888C308.084 282.899 540.408 420.47 979.699 356.781C1418.99 293.093 1669.33 606.773 1669.33 606.773" stroke="#FEFEFE" stroke-width="2" stroke-miterlimit="10"/>
</svg>
