<svg enable-background="new 0 0 720 90.1" viewBox="0 0 720 90.1" xmlns="http://www.w3.org/2000/svg"><g fill="#022069"><path d="m16.3 87.5c-1.8 0-4.1.1-6.2.3-2.1.1-4.1.3-5.7.3-.7 0-2.4 0-2.4-1.3 0-1.1.9-2.2 4.9-2.8 2.8-.5 5.9-.9 5.9-8.5v-62c0-2.5-5.5-2.2-8.9-2.5-3-.3-3.9-.3-3.9-1.7 0-2.2 3.6-2.2 5.1-2.2h12c3.3 0 6.4-.3 9.7-.4s7.1-.4 11.3-.4c27.6 0 50 13.7 50 45.4 0 19.7-18.2 35.9-40.8 35.9h-31zm7.9-16.4c0 9.2 8.3 13.3 16.8 13.3 10.3 0 34.7-8.5 34.7-35.2 0-27-24.2-38.9-40.5-38.9-10.8 0-11 2.4-11 4.2z"/><path d="m99.3 71.4c0-8 .3-20.3.3-28 0-1.8-2.2-2.1-3.8-2.5-3.2-.8-4-1.1-4-2 0-1.2 1.4-1.2 3.3-1.2 1.8 0 3.7.3 5.7.3s3.8-.3 5.8-.3c1.7 0 2 .7 2 2.5 0 11.7-.3 23.4-.3 35.1 0 5.4 4 8.4 10.4 8.4 14.6 0 15.7-6.2 15.8-11.6 0-9.3.3-18.8.3-28.2 0-1.6-.7-1.6-6.8-3.2-1.1-.3-3.8-1.1-3.8-2.1 0-.8 1.4-1.1 2.8-1.1 2.2 0 4.5.3 6.7.3 2.6 0 5.1-.3 7.8-.3 1.4-.1 2.7 1 2.8 2.4v.4c0 13.3-.5 26.6-.5 39.9 0 2.8 2.2 3.2 3.4 3.2 5.1 0 6.8 0 6.8 1.3 0 1.1-.7 1.3-2.6 1.6-9.2 1.4-14.6 2.6-15.8 2.6s-1.1-.9-1.1-2.1v-3c0-1.1-.3-1.6-.9-1.6-2.1 0-7.8 7.8-18.4 7.8-12.5.1-15.9-7.4-15.9-18.6z"/><path d="m165.1 12.8c0-7-6.4-4.7-6.4-7.2 0-.9.9-1.2 2.8-1.8l8.9-3.4c.7-.2 1.5-.3 2.2-.3s1.4.4 1.4 2.4v54.1c0 1.4.3 2.1 1.2 2.1 1.3 0 21.4-11.8 21.4-14.2 0-3.4-5-3.4-5-5.4 0-.7 1.1-1.3 1.8-1.3 2.8 0 6.7.3 10.1.3s7.2-.3 9.9-.3c1.2 0 2.5.3 2.5 1.6s-4.6 2.4-6.4 3.2c-3.8 1.7-25.4 14.2-25.4 15.7.1.7.5 1.4 1.1 1.8l22.8 20.4c5.4 4.9 10.4 4.5 10.4 6.3 0 .7-1.3 1.3-3.4 1.3-2.8 0-6.2-.5-10.1-.5-3.4 0-6.6.5-9.7.5-2.8 0-3.9-.1-3.9-1.3s1.6-1.6 3.8-1.8c1.3-.1 2.5-.9 2.5-1.8 0-.7-.7-1.3-1.4-2.1l-19.9-18.8c-.3-.4-.7-.6-1.2-.8-.5 0-.9.1-.9.7v18.7c-.2 1.9 1 3.7 2.8 4.2 2.1.7 3.8.7 3.8 1.8 0 1.2-1.7 1.3-3 1.3-3.2 0-5.9-.5-8.8-.5-3.2 0-7.2.5-9.5.5-.8 0-3.2-.1-3.2-1.3s1.1-1.4 2.4-1.8c3.7-1.1 6.4-.7 6.4-6.2z"/><path d="m227.1 57.1c-.3 1.5-.4 3.1-.3 4.6 0 11.1 3 22 19.1 22 10.1 0 10.4-5.3 12.5-5.3.6-.1 1.1.4 1.2 1v.1c0 .9-5.5 10.5-19.2 10.5-14.5 0-22.8-10.3-22.8-26.7 0-12.3 7.6-27.8 24-27.8 10.7-.3 19.7 7.9 20.3 18.6 0 2.4-.4 3-2.6 3zm26.1-10.5c0-4.5-4.2-8-9.7-8-9.5 0-15.2 9.2-15.2 13.3 0 .9.3 1.2 11.5 1.2 11.5 0 13.4-1.7 13.4-6.5z"/><path d="m326.9 19.5h-1.3v-17h-5.9v-1.2h13.1v1.2h-5.9z"/><path d="m350.2 19.5h-1.2v-8.9h-10.6v8.9h-1.3v-18.2h1.3v8.1h10.6v-8.1h1.3v18.2z"/><path d="m371.9 10.4c0 2.9-.7 5.2-2.2 6.9-1.4 1.7-3.4 2.5-6 2.5-2.5 0-4.5-.8-6-2.5-1.4-1.7-2.2-4-2.2-6.9s.7-5.2 2.2-6.8c1.5-1.7 3.4-2.5 6-2.5 2.5 0 4.5.8 6 2.5 1.4 1.6 2.2 3.9 2.2 6.8zm-14.9 0c0 2.6.6 4.6 1.7 6 1.2 1.4 2.8 2.1 5 2.1s3.9-.7 5-2.1c1.2-1.4 1.7-3.4 1.7-6.1 0-2.6-.6-4.6-1.7-6-1.2-1.4-2.8-2.1-5-2.1s-3.8.7-5 2.1c-1.1 1.5-1.7 3.5-1.7 6.1z"/><path d="m385.2 19.5-6.8-16.8h-.1c.1 1 .1 2.1.1 3.2v13.6h-1.2v-18.2h2l6.5 16h.1l6.5-16h1.9v18.2h-1.3v-13.8c0-1 0-2 .1-3h-.1l-6.9 16.8z"/><path d="m409.5 13.1h-7.4l-2.5 6.4h-1.4l7.3-18.3h.8l7.2 18.3h-1.5zm-6.9-1.2h6.5l-2.5-6.6c-.2-.5-.5-1.2-.7-2.1-.2.8-.5 1.5-.7 2.2z"/><path d="m428.3 14.8c0 1.5-.6 2.7-1.7 3.6s-2.6 1.3-4.5 1.3c-2.2 0-3.9-.2-5.1-.7v-1.3c1.3.6 3 .8 5 .8 1.5 0 2.7-.3 3.6-1s1.3-1.6 1.3-2.7c0-.7-.1-1.3-.4-1.7s-.8-.9-1.4-1.2c-.7-.4-1.6-.8-2.9-1.2-1.9-.6-3.1-1.3-3.9-2.1-.7-.7-1.1-1.7-1.1-3 0-1.4.5-2.5 1.6-3.3 1.1-.9 2.4-1.3 4.1-1.3s3.3.3 4.8 1l-.5 1.1c-1.5-.6-3-.9-4.3-.9s-2.4.3-3.2.9-1.2 1.5-1.2 2.5c0 .7.1 1.2.4 1.7.2.4.6.8 1.2 1.2.6.3 1.5.8 2.9 1.2 1.4.5 2.5 1 3.2 1.4.7.5 1.2 1 1.6 1.6.3.6.5 1.3.5 2.1z"/><path d="m441.3 19.5v-18.2h1.3v17h8.7v1.2z"/><path d="m470 10.4c0 2.9-.7 5.2-2.2 6.9-1.4 1.7-3.4 2.5-6 2.5-2.5 0-4.5-.8-6-2.5-1.4-1.7-2.2-4-2.2-6.9s.7-5.2 2.2-6.8c1.5-1.7 3.4-2.5 6-2.5 2.5 0 4.5.8 6 2.5 1.5 1.6 2.2 3.9 2.2 6.8zm-14.9 0c0 2.6.6 4.6 1.7 6 1.2 1.4 2.8 2.1 5 2.1s3.9-.7 5-2.1c1.2-1.4 1.7-3.4 1.7-6.1 0-2.6-.6-4.6-1.7-6-1.2-1.4-2.8-2.1-5-2.1s-3.8.7-5 2.1c-1.1 1.5-1.7 3.5-1.7 6.1z"/><path d="m476.6 11.6v7.9h-1.3v-18.2h4.3c2.3 0 3.9.4 5 1.3 1.1.8 1.6 2.1 1.6 3.8 0 1.2-.3 2.2-1 3.1-.6.8-1.6 1.4-2.9 1.8l4.9 8.3h-1.5l-4.7-7.9h-4.4zm0-1.1h3.5c1.5 0 2.7-.3 3.6-1 .8-.7 1.3-1.7 1.3-3 0-1.4-.4-2.4-1.2-3s-2.2-.9-4.1-.9h-3v7.9z"/><path d="m505.6 10.2c0 3.1-.8 5.4-2.4 6.9-1.6 1.6-4 2.3-7.1 2.3h-4.4v-18.1h4.9c2.9 0 5.1.8 6.6 2.3 1.7 1.5 2.4 3.7 2.4 6.6zm-1.4.1c0-2.6-.7-4.6-2-5.9s-3.3-2-5.8-2h-3.3v16h3c5.4 0 8.1-2.7 8.1-8.1z"/><path d="m532.8 10.2c0 3.1-.8 5.4-2.4 6.9-1.6 1.6-4 2.3-7.1 2.3h-4.3v-18.1h4.9c2.9 0 5.1.8 6.6 2.3s2.3 3.7 2.3 6.6zm-1.4.1c0-2.6-.7-4.6-2-5.9s-3.3-2-5.8-2h-3.3v16h3c5.4 0 8.1-2.7 8.1-8.1z"/><path d="m548.1 19.5h-9.9v-18.2h9.9v1.2h-8.7v6.9h8.2v1.2h-8.2v7.8h8.7z"/><path d="m563.9 6.5c0 1.8-.6 3.1-1.8 4s-2.9 1.4-5.1 1.4h-2.8v7.5h-1.2v-18.1h4.5c4.3 0 6.4 1.7 6.4 5.2zm-9.6 4.4h2.5c2 0 3.5-.3 4.4-1s1.4-1.8 1.4-3.3c0-1.4-.4-2.4-1.3-3.1s-2.2-1-4-1h-3z"/><path d="m576.6 13.1h-7.4l-2.5 6.4h-1.4l7.3-18.3h.8l7.2 18.3h-1.4zm-7-1.2h6.5l-2.5-6.6c-.2-.5-.5-1.2-.7-2.1-.2.8-.5 1.5-.7 2.2z"/><path d="m585.9 11.6v7.9h-1.3v-18.2h4.3c2.3 0 3.9.4 5 1.3 1.1.8 1.6 2.1 1.6 3.8 0 1.2-.3 2.2-1 3.1-.6.8-1.6 1.4-2.9 1.8l4.9 8.3h-1.5l-4.7-7.9h-4.4zm0-1.1h3.5c1.5 0 2.7-.3 3.6-1 .8-.7 1.3-1.7 1.3-3 0-1.4-.4-2.4-1.2-3s-2.2-.9-4.1-.9h-3v7.9z"/><path d="m606 19.5h-1.3v-17h-5.9v-1.2h13.1v1.2h-5.9z"/><path d="m624.1 19.5-6.8-16.8h-.1c.1 1 .1 2.1.1 3.2v13.6h-1.2v-18.2h2l6.5 16h.1l6.5-16h1.9v18.2h-1.3v-13.8c0-1 0-2 .1-3h-.1l-6.8 16.8z"/><path d="m649.1 19.5h-9.9v-18.2h9.9v1.2h-8.7v6.9h8.2v1.2h-8.2v7.8h8.7z"/><path d="m667.3 19.5h-1.3l-10.8-16.2h-.1c.1 1.9.1 3.4.1 4.4v11.8h-1.2v-18.2h1.3l10.8 16.1h.1c-.1-1.5-.1-2.9-.1-4.3v-11.8h1.2z"/><path d="m678.7 19.5h-1.3v-17h-5.9v-1.2h13.1v1.2h-5.9z"/><path d="m702 5.7c1.5 0 2.7.5 3.5 1.4s1.2 2.1 1.2 3.7-.3 3.2-.9 4.6-1.4 2.5-2.4 3.3c-1 .7-2.2 1.1-3.6 1.1-1.5 0-2.7-.5-3.5-1.4s-1.2-2.2-1.2-3.9c0-1.6.3-3.1.9-4.5s1.4-2.5 2.5-3.2c1-.7 2.2-1.1 3.5-1.1zm-.1 1.1c-1 0-2 .3-2.8 1s-1.5 1.6-2 2.8-.7 2.5-.7 3.9c0 2.8 1.2 4.3 3.5 4.3 1.1 0 2-.3 2.8-1 .8-.6 1.5-1.6 2-2.8s.7-2.6.7-4.1c0-1.3-.3-2.3-.9-2.9-.6-.9-1.5-1.2-2.6-1.2z"/><path d="m706 25.6c-.4 0-.8-.1-1.3-.2v-1.1c.4.1.9.2 1.2.2.7 0 1.3-.2 1.7-.7.4-.4.7-1.2.9-2.3l3.1-14.5h-2.6l.2-.8 2.6-.2.4-2c.3-1.4.8-2.4 1.4-3 .7-.6 1.6-.9 2.8-.9.6 0 1.3.1 2.1.4l-.3 1c-.7-.2-1.3-.3-1.8-.3-.8 0-1.4.2-1.9.7-.5.4-.8 1.2-1.1 2.2l-.4 1.9h3.1l-.2 1h-3.1l-3.1 14.8c-.3 1.3-.7 2.3-1.3 2.9s-1.4.9-2.4.9z"/><path d="m290.6 0h1.2v90.1h-1.2z"/><path d="m330.8 55.7-5.7-16.6h-.1c.2 2.5.2 4.8.2 6.9v9.6h-2.9v-19.8h4.6l5.5 15.8h.1l5.7-15.8h4.6v19.8h-3.1v-9.8c0-1 0-2.3.1-3.9 0-1.6.1-2.5.1-2.9h-.1l-6 16.5h-3z"/><path d="m360.4 55.7h-11.2v-19.9h11.2v2.7h-8v5.5h7.5v2.7h-7.5v6.2h8z"/><path d="m374.2 38.3c-1.9 0-3.3.7-4.4 2s-1.6 3.1-1.6 5.5.5 4.3 1.5 5.5 2.5 1.9 4.5 1.9c.8 0 1.7-.1 2.4-.3.8-.2 1.6-.4 2.5-.6v2.8c-1.6.6-3.3.9-5.3.9-2.9 0-5.1-.9-6.7-2.6-1.6-1.8-2.3-4.3-2.3-7.5 0-2.1.4-3.9 1.1-5.4.8-1.5 1.8-2.7 3.3-3.6 1.4-.8 3.1-1.2 5-1.2 2 0 3.9.4 5.6 1.3l-1.2 2.7c-.7-.3-1.4-.6-2.1-.8-.7-.4-1.5-.6-2.3-.6z"/><path d="m400.3 55.7h-3.3v-8.9h-9.1v8.9h-3.2v-19.9h3.2v8.1h9.1v-8.1h3.3z"/><path d="m419.5 55.7-2-5.5h-7.6l-1.9 5.5h-3.4l7.4-19.9h3.5l7.4 19.9zm-2.8-8.3-1.9-5.4c-.1-.4-.3-.9-.6-1.7-.2-.8-.4-1.3-.5-1.7-.2 1.1-.6 2.3-1.1 3.6l-1.8 5.2z"/><path d="m443.8 55.7h-4l-9.7-15.8h-.1l.1.9c.1 1.7.2 3.2.2 4.6v10.3h-2.9v-19.9h3.9l9.7 15.7h.1c0-.2-.1-1-.1-2.3-.1-1.3-.1-2.3-.1-3.1v-10.3h3v19.9z"/><path d="m450.3 55.7v-19.9h3.2v19.8h-3.2z"/><path d="m468.5 38.3c-1.9 0-3.3.7-4.4 2s-1.6 3.1-1.6 5.5.5 4.3 1.5 5.5 2.5 1.9 4.5 1.9c.8 0 1.7-.1 2.4-.3.8-.2 1.6-.4 2.5-.6v2.8c-1.6.6-3.3.9-5.3.9-2.9 0-5.1-.9-6.7-2.6-1.6-1.8-2.3-4.3-2.3-7.5 0-2.1.4-3.9 1.1-5.4s1.8-2.7 3.3-3.6c1.4-.8 3.1-1.2 5-1.2 2 0 3.9.4 5.6 1.3l-1.2 2.7c-.7-.3-1.4-.6-2.1-.8-.7-.4-1.5-.6-2.3-.6z"/><path d="m492.1 55.7-2-5.5h-7.6l-1.9 5.5h-3.4l7.4-19.9h3.5l7.4 19.9zm-2.8-8.3-1.9-5.4c-.1-.4-.3-.9-.6-1.7-.2-.8-.4-1.3-.5-1.7-.2 1.1-.6 2.3-1.1 3.6l-1.8 5.2z"/><path d="m499.9 55.7v-19.9h3.2v17h8.4v2.8h-11.6z"/><path d="m536.1 55.7h-11.2v-19.9h11.2v2.7h-8v5.5h7.5v2.7h-7.5v6.2h8z"/><path d="m558.2 55.7h-4l-9.7-15.8h-.1l.1.9c.1 1.7.2 3.2.2 4.6v10.3h-2.9v-19.9h3.9l9.7 15.7h.1c0-.2-.1-1-.1-2.3-.1-1.3-.1-2.3-.1-3.1v-10.3h3v19.9z"/><path d="m572.8 44.9h7.3v10c-1.2.4-2.3.7-3.4.8-1.1.2-2.3.2-3.6.2-3 0-5.3-.9-6.9-2.7s-2.4-4.3-2.4-7.5.9-5.7 2.8-7.5c1.8-1.8 4.4-2.7 7.6-2.7 2.1 0 4 .4 5.9 1.2l-1.1 2.7c-1.6-.7-3.2-1.1-4.8-1.1-2.1 0-3.8.7-5 2s-1.8 3.1-1.8 5.5.6 4.3 1.7 5.5c1.1 1.3 2.7 1.9 4.8 1.9 1 0 2.2-.1 3.4-.4v-5.1h-4.1v-2.8z"/><path d="m586.3 55.7v-19.9h3.2v19.8h-3.2z"/><path d="m612.5 55.7h-4l-9.7-15.8h-.1l.1.9c.1 1.7.2 3.2.2 4.6v10.3h-3v-19.9h3.9l9.7 15.7h.1c0-.2-.1-1-.1-2.3s-.1-2.3-.1-3.1v-10.3h3z"/><path d="m630.2 55.7h-11.2v-19.9h11.2v2.7h-8v5.5h7.5v2.7h-7.5v6.2h8z"/><path d="m647 55.7h-11.2v-19.9h11.2v2.7h-8v5.5h7.5v2.7h-7.5v6.2h8z"/><path d="m655.7 47.7v7.9h-3.2v-19.8h5.6c2.6 0 4.5.5 5.7 1.4 1.2 1 1.8 2.4 1.8 4.3 0 2.5-1.3 4.2-3.9 5.3l5.6 8.8h-3.7l-4.7-7.9zm0-2.6h2.3c1.5 0 2.6-.3 3.3-.8.7-.6 1-1.4 1-2.5s-.4-1.9-1.1-2.4-1.8-.7-3.3-.7h-2.1v6.4z"/><path d="m671.8 55.7v-19.9h3.2v19.8h-3.2z"/><path d="m698.1 55.7h-4l-9.7-15.8h-.1l.1.9c.1 1.7.2 3.2.2 4.6v10.3h-2.9v-19.9h3.9l9.7 15.7h.1c0-.2-.1-1-.1-2.3-.1-1.3-.1-2.3-.1-3.1v-10.3h3v19.9z"/><path d="m712.7 44.9h7.3v10c-1.2.4-2.3.7-3.4.8-1.1.2-2.3.2-3.6.2-3 0-5.3-.9-6.9-2.7s-2.4-4.3-2.4-7.5.9-5.7 2.8-7.5c1.8-1.8 4.4-2.7 7.6-2.7 2.1 0 4 .4 5.9 1.2l-1.1 2.7c-1.6-.7-3.2-1.1-4.8-1.1-2.1 0-3.8.7-5 2s-1.8 3.1-1.8 5.5.6 4.3 1.7 5.5c1.1 1.3 2.7 1.9 4.8 1.9 1 0 2.2-.1 3.4-.4v-5.1h-4.1v-2.8z"/><path d="m321.2 84.7c0-1.2.3-2.2.9-3.1s1.8-1.8 3.4-2.7c-.8-.9-1.3-1.5-1.6-2-.3-.4-.5-.9-.7-1.4s-.2-1-.2-1.5c0-1.4.4-2.4 1.3-3.2s2.1-1.1 3.7-1.1c1.5 0 2.6.4 3.5 1.1.8.8 1.3 1.8 1.3 3.2 0 1-.3 1.9-.9 2.7s-1.6 1.6-3 2.5l5.5 5.3c.5-.6.9-1.2 1.2-2s.6-1.6.8-2.5h2.3c-.6 2.6-1.5 4.5-2.8 5.9l4.1 3.9h-3.1l-2.5-2.4c-1.1 1-2.2 1.6-3.3 2.1-1.1.4-2.3.6-3.7.6-1.9 0-3.5-.5-4.5-1.4-1.2-1-1.7-2.3-1.7-4zm6.2 3.4c2.2 0 4-.7 5.4-2.1l-5.9-5.7c-1 .6-1.7 1.1-2.1 1.5s-.7.8-.9 1.3-.3 1-.3 1.6c0 1.1.4 1.9 1.1 2.5.6.6 1.5.9 2.7.9zm-2.1-14.1c0 .6.2 1.2.5 1.8s.9 1.2 1.7 2c1.2-.7 2-1.3 2.4-1.9.5-.6.7-1.2.7-2 0-.7-.2-1.3-.7-1.7s-1.1-.7-1.9-.7-1.5.2-2 .7c-.5.4-.7 1-.7 1.8z"/><path d="m361.1 89.8-5.7-16.6h-.1c.2 2.5.2 4.8.2 6.9v9.6h-2.9v-19.7h4.6l5.5 15.8h.1l5.7-15.8h4.6v19.8h-3.1v-9.8c0-1 0-2.3.1-3.9s.1-2.5.1-2.9h-.1l-6 16.5h-3z"/><path d="m392.2 89.8-2-5.5h-7.6l-1.9 5.5h-3.4l7.4-19.9h3.5l7.4 19.9zm-2.9-8.3-1.9-5.4c-.1-.4-.3-.9-.6-1.7-.2-.8-.4-1.3-.5-1.7-.2 1.1-.6 2.3-1.1 3.6l-1.8 5.2z"/><path d="m405 89.8h-3.2v-17h-5.8v-2.8h14.9v2.8h-5.9z"/><path d="m426.5 89.8h-11.2v-19.8h11.2v2.7h-8v5.4h7.5v2.7h-7.5v6.2h8z"/><path d="m435.3 81.9v7.9h-3.2v-19.8h5.6c2.6 0 4.5.5 5.7 1.4 1.2 1 1.8 2.4 1.8 4.3 0 2.5-1.3 4.2-3.9 5.3l5.6 8.8h-3.7l-4.7-7.9zm0-2.7h2.3c1.5 0 2.6-.3 3.3-.8.7-.6 1-1.4 1-2.5s-.4-1.9-1.1-2.4-1.8-.7-3.3-.7h-2.1v6.4z"/><path d="m451.4 89.8v-19.8h3.2v19.8z"/><path d="m473.9 89.8-2-5.5h-7.6l-1.9 5.5h-3.4l7.4-19.9h3.5l7.4 19.9zm-2.9-8.3-1.9-5.4c-.1-.4-.3-.9-.6-1.7-.2-.8-.4-1.3-.5-1.7-.2 1.1-.6 2.3-1.1 3.6l-1.8 5.2z"/><path d="m481.6 89.8v-19.8h3.2v17h8.4v2.8z"/><path d="m510.1 84.5c0 1.8-.6 3.1-1.9 4.1s-3 1.5-5.3 1.5-4.1-.3-5.5-1v-3.1c.9.4 1.9.8 2.9 1s2 .4 2.8.4c1.3 0 2.2-.2 2.8-.7s.9-1.1.9-2c0-.7-.3-1.4-.8-1.9-.6-.5-1.7-1.1-3.5-1.8s-3.1-1.6-3.8-2.5-1.1-2.1-1.1-3.4c0-1.7.6-3 1.8-3.9s2.8-1.4 4.7-1.4 3.8.4 5.7 1.2l-1 2.6c-1.8-.7-3.3-1.1-4.7-1.1-1 0-1.8.2-2.4.7-.5.5-.8 1.1-.8 1.8 0 .5.1 1 .3 1.3.2.4.6.7 1.1 1s1.4.8 2.7 1.3c1.5.6 2.5 1.2 3.2 1.7s1.2 1.1 1.5 1.8c.2.7.4 1.5.4 2.4z"/><path d="m535.3 84.5c0 1.8-.6 3.1-1.9 4.1s-3 1.5-5.3 1.5-4.1-.3-5.5-1v-3.1c.9.4 1.9.8 2.9 1s2 .4 2.8.4c1.3 0 2.2-.2 2.8-.7s.9-1.1.9-2c0-.7-.3-1.4-.8-1.9-.6-.5-1.7-1.1-3.5-1.8s-3.1-1.6-3.8-2.5-1.1-2.1-1.1-3.4c0-1.7.6-3 1.8-3.9s2.8-1.4 4.7-1.4 3.8.4 5.7 1.2l-1 2.6c-1.8-.7-3.3-1.1-4.7-1.1-1 0-1.8.2-2.4.7-.5.5-.8 1.1-.8 1.8 0 .5.1 1 .3 1.3.2.4.6.7 1.1 1s1.4.8 2.7 1.3c1.5.6 2.5 1.2 3.2 1.7s1.2 1.1 1.5 1.8.4 1.5.4 2.4z"/><path d="m549 72.5c-1.9 0-3.3.7-4.4 2s-1.6 3.1-1.6 5.5.5 4.3 1.5 5.5 2.5 1.9 4.5 1.9c.8 0 1.7-.1 2.4-.3.8-.2 1.6-.4 2.5-.6v2.8c-1.6.6-3.3.9-5.3.9-2.9 0-5.1-.9-6.7-2.6-1.6-1.8-2.3-4.3-2.3-7.5 0-2.1.4-3.9 1.1-5.4.8-1.5 1.8-2.7 3.3-3.6 1.4-.8 3.1-1.2 5-1.2 2 0 3.9.4 5.6 1.3l-1.2 2.7c-.7-.3-1.4-.6-2.1-.8-.7-.5-1.4-.6-2.3-.6z"/><path d="m559.5 89.8v-19.8h3.2v19.8z"/><path d="m580.4 89.8h-11.2v-19.8h11.2v2.7h-8v5.4h7.5v2.7h-7.5v6.2h8z"/><path d="m602.4 89.8h-4l-9.7-15.8h-.1l.1.9c.1 1.7.2 3.2.2 4.6v10.3h-2.9v-19.8h3.9l9.7 15.7h.1c0-.2-.1-1-.1-2.3-.1-1.3-.1-2.3-.1-3.1v-10.3h3v19.8z"/><path d="m617.5 72.5c-1.9 0-3.3.7-4.4 2s-1.6 3.1-1.6 5.5.5 4.3 1.5 5.5 2.5 1.9 4.5 1.9c.8 0 1.7-.1 2.4-.3.8-.2 1.6-.4 2.5-.6v2.8c-1.6.6-3.3.9-5.3.9-2.9 0-5.1-.9-6.7-2.6-1.6-1.8-2.3-4.3-2.3-7.5 0-2.1.4-3.9 1.1-5.4s1.8-2.7 3.3-3.6c1.4-.8 3.1-1.2 5-1.2 2 0 3.9.4 5.6 1.3l-1.2 2.7c-.7-.3-1.4-.6-2.1-.8-.7-.5-1.5-.6-2.3-.6z"/><path d="m639.1 89.8h-11.2v-19.8h11.2v2.7h-8v5.4h7.5v2.7h-7.5v6.2h8z"/></g></svg>