<svg width="48" height="49" viewBox="0 0 48 49" fill="none" xmlns="http://www.w3.org/2000/svg">
<g clip-path="url(#clip0_1064_11)">
<path d="M48 24.8438C48 11.5889 37.2548 0.84375 24 0.84375C10.7452 0.84375 0 11.5889 0 24.8438C0 36.8227 8.77641 46.7517 20.25 48.5522V31.7812H14.1562V24.8438H20.25V19.5563C20.25 13.5413 23.8331 10.2188 29.3152 10.2188C31.9402 10.2188 34.6875 10.6875 34.6875 10.6875V16.5938H31.6613C28.68 16.5938 27.75 18.4439 27.75 20.3438V24.8438H34.4062L33.3422 31.7812H27.75V48.5522C39.2236 46.7517 48 36.8227 48 24.8438Z" fill="white"/>
</g>
<defs>
<clipPath id="clip0_1064_11">
<rect width="48" height="48" fill="white" transform="translate(0 0.84375)"/>
</clipPath>
</defs>
</svg>
