<svg width="48" height="49" viewBox="0 0 48 49" fill="none" xmlns="http://www.w3.org/2000/svg">
<g clip-path="url(#clip0_1064_15)">
<path d="M24 5.16562C30.4125 5.16562 31.1719 5.19375 33.6938 5.30625C36.0375 5.40937 37.3031 5.80313 38.1469 6.13125C39.2625 6.5625 40.0688 7.0875 40.9031 7.92188C41.7469 8.76562 42.2625 9.5625 42.6938 10.6781C43.0219 11.5219 43.4156 12.7969 43.5188 15.1312C43.6313 17.6625 43.6594 18.4219 43.6594 24.825C43.6594 31.2375 43.6313 31.9969 43.5188 34.5188C43.4156 36.8625 43.0219 38.1281 42.6938 38.9719C42.2625 40.0875 41.7375 40.8938 40.9031 41.7281C40.0594 42.5719 39.2625 43.0875 38.1469 43.5188C37.3031 43.8469 36.0281 44.2406 33.6938 44.3438C31.1625 44.4562 30.4031 44.4844 24 44.4844C17.5875 44.4844 16.8281 44.4562 14.3063 44.3438C11.9625 44.2406 10.6969 43.8469 9.85313 43.5188C8.7375 43.0875 7.93125 42.5625 7.09688 41.7281C6.25313 40.8844 5.7375 40.0875 5.30625 38.9719C4.97813 38.1281 4.58438 36.8531 4.48125 34.5188C4.36875 31.9875 4.34063 31.2281 4.34063 24.825C4.34063 18.4125 4.36875 17.6531 4.48125 15.1312C4.58438 12.7875 4.97813 11.5219 5.30625 10.6781C5.7375 9.5625 6.2625 8.75625 7.09688 7.92188C7.94063 7.07812 8.7375 6.5625 9.85313 6.13125C10.6969 5.80313 11.9719 5.40937 14.3063 5.30625C16.8281 5.19375 17.5875 5.16562 24 5.16562ZM24 0.84375C17.4844 0.84375 16.6688 0.871875 14.1094 0.984375C11.5594 1.09688 9.80625 1.50937 8.2875 2.1C6.70312 2.71875 5.3625 3.53437 4.03125 4.875C2.69063 6.20625 1.875 7.54688 1.25625 9.12188C0.665625 10.65 0.253125 12.3937 0.140625 14.9437C0.028125 17.5125 0 18.3281 0 24.8438C0 31.3594 0.028125 32.175 0.140625 34.7344C0.253125 37.2844 0.665625 39.0375 1.25625 40.5563C1.875 42.1406 2.69063 43.4813 4.03125 44.8125C5.3625 46.1437 6.70313 46.9688 8.27813 47.5781C9.80625 48.1688 11.55 48.5812 14.1 48.6937C16.6594 48.8062 17.475 48.8344 23.9906 48.8344C30.5063 48.8344 31.3219 48.8062 33.8813 48.6937C36.4313 48.5812 38.1844 48.1688 39.7031 47.5781C41.2781 46.9688 42.6188 46.1437 43.95 44.8125C45.2812 43.4813 46.1063 42.1406 46.7156 40.5656C47.3063 39.0375 47.7188 37.2938 47.8313 34.7438C47.9438 32.1844 47.9719 31.3688 47.9719 24.8531C47.9719 18.3375 47.9438 17.5219 47.8313 14.9625C47.7188 12.4125 47.3063 10.6594 46.7156 9.14062C46.125 7.54688 45.3094 6.20625 43.9688 4.875C42.6375 3.54375 41.2969 2.71875 39.7219 2.10938C38.1938 1.51875 36.45 1.10625 33.9 0.99375C31.3313 0.871875 30.5156 0.84375 24 0.84375Z" fill="white"/>
<path d="M24 12.5156C17.1938 12.5156 11.6719 18.0375 11.6719 24.8438C11.6719 31.65 17.1938 37.1719 24 37.1719C30.8062 37.1719 36.3281 31.65 36.3281 24.8438C36.3281 18.0375 30.8062 12.5156 24 12.5156ZM24 32.8406C19.5844 32.8406 16.0031 29.2594 16.0031 24.8438C16.0031 20.4281 19.5844 16.8469 24 16.8469C28.4156 16.8469 31.9969 20.4281 31.9969 24.8438C31.9969 29.2594 28.4156 32.8406 24 32.8406Z" fill="white"/>
<path d="M39.6937 12.0285C39.6937 13.6223 38.4 14.9066 36.8156 14.9066C35.2219 14.9066 33.9375 13.6129 33.9375 12.0285C33.9375 10.4348 35.2313 9.15039 36.8156 9.15039C38.4 9.15039 39.6937 10.4441 39.6937 12.0285Z" fill="white"/>
</g>
<defs>
<clipPath id="clip0_1064_15">
<rect width="48" height="48" fill="white" transform="translate(0 0.84375)"/>
</clipPath>
</defs>
</svg>
