<svg width="48" height="49" viewBox="0 0 48 49" fill="none" xmlns="http://www.w3.org/2000/svg">
<g clip-path="url(#clip0_1064_13)">
<path d="M15.1003 44.3442C33.2091 44.3442 43.1166 29.3376 43.1166 16.328C43.1166 15.9061 43.1072 15.4748 43.0884 15.053C45.0158 13.6592 46.679 11.9327 48 9.95483C46.205 10.7534 44.2993 11.275 42.3478 11.5017C44.4026 10.2701 45.9411 8.33518 46.6781 6.05577C44.7451 7.20135 42.6312 8.00946 40.4269 8.44546C38.9417 6.86736 36.978 5.82247 34.8394 5.47234C32.7008 5.12221 30.5064 5.48634 28.5955 6.50843C26.6846 7.53052 25.1636 9.15365 24.2677 11.1269C23.3718 13.1001 23.1509 15.3135 23.6391 17.4248C19.725 17.2284 15.8959 16.2116 12.4 14.4404C8.90405 12.6692 5.81939 10.1831 3.34594 7.14327C2.0888 9.31073 1.70411 11.8755 2.27006 14.3164C2.83601 16.7573 4.31013 18.8911 6.39281 20.2842C4.82926 20.2346 3.29995 19.8136 1.93125 19.0561V19.178C1.92985 21.4525 2.7162 23.6574 4.15662 25.4178C5.59704 27.1781 7.60265 28.3854 9.8325 28.8342C8.38411 29.2305 6.86396 29.2882 5.38969 29.003C6.01891 30.9591 7.24315 32.67 8.89154 33.8969C10.5399 35.1238 12.5302 35.8054 14.5847 35.8467C11.0968 38.5865 6.78835 40.0725 2.35313 40.0655C1.56657 40.0643 0.780798 40.016 0 39.9211C4.50571 42.8117 9.74706 44.347 15.1003 44.3442Z" fill="white"/>
</g>
<defs>
<clipPath id="clip0_1064_13">
<rect width="48" height="48" fill="white" transform="translate(0 0.84375)"/>
</clipPath>
</defs>
</svg>
