<svg width="303" height="354" viewBox="0 0 303 354" fill="none" xmlns="http://www.w3.org/2000/svg">
<path d="M302.201 337.174C302.201 337.174 267.438 7.98948 112.178 0.432756C-43.0818 -7.12397 8.07004 86.7876 8.07004 86.7876C8.07004 86.7876 47.6837 204.778 45.2999 274.484" fill="#6C7BA0"/>
<path d="M129 58C129 58 200.184 232.452 177.559 299" stroke="#151B3C" stroke-width="12" stroke-miterlimit="10"/>
<path d="M129 58C129 58 200.184 232.452 177.559 299" stroke="#151B3C" stroke-width="12" stroke-miterlimit="10"/>
<path d="M129 58C129 58 200.184 232.452 177.559 299" stroke="#151B3C" stroke-width="12" stroke-miterlimit="10"/>
<path d="M129.237 121C129.237 121 71.1654 287.789 89.6231 351.413" stroke="#151B3C" stroke-width="12" stroke-miterlimit="10"/>
<path d="M129.237 121C129.237 121 71.1654 287.789 89.6231 351.413" stroke="#151B3C" stroke-width="12" stroke-miterlimit="10"/>
<path d="M129.237 121C129.237 121 71.1654 287.789 89.6231 351.413" stroke="#151B3C" stroke-width="12" stroke-miterlimit="10"/>
</svg>
