<svg width="224" height="525" viewBox="0 0 224 525" fill="none" xmlns="http://www.w3.org/2000/svg">
<path d="M364.427 273.471L227.32 269.341L163.739 267.428C-36.9497 261.377 68.5716 367.48 68.5716 367.48C68.5716 367.48 105.672 396.255 152.141 403.795C198.611 411.335 238.278 395.839 238.278 395.839C238.278 395.839 358.984 437.396 407.566 407.981C456.149 378.566 540.456 341.746 508.203 281.563C475.951 221.38 467.569 232.041 405.355 202.058C343.142 172.074 236.28 307.569 236.28 307.569" fill="#32467A"/>
<path d="M239.937 363.179C239.937 363.179 358.29 361.418 401.696 304.092C445.101 246.766 479.653 213.029 470.418 172.528C461.183 132.027 446.042 59.9972 338.994 102.187C231.945 144.377 224.859 176.626 224.859 176.626L212.667 198.597" fill="#32467A"/>
<path d="M205.82 241.491C205.82 241.491 346.826 232.055 353.788 160.049C360.749 88.0437 337.75 34.6 290.535 10.9877C243.32 -12.6245 166.899 -10.5514 175.894 146.53C184.89 303.612 182.759 246.878 182.759 246.878" fill="#32467A"/>
<path d="M286.167 178.707C286.167 178.707 238.339 263.551 195.99 287.499C153.641 311.448 67.0166 312.144 31.1946 287.619C-4.62738 263.095 -0.773499 186.119 1.18011 172.143C3.13373 158.168 21.8171 119.732 62.0969 110.551C102.377 101.37 80.8871 57.4037 130.935 60.8535C180.983 64.3033 191.017 65.4799 229.911 96.464C268.806 127.448 264.322 167.517 264.322 167.517" fill="#32467A"/>
<path d="M248.019 291.183C248.019 291.183 234.815 235.066 141.308 226.349C47.8013 217.633 50.6164 174.322 50.6164 174.322" stroke="#7384AE" stroke-width="7.97" stroke-miterlimit="10" stroke-linecap="round"/>
<path d="M118.354 225C118.354 225 113.026 250.061 72.0001 256.016" stroke="#7384AE" stroke-width="7.97" stroke-miterlimit="10" stroke-linecap="round"/>
<path d="M179.625 231.684C179.625 231.684 199.588 197.995 166.687 169.5" stroke="#7384AE" stroke-width="7.97" stroke-miterlimit="10" stroke-linecap="round"/>
<path d="M253.889 308.624C253.889 308.624 241.164 298.218 224.7 308.88C208.237 319.541 195.734 324.48 163.757 320.534C131.78 316.588 117.661 298.794 117.661 298.794" stroke="#7384AE" stroke-width="7.97" stroke-miterlimit="10" stroke-linecap="round"/>
<path d="M141.308 226.333C141.308 226.333 128.344 269.884 86.3322 266.602" stroke="#7384AE" stroke-width="2.66" stroke-miterlimit="10" stroke-linecap="round"/>
<path d="M186.614 322.319C186.614 322.319 171.322 350.125 140.056 338.519" stroke="#7384AE" stroke-width="2.66" stroke-miterlimit="10" stroke-linecap="round"/>
<path d="M222.782 307.663C222.782 307.663 205.022 279.809 168.659 283.963" stroke="#7384AE" stroke-width="2.31" stroke-miterlimit="10" stroke-linecap="round"/>
<path d="M219.381 156.801C219.381 156.801 197.181 157.793 191.161 134.637" stroke="#7384AE" stroke-width="2.66" stroke-miterlimit="10" stroke-linecap="round"/>
<path d="M161.59 228.286C161.59 228.286 161.163 221.122 151.129 212.702C146.98 209.307 142.377 206.392 137.427 204.025" stroke="#7384AE" stroke-width="2.66" stroke-miterlimit="10" stroke-linecap="round"/>
<path d="M59.9404 199.583C59.9404 199.583 43.8765 210.685 19.5364 193.508" stroke="#7384AE" stroke-width="2.66" stroke-miterlimit="10" stroke-linecap="round"/>
<path d="M223.279 170.864C223.279 170.864 199.365 171.504 189.171 148.452" stroke="#7384AE" stroke-width="2.66" stroke-miterlimit="10" stroke-linecap="round"/>
<path d="M67.6567 206.45C67.6567 206.45 55.2246 218.593 34.4187 209.772" stroke="#7384AE" stroke-width="2.66" stroke-miterlimit="10" stroke-linecap="round"/>
<path d="M154.362 318.565C154.362 318.565 155.25 304.694 139.266 293.552" stroke="#7384AE" stroke-width="2.66" stroke-miterlimit="10" stroke-linecap="round"/>
<path d="M93.5689 215.143C93.5689 215.143 106.773 196.565 74.033 165.429" stroke="#7384AE" stroke-width="2.66" stroke-miterlimit="10" stroke-linecap="round"/>
<path d="M239.974 198.951C239.974 198.951 214.861 185.824 218.662 116.34" stroke="#7384AE" stroke-width="2.66" stroke-miterlimit="10" stroke-linecap="round"/>
<path d="M211.576 318.661C211.576 318.661 199.925 355.344 153.776 360.971" stroke="#7384AE" stroke-width="2.47" stroke-miterlimit="10" stroke-linecap="round"/>
<path d="M197.732 239.7C197.732 239.7 195.157 256.612 165.293 265.617" stroke="#7384AE" stroke-width="2.66" stroke-miterlimit="10" stroke-linecap="round"/>
</svg>
