<svg width="216" height="695" viewBox="0 0 216 695" fill="none" xmlns="http://www.w3.org/2000/svg">
<path d="M107 20.7388C167.053 20.7388 205 472.487 205 544.182C205 615.877 167.04 652.783 107 652.783C46.9599 652.783 9 613.915 9 542.22C9 470.526 46.9471 20.7388 107 20.7388Z" fill="#151B3C"/>
<path d="M108 1.5C111.661 1.5 115.364 3.12478 119.127 6.44144C122.899 9.76491 126.645 14.7153 130.34 21.1618C137.729 34.0531 144.753 52.6387 151.355 75.2972C164.553 120.591 175.973 181.816 185.334 245.441C204.056 372.698 214.5 509.266 214.5 546.596C214.5 583.754 204.123 611.682 185.744 630.319C167.368 648.955 140.795 658.5 108 658.5C75.2267 658.5 48.6542 648.456 30.2695 629.31C11.8781 610.156 1.5 581.707 1.5 544.548C1.5 507.218 11.9438 371.163 30.6661 244.418C40.0269 181.049 51.4469 120.081 64.6446 74.9788C71.2468 52.4165 78.2697 33.9112 85.6582 21.0762C89.3529 14.6579 93.0988 9.72938 96.8701 6.42056C100.634 3.11867 104.337 1.5 108 1.5Z" stroke="#FEFEFE" stroke-width="3"/>
<path d="M108.289 193.121H108.279C105.158 193.121 102.628 195.402 102.628 198.215V688.976C102.628 691.789 105.158 694.069 108.279 694.069H108.289C111.41 694.069 113.939 691.789 113.939 688.976V198.215C113.939 195.402 111.41 193.121 108.289 193.121Z" fill="#0A112B"/>
<path d="M110.109 310.184L109.351 309.345C109.2 309.155 109.119 308.927 109.119 308.694C109.119 308.46 109.2 308.232 109.351 308.042L152.816 254.213C152.877 254.128 152.96 254.059 153.058 254.01C153.156 253.962 153.265 253.937 153.377 253.937C153.489 253.937 153.599 253.962 153.697 254.01C153.795 254.059 153.878 254.128 153.938 254.213L154.696 255.051C154.847 255.241 154.928 255.469 154.928 255.703C154.928 255.936 154.847 256.164 154.696 256.354L111.231 310.184C111.172 310.27 111.09 310.342 110.991 310.392C110.893 310.442 110.782 310.467 110.67 310.467C110.557 310.467 110.446 310.442 110.348 310.392C110.25 310.342 110.167 310.27 110.109 310.184Z" fill="#0A112B"/>
<path d="M110.867 351.093L110.22 350.374C110.054 350.165 109.966 349.915 109.966 349.658C109.966 349.402 110.054 349.152 110.22 348.943L162.874 283.697C162.942 283.607 163.033 283.533 163.139 283.482C163.246 283.431 163.365 283.404 163.486 283.404C163.606 283.404 163.725 283.431 163.832 283.482C163.939 283.533 164.03 283.607 164.097 283.697L164.744 284.417C164.91 284.626 164.999 284.876 164.999 285.132C164.999 285.389 164.91 285.639 164.744 285.848L112.1 351.093C112.033 351.185 111.941 351.261 111.834 351.314C111.726 351.366 111.606 351.393 111.483 351.393C111.361 351.393 111.241 351.366 111.133 351.314C111.026 351.261 110.934 351.185 110.867 351.093Z" fill="#0A112B"/>
<path d="M111.484 422.635L110.837 421.925C110.674 421.715 110.587 421.465 110.587 421.209C110.587 420.953 110.674 420.704 110.837 420.494L163.491 355.248C163.553 355.153 163.64 355.074 163.744 355.018C163.848 354.961 163.967 354.929 164.089 354.925C164.21 354.92 164.331 354.943 164.441 354.991C164.55 355.04 164.644 355.113 164.714 355.203L165.361 355.922C165.526 356.131 165.615 356.381 165.615 356.637C165.615 356.894 165.526 357.144 165.361 357.353L112.707 422.635C112.639 422.725 112.548 422.799 112.442 422.85C112.335 422.901 112.216 422.928 112.095 422.928C111.975 422.928 111.856 422.901 111.749 422.85C111.642 422.799 111.551 422.725 111.484 422.635Z" fill="#0A112B"/>
<path d="M108.633 258.067L107.875 257.229C107.722 257.038 107.639 256.809 107.639 256.573C107.639 256.337 107.722 256.108 107.875 255.917L151.34 202.087C151.401 202.005 151.484 201.937 151.581 201.89C151.678 201.843 151.786 201.819 151.896 201.819C152.006 201.819 152.115 201.843 152.212 201.89C152.309 201.937 152.391 202.005 152.452 202.087L153.21 202.925C153.361 203.117 153.441 203.347 153.441 203.582C153.441 203.817 153.361 204.045 153.21 204.237L109.745 258.067C109.684 258.15 109.601 258.218 109.504 258.264C109.407 258.311 109.299 258.336 109.189 258.336C109.079 258.336 108.97 258.311 108.873 258.264C108.776 258.218 108.694 258.15 108.633 258.067Z" fill="#0A112B"/>
<path d="M110.866 444.502L110.219 443.792C110.054 443.581 109.966 443.33 109.966 443.072C109.966 442.814 110.054 442.563 110.219 442.352L162.833 377.079C162.9 376.989 162.991 376.915 163.098 376.864C163.205 376.812 163.324 376.786 163.444 376.786C163.565 376.786 163.684 376.812 163.791 376.864C163.897 376.915 163.988 376.989 164.056 377.079L164.703 377.799C164.868 378.007 164.957 378.258 164.957 378.514C164.957 378.771 164.868 379.02 164.703 379.229L112.089 444.502C112.021 444.593 111.93 444.667 111.824 444.718C111.717 444.769 111.598 444.795 111.478 444.795C111.357 444.795 111.238 444.769 111.131 444.718C111.025 444.667 110.933 444.593 110.866 444.502Z" fill="#0A112B"/>
<path d="M110.464 229.886L109.513 228.838C109.389 228.677 109.323 228.487 109.323 228.292C109.323 228.096 109.389 227.905 109.513 227.745L138.181 192.211C138.233 192.143 138.302 192.088 138.383 192.05C138.464 192.012 138.554 191.991 138.646 191.991C138.737 191.991 138.827 192.012 138.908 192.05C138.989 192.088 139.058 192.143 139.111 192.211L140.061 193.258C140.185 193.419 140.251 193.61 140.251 193.805C140.251 194.001 140.185 194.192 140.061 194.352L111.394 229.886C111.343 229.956 111.274 230.012 111.193 230.052C111.112 230.091 111.021 230.112 110.929 230.112C110.836 230.112 110.745 230.091 110.664 230.052C110.583 230.012 110.514 229.956 110.464 229.886Z" fill="#0A112B"/>
<path d="M113.728 290.585L114.324 289.92C114.476 289.727 114.558 289.497 114.558 289.26C114.558 289.023 114.476 288.792 114.324 288.599L65.683 228.319C65.6213 228.234 65.5373 228.165 65.4385 228.117C65.3397 228.069 65.2292 228.043 65.1169 228.043C65.0046 228.043 64.8941 228.069 64.7953 228.117C64.6965 228.165 64.6125 228.234 64.5508 228.319L63.9545 228.984C63.8021 229.177 63.7202 229.408 63.7202 229.645C63.7202 229.881 63.8021 230.112 63.9545 230.305L112.596 290.522C112.651 290.61 112.73 290.684 112.826 290.738C112.921 290.792 113.03 290.824 113.142 290.83C113.255 290.836 113.367 290.817 113.469 290.774C113.572 290.732 113.66 290.667 113.728 290.585Z" fill="#0A112B"/>
<path d="M104.944 353.453L105.54 352.797C105.693 352.604 105.774 352.373 105.774 352.136C105.774 351.9 105.693 351.669 105.54 351.476L56.899 291.186C56.8358 291.104 56.7513 291.036 56.6527 290.989C56.5541 290.943 56.4443 290.918 56.333 290.918C56.2216 290.918 56.1119 290.943 56.0132 290.989C55.9146 291.036 55.8301 291.104 55.7669 291.186L55.1705 291.852C55.0182 292.044 54.9363 292.275 54.9363 292.512C54.9363 292.749 55.0182 292.98 55.1705 293.173L103.812 353.389C103.867 353.478 103.946 353.552 104.042 353.606C104.137 353.66 104.246 353.691 104.358 353.698C104.471 353.704 104.583 353.685 104.685 353.642C104.788 353.599 104.876 353.534 104.944 353.453Z" fill="#0A112B"/>
<path d="M104.943 408.148L105.539 407.483C105.692 407.29 105.773 407.059 105.773 406.822C105.773 406.586 105.692 406.355 105.539 406.162L56.8981 345.881C56.8365 345.797 56.7525 345.727 56.6537 345.679C56.5549 345.631 56.4443 345.606 56.3321 345.606C56.2198 345.606 56.1093 345.631 56.0105 345.679C55.9117 345.727 55.8276 345.797 55.766 345.881L55.1696 346.538C55.0164 346.732 54.9341 346.964 54.9341 347.203C54.9341 347.441 55.0164 347.674 55.1696 347.868L103.811 408.148C103.872 408.233 103.956 408.302 104.055 408.35C104.154 408.398 104.265 408.424 104.377 408.424C104.489 408.424 104.6 408.398 104.698 408.35C104.797 408.302 104.881 408.233 104.943 408.148Z" fill="#0A112B"/>
<path d="M107.581 267.916L108.279 267.142C108.417 266.966 108.491 266.756 108.491 266.541C108.491 266.325 108.417 266.115 108.279 265.939L68.1487 216.201C68.0905 216.129 68.0144 216.071 67.9266 216.031C67.8388 215.991 67.7418 215.97 67.6433 215.97C67.5449 215.97 67.4478 215.991 67.36 216.031C67.2722 216.071 67.1961 216.129 67.1379 216.201L66.4304 216.975C66.2925 217.153 66.2185 217.364 66.2185 217.581C66.2185 217.798 66.2925 218.009 66.4304 218.187L106.56 267.916C106.618 267.99 106.695 268.049 106.784 268.091C106.872 268.132 106.971 268.153 107.071 268.153C107.171 268.153 107.269 268.132 107.358 268.091C107.447 268.049 107.523 267.99 107.581 267.916Z" fill="#0A112B"/>
<path d="M104.943 429.25L105.539 428.584C105.692 428.392 105.773 428.161 105.773 427.924C105.773 427.687 105.692 427.456 105.539 427.264L56.8981 366.983C56.8365 366.899 56.7525 366.829 56.6537 366.781C56.5549 366.733 56.4443 366.708 56.3321 366.708C56.2198 366.708 56.1093 366.733 56.0105 366.781C55.9117 366.829 55.8276 366.899 55.766 366.983L55.1696 367.639C55.0164 367.834 54.9341 368.066 54.9341 368.304C54.9341 368.543 55.0164 368.775 55.1696 368.97L103.811 429.25C103.872 429.334 103.956 429.404 104.055 429.452C104.154 429.5 104.265 429.525 104.377 429.525C104.489 429.525 104.6 429.5 104.698 429.452C104.797 429.404 104.881 429.334 104.943 429.25Z" fill="#0A112B"/>
<path d="M104.944 473.403L105.54 472.738C105.693 472.545 105.774 472.314 105.774 472.077C105.774 471.84 105.693 471.61 105.54 471.417L56.899 411.136C56.8374 411.052 56.7534 410.982 56.6546 410.934C56.5558 410.886 56.4452 410.861 56.333 410.861C56.2207 410.861 56.1102 410.886 56.0114 410.934C55.9126 410.982 55.8285 411.052 55.7669 411.136L55.1705 411.801C55.0182 411.994 54.9363 412.225 54.9363 412.462C54.9363 412.699 55.0182 412.93 55.1705 413.123L103.812 473.403C103.873 473.488 103.957 473.557 104.056 473.605C104.155 473.653 104.265 473.678 104.378 473.678C104.49 473.678 104.6 473.653 104.699 473.605C104.798 473.557 104.882 473.488 104.944 473.403Z" fill="#0A112B"/>
<path d="M105.157 491.553L105.743 490.906C105.899 490.711 105.982 490.476 105.982 490.236C105.982 489.996 105.899 489.762 105.743 489.566L57.4355 429.696C57.3738 429.612 57.2898 429.542 57.191 429.494C57.0922 429.446 56.9817 429.421 56.8694 429.421C56.7571 429.421 56.6466 429.446 56.5478 429.494C56.449 429.542 56.365 429.612 56.3033 429.696L55.7069 430.352C55.5537 430.547 55.4714 430.779 55.4714 431.018C55.4714 431.256 55.5537 431.488 55.7069 431.683L104.015 491.553C104.077 491.637 104.162 491.706 104.262 491.754C104.362 491.802 104.473 491.827 104.586 491.827C104.699 491.827 104.81 491.802 104.909 491.754C105.009 491.706 105.094 491.637 105.157 491.553Z" fill="#0A112B"/>
<path d="M108.916 327.923L109.512 327.258C109.663 327.065 109.744 326.834 109.744 326.598C109.744 326.361 109.663 326.13 109.512 325.937L60.8708 265.657C60.8092 265.572 60.7251 265.503 60.6263 265.455C60.5275 265.407 60.417 265.381 60.3048 265.381C60.1925 265.381 60.082 265.407 59.9831 265.455C59.8843 265.503 59.8003 265.572 59.7386 265.657L59.1322 266.313C58.9817 266.508 58.9011 266.74 58.9011 266.978C58.9011 267.216 58.9817 267.448 59.1322 267.643L107.783 327.878C107.841 327.965 107.921 328.038 108.018 328.09C108.114 328.142 108.223 328.172 108.336 328.176C108.448 328.181 108.56 328.16 108.661 328.116C108.762 328.072 108.85 328.005 108.916 327.923Z" fill="#0A112B"/>
<path d="M105.389 521.529L104.742 520.809C104.577 520.601 104.488 520.35 104.488 520.094C104.488 519.837 104.577 519.588 104.742 519.379L157.316 454.133C157.382 454.041 157.472 453.965 157.579 453.913C157.686 453.86 157.806 453.833 157.927 453.833C158.049 453.833 158.169 453.86 158.275 453.913C158.382 453.965 158.473 454.041 158.539 454.133L159.186 454.853C159.351 455.061 159.44 455.312 159.44 455.568C159.44 455.825 159.351 456.075 159.186 456.283L106.542 521.529C106.473 521.607 106.385 521.67 106.285 521.713C106.185 521.756 106.076 521.779 105.966 521.779C105.855 521.779 105.746 521.756 105.646 521.713C105.546 521.67 105.459 521.607 105.389 521.529Z" fill="#0A112B"/>
<path d="M105.388 564.552L104.751 563.86C104.586 563.65 104.498 563.398 104.498 563.14C104.498 562.883 104.586 562.631 104.751 562.42L157.314 497.156C157.382 497.066 157.473 496.992 157.579 496.941C157.686 496.89 157.805 496.863 157.926 496.863C158.046 496.863 158.165 496.89 158.272 496.941C158.378 496.992 158.47 497.066 158.537 497.156L159.184 497.876C159.35 498.085 159.438 498.335 159.438 498.592C159.438 498.848 159.35 499.098 159.184 499.307L106.54 564.552C106.47 564.629 106.382 564.69 106.282 564.733C106.183 564.775 106.074 564.797 105.964 564.797C105.854 564.797 105.745 564.775 105.646 564.733C105.546 564.69 105.458 564.629 105.388 564.552Z" fill="#0A112B"/>
<path d="M111.484 581.362L110.837 580.643C110.674 580.433 110.587 580.183 110.587 579.927C110.587 579.671 110.674 579.422 110.837 579.212L163.491 513.967C163.558 513.876 163.65 513.802 163.756 513.751C163.863 513.7 163.982 513.673 164.102 513.673C164.223 513.673 164.342 513.7 164.449 513.751C164.555 513.802 164.646 513.876 164.714 513.967L165.361 514.677C165.526 514.886 165.615 515.136 165.615 515.392C165.615 515.649 165.526 515.899 165.361 516.107L112.717 581.362C112.65 581.455 112.558 581.53 112.451 581.583C112.343 581.635 112.223 581.662 112.1 581.662C111.978 581.662 111.858 581.635 111.75 581.583C111.642 581.53 111.551 581.455 111.484 581.362Z" fill="#0A112B"/>
<path d="M110.867 635.147L110.22 634.427C110.054 634.219 109.966 633.969 109.966 633.712C109.966 633.456 110.054 633.205 110.22 632.997L162.874 567.751C162.937 567.658 163.025 567.581 163.129 567.525C163.234 567.47 163.351 567.439 163.472 567.435C163.593 567.43 163.713 567.452 163.822 567.5C163.931 567.547 164.026 567.618 164.097 567.706L164.744 568.425C164.91 568.634 164.999 568.884 164.999 569.14C164.999 569.397 164.91 569.647 164.744 569.856L112.1 635.102C112.039 635.198 111.952 635.279 111.846 635.337C111.741 635.395 111.621 635.428 111.497 635.432C111.374 635.437 111.252 635.413 111.141 635.363C111.031 635.313 110.937 635.239 110.867 635.147Z" fill="#0A112B"/>
<path d="M105.075 541.373L105.722 540.654C105.888 540.445 105.977 540.195 105.977 539.939C105.977 539.682 105.888 539.432 105.722 539.223L53.0782 473.978C53.0148 473.885 52.9272 473.807 52.8229 473.752C52.7186 473.697 52.6009 473.666 52.4801 473.661C52.3593 473.657 52.2391 473.679 52.1301 473.726C52.0211 473.773 51.9267 473.844 51.855 473.932L51.198 474.652C51.0326 474.86 50.9436 475.11 50.9436 475.367C50.9436 475.623 51.0326 475.874 51.198 476.082L103.842 541.328C103.903 541.425 103.99 541.506 104.096 541.564C104.201 541.622 104.321 541.654 104.445 541.659C104.568 541.663 104.69 541.64 104.801 541.59C104.911 541.54 105.006 541.465 105.075 541.373Z" fill="#0A112B"/>
<path d="M105.075 568.871L105.722 568.151C105.888 567.943 105.977 567.692 105.977 567.436C105.977 567.179 105.888 566.93 105.722 566.721L53.0782 501.475C53.0148 501.382 52.9272 501.305 52.8229 501.25C52.7186 501.194 52.6009 501.163 52.4801 501.159C52.3593 501.154 52.2391 501.177 52.1301 501.224C52.0211 501.271 51.9267 501.341 51.855 501.429L51.198 502.149C51.0326 502.358 50.9436 502.608 50.9436 502.864C50.9436 503.121 51.0326 503.371 51.198 503.579L103.842 568.826C103.903 568.922 103.99 569.003 104.096 569.061C104.201 569.119 104.321 569.152 104.445 569.156C104.568 569.161 104.69 569.137 104.801 569.087C104.911 569.037 105.006 568.963 105.075 568.871Z" fill="#0A112B"/>
<path d="M105.075 615.357L105.722 614.637C105.888 614.428 105.977 614.178 105.977 613.922C105.977 613.665 105.888 613.415 105.722 613.207L53.0782 547.96C53.0148 547.868 52.9272 547.79 52.8229 547.735C52.7186 547.68 52.6009 547.649 52.4801 547.645C52.3593 547.64 52.2391 547.662 52.1301 547.71C52.0211 547.757 51.9267 547.827 51.855 547.915L51.198 548.635C51.0326 548.844 50.9436 549.094 50.9436 549.35C50.9436 549.607 51.0326 549.857 51.198 550.065L103.842 615.311C103.903 615.408 103.99 615.489 104.096 615.547C104.201 615.605 104.321 615.637 104.445 615.642C104.568 615.647 104.69 615.623 104.801 615.573C104.911 615.523 105.006 615.449 105.075 615.357Z" fill="#0A112B"/>
<path d="M103.549 626.974L104.206 626.263C104.371 626.053 104.459 625.801 104.459 625.543C104.459 625.286 104.371 625.034 104.206 624.824L51.5619 559.577C51.4944 559.487 51.4033 559.414 51.2967 559.363C51.19 559.311 51.0712 559.285 50.9504 559.285C50.8297 559.285 50.7107 559.311 50.6041 559.363C50.4975 559.414 50.4064 559.487 50.3388 559.577L49.6919 560.297C49.5265 560.506 49.4375 560.756 49.4375 561.013C49.4375 561.269 49.5265 561.519 49.6919 561.728L102.336 626.974C102.404 627.062 102.495 627.134 102.6 627.184C102.706 627.234 102.823 627.26 102.942 627.26C103.062 627.26 103.179 627.234 103.285 627.184C103.39 627.134 103.481 627.062 103.549 626.974Z" fill="#0A112B"/>
<path d="M103.63 303.177L102.872 302.339C102.721 302.149 102.64 301.921 102.64 301.687C102.64 301.454 102.721 301.226 102.872 301.036L146.337 247.206C146.398 247.122 146.481 247.052 146.579 247.004C146.677 246.956 146.787 246.93 146.898 246.93C147.01 246.93 147.12 246.956 147.218 247.004C147.316 247.052 147.399 247.122 147.459 247.206L148.217 248.044C148.365 248.236 148.444 248.463 148.444 248.696C148.444 248.929 148.365 249.156 148.217 249.347L104.752 303.177C104.691 303.262 104.608 303.331 104.51 303.379C104.412 303.428 104.302 303.453 104.191 303.453C104.079 303.453 103.969 303.428 103.871 303.379C103.773 303.331 103.69 303.262 103.63 303.177Z" fill="#0A112B"/>
</svg>
