<svg width="343" height="316" viewBox="0 0 343 316" fill="none" xmlns="http://www.w3.org/2000/svg">
<path d="M88.8955 232.061C38.9723 209.056 5.7809 175.666 8.11577 145.216C8.32203 142.459 9.93086 121.459 23.7916 113.642C36.753 106.312 47.3299 118.141 60.8193 113.262C81.4454 105.833 69.2183 68.9442 92.996 36.6609C94.8523 34.1433 117.846 3.98128 156.392 2.091C195.689 0.175959 221.793 29.075 225.523 33.3508C229.285 37.8082 234.969 44.5025 241.933 52.6084C253.533 66.1292 259.333 72.8897 260.686 74.2599C282.417 96.2416 315.427 76.4143 332.662 92.2051C353.924 111.677 335.963 171.316 310.436 208.841C292.615 235.099 270.908 250.848 256.742 259.482" fill="#151B3C"/>
<path d="M157.092 312C172.558 168.861 136.292 182.681 135.597 128.577C134.902 74.4723 165.224 52.0674 165.224 52.0674" stroke="#374A7B" stroke-width="7.97" stroke-miterlimit="10" stroke-linecap="round"/>
<path d="M157.729 206.318C157.729 206.318 176.915 174.733 210.604 182.013C244.293 189.293 285.177 163.942 285.177 163.942" stroke="#374A7B" stroke-width="7.97" stroke-miterlimit="10" stroke-linecap="round"/>
<path d="M137.415 130.778C189.256 129.473 206.937 85.7295 212.237 64.8779" stroke="#374A7B" stroke-width="7.97" stroke-miterlimit="10" stroke-linecap="round"/>
<path d="M232.06 184.271C232.06 184.271 238.878 213.107 273.517 214.246" stroke="#374A7B" stroke-width="7.97" stroke-miterlimit="10" stroke-linecap="round"/>
<path d="M147.148 175.007C147.148 175.007 138.008 168.276 126.183 175.173C114.358 182.07 105.378 185.265 82.4102 182.712C59.4426 180.159 49.3013 168.649 49.3013 168.649" stroke="#374A7B" stroke-width="7.97" stroke-miterlimit="10" stroke-linecap="round"/>
<path d="M225.477 120.665C225.477 120.665 197.356 130.731 180.684 116.305" stroke="#374A7B" stroke-width="7.97" stroke-miterlimit="10" stroke-linecap="round"/>
<path d="M192.076 205.091L296.721 207.929L192.076 205.091Z" fill="#374A7B"/>
<path d="M98.8267 183.867C98.8267 183.867 87.8437 201.855 65.3864 194.347" stroke="#374A7B" stroke-width="2.66" stroke-miterlimit="10" stroke-linecap="round"/>
<path d="M124.805 174.386C124.805 174.386 112.049 156.367 85.9306 159.054" stroke="#374A7B" stroke-width="2.31" stroke-miterlimit="10" stroke-linecap="round"/>
<path d="M264.773 174.044C264.773 174.044 268.479 187.227 298.794 183.054" stroke="#374A7B" stroke-width="2.66" stroke-miterlimit="10" stroke-linecap="round"/>
<path d="M103.694 122.28C103.694 122.28 114.64 133.892 106.172 146.984" stroke="#374A7B" stroke-width="2.66" stroke-miterlimit="10" stroke-linecap="round"/>
<path d="M125.162 85.8898C125.162 85.8898 107.986 86.3041 100.664 71.3916" stroke="#374A7B" stroke-width="2.66" stroke-miterlimit="10" stroke-linecap="round"/>
<path d="M142.683 89.364C142.683 89.364 160.912 96.344 180.646 67.042" stroke="#374A7B" stroke-width="2.66" stroke-miterlimit="10" stroke-linecap="round"/>
<path d="M172.266 192.664C172.266 192.664 168.892 208.959 191.043 213.402" stroke="#374A7B" stroke-width="2.66" stroke-miterlimit="10" stroke-linecap="round"/>
<path d="M75.662 181.438C75.662 181.438 76.2998 172.465 64.8192 165.257" stroke="#374A7B" stroke-width="2.66" stroke-miterlimit="10" stroke-linecap="round"/>
<path d="M241.122 202.243C241.122 202.243 231.664 211.315 250.562 226.243" stroke="#374A7B" stroke-width="2.66" stroke-miterlimit="10" stroke-linecap="round"/>
<path d="M201.777 90.7312C201.777 90.7312 216.294 96.6081 233.827 79.9507" stroke="#374A7B" stroke-width="2.66" stroke-miterlimit="10" stroke-linecap="round"/>
<path d="M247.138 177.949C247.138 177.949 243.623 157.962 276.318 139.699" stroke="#374A7B" stroke-width="2.66" stroke-miterlimit="10" stroke-linecap="round"/>
<path d="M257.419 153.959C257.419 153.959 252.693 148.916 262.068 137.664" stroke="#374A7B" stroke-width="2.66" stroke-miterlimit="10" stroke-linecap="round"/>
<path d="M197.637 179.372C197.637 179.372 189.856 164.729 222.244 145.623" stroke="#374A7B" stroke-width="2.66" stroke-miterlimit="10" stroke-linecap="round"/>
<path d="M201.828 163.253C201.828 163.253 204.679 167.582 226.575 162.564" stroke="#374A7B" stroke-width="2.66" stroke-miterlimit="10" stroke-linecap="round"/>
<path d="M137.154 104.059C137.154 104.059 119.116 95.5674 121.846 50.6177" stroke="#374A7B" stroke-width="2.66" stroke-miterlimit="10" stroke-linecap="round"/>
<path d="M171.411 120.722C171.411 120.722 159.63 110.547 168.164 96.4478" stroke="#374A7B" stroke-width="2.66" stroke-miterlimit="10" stroke-linecap="round"/>
<path d="M135.612 148.508C135.612 148.508 88.6305 153.598 72.1877 126" stroke="#374A7B" stroke-width="7.97" stroke-miterlimit="10" stroke-linecap="round"/>
<path d="M46.114 114.187C-46.84 98.1956 27.1947 208.898 84.7774 231.039L253.412 254C330.326 213.819 361.818 81.8302 315.107 85.8956C211.459 94.9164 237.037 -24.8395 125.908 7.58372C41.5898 32.1845 99.1093 123.304 46.114 114.187Z" stroke="#FEFEFE" stroke-width="3"/>
</svg>
