<svg width="393" height="580" viewBox="0 0 393 580" fill="none" xmlns="http://www.w3.org/2000/svg">
<path d="M212.035 229.994C212.035 229.994 94.3735 221.312 88.5643 155.122C82.7551 88.9325 101.942 39.7979 141.346 18.0835C180.75 -3.63092 244.513 -1.71946 237.02 142.67C229.526 287.059 231.291 234.92 231.291 234.92" fill="#32467A"/>
<path d="M122.972 246.224L237.391 242.424L290.447 240.66C457.917 235.097 369.868 332.672 369.868 332.672C369.868 332.672 338.903 359.125 300.124 366.06C261.344 372.995 228.231 358.744 228.231 358.744C228.231 358.744 127.504 396.945 86.9596 369.906C46.4155 342.866 -23.9364 309.035 2.97842 253.688C29.8932 198.341 36.8883 208.177 88.8044 180.597C140.72 153.018 229.904 277.615 229.904 277.615" fill="#32467A"/>
<path d="M145.476 169.282C145.476 169.282 185.389 247.22 220.726 269.292C256.062 291.365 328.362 291.951 358.25 269.406C388.138 246.861 384.919 176.109 383.297 163.241C381.676 150.372 366.076 115.062 332.464 106.625C298.852 98.1884 316.784 57.7691 275.02 60.9378C233.255 64.1065 224.879 65.193 192.419 93.6714C159.958 122.15 163.711 158.991 163.711 158.991" fill="#32467A"/>
<path d="M223.051 338.873C223.051 338.873 124.289 337.246 88.0651 284.55C51.8407 231.854 23.0124 200.833 30.7179 163.599C38.4234 126.365 51.0615 60.1468 140.394 98.9335C229.726 137.72 235.644 167.388 235.644 167.388L245.818 187.583" fill="#32467A"/>
<path d="M187.403 574.014C176.048 390.514 182.476 324.125 192.451 302.086C194.324 297.939 204.16 275.473 210.468 243.445C212.296 233.88 213.226 224.168 213.247 214.432C213.82 157.657 178.821 105.706 178.821 105.706" stroke="#151B3C" stroke-width="10" stroke-miterlimit="10" stroke-linecap="round"/>
<path d="M204.699 264.363C204.699 264.363 211.109 214.659 277.566 211.365C344.022 208.072 339.656 169.114 339.656 169.114" stroke="#151B3C" stroke-width="8" stroke-miterlimit="10" stroke-linecap="round"/>
<path d="M185.186 318.39C185.186 318.39 162.889 273.448 123.748 283.859C84.6079 294.27 37.103 258.168 37.103 258.168" stroke="#151B3C" stroke-width="8" stroke-miterlimit="10" stroke-linecap="round"/>
<path d="M302 209C302 209 306.474 232.04 340.682 237.513" stroke="#151B3C" stroke-width="8" stroke-miterlimit="10" stroke-linecap="round"/>
<path d="M253.888 215.12C253.888 215.12 237.228 184.15 264.687 157.953" stroke="#151B3C" stroke-width="8" stroke-miterlimit="10" stroke-linecap="round"/>
<path d="M208.84 221.378C148.612 219.518 128.062 157.39 121.915 127.722" stroke="#151B3C" stroke-width="8" stroke-miterlimit="10" stroke-linecap="round"/>
<path d="M110.508 286.191C110.508 286.191 102.585 327.151 62.3105 328.784" stroke="#151B3C" stroke-width="8" stroke-miterlimit="10" stroke-linecap="round"/>
<path d="M201.633 280.394C201.633 280.394 212.255 270.825 225.993 280.633C239.731 290.441 250.164 294.969 276.843 291.345C303.523 287.722 315.314 271.36 315.314 271.36" stroke="#151B3C" stroke-width="8" stroke-miterlimit="10" stroke-linecap="round"/>
<path d="M99.2855 200.278C99.2855 200.278 131.941 214.585 151.322 194.077" stroke="#151B3C" stroke-width="8" stroke-miterlimit="10" stroke-linecap="round"/>
<path d="M165.38 323.146L43.7939 327.185L165.38 323.146Z" fill="#D1D3D4"/>
<path d="M281.96 210.319C281.96 210.319 292.782 250.351 327.838 247.336" stroke="#151B3C" stroke-width="3.44" stroke-miterlimit="10" stroke-linecap="round"/>
<path d="M273.721 292.984C273.721 292.984 286.48 318.55 312.569 307.877" stroke="#151B3C" stroke-width="3.44" stroke-miterlimit="10" stroke-linecap="round"/>
<path d="M232.811 285.019C232.811 285.019 247.632 259.419 277.978 263.237" stroke="#151B3C" stroke-width="2.99" stroke-miterlimit="10" stroke-linecap="round"/>
<path d="M97.5312 271.376C97.5312 271.376 80.3138 280.145 62.243 249.537" stroke="#151B3C" stroke-width="3.44" stroke-miterlimit="10" stroke-linecap="round"/>
<path d="M228.617 140.824C228.617 140.824 247.168 141.74 252.169 120.446" stroke="#151B3C" stroke-width="3.44" stroke-miterlimit="10" stroke-linecap="round"/>
<path d="M271.883 210.535C271.883 210.535 272.232 203.953 280.614 196.211C284.071 193.088 287.911 190.412 292.043 188.246" stroke="#151B3C" stroke-width="3.44" stroke-miterlimit="10" stroke-linecap="round"/>
<path d="M225.363 153.777C225.363 153.777 245.323 154.346 253.825 133.155" stroke="#151B3C" stroke-width="3.44" stroke-miterlimit="10" stroke-linecap="round"/>
<path d="M205.002 158.692C205.002 158.692 183.805 168.608 160.889 126.966" stroke="#151B3C" stroke-width="3.44" stroke-miterlimit="10" stroke-linecap="round"/>
<path d="M326.789 199.379C326.789 199.379 337.17 210.546 354.535 202.44" stroke="#151B3C" stroke-width="3.44" stroke-miterlimit="10" stroke-linecap="round"/>
<path d="M160.677 292.284C160.677 292.284 165.117 310.363 136.816 317.457" stroke="#151B3C" stroke-width="3.44" stroke-miterlimit="10" stroke-linecap="round"/>
<path d="M170.462 298.86C170.462 298.86 174.375 322.02 148.641 328.334" stroke="#151B3C" stroke-width="3.44" stroke-miterlimit="10" stroke-linecap="round"/>
<path d="M286.841 287.369C286.841 287.369 286.119 274.62 299.445 264.369" stroke="#151B3C" stroke-width="3.44" stroke-miterlimit="10" stroke-linecap="round"/>
<path d="M93.0983 315.347C93.0983 315.347 87.8734 312.241 75.0176 314.306" stroke="#151B3C" stroke-width="3.44" stroke-miterlimit="10" stroke-linecap="round"/>
<path d="M103.037 306.097C103.037 306.097 114.032 318.988 92.0724 340.196" stroke="#151B3C" stroke-width="3.44" stroke-miterlimit="10" stroke-linecap="round"/>
<path d="M203.129 146.808C203.129 146.808 215.011 136.824 195.034 79.1108" stroke="#151B3C" stroke-width="3.44" stroke-miterlimit="10" stroke-linecap="round"/>
<path d="M317.451 202.423C317.451 202.423 306.434 185.356 333.767 156.719" stroke="#151B3C" stroke-width="3.44" stroke-miterlimit="10" stroke-linecap="round"/>
<path d="M132.307 154.471C132.307 154.471 117.206 157.447 98.7814 132.108" stroke="#151B3C" stroke-width="3.44" stroke-miterlimit="10" stroke-linecap="round"/>
<path d="M134.164 163.881C134.164 163.881 117.292 172.232 96.9252 148.561" stroke="#151B3C" stroke-width="3.44" stroke-miterlimit="10" stroke-linecap="round"/>
<path d="M98.8038 284.576C98.8038 284.576 102.883 256.171 64.8939 230.219" stroke="#151B3C" stroke-width="3.44" stroke-miterlimit="10" stroke-linecap="round"/>
<path d="M87.5406 250.488C87.5406 250.488 93.0289 243.32 82.1381 227.329" stroke="#151B3C" stroke-width="3.44" stroke-miterlimit="10" stroke-linecap="round"/>
<path d="M158.919 286.601C158.919 286.601 167.959 265.785 130.331 238.638" stroke="#151B3C" stroke-width="3.44" stroke-miterlimit="10" stroke-linecap="round"/>
<path d="M154.049 263.692C154.049 263.692 150.737 269.841 125.295 262.713" stroke="#151B3C" stroke-width="3.44" stroke-miterlimit="10" stroke-linecap="round"/>
<path d="M211.431 179.571C211.431 179.571 232.387 167.505 229.19 103.624" stroke="#151B3C" stroke-width="3.44" stroke-miterlimit="10" stroke-linecap="round"/>
<path d="M252.891 289.644C252.891 289.644 262.63 323.368 301.123 328.533" stroke="#151B3C" stroke-width="3.19" stroke-miterlimit="10" stroke-linecap="round"/>
<path d="M140.746 181.664C140.746 181.664 160.225 168.511 150.199 147.622" stroke="#151B3C" stroke-width="3.44" stroke-miterlimit="10" stroke-linecap="round"/>
<path d="M175.131 211.326C175.131 211.326 188.823 196.865 178.906 176.828" stroke="#151B3C" stroke-width="3.44" stroke-miterlimit="10" stroke-linecap="round"/>
<path d="M206.549 249.526C206.549 249.526 151.969 256.768 132.869 217.544" stroke="#151B3C" stroke-width="3.44" stroke-miterlimit="10" stroke-linecap="round"/>
<path d="M240.293 219.233C240.293 219.233 242.436 234.787 267.362 243.064" stroke="#151B3C" stroke-width="3.44" stroke-miterlimit="10" stroke-linecap="round"/>
<path d="M366.661 261.582C409.217 287.959 360.488 342.318 360.488 342.318C360.488 342.318 328.893 369.504 289.32 376.628C249.748 383.751 215.968 369.111 215.968 369.111C215.968 369.111 113.175 408.374 71.8025 380.583C30.4299 352.792 -41.3651 318.006 -13.8994 261.146C-7.45922 247.814 -2.13667 238.161 2.92132 230.831" stroke="#FEFEFE" stroke-width="3"/>
<path d="M86.1048 94.6366C4.67571 64.6333 -7.87271 128.276 -15.4163 164.978C-19.9811 187.188 -11.9839 207.244 2.7584 230.755" stroke="#FEFEFE" stroke-width="3"/>
<path d="M231.577 65.5221C216.977 -7.75141 169.587 -5.29363 137.771 12.3588C109.914 27.8146 91.9556 56.7989 85.5229 95.7708" stroke="#FEFEFE" stroke-width="3"/>
<path d="M365.149 262.895C395.655 239.724 385.848 177.819 384.184 164.615C382.52 151.412 366.61 115.098 332.308 106.424C298.006 97.7506 316.306 56.2118 273.686 59.4711C253.931 60.9818 241.496 62.0311 230.542 65.6373" stroke="#FEFEFE" stroke-width="3"/>
</svg>
