<svg width="365" height="305" viewBox="0 0 365 305" fill="none" xmlns="http://www.w3.org/2000/svg">
<path d="M344.421 83.5242C379.942 143.634 368.8 223.679 316.252 267.85C274.481 302.962 219.363 303.361 182.612 303.689C143.243 304.043 82.5938 304.575 40.0846 265.572C-10.9776 218.706 -9.47176 139.033 23.3526 84.3574C28.8643 75.1828 58.7852 27.5369 122.869 8.26579C199.285 -14.7107 301.055 10.1627 344.421 83.5242Z" fill="#151B3C"/>
<path d="M183.188 303.798H183.263C184.13 303.798 184.832 303.165 184.832 302.384L184.832 49.3105C184.832 48.5294 184.13 47.896 183.263 47.896H183.188C182.321 47.896 181.618 48.5294 181.618 49.3105L181.618 302.384C181.618 303.165 182.321 303.798 183.188 303.798Z" fill="#374A7B"/>
<path d="M183.039 304.053H182.964C182.763 304.023 182.57 303.957 182.397 303.86C182.224 303.763 182.074 303.636 181.955 303.487C181.837 303.337 181.751 303.168 181.705 302.989C181.659 302.81 181.652 302.625 181.686 302.443L229.675 58.4707C229.754 58.1053 229.989 57.7823 230.328 57.571C230.668 57.3597 231.087 57.2771 231.494 57.3408H231.56C231.761 57.3689 231.954 57.4329 232.128 57.529C232.302 57.625 232.453 57.7512 232.572 57.9002C232.691 58.0493 232.775 58.2183 232.821 58.3972C232.867 58.5761 232.873 58.7614 232.839 58.9424L184.849 302.915C184.776 303.282 184.544 303.608 184.205 303.821C183.865 304.035 183.446 304.118 183.039 304.053Z" fill="#374A7B"/>
<path d="M182.764 303.993H182.706C182.515 303.937 182.337 303.847 182.185 303.729C182.032 303.611 181.907 303.466 181.818 303.304C181.728 303.141 181.675 302.964 181.662 302.783C181.65 302.602 181.677 302.42 181.743 302.249L274.966 74.7409C275.12 74.3981 275.416 74.123 275.791 73.9735C276.166 73.824 276.591 73.8121 276.976 73.9402H277.042C277.233 73.9967 277.41 74.0868 277.561 74.2055C277.713 74.3242 277.837 74.4689 277.926 74.6312C278.015 74.7936 278.067 74.9705 278.079 75.1512C278.091 75.3319 278.063 75.5127 277.997 75.6836L184.774 303.192C184.618 303.533 184.322 303.807 183.948 303.957C183.573 304.106 183.149 304.119 182.764 303.993Z" fill="#374A7B"/>
<path d="M182.458 303.91H182.392C182.218 303.845 182.062 303.747 181.934 303.623C181.805 303.498 181.708 303.351 181.649 303.19C181.589 303.029 181.568 302.858 181.587 302.69C181.607 302.521 181.666 302.358 181.761 302.212L315.684 107.138C315.914 106.838 316.258 106.623 316.65 106.535C317.043 106.446 317.459 106.491 317.818 106.659H317.876C318.05 106.724 318.208 106.821 318.337 106.945C318.466 107.069 318.564 107.217 318.624 107.378C318.685 107.539 318.706 107.709 318.688 107.879C318.669 108.048 318.61 108.211 318.515 108.358L184.584 303.424C184.356 303.724 184.014 303.939 183.623 304.028C183.232 304.118 182.818 304.076 182.458 303.91Z" fill="#374A7B"/>
<path d="M182.316 303.753L182.267 303.716C182.114 303.636 181.981 303.527 181.878 303.398C181.775 303.268 181.704 303.121 181.668 302.965C181.633 302.808 181.635 302.647 181.674 302.491C181.712 302.336 181.787 302.19 181.893 302.062L333.103 156.876C333.392 156.656 333.758 156.535 334.136 156.535C334.515 156.535 334.881 156.656 335.17 156.876L335.228 156.913C335.38 156.994 335.511 157.103 335.614 157.232C335.716 157.362 335.787 157.51 335.822 157.665C335.858 157.821 335.856 157.982 335.818 158.137C335.78 158.292 335.707 158.439 335.602 158.567L184.392 303.753C184.098 303.966 183.732 304.082 183.354 304.082C182.977 304.082 182.611 303.966 182.316 303.753Z" fill="#374A7B"/>
<path d="M182.126 303.566L182.076 303.521C181.511 302.96 181.428 302.241 181.901 301.927L334.896 200.798C335.222 200.667 335.588 200.64 335.933 200.723C336.278 200.806 336.58 200.994 336.789 201.255L336.839 201.3C337.403 201.861 337.486 202.579 337.013 202.894L184.018 304.023C183.693 304.154 183.327 304.181 182.982 304.098C182.637 304.015 182.335 303.827 182.126 303.566Z" fill="#374A7B"/>
<path d="M181.935 303.348V303.296C181.487 302.653 181.462 301.979 181.885 301.799L317.162 244.413C317.577 244.241 318.282 244.623 318.731 245.274V245.326C319.179 245.97 319.204 246.644 318.789 246.823L183.504 304.202C183.106 304.381 182.4 304 181.935 303.348Z" fill="#374A7B"/>
<path d="M181.819 303.012V302.96C181.512 302.249 181.512 301.613 181.819 301.553L283.188 280.411C283.495 280.351 284.018 280.875 284.308 281.586V281.646C284.616 282.349 284.616 282.986 284.308 283.053L182.94 304.187C182.633 304.254 182.127 303.716 181.819 303.012Z" fill="#374A7B"/>
<path d="M183.387 304.053H183.454C183.655 304.024 183.848 303.959 184.022 303.862C184.196 303.765 184.347 303.638 184.466 303.489C184.584 303.339 184.669 303.17 184.715 302.99C184.761 302.811 184.767 302.625 184.732 302.444L136.751 58.471C136.67 58.1065 136.435 57.7848 136.096 57.5739C135.756 57.3629 135.339 57.2795 134.932 57.3411H134.857C134.453 57.4017 134.092 57.6042 133.852 57.9042C133.612 58.2043 133.514 58.5777 133.579 58.9427L181.569 302.915C181.644 303.283 181.877 303.609 182.218 303.822C182.558 304.036 182.979 304.118 183.387 304.053Z" fill="#374A7B"/>
<path d="M183.645 303.992H183.712C183.902 303.936 184.079 303.845 184.23 303.727C184.382 303.608 184.506 303.463 184.595 303.301C184.684 303.139 184.736 302.962 184.748 302.781C184.76 302.601 184.733 302.419 184.666 302.248L91.4347 74.7103C91.2826 74.3682 90.9882 74.0929 90.6145 73.9433C90.2408 73.7937 89.8171 73.7819 89.4336 73.9097H89.3671C89.1762 73.9662 88.9999 74.0563 88.8482 74.175C88.6965 74.2937 88.5726 74.4383 88.4837 74.6007C88.3948 74.7631 88.3427 74.94 88.3304 75.1207C88.3182 75.3014 88.346 75.4822 88.4123 75.6531L181.636 303.161C181.783 303.509 182.076 303.792 182.452 303.947C182.828 304.102 183.256 304.119 183.645 303.992Z" fill="#374A7B"/>
<path d="M183.969 303.91H184.027C184.202 303.845 184.359 303.748 184.488 303.624C184.617 303.5 184.715 303.353 184.776 303.192C184.836 303.031 184.858 302.86 184.839 302.691C184.82 302.522 184.761 302.358 184.666 302.211L50.7514 107.115C50.5217 106.815 50.1779 106.6 49.7849 106.512C49.392 106.424 48.9771 106.468 48.6178 106.637H48.5594C48.3857 106.702 48.2295 106.8 48.1013 106.924C47.9731 107.049 47.876 107.196 47.8163 107.357C47.7565 107.518 47.7357 107.688 47.7551 107.857C47.7744 108.026 47.8335 108.189 47.9286 108.336L181.852 303.401C182.076 303.703 182.414 303.922 182.804 304.015C183.194 304.109 183.608 304.071 183.969 303.91Z" fill="#374A7B"/>
<path d="M184.102 303.753L184.16 303.716C184.313 303.636 184.445 303.527 184.548 303.398C184.652 303.268 184.723 303.121 184.758 302.964C184.793 302.808 184.792 302.647 184.753 302.491C184.714 302.336 184.639 302.19 184.533 302.062L33.3237 156.876C33.0345 156.656 32.6687 156.535 32.2903 156.535C31.9119 156.535 31.5456 156.656 31.2565 156.876L31.1985 156.913C31.0456 156.993 30.9133 157.102 30.8101 157.231C30.707 157.361 30.6354 157.508 30.6001 157.665C30.5648 157.821 30.5667 157.982 30.6054 158.138C30.6441 158.293 30.7188 158.439 30.8247 158.567L182.034 303.753C182.324 303.973 182.69 304.094 183.068 304.094C183.447 304.094 183.813 303.973 184.102 303.753Z" fill="#374A7B"/>
<path d="M184.301 303.566V303.521C184.874 302.96 184.948 302.241 184.483 301.927L31.4805 200.798C31.1549 200.667 30.7887 200.64 30.4439 200.723C30.0991 200.806 29.7965 200.994 29.5873 201.255L29.5459 201.3C28.973 201.861 28.8985 202.579 29.3635 202.894L182.366 304.023C182.697 304.164 183.072 304.196 183.426 304.113C183.78 304.029 184.09 303.835 184.301 303.566Z" fill="#374A7B"/>
<path d="M184.467 303.348L184.509 303.296C184.949 302.653 184.974 301.979 184.558 301.799L49.2736 244.413C48.8585 244.241 48.1526 244.623 47.7043 245.274V245.326C47.2559 245.97 47.231 246.644 47.6544 246.823L182.931 304.202C183.321 304.381 184.027 304 184.467 303.348Z" fill="#374A7B"/>
<path d="M184.608 303.012V302.96C184.915 302.249 184.907 301.613 184.608 301.553L83.2394 280.411C82.9239 280.351 82.4093 280.875 82.1104 281.586V281.646C81.8032 282.349 81.8115 282.986 82.1104 283.053L183.478 304.187C183.794 304.254 184.301 303.716 184.608 303.012Z" fill="#374A7B"/>
</svg>
