<svg width="355" height="342" viewBox="0 0 355 342" fill="none" xmlns="http://www.w3.org/2000/svg">
<path d="M276.166 197.529C271.588 184.031 233.624 75.456 178.413 75.5845C168.352 75.5845 151.852 79.2535 131.683 101.423C123.891 88.7286 74.1162 8.91603 39.0278 13.1635C7.21141 17.0146 -0.155092 88.4929 5.97488 123.929C12.5656 162.049 37.0155 197.523 37.0155 197.523" fill="#151B3C"/>
<path d="M241.8 249.849H241.849C241.974 249.831 242.093 249.784 242.198 249.713C242.303 249.643 242.39 249.549 242.453 249.439C242.517 249.33 242.554 249.208 242.564 249.082C242.573 248.956 242.554 248.829 242.507 248.711L171.058 97.4306C170.911 97.1899 170.687 97.0054 170.423 96.9068C170.158 96.8081 169.869 96.801 169.6 96.8863H169.556C169.431 96.9048 169.312 96.951 169.207 97.0219C169.102 97.0927 169.014 97.1864 168.951 97.2956C168.887 97.4048 168.849 97.527 168.838 97.6531C168.828 97.7792 168.846 97.9058 168.892 98.0239L240.341 249.305C240.488 249.545 240.712 249.73 240.977 249.829C241.241 249.927 241.531 249.934 241.8 249.849Z" fill="#6C7BA0"/>
<path d="M260.813 262.712H260.857C260.976 262.673 261.085 262.607 261.175 262.519C261.265 262.431 261.334 262.324 261.375 262.205C261.416 262.086 261.429 261.96 261.412 261.835C261.396 261.71 261.351 261.591 261.281 261.487L161.565 123.602C161.377 123.387 161.125 123.24 160.845 123.183C160.566 123.126 160.276 123.162 160.019 123.286H159.976C159.856 123.325 159.747 123.391 159.657 123.479C159.567 123.566 159.499 123.674 159.458 123.793C159.416 123.912 159.404 124.038 159.42 124.163C159.436 124.288 159.481 124.407 159.551 124.511L259.267 262.396C259.455 262.61 259.707 262.758 259.987 262.815C260.266 262.872 260.556 262.836 260.813 262.712Z" fill="#6C7BA0"/>
<path d="M284.824 270.621L284.862 270.594C284.973 270.535 285.069 270.452 285.142 270.349C285.214 270.247 285.262 270.128 285.28 270.004C285.298 269.88 285.286 269.753 285.246 269.634C285.205 269.515 285.137 269.408 285.047 269.32L160.09 149.023C159.87 148.84 159.597 148.733 159.311 148.719C159.025 148.706 158.742 148.785 158.506 148.946L158.468 148.974C158.358 149.033 158.263 149.117 158.191 149.22C158.119 149.322 158.072 149.44 158.054 149.564C158.036 149.688 158.047 149.814 158.087 149.933C158.127 150.052 158.194 150.159 158.283 150.247L283.24 270.545C283.46 270.728 283.733 270.834 284.019 270.848C284.305 270.862 284.587 270.782 284.824 270.621Z" fill="#6C7BA0"/>
<path d="M319.808 265.553L319.841 265.515C319.929 265.427 319.996 265.32 320.035 265.201C320.075 265.082 320.086 264.956 320.067 264.833C320.049 264.709 320.001 264.592 319.929 264.49C319.856 264.388 319.761 264.305 319.65 264.247L164.156 176.996C163.901 176.87 163.611 176.83 163.331 176.883C163.051 176.936 162.796 177.079 162.605 177.29L162.578 177.323C162.489 177.411 162.422 177.519 162.383 177.638C162.344 177.757 162.333 177.884 162.351 178.008C162.37 178.131 162.417 178.249 162.49 178.351C162.562 178.454 162.657 178.538 162.768 178.596L318.262 265.847C318.517 265.972 318.805 266.011 319.084 265.958C319.363 265.905 319.617 265.763 319.808 265.553Z" fill="#6C7BA0"/>
<path d="M354.906 248.597V248.554C354.964 248.442 354.996 248.319 354.999 248.194C355.002 248.068 354.977 247.943 354.924 247.829C354.871 247.715 354.793 247.615 354.696 247.536C354.598 247.456 354.484 247.401 354.362 247.373L178.934 199.106C178.661 199.039 178.372 199.066 178.116 199.183C177.859 199.299 177.649 199.499 177.519 199.749V199.792C177.461 199.904 177.429 200.027 177.426 200.152C177.423 200.278 177.449 200.403 177.501 200.517C177.554 200.631 177.632 200.731 177.729 200.81C177.827 200.89 177.941 200.945 178.064 200.973L353.491 249.239C353.765 249.305 354.053 249.278 354.309 249.162C354.566 249.045 354.776 248.847 354.906 248.597Z" fill="#6C7BA0"/>
<path d="M237.973 269.325H238.022C238.626 269.255 239.018 268.781 238.893 268.308L197.888 108.219C197.788 107.958 197.602 107.739 197.361 107.599C197.119 107.458 196.836 107.404 196.56 107.447H196.511C195.907 107.517 195.515 107.991 195.64 108.47L236.645 268.552C236.744 268.814 236.93 269.034 237.172 269.175C237.414 269.315 237.697 269.368 237.973 269.325Z" fill="#6C7BA0"/>
<path d="M225.916 298.414H225.965C226.094 298.438 226.226 298.433 226.353 298.402C226.48 298.37 226.599 298.312 226.702 298.232C226.804 298.151 226.889 298.049 226.95 297.933C227.01 297.818 227.046 297.69 227.054 297.56L221.371 133.411C221.331 133.137 221.194 132.887 220.985 132.705C220.777 132.523 220.51 132.422 220.233 132.42H220.184C220.056 132.396 219.924 132.399 219.797 132.43C219.67 132.461 219.551 132.518 219.448 132.599C219.345 132.679 219.261 132.781 219.2 132.896C219.139 133.012 219.103 133.139 219.096 133.269L224.795 297.424C224.835 297.695 224.969 297.943 225.174 298.124C225.38 298.306 225.642 298.408 225.916 298.414Z" fill="#6C7BA0"/>
<path d="M202.864 315.109H202.913C203.036 315.153 203.166 315.171 203.297 315.163C203.427 315.155 203.555 315.12 203.671 315.061C203.788 315.002 203.891 314.92 203.975 314.819C204.059 314.719 204.122 314.603 204.159 314.478L236.226 152.767C236.252 152.496 236.176 152.224 236.011 152.007C235.847 151.789 235.607 151.641 235.339 151.592H235.289C235.166 151.548 235.036 151.529 234.905 151.538C234.775 151.546 234.647 151.581 234.531 151.64C234.414 151.699 234.311 151.781 234.227 151.881C234.143 151.982 234.08 152.098 234.043 152.223L201.977 313.933C201.95 314.205 202.027 314.476 202.191 314.694C202.355 314.912 202.595 315.06 202.864 315.109Z" fill="#6C7BA0"/>
<path d="M161.124 326.17L161.168 326.197C161.393 326.339 161.666 326.387 161.927 326.33C162.187 326.273 162.415 326.116 162.561 325.892L243.247 178.378C243.358 178.134 243.368 177.856 243.277 177.604C243.185 177.351 242.999 177.145 242.758 177.028H242.714C242.603 176.957 242.478 176.908 242.348 176.884C242.217 176.861 242.084 176.863 241.954 176.891C241.825 176.92 241.702 176.973 241.593 177.049C241.484 177.125 241.392 177.221 241.321 177.333L160.634 324.847C160.532 325.088 160.526 325.36 160.617 325.606C160.708 325.851 160.889 326.053 161.124 326.17Z" fill="#6C7BA0"/>
<path d="M117.317 258.54H117.371C117.53 258.535 117.686 258.494 117.827 258.419C117.968 258.345 118.089 258.239 118.182 258.111C118.274 257.983 118.336 257.835 118.362 257.679C118.388 257.524 118.377 257.365 118.331 257.214L50.0177 64.8854C49.8675 64.5735 49.6163 64.3199 49.3038 64.1649C48.9913 64.0099 48.6352 63.9624 48.2922 64.0299H48.2385C48.079 64.0352 47.9231 64.0765 47.7825 64.151C47.6419 64.2254 47.5206 64.3311 47.4278 64.4593C47.335 64.5875 47.2731 64.7351 47.2472 64.8906C47.2214 65.0461 47.2323 65.2055 47.2787 65.3563L115.592 257.685C115.743 257.996 115.994 258.249 116.307 258.404C116.619 258.559 116.974 258.607 117.317 258.54Z" fill="#6C7BA0"/>
<path d="M138.995 276.526H139.049C139.199 276.493 139.34 276.427 139.46 276.332C139.58 276.237 139.677 276.115 139.742 275.977C139.807 275.839 139.839 275.689 139.835 275.536C139.831 275.384 139.792 275.235 139.72 275.1L34.9944 95.4254C34.7914 95.1429 34.501 94.9332 34.1668 94.828C33.8326 94.7227 33.4729 94.7276 33.1418 94.8419H33.0814C32.93 94.8741 32.7881 94.9406 32.6671 95.0362C32.5461 95.1318 32.4493 95.2538 32.3842 95.3927C32.3191 95.5316 32.2873 95.6834 32.2918 95.8364C32.2963 95.9894 32.337 96.1393 32.4101 96.2742L137.136 275.942C137.338 276.227 137.63 276.439 137.965 276.544C138.301 276.649 138.663 276.643 138.995 276.526Z" fill="#6C7BA0"/>
<path d="M167.438 289.14H167.486C167.629 289.084 167.757 288.994 167.859 288.879C167.961 288.764 168.034 288.627 168.072 288.479C168.11 288.331 168.112 288.176 168.078 288.027C168.043 287.878 167.974 287.739 167.875 287.621L29.9664 126.052C29.7193 125.804 29.3974 125.641 29.0489 125.588C28.7003 125.536 28.344 125.596 28.0331 125.76H27.9793C27.8367 125.818 27.7096 125.909 27.6086 126.024C27.5075 126.139 27.4353 126.275 27.3975 126.423C27.3596 126.57 27.3572 126.725 27.3906 126.874C27.424 127.022 27.4923 127.161 27.5899 127.279L165.505 288.822C165.749 289.075 166.069 289.242 166.418 289.3C166.767 289.357 167.125 289.301 167.438 289.14Z" fill="#6C7BA0"/>
<path d="M211.013 287.409L211.053 287.37C211.174 287.274 211.27 287.152 211.333 287.012C211.397 286.873 211.427 286.721 211.42 286.568C211.412 286.416 211.369 286.267 211.292 286.134C211.216 286.001 211.108 285.889 210.979 285.805L31.395 160.459C31.098 160.274 30.7482 160.19 30.3982 160.218C30.0482 160.247 29.7169 160.387 29.4548 160.618L29.4148 160.658C29.295 160.754 29.1993 160.876 29.1359 161.015C29.0724 161.154 29.0428 161.305 29.0493 161.457C29.0559 161.61 29.0985 161.758 29.1736 161.891C29.2487 162.024 29.3541 162.138 29.4817 162.224L209.072 287.569C209.369 287.754 209.719 287.838 210.069 287.81C210.419 287.781 210.75 287.64 211.013 287.409Z" fill="#6C7BA0"/>
<path d="M256.213 271.294V271.247C256.298 271.119 256.352 270.973 256.371 270.82C256.391 270.668 256.374 270.513 256.324 270.368C256.273 270.223 256.19 270.091 256.08 269.982C255.97 269.874 255.836 269.792 255.689 269.742L46.6682 189.116C46.3413 188.999 45.9836 188.994 45.6534 189.102C45.3232 189.211 45.0398 189.426 44.849 189.713V189.766C44.7639 189.894 44.7096 190.04 44.6904 190.192C44.6711 190.344 44.6873 190.498 44.7379 190.643C44.7885 190.788 44.8721 190.919 44.9821 191.027C45.0921 191.135 45.2256 191.216 45.3725 191.265L254.4 271.897C254.727 272.011 255.084 272.014 255.412 271.905C255.741 271.795 256.023 271.58 256.213 271.294Z" fill="#6C7BA0"/>
<path d="M110.135 281.66H110.196C110.947 281.66 111.485 281.142 111.397 280.532L81.544 81.3591C81.4564 81.0295 81.2562 80.7398 80.9773 80.5392C80.6984 80.3386 80.3577 80.2393 80.0132 80.2581H79.9529C79.201 80.2581 78.664 80.7689 78.7512 81.3857L108.605 280.552C108.691 280.883 108.891 281.174 109.17 281.376C109.449 281.578 109.79 281.678 110.135 281.66Z" fill="#6C7BA0"/>
<path d="M91.627 315.384H91.6873C91.8406 315.427 92.0015 315.438 92.1593 315.415C92.3171 315.392 92.468 315.337 92.6025 315.252C92.737 315.167 92.8519 315.056 92.9394 314.924C93.027 314.792 93.0853 314.644 93.1105 314.488L107.094 114.865C107.077 114.53 106.94 114.214 106.707 113.97C106.474 113.727 106.162 113.574 105.825 113.538H105.765C105.612 113.495 105.452 113.484 105.294 113.506C105.137 113.529 104.986 113.583 104.852 113.667C104.717 113.751 104.602 113.862 104.514 113.993C104.427 114.124 104.368 114.272 104.342 114.427L90.3512 314.051C90.3684 314.386 90.5065 314.705 90.7403 314.95C90.9741 315.194 91.2886 315.348 91.627 315.384Z" fill="#6C7BA0"/>
<path d="M61.1886 332.706H61.2492C61.3949 332.775 61.553 332.814 61.7144 332.821C61.8757 332.827 62.0369 332.801 62.1877 332.744C62.3385 332.687 62.4759 332.6 62.5915 332.488C62.7072 332.377 62.7986 332.244 62.8603 332.096L122.849 140.179C122.917 139.853 122.859 139.515 122.686 139.23C122.513 138.945 122.238 138.735 121.916 138.64H121.856C121.71 138.572 121.551 138.534 121.39 138.528C121.229 138.522 121.069 138.549 120.918 138.606C120.768 138.663 120.63 138.749 120.515 138.86C120.399 138.971 120.307 139.104 120.244 139.25L60.2557 331.181C60.1917 331.504 60.2517 331.84 60.4242 332.122C60.5967 332.404 60.8691 332.612 61.1886 332.706Z" fill="#6C7BA0"/>
<path d="M8.60495 340.844L8.65183 340.877C8.90937 341.081 9.23831 341.176 9.56669 341.142C9.89507 341.107 10.1961 340.945 10.4039 340.691L128.22 172.112C128.388 171.83 128.438 171.494 128.357 171.176C128.277 170.858 128.073 170.585 127.79 170.414L127.743 170.381C127.485 170.18 127.158 170.087 126.831 170.123C126.504 170.159 126.205 170.321 125.998 170.573L8.17522 339.139C8.00648 339.422 7.95687 339.76 8.03722 340.078C8.11757 340.397 8.32155 340.672 8.60495 340.844Z" fill="#6C7BA0"/>
<mask id="path-20-inside-1_483_763" fill="white">
<path d="M278 205C273.323 190.005 234.546 69.3847 178.152 69.5275C167.875 69.5275 151.021 73.6036 130.42 98.2323C122.461 84.1298 71.6191 -4.53704 35.7786 0.181627C3.28024 4.45996 -4.24415 83.868 2.01722 123.236C8.74923 165.585 33.7232 204.994 33.7232 204.994"/>
</mask>
<path d="M178.152 69.5275V72.5276L178.159 72.5275L178.152 69.5275ZM130.42 98.2323L127.807 99.7068L129.939 103.483L132.721 100.157L130.42 98.2323ZM35.7786 0.181627L36.1702 3.15596L36.1702 3.15596L35.7786 0.181627ZM2.01722 123.236L4.98001 122.765L4.97998 122.765L2.01722 123.236ZM280.864 204.107C278.511 196.563 267.579 162.433 250.108 130.159C241.377 114.03 230.933 98.2103 218.997 86.3942C207.081 74.5977 193.364 66.489 178.144 66.5276L178.159 72.5275C191.137 72.4947 203.414 79.41 214.776 90.6582C226.118 101.887 236.234 117.133 244.832 133.015C262.018 164.764 272.812 198.442 275.136 205.893L280.864 204.107ZM178.152 66.5275C166.848 66.5275 149.195 71.1114 128.119 96.3074L132.721 100.157C152.848 76.0957 168.902 72.5275 178.152 72.5275V66.5275ZM133.033 96.7577C129.038 89.6808 114.249 63.828 95.9212 40.3052C86.7652 28.554 76.6315 17.2604 66.4305 9.17691C56.3402 1.18126 45.6025 -4.13765 35.387 -2.79271L36.1702 3.15596C43.875 2.14157 52.9327 6.13652 62.7041 13.8795C72.3647 21.5346 82.159 32.4044 91.1883 43.9929C109.231 67.1494 123.842 92.6813 127.807 99.7068L133.033 96.7577ZM35.387 -2.79271C25.9733 -1.55341 18.7454 5.09216 13.3377 14.1384C7.91686 23.2063 4.03774 35.1307 1.4235 47.9507C-3.80602 73.5959 -4.13514 103.653 -0.945545 123.707L4.97998 122.765C1.9082 103.451 2.21059 74.12 7.30252 49.1496C9.849 36.6618 13.5531 25.4715 18.4876 17.217C23.4352 8.94064 29.3347 4.05583 36.1702 3.15596L35.387 -2.79271ZM-0.945583 123.707C2.48183 145.268 10.532 165.992 17.6773 181.267C21.2566 188.919 24.624 195.235 27.1001 199.644C28.3385 201.849 29.3548 203.578 30.0643 204.761C30.4191 205.353 30.6973 205.808 30.8883 206.117C30.9838 206.272 31.0575 206.39 31.1081 206.471C31.1334 206.511 31.1529 206.542 31.1665 206.564C31.1732 206.575 31.1785 206.583 31.1823 206.589C31.1842 206.592 31.1857 206.595 31.1869 206.596C31.1875 206.597 31.188 206.598 31.1883 206.599C31.1888 206.599 31.1892 206.6 33.7232 204.994C36.2572 203.388 36.2574 203.389 36.2575 203.389C36.2574 203.389 36.2574 203.389 36.2572 203.388C36.2569 203.388 36.2561 203.387 36.255 203.385C36.2527 203.381 36.249 203.375 36.2437 203.367C36.2332 203.35 36.2168 203.324 36.1946 203.289C36.1503 203.218 36.083 203.11 35.9939 202.965C35.8158 202.677 35.5508 202.244 35.2096 201.675C34.5271 200.537 33.5397 198.857 32.3316 196.706C29.9146 192.402 26.6178 186.219 23.1121 178.725C16.0874 163.708 8.28462 143.553 4.98001 122.765L-0.945583 123.707Z" fill="#FEFEFE" mask="url(#path-20-inside-1_483_763)"/>
</svg>
