<svg width="153" height="405" viewBox="0 0 153 405" fill="none" xmlns="http://www.w3.org/2000/svg">
<path d="M152.991 225.116C152.431 287.829 123.428 320.654 76.5553 320.654C29.683 320.654 0.551639 287.771 0.00586976 225.059C-0.483196 169.444 29.6262 0 76.4986 0C123.371 0 153.587 157.503 152.991 225.116Z" fill="#45406A"/>
<path d="M75.4305 53.9954H74.2752C71.7621 53.9954 69.7247 55.8317 69.7247 58.0969V399.969C69.7247 402.234 71.7621 404.07 74.2752 404.07H75.4305C77.9437 404.07 79.981 402.234 79.981 399.969V58.0969C79.981 55.8317 77.9437 53.9954 75.4305 53.9954Z" fill="#1D193F"/>
<path d="M75.9267 135.267L76.6172 135.855C76.9047 136.099 77.3579 136.088 77.6293 135.829L117.042 98.2088C117.314 97.9497 117.301 97.5411 117.014 97.2965L116.323 96.7087C116.036 96.464 115.582 96.4758 115.311 96.7349L75.8978 134.355C75.6264 134.614 75.6392 135.022 75.9267 135.267Z" fill="#1D193F"/>
<path d="M76.7154 163.941L77.3029 164.441C77.6188 164.71 78.1169 164.697 78.4152 164.412L126.179 118.822C126.477 118.537 126.463 118.088 126.147 117.819L125.56 117.319C125.244 117.05 124.746 117.063 124.448 117.348L76.6837 162.939C76.3854 163.223 76.3995 163.672 76.7154 163.941Z" fill="#1D193F"/>
<path d="M77.2837 213.949L77.8712 214.449C78.1871 214.718 78.685 214.705 78.9833 214.42L126.747 168.829C127.046 168.544 127.031 168.095 126.716 167.827L126.128 167.327C125.812 167.058 125.314 167.071 125.016 167.355L77.2518 212.946C76.9535 213.231 76.9678 213.68 77.2837 213.949Z" fill="#1D193F"/>
<path d="M70.0458 96.9409L70.7363 97.5286C71.0238 97.7733 71.4768 97.7617 71.7482 97.5026L111.161 59.8826C111.433 59.6235 111.42 59.2152 111.132 58.9706L110.442 58.3828C110.154 58.1381 109.701 58.1497 109.43 58.4088L70.0167 96.0288C69.7453 96.2879 69.7584 96.6962 70.0458 96.9409Z" fill="#1D193F"/>
<path d="M76.7165 229.212L77.304 229.712C77.6199 229.981 78.1178 229.968 78.4161 229.683L126.18 184.092C126.478 183.808 126.464 183.359 126.148 183.09L125.561 182.59C125.245 182.321 124.747 182.334 124.448 182.619L76.6846 228.209C76.3863 228.494 76.4006 228.943 76.7165 229.212Z" fill="#1D193F"/>
<path d="M77.2848 306.531L77.8723 307.031C78.1882 307.3 78.6864 307.287 78.9847 307.002L126.749 261.411C127.047 261.126 127.033 260.678 126.717 260.409L126.129 259.909C125.813 259.64 125.315 259.652 125.017 259.937L77.2532 305.528C76.9548 305.813 76.9689 306.262 77.2848 306.531Z" fill="#1D193F"/>
<path d="M77.2753 263.963L77.8628 264.463C78.1787 264.732 78.6766 264.719 78.9749 264.434L126.739 218.843C127.037 218.559 127.023 218.11 126.707 217.841L126.119 217.341C125.804 217.072 125.306 217.085 125.007 217.37L77.2434 262.96C76.9451 263.245 76.9594 263.694 77.2753 263.963Z" fill="#1D193F"/>
<path d="M75.9277 276.591L76.6182 277.179C76.9056 277.423 77.3589 277.411 77.6303 277.152L117.043 239.532C117.315 239.273 117.302 238.865 117.014 238.62L116.324 238.032C116.037 237.788 115.583 237.799 115.312 238.059L75.8988 275.678C75.6274 275.938 75.6402 276.346 75.9277 276.591Z" fill="#1D193F"/>
<path d="M76.0677 79.0035L76.9335 79.7404C77.1725 79.9439 77.5495 79.934 77.7753 79.7186L103.786 54.891C104.012 54.6755 104.001 54.336 103.762 54.1325L102.896 53.3955C102.657 53.192 102.28 53.2017 102.055 53.4172L76.0438 78.2447C75.818 78.4602 75.8286 78.8 76.0677 79.0035Z" fill="#1D193F"/>
<path d="M33.6478 75.7927L33.1016 76.2577C32.8113 76.5048 32.7982 76.9172 33.0723 77.1789L77.2058 119.304C77.48 119.566 77.9376 119.578 78.2279 119.331L78.7741 118.866C79.0644 118.619 79.0775 118.206 78.8034 117.945L34.6698 75.8191C34.3957 75.5574 33.9381 75.5456 33.6478 75.7927Z" fill="#1D193F"/>
<path d="M27.3056 122.41L26.7593 122.875C26.469 123.122 26.4559 123.535 26.73 123.797L70.8636 165.922C71.1377 166.184 71.5953 166.196 71.8856 165.949L72.4319 165.484C72.7222 165.236 72.7353 164.824 72.4611 164.562L28.3276 122.437C28.0535 122.175 27.5959 122.163 27.3056 122.41Z" fill="#1D193F"/>
<path d="M27.3097 166.02L26.7634 166.485C26.4731 166.732 26.46 167.145 26.7342 167.406L70.8677 209.532C71.1418 209.794 71.5994 209.805 71.8897 209.558L72.436 209.093C72.7263 208.846 72.7394 208.434 72.4653 208.172L28.3317 166.047C28.0576 165.785 27.6 165.773 27.3097 166.02Z" fill="#1D193F"/>
<path d="M37.5921 66.5935L36.9634 67.1287C36.6959 67.3564 36.6838 67.7365 36.9364 67.9776L73.3421 102.727C73.5948 102.968 74.0164 102.979 74.2839 102.751L74.9127 102.216C75.1802 101.988 75.1923 101.608 74.9396 101.367L38.5339 66.6178C38.2813 66.3767 37.8597 66.3658 37.5921 66.5935Z" fill="#1D193F"/>
<path d="M27.3035 175.376L26.7572 175.841C26.4669 176.088 26.4538 176.5 26.728 176.762L70.8615 218.887C71.1356 219.149 71.5932 219.161 71.8835 218.914L72.4298 218.449C72.7201 218.202 72.7332 217.789 72.4591 217.528L28.3255 175.402C28.0514 175.14 27.5938 175.129 27.3035 175.376Z" fill="#1D193F"/>
<path d="M27.3056 206.231L26.7593 206.696C26.469 206.943 26.4559 207.356 26.73 207.617L70.8636 249.743C71.1377 250.005 71.5953 250.016 71.8856 249.769L72.4319 249.304C72.7222 249.057 72.7353 248.645 72.4611 248.383L28.3276 206.258C28.0535 205.996 27.5959 205.984 27.3056 206.231Z" fill="#1D193F"/>
<path d="M27.4493 248.985L26.9134 249.441C26.6202 249.691 26.6069 250.107 26.8837 250.371L70.7157 292.209C70.9925 292.473 71.4545 292.485 71.7476 292.236L72.2836 291.779C72.5767 291.53 72.5901 291.114 72.3133 290.849L28.4813 249.012C28.2044 248.747 27.7425 248.736 27.4493 248.985Z" fill="#1D193F"/>
<path d="M27.3119 261.695L26.7656 262.16C26.4753 262.407 26.4622 262.819 26.7364 263.081L70.8699 305.206C71.144 305.468 71.6016 305.48 71.8919 305.233L72.4382 304.768C72.7285 304.521 72.7416 304.108 72.4675 303.846L28.3339 261.721C28.0598 261.459 27.6022 261.447 27.3119 261.695Z" fill="#1D193F"/>
<path d="M27.2982 101.763L26.752 102.228C26.4617 102.475 26.4486 102.888 26.7227 103.15L70.8562 145.275C71.1304 145.537 71.588 145.549 71.8783 145.302L72.4245 144.837C72.7148 144.589 72.7279 144.177 72.4538 143.915L28.3203 101.79C28.0461 101.528 27.5885 101.516 27.2982 101.763Z" fill="#1D193F"/>
</svg>
