<svg width="499" height="158" viewBox="0 0 499 158" fill="none" xmlns="http://www.w3.org/2000/svg">
<path d="M56.3972 76.2793V155.866H34.8027V76.2793H56.3972Z" fill="#FEFEFE"/>
<path d="M135.007 41.7346H156.647V155.866H135.007V141.993C131.215 151.242 120.718 157.207 107.494 157.207C83.3097 157.207 69.0215 138.34 69.0215 115.587C69.0215 92.0025 84.0497 74.337 108.557 74.337C113.724 74.2523 118.834 75.4295 123.443 77.7665C128.052 80.1035 132.021 83.5296 135.007 87.7479V41.7346ZM135.007 116.003C135.007 111.633 133.708 107.361 131.276 103.729C128.844 100.098 125.389 97.2707 121.348 95.6067C117.306 93.9427 112.862 93.5169 108.579 94.3831C104.295 95.2494 100.365 97.3687 97.288 100.472C94.2108 103.576 92.1249 107.523 91.2949 111.814C90.4648 116.106 90.928 120.546 92.6259 124.574C94.3237 128.601 97.1795 132.033 100.831 134.435C104.482 136.836 108.765 138.099 113.135 138.062C116.053 138.174 118.963 137.679 121.679 136.607C124.396 135.536 126.861 133.912 128.917 131.838C130.973 129.765 132.576 127.286 133.624 124.56C134.673 121.835 135.144 118.921 135.007 116.003Z" fill="#FEFEFE"/>
<path d="M251.394 122.848H191.004C191.746 127.745 194.303 132.185 198.166 135.286C202.029 138.387 206.916 139.923 211.858 139.588C215.728 139.803 219.579 138.918 222.967 137.036C226.354 135.153 229.14 132.351 231.002 128.952L249.868 130.894C247.219 138.836 242.073 145.708 235.197 150.483C228.322 155.259 220.086 157.683 211.72 157.392C187.073 157.392 169.271 140.929 169.271 116.281C169.054 110.804 169.963 105.341 171.942 100.23C173.922 95.1191 176.929 90.4689 180.779 86.5673C184.628 82.6658 189.237 79.5959 194.32 77.5479C199.404 75.4998 204.854 74.5172 210.332 74.6607C234.516 74.6145 252.319 90.8926 251.394 122.848ZM190.865 107.772H229.522C228.875 98.5229 221.291 91.9561 210.332 91.9561C199.373 91.9561 191.605 98.5229 190.865 107.772Z" fill="#FEFEFE"/>
<path d="M329.587 76.2794H347.714V155.866H325.796V141.993C322.004 151.242 311.507 157.207 298.051 157.207C273.868 157.207 259.579 138.339 259.579 115.587C259.579 92.0025 274.607 74.337 299.115 74.337C304.282 74.2524 309.391 75.4296 314.001 77.7666C318.61 80.1035 322.579 83.5296 325.564 87.7479V88.2104L329.587 76.2794ZM325.935 116.003C325.934 111.633 324.636 107.361 322.204 103.729C319.772 100.098 316.316 97.2707 312.275 95.6067C308.234 93.9427 303.79 93.5169 299.506 94.3831C295.223 95.2494 291.293 97.3687 288.216 100.472C285.138 103.576 283.052 107.523 282.222 111.814C281.392 116.106 281.856 120.546 283.553 124.574C285.251 128.601 288.107 132.033 291.758 134.435C295.41 136.836 299.692 138.099 304.063 138.062C306.981 138.174 309.89 137.679 312.607 136.607C315.324 135.536 317.788 133.912 319.844 131.838C321.901 129.764 323.504 127.286 324.552 124.56C325.6 121.835 326.071 118.921 325.935 116.003Z" fill="#FEFEFE"/>
<path d="M412.82 76.2795V93.3438H394.324V155.866H372.73V93.3438H359.782V76.2795H372.73V53.1572H394.324V76.2795H412.82Z" fill="#FEFEFE"/>
<path d="M498.921 122.848H438.53C439.273 127.745 441.829 132.185 445.692 135.286C449.555 138.387 454.443 139.923 459.385 139.588C463.253 139.797 467.102 138.91 470.489 137.028C473.876 135.147 476.662 132.347 478.528 128.952L497.394 130.894C494.737 138.839 489.582 145.713 482.698 150.488C475.815 155.263 467.572 157.685 459.2 157.392C434.6 157.392 416.797 140.929 416.797 116.281C416.58 110.804 417.489 105.341 419.469 100.23C421.448 95.1191 424.456 90.4689 428.305 86.5673C432.154 82.6658 436.763 79.5959 441.847 77.5479C446.93 75.4998 452.38 74.5172 457.859 74.6607C482.043 74.6145 499.845 90.8926 498.921 122.848ZM438.391 107.772H477.187C476.586 98.5229 469.003 91.9561 458.044 91.9561C447.085 91.9561 439.131 98.5229 438.391 107.772Z" fill="#FEFEFE"/>
<g filter="url(#filter0_d_1074_16)">
<path d="M47.8892 25C51.0801 28.4687 52.861 33.0039 52.8831 37.7173C52.7858 42.8974 50.6377 47.8274 46.91 51.4254C43.1823 55.0233 38.1796 56.9954 32.9997 56.9087C30.2523 56.9038 27.5332 56.3537 25 55.2901C26.9455 57.9942 29.5092 60.1942 32.4773 61.7065C35.4453 63.2188 38.7318 63.9997 42.0628 63.9841C46.9282 64.1481 51.6839 62.5173 55.4249 59.4019C59.1658 56.2865 61.6308 51.9041 62.3504 47.0891C63.07 42.2741 61.994 37.3625 59.3274 33.2894C56.6608 29.2162 52.5898 26.2659 47.8892 25Z" fill="#FEFEFE"/>
</g>
<defs>
<filter id="filter0_d_1074_16" x="0" y="0" width="87.5684" height="88.9954" filterUnits="userSpaceOnUse" color-interpolation-filters="sRGB">
<feFlood flood-opacity="0" result="BackgroundImageFix"/>
<feColorMatrix in="SourceAlpha" type="matrix" values="0 0 0 0 0 0 0 0 0 0 0 0 0 0 0 0 0 0 127 0" result="hardAlpha"/>
<feOffset/>
<feGaussianBlur stdDeviation="12.5"/>
<feComposite in2="hardAlpha" operator="out"/>
<feColorMatrix type="matrix" values="0 0 0 0 0.995833 0 0 0 0 0.995833 0 0 0 0 0.995833 0 0 0 0.7 0"/>
<feBlend mode="normal" in2="BackgroundImageFix" result="effect1_dropShadow_1074_16"/>
<feBlend mode="normal" in="SourceGraphic" in2="effect1_dropShadow_1074_16" result="shape"/>
</filter>
</defs>
</svg>
