<svg width="1264" height="536" viewBox="0 0 1264 536" fill="none" xmlns="http://www.w3.org/2000/svg">
<path d="M464.695 203.116C239.664 214.985 26.2955 385.694 2 464H1467.83C1514.08 391.601 1435.33 216.634 1281.56 94.3111C1127.8 -28.0117 885.277 -24.797 787.015 66.2857C729.265 119.817 689.725 191.246 464.695 203.116Z" fill="#374A7B"/>
<path d="M464.695 203.116C239.664 214.985 26.2955 385.694 2 464H1467.83C1514.08 391.601 1435.33 216.634 1281.56 94.3111C1127.8 -28.0117 885.277 -24.797 787.015 66.2857C729.265 119.817 689.725 191.246 464.695 203.116Z" fill="#374A7B"/>
<path d="M464.695 203.116C239.664 214.985 26.2955 385.694 2 464H1467.83C1514.08 391.601 1435.33 216.634 1281.56 94.3111C1127.8 -28.0117 885.277 -24.797 787.015 66.2857C729.265 119.817 689.725 191.246 464.695 203.116Z" fill="#374A7B"/>
<path d="M464.695 203.116C239.664 214.985 26.2955 385.694 2 464H1467.83C1514.08 391.601 1435.33 216.634 1281.56 94.3111C1127.8 -28.0117 885.277 -24.797 787.015 66.2857C729.265 119.817 689.725 191.246 464.695 203.116Z" fill="#374A7B"/>
<path d="M464.695 203.116C239.664 214.985 26.2955 385.694 2 464H1467.83C1514.08 391.601 1435.33 216.634 1281.56 94.3111C1127.8 -28.0117 885.277 -24.797 787.015 66.2857C729.265 119.817 689.725 191.246 464.695 203.116Z" fill="#374A7B"/>
<path d="M464.695 203.116C239.664 214.985 26.2955 385.694 2 464H1467.83C1514.08 391.601 1435.33 216.634 1281.56 94.3111C1127.8 -28.0117 885.277 -24.797 787.015 66.2857C729.265 119.817 689.725 191.246 464.695 203.116Z" fill="#374A7B"/>
<path d="M462.695 233.116C237.664 244.985 24.2955 415.694 0 494H1465.83C1512.08 421.601 1433.33 246.634 1279.56 124.311C1125.8 1.98835 883.277 5.203 785.015 96.2857C727.265 149.817 687.725 221.246 462.695 233.116Z" fill="#222F58"/>
<path d="M464.695 275.116C239.664 286.985 26.2955 457.694 2 536H1467.83C1514.08 463.601 1435.33 288.634 1281.56 166.311C1127.8 43.9883 885.277 47.203 787.015 138.286C729.265 191.817 689.725 263.246 464.695 275.116Z" fill="#0A112B"/>
</svg>
