<svg viewBox="0 0 127 694" fill="none" xmlns="http://www.w3.org/2000/svg">
<path d="M23.2858 11C84.1266 11 122.572 468.676 122.572 541.311C122.572 613.946 84.1136 651.337 23.2858 651.337C-37.542 651.337 -76 611.959 -76 539.324C-76 466.689 -37.555 11 23.2858 11Z" fill="#151B3C"/>
<path d="M24.591 185.645H24.5808C21.4191 185.645 18.8561 187.955 18.8561 190.805V688.005C18.8561 690.855 21.4191 693.165 24.5808 693.165H24.591C27.7526 693.165 30.3157 690.855 30.3157 688.005V190.805C30.3157 187.955 27.7526 185.645 24.591 185.645Z" fill="#32467A"/>
<path d="M26.435 304.243L25.667 303.393C25.5143 303.201 25.4323 302.97 25.4323 302.733C25.4323 302.497 25.5143 302.266 25.667 302.073L69.7029 247.538C69.7641 247.452 69.8482 247.381 69.9475 247.332C70.0469 247.284 70.1581 247.258 70.2713 247.258C70.3844 247.258 70.4957 247.284 70.595 247.332C70.6943 247.381 70.7784 247.452 70.8396 247.538L71.6077 248.387C71.7603 248.579 71.8424 248.81 71.8424 249.047C71.8424 249.284 71.7603 249.514 71.6077 249.707L27.5718 304.243C27.5123 304.331 27.4289 304.403 27.3294 304.454C27.2298 304.504 27.1175 304.53 27.0034 304.53C26.8892 304.53 26.777 304.504 26.6775 304.454C26.578 304.403 26.4944 304.331 26.435 304.243Z" fill="#32467A"/>
<path d="M27.2033 345.689L26.5479 344.96C26.3802 344.748 26.2902 344.495 26.2902 344.235C26.2902 343.975 26.3802 343.722 26.5479 343.511L79.8928 277.408C79.9613 277.317 80.0536 277.242 80.1616 277.191C80.2696 277.139 80.3901 277.112 80.5124 277.112C80.6347 277.112 80.7552 277.139 80.8632 277.191C80.9713 277.242 81.0636 277.317 81.132 277.408L81.7874 278.138C81.955 278.349 82.0452 278.603 82.0452 278.862C82.0452 279.122 81.955 279.376 81.7874 279.587L28.4527 345.689C28.3847 345.782 28.2919 345.859 28.1829 345.912C28.0739 345.965 27.9519 345.993 27.828 345.993C27.7041 345.993 27.5822 345.965 27.4731 345.912C27.3641 345.859 27.2714 345.782 27.2033 345.689Z" fill="#32467A"/>
<path d="M27.8269 418.17L27.1715 417.45C27.0067 417.237 26.9183 416.984 26.9183 416.725C26.9183 416.466 27.0067 416.213 27.1715 416L80.5164 349.899C80.5788 349.803 80.667 349.722 80.7728 349.665C80.8786 349.608 80.9987 349.575 81.122 349.571C81.2453 349.566 81.368 349.589 81.4787 349.638C81.5893 349.688 81.6846 349.762 81.7556 349.853L82.411 350.581C82.5786 350.793 82.6687 351.046 82.6687 351.306C82.6687 351.566 82.5786 351.82 82.411 352.031L29.066 418.17C28.9976 418.261 28.9053 418.336 28.7973 418.388C28.6892 418.44 28.5688 418.466 28.4465 418.466C28.3241 418.466 28.2037 418.44 28.0956 418.388C27.9876 418.336 27.8953 418.261 27.8269 418.17Z" fill="#32467A"/>
<path d="M24.9394 251.442L24.1714 250.593C24.0164 250.4 23.933 250.167 23.933 249.929C23.933 249.69 24.0164 249.457 24.1714 249.264L68.2073 194.728C68.269 194.644 68.3526 194.575 68.4509 194.528C68.5492 194.48 68.659 194.456 68.7706 194.456C68.8821 194.456 68.9919 194.48 69.0902 194.528C69.1884 194.575 69.2721 194.644 69.3338 194.728L70.1019 195.577C70.2539 195.772 70.3356 196.004 70.3356 196.242C70.3356 196.48 70.2539 196.712 70.1019 196.906L26.0659 251.442C26.0043 251.526 25.9206 251.595 25.8223 251.642C25.724 251.69 25.6142 251.715 25.5027 251.715C25.3911 251.715 25.2813 251.69 25.183 251.642C25.0848 251.595 25.0011 251.526 24.9394 251.442Z" fill="#32467A"/>
<path d="M27.2032 440.324L26.5477 439.604C26.3807 439.391 26.291 439.136 26.291 438.875C26.291 438.613 26.3807 438.359 26.5477 438.145L79.8517 372.016C79.9202 371.924 80.0124 371.849 80.1205 371.797C80.2285 371.746 80.349 371.719 80.4713 371.719C80.5936 371.719 80.7141 371.746 80.8221 371.797C80.9301 371.849 81.0224 371.924 81.0909 372.016L81.7463 372.745C81.9139 372.956 82.0041 373.21 82.0041 373.47C82.0041 373.729 81.9139 373.983 81.7463 374.194L28.4423 440.324C28.3739 440.415 28.2816 440.49 28.1736 440.542C28.0655 440.594 27.9451 440.62 27.8228 440.62C27.7004 440.62 27.58 440.594 27.4719 440.542C27.3639 440.49 27.2716 440.415 27.2032 440.324Z" fill="#32467A"/>
<path d="M26.7934 222.892L25.8307 221.83C25.7052 221.667 25.6378 221.474 25.6378 221.276C25.6378 221.078 25.7052 220.885 25.8307 220.722L54.8739 184.722C54.9267 184.653 54.9972 184.597 55.0792 184.559C55.1612 184.52 55.2525 184.5 55.345 184.5C55.4376 184.5 55.5288 184.52 55.6108 184.559C55.6929 184.597 55.7633 184.653 55.8161 184.722L56.7787 185.783C56.9043 185.946 56.9716 186.139 56.9716 186.337C56.9716 186.535 56.9043 186.729 56.7787 186.891L27.7355 222.892C27.6843 222.962 27.6144 223.02 27.5321 223.06C27.4499 223.1 27.3579 223.121 27.2644 223.121C27.1709 223.121 27.0789 223.1 26.9967 223.06C26.9145 223.02 26.8446 222.962 26.7934 222.892Z" fill="#32467A"/>
<path d="M30.1016 284.387L30.7058 283.713C30.8601 283.518 30.9431 283.284 30.9431 283.044C30.9431 282.804 30.8601 282.57 30.7058 282.375L-18.5735 221.304C-18.636 221.218 -18.7211 221.148 -18.8212 221.099C-18.9213 221.05 -19.0333 221.025 -19.147 221.025C-19.2608 221.025 -19.3727 221.05 -19.4728 221.099C-19.5729 221.148 -19.658 221.218 -19.7205 221.304L-20.3247 221.977C-20.479 222.173 -20.562 222.407 -20.562 222.647C-20.562 222.887 -20.479 223.121 -20.3247 223.316L28.9546 284.323C29.0109 284.412 29.091 284.488 29.1878 284.542C29.2845 284.597 29.3948 284.628 29.5087 284.635C29.6225 284.641 29.7364 284.622 29.8399 284.579C29.9435 284.535 30.0334 284.469 30.1016 284.387Z" fill="#32467A"/>
<path d="M21.2016 348.08L21.8058 347.415C21.9602 347.22 22.0431 346.986 22.0431 346.746C22.0431 346.506 21.9602 346.272 21.8058 346.077L-27.4735 284.996C-27.5376 284.913 -27.6232 284.844 -27.7231 284.797C-27.823 284.749 -27.9342 284.725 -28.047 284.725C-28.1599 284.725 -28.271 284.749 -28.3709 284.797C-28.4708 284.844 -28.5565 284.913 -28.6205 284.996L-29.2247 285.67C-29.3791 285.866 -29.462 286.1 -29.462 286.34C-29.462 286.579 -29.3791 286.813 -29.2247 287.009L20.0546 348.015C20.1109 348.105 20.191 348.18 20.2877 348.235C20.3845 348.289 20.4948 348.321 20.6086 348.328C20.7225 348.334 20.8364 348.314 20.9399 348.271C21.0434 348.228 21.1334 348.162 21.2016 348.08Z" fill="#32467A"/>
<path d="M21.202 403.493L21.8063 402.819C21.9606 402.623 22.0435 402.389 22.0435 402.15C22.0435 401.91 21.9606 401.676 21.8063 401.48L-27.4731 340.409C-27.5355 340.323 -27.6206 340.253 -27.7207 340.204C-27.8208 340.156 -27.9328 340.13 -28.0466 340.13C-28.1603 340.13 -28.2722 340.156 -28.3724 340.204C-28.4725 340.253 -28.5576 340.323 -28.6201 340.409L-29.2242 341.074C-29.3795 341.271 -29.4629 341.506 -29.4629 341.748C-29.4629 341.989 -29.3795 342.225 -29.2242 342.421L20.055 403.493C20.1175 403.578 20.2026 403.649 20.3027 403.697C20.4028 403.746 20.5148 403.772 20.6285 403.772C20.7423 403.772 20.8543 403.746 20.9544 403.697C21.0545 403.649 21.1396 403.578 21.202 403.493Z" fill="#32467A"/>
<path d="M23.8742 261.421L24.5809 260.636C24.7211 260.458 24.7965 260.245 24.7965 260.027C24.7965 259.809 24.7211 259.596 24.5809 259.418L-16.0756 209.027C-16.1345 208.954 -16.2116 208.895 -16.3006 208.854C-16.3896 208.814 -16.4879 208.793 -16.5876 208.793C-16.6874 208.793 -16.7857 208.814 -16.8746 208.854C-16.9636 208.895 -17.0407 208.954 -17.0997 209.027L-17.8165 209.811C-17.9562 209.991 -18.0311 210.205 -18.0311 210.425C-18.0311 210.644 -17.9562 210.859 -17.8165 211.039L22.8399 261.421C22.8986 261.495 22.9762 261.555 23.0662 261.597C23.1561 261.639 23.2559 261.661 23.3571 261.661C23.4583 261.661 23.5581 261.639 23.648 261.597C23.738 261.555 23.8155 261.495 23.8742 261.421Z" fill="#32467A"/>
<path d="M21.202 424.871L21.8063 424.197C21.9606 424.001 22.0435 423.768 22.0435 423.528C22.0435 423.288 21.9606 423.054 21.8063 422.859L-27.4731 361.787C-27.5355 361.702 -27.6206 361.631 -27.7207 361.583C-27.8208 361.534 -27.9328 361.508 -28.0466 361.508C-28.1603 361.508 -28.2722 361.534 -28.3724 361.583C-28.4725 361.631 -28.5576 361.702 -28.6201 361.787L-29.2242 362.452C-29.3795 362.649 -29.4629 362.884 -29.4629 363.126C-29.4629 363.367 -29.3795 363.603 -29.2242 363.8L20.055 424.871C20.1175 424.956 20.2026 425.027 20.3027 425.076C20.4028 425.124 20.5148 425.15 20.6285 425.15C20.7423 425.15 20.8543 425.124 20.9544 425.076C21.0545 425.027 21.1396 424.956 21.202 424.871Z" fill="#32467A"/>
<path d="M21.2016 469.604L21.8058 468.93C21.9602 468.735 22.0431 468.501 22.0431 468.261C22.0431 468.021 21.9602 467.787 21.8058 467.591L-27.4735 406.52C-27.536 406.435 -27.6211 406.364 -27.7212 406.316C-27.8213 406.267 -27.9333 406.241 -28.047 406.241C-28.1608 406.241 -28.2727 406.267 -28.3728 406.316C-28.4729 406.364 -28.5581 406.435 -28.6205 406.52L-29.2247 407.194C-29.3791 407.389 -29.462 407.623 -29.462 407.863C-29.462 408.103 -29.3791 408.337 -29.2247 408.533L20.0546 469.604C20.117 469.69 20.2021 469.76 20.3022 469.809C20.4023 469.857 20.5143 469.883 20.6281 469.883C20.7418 469.883 20.8538 469.857 20.9539 469.809C21.054 469.76 21.1391 469.69 21.2016 469.604Z" fill="#32467A"/>
<path d="M21.4173 487.992L22.0112 487.336C22.1688 487.139 22.2535 486.901 22.2535 486.658C22.2535 486.414 22.1688 486.177 22.0112 485.979L-26.9301 425.323C-26.9926 425.238 -27.0777 425.167 -27.1778 425.119C-27.2779 425.07 -27.3899 425.044 -27.5036 425.044C-27.6174 425.044 -27.7293 425.07 -27.8294 425.119C-27.9296 425.167 -28.0146 425.238 -28.0771 425.323L-28.6813 425.988C-28.8366 426.185 -28.9199 426.421 -28.9199 426.662C-28.9199 426.904 -28.8366 427.139 -28.6813 427.336L20.2601 487.992C20.3237 488.077 20.4098 488.147 20.5107 488.196C20.6116 488.244 20.7243 488.27 20.8387 488.27C20.9531 488.27 21.0657 488.244 21.1666 488.196C21.2675 488.147 21.3536 488.077 21.4173 487.992Z" fill="#32467A"/>
<path d="M25.2263 322.215L25.8305 321.541C25.9834 321.345 26.0655 321.112 26.0655 320.872C26.0655 320.633 25.9834 320.399 25.8305 320.203L-23.4488 259.132C-23.5112 259.046 -23.5964 258.976 -23.6965 258.927C-23.7966 258.878 -23.9085 258.853 -24.0223 258.853C-24.136 258.853 -24.248 258.878 -24.3481 258.927C-24.4482 258.976 -24.5334 259.046 -24.5958 259.132L-25.2103 259.796C-25.3627 259.994 -25.4443 260.229 -25.4443 260.47C-25.4443 260.711 -25.3627 260.946 -25.2103 261.144L24.0793 322.169C24.1374 322.257 24.219 322.331 24.3167 322.384C24.4144 322.437 24.5251 322.467 24.639 322.471C24.7528 322.476 24.866 322.455 24.9686 322.41C25.0711 322.365 25.1597 322.298 25.2263 322.215Z" fill="#32467A"/>
<path d="M21.6529 518.361L20.9975 517.632C20.8298 517.42 20.7397 517.167 20.7397 516.907C20.7397 516.647 20.8298 516.394 20.9975 516.182L74.2605 450.08C74.3273 449.987 74.419 449.91 74.5273 449.857C74.6355 449.804 74.7568 449.776 74.88 449.776C75.0033 449.776 75.1246 449.804 75.2328 449.857C75.3411 449.91 75.4328 449.987 75.4997 450.08L76.155 450.809C76.3227 451.021 76.4128 451.274 76.4128 451.534C76.4128 451.794 76.3227 452.048 76.155 452.259L22.8204 518.361C22.7503 518.44 22.6615 518.503 22.5604 518.547C22.4594 518.591 22.3487 518.614 22.2366 518.614C22.1245 518.614 22.0138 518.591 21.9128 518.547C21.8117 518.503 21.7229 518.44 21.6529 518.361Z" fill="#32467A"/>
<path d="M21.6525 561.949L21.0073 561.247C20.8403 561.034 20.7505 560.779 20.7505 560.518C20.7505 560.257 20.8403 560.002 21.0073 559.789L74.2601 493.669C74.3285 493.577 74.4208 493.502 74.5289 493.45C74.6369 493.399 74.7573 493.372 74.8796 493.372C75.002 493.372 75.1225 493.399 75.2305 493.45C75.3385 493.502 75.4308 493.577 75.4993 493.669L76.1546 494.398C76.3223 494.609 76.4124 494.863 76.4124 495.123C76.4124 495.382 76.3223 495.636 76.1546 495.847L22.82 561.949C22.7489 562.026 22.6597 562.089 22.5588 562.131C22.4579 562.174 22.3477 562.197 22.2362 562.197C22.1247 562.197 22.0146 562.174 21.9137 562.131C21.8128 562.089 21.7236 562.026 21.6525 561.949Z" fill="#32467A"/>
<path d="M27.8269 578.979L27.1715 578.25C27.0067 578.038 26.9183 577.785 26.9183 577.525C26.9183 577.266 27.0067 577.014 27.1715 576.801L80.5164 510.699C80.5848 510.608 80.6771 510.533 80.7852 510.481C80.8932 510.429 81.0137 510.402 81.136 510.402C81.2583 510.402 81.3788 510.429 81.4868 510.481C81.5948 510.533 81.6871 510.608 81.7556 510.699L82.411 511.419C82.5786 511.631 82.6687 511.884 82.6687 512.144C82.6687 512.404 82.5786 512.657 82.411 512.868L29.0763 578.979C29.0082 579.073 28.9155 579.15 28.8064 579.203C28.6974 579.256 28.5755 579.283 28.4516 579.283C28.3277 579.283 28.2057 579.256 28.0967 579.203C27.9876 579.15 27.8949 579.073 27.8269 578.979Z" fill="#32467A"/>
<path d="M27.2033 633.469L26.5479 632.74C26.3802 632.529 26.2902 632.275 26.2902 632.015C26.2902 631.755 26.3802 631.502 26.5479 631.291L79.8928 565.189C79.957 565.095 80.0458 565.016 80.1515 564.96C80.2572 564.904 80.3764 564.873 80.4988 564.868C80.6212 564.864 80.743 564.886 80.8534 564.934C80.9638 564.982 81.0595 565.054 81.132 565.143L81.7874 565.872C81.955 566.083 82.0452 566.336 82.0452 566.596C82.0452 566.856 81.955 567.11 81.7874 567.321L28.4527 633.423C28.3908 633.521 28.3023 633.603 28.1955 633.662C28.0887 633.72 27.9671 633.754 27.8422 633.758C27.7172 633.763 27.5931 633.739 27.4813 633.688C27.3696 633.637 27.2739 633.562 27.2033 633.469Z" fill="#32467A"/>
<path d="M21.3345 538.465L21.99 537.736C22.1576 537.525 22.2477 537.272 22.2477 537.012C22.2477 536.752 22.1576 536.499 21.99 536.287L-31.3448 470.185C-31.4089 470.091 -31.4977 470.013 -31.6034 469.957C-31.7091 469.901 -31.8283 469.869 -31.9507 469.865C-32.0731 469.86 -32.1949 469.883 -32.3053 469.931C-32.4157 469.978 -32.5114 470.05 -32.5839 470.139L-33.2496 470.868C-33.4172 471.08 -33.5073 471.333 -33.5073 471.593C-33.5073 471.853 -33.4172 472.106 -33.2496 472.318L20.0851 538.419C20.147 538.517 20.2355 538.6 20.3423 538.658C20.4491 538.717 20.5707 538.75 20.6957 538.754C20.8206 538.759 20.9447 538.735 21.0565 538.685C21.1683 538.634 21.264 538.559 21.3345 538.465Z" fill="#32467A"/>
<path d="M21.3345 566.324L21.99 565.595C22.1576 565.384 22.2477 565.13 22.2477 564.87C22.2477 564.611 22.1576 564.357 21.99 564.146L-31.3448 498.044C-31.4089 497.95 -31.4977 497.872 -31.6034 497.816C-31.7091 497.76 -31.8283 497.728 -31.9507 497.724C-32.0731 497.719 -32.1949 497.742 -32.3053 497.79C-32.4157 497.837 -32.5114 497.909 -32.5839 497.998L-33.2496 498.727C-33.4172 498.938 -33.5073 499.192 -33.5073 499.452C-33.5073 499.712 -33.4172 499.965 -33.2496 500.176L20.0851 566.278C20.147 566.376 20.2355 566.458 20.3423 566.517C20.4491 566.576 20.5707 566.609 20.6957 566.613C20.8206 566.618 20.9447 566.594 21.0565 566.543C21.1683 566.493 21.264 566.417 21.3345 566.324Z" fill="#32467A"/>
<path d="M21.3345 613.42L21.99 612.691C22.1576 612.479 22.2477 612.226 22.2477 611.966C22.2477 611.706 22.1576 611.453 21.99 611.242L-31.3448 545.139C-31.4089 545.045 -31.4977 544.967 -31.6034 544.911C-31.7091 544.856 -31.8283 544.824 -31.9507 544.819C-32.0731 544.815 -32.1949 544.837 -32.3053 544.885C-32.4157 544.933 -32.5114 545.005 -32.5839 545.093L-33.2496 545.823C-33.4172 546.034 -33.5073 546.288 -33.5073 546.547C-33.5073 546.807 -33.4172 547.06 -33.2496 547.272L20.0851 613.374C20.147 613.472 20.2355 613.554 20.3423 613.612C20.4491 613.671 20.5707 613.704 20.6957 613.709C20.8206 613.714 20.9447 613.69 21.0565 613.639C21.1683 613.589 21.264 613.513 21.3345 613.42Z" fill="#32467A"/>
<path d="M19.7888 625.189L20.4544 624.469C20.6215 624.256 20.7112 624.001 20.7112 623.74C20.7112 623.479 20.6215 623.224 20.4544 623.011L-32.8803 556.908C-32.9487 556.817 -33.041 556.742 -33.149 556.691C-33.2571 556.639 -33.3775 556.612 -33.4998 556.612C-33.6222 556.612 -33.7427 556.639 -33.8507 556.691C-33.9587 556.742 -34.051 556.817 -34.1194 556.908L-34.7748 557.638C-34.9425 557.849 -35.0326 558.103 -35.0326 558.362C-35.0326 558.622 -34.9425 558.876 -34.7748 559.087L18.5598 625.189C18.6286 625.279 18.7205 625.352 18.8275 625.402C18.9345 625.453 19.0535 625.479 19.1743 625.479C19.2951 625.479 19.4141 625.453 19.5211 625.402C19.6281 625.352 19.72 625.279 19.7888 625.189Z" fill="#32467A"/>
<path d="M19.8706 297.144L19.1025 296.295C18.9499 296.103 18.8678 295.872 18.8678 295.635C18.8678 295.398 18.9499 295.168 19.1025 294.975L63.1385 240.439C63.1997 240.353 63.2838 240.283 63.3831 240.234C63.4824 240.185 63.5937 240.16 63.7068 240.16C63.8199 240.16 63.9312 240.185 64.0305 240.234C64.1298 240.283 64.214 240.353 64.2752 240.439L65.0432 241.288C65.193 241.482 65.2733 241.713 65.2733 241.949C65.2733 242.185 65.193 242.415 65.0432 242.608L21.0073 297.144C20.9461 297.23 20.862 297.301 20.7627 297.349C20.6634 297.398 20.5521 297.424 20.4389 297.424C20.3258 297.424 20.2145 297.398 20.1152 297.349C20.0159 297.301 19.9318 297.23 19.8706 297.144Z" fill="#32467A"/>
<path d="M19 1.5C22.6546 1.5 26.3554 3.14181 30.1207 6.49993C33.8933 9.86454 37.6407 14.8764 41.3365 21.4025C48.727 34.4526 55.7509 53.266 62.3535 76.2002C75.5522 122.045 86.9725 184.014 96.3334 248.411C115.056 377.211 125.5 515.437 125.5 553.221C125.5 590.838 115.12 619.112 96.7381 637.979C78.3603 656.841 51.7897 666.5 19 666.5C-13.7679 666.5 -40.3383 656.336 -58.7243 636.957C-77.1192 617.568 -87.5 588.766 -87.5 551.148C-87.5 513.364 -77.056 375.657 -58.3335 247.376C-48.9727 183.238 -37.5524 121.529 -24.354 75.8779C-17.7515 53.0411 -10.7278 34.309 -3.33788 21.3158C0.357666 14.8183 4.1046 9.82855 7.87685 6.47879C11.6416 3.13564 15.3432 1.5 19 1.5Z" stroke="#FEFEFE" stroke-width="3"/>
</svg>
