<svg viewBox="0 0 320 329" fill="none" xmlns="http://www.w3.org/2000/svg">
<path d="M241.166 184.529C236.588 171.031 198.624 62.456 143.413 62.5845C133.352 62.5845 116.852 66.2535 96.6832 88.4228C88.8909 75.7286 39.1162 -4.08397 4.02779 0.163489C-27.7886 4.01459 -35.1551 75.4929 -29.0251 110.929C-22.4344 149.049 2.01553 184.523 2.01553 184.523" fill="#96A3C4"/>
<path d="M206.8 236.849H206.849C206.974 236.831 207.093 236.784 207.198 236.713C207.303 236.643 207.39 236.549 207.453 236.439C207.517 236.33 207.554 236.208 207.564 236.082C207.573 235.956 207.554 235.829 207.507 235.711L136.058 84.4306C135.911 84.1899 135.687 84.0054 135.423 83.9068C135.158 83.8081 134.869 83.801 134.6 83.8863H134.556C134.431 83.9048 134.312 83.951 134.207 84.0219C134.102 84.0927 134.014 84.1864 133.951 84.2956C133.887 84.4048 133.849 84.527 133.838 84.6531C133.828 84.7792 133.846 84.9058 133.892 85.0239L205.341 236.305C205.488 236.545 205.712 236.73 205.977 236.829C206.241 236.927 206.531 236.934 206.8 236.849Z" fill="#374A7B"/>
<path d="M225.813 249.712H225.857C225.976 249.673 226.085 249.607 226.175 249.519C226.265 249.431 226.334 249.324 226.375 249.205C226.416 249.086 226.429 248.96 226.412 248.835C226.396 248.71 226.351 248.591 226.281 248.487L126.565 110.602C126.377 110.387 126.125 110.24 125.845 110.183C125.566 110.126 125.276 110.162 125.019 110.286H124.976C124.856 110.325 124.747 110.391 124.657 110.479C124.567 110.566 124.499 110.674 124.458 110.793C124.416 110.912 124.404 111.038 124.42 111.163C124.436 111.288 124.481 111.407 124.551 111.511L224.267 249.396C224.455 249.61 224.707 249.758 224.987 249.815C225.266 249.872 225.556 249.836 225.813 249.712Z" fill="#374A7B"/>
<path d="M249.824 257.621L249.862 257.594C249.973 257.535 250.069 257.452 250.142 257.349C250.214 257.247 250.262 257.128 250.28 257.004C250.298 256.88 250.286 256.753 250.246 256.634C250.205 256.515 250.137 256.408 250.047 256.32L125.09 136.023C124.87 135.84 124.597 135.733 124.311 135.719C124.025 135.706 123.742 135.785 123.506 135.946L123.468 135.974C123.358 136.033 123.263 136.117 123.191 136.22C123.119 136.322 123.072 136.44 123.054 136.564C123.036 136.688 123.047 136.814 123.087 136.933C123.127 137.052 123.194 137.159 123.283 137.247L248.24 257.545C248.46 257.728 248.733 257.834 249.019 257.848C249.305 257.862 249.587 257.782 249.824 257.621Z" fill="#374A7B"/>
<path d="M284.808 252.553L284.841 252.515C284.929 252.427 284.996 252.32 285.035 252.201C285.075 252.082 285.086 251.956 285.067 251.833C285.049 251.709 285.001 251.592 284.929 251.49C284.856 251.388 284.761 251.305 284.65 251.247L129.156 163.996C128.901 163.87 128.611 163.83 128.331 163.883C128.051 163.936 127.796 164.079 127.605 164.29L127.578 164.323C127.489 164.411 127.422 164.519 127.383 164.638C127.344 164.757 127.333 164.884 127.351 165.008C127.37 165.131 127.417 165.249 127.49 165.351C127.562 165.454 127.657 165.538 127.768 165.596L283.262 252.847C283.517 252.972 283.805 253.011 284.084 252.958C284.363 252.905 284.617 252.763 284.808 252.553Z" fill="#374A7B"/>
<path d="M319.906 235.597V235.554C319.964 235.442 319.996 235.319 319.999 235.194C320.002 235.068 319.977 234.943 319.924 234.829C319.871 234.715 319.793 234.615 319.696 234.536C319.598 234.456 319.484 234.401 319.362 234.373L143.934 186.106C143.661 186.039 143.372 186.066 143.116 186.183C142.859 186.299 142.649 186.499 142.519 186.749V186.792C142.461 186.904 142.429 187.027 142.426 187.152C142.423 187.278 142.449 187.403 142.501 187.517C142.554 187.631 142.632 187.731 142.729 187.81C142.827 187.89 142.941 187.945 143.064 187.973L318.491 236.239C318.765 236.305 319.053 236.278 319.309 236.162C319.566 236.045 319.776 235.847 319.906 235.597Z" fill="#374A7B"/>
<path d="M202.973 256.325H203.022C203.626 256.255 204.018 255.781 203.893 255.308L162.888 95.2195C162.788 94.9584 162.602 94.7395 162.361 94.5989C162.119 94.4583 161.836 94.4045 161.56 94.4466H161.511C160.907 94.5173 160.515 94.9908 160.64 95.4699L201.645 255.552C201.744 255.814 201.93 256.034 202.172 256.175C202.414 256.315 202.697 256.368 202.973 256.325Z" fill="#374A7B"/>
<path d="M190.916 285.414H190.965C191.094 285.438 191.226 285.433 191.353 285.402C191.48 285.37 191.599 285.312 191.702 285.232C191.804 285.151 191.889 285.049 191.95 284.933C192.01 284.818 192.046 284.69 192.054 284.56L186.371 120.411C186.331 120.137 186.194 119.887 185.985 119.705C185.777 119.523 185.51 119.422 185.233 119.42H185.184C185.056 119.396 184.924 119.399 184.797 119.43C184.67 119.461 184.551 119.518 184.448 119.599C184.345 119.679 184.261 119.781 184.2 119.896C184.139 120.012 184.103 120.139 184.096 120.269L189.795 284.424C189.835 284.695 189.969 284.943 190.174 285.124C190.38 285.306 190.642 285.408 190.916 285.414Z" fill="#374A7B"/>
<path d="M167.864 302.109H167.913C168.036 302.153 168.166 302.171 168.297 302.163C168.427 302.155 168.555 302.12 168.671 302.061C168.788 302.002 168.891 301.92 168.975 301.819C169.059 301.719 169.122 301.603 169.159 301.478L201.226 139.767C201.252 139.496 201.176 139.224 201.011 139.007C200.847 138.789 200.607 138.641 200.339 138.592H200.289C200.166 138.548 200.036 138.529 199.905 138.538C199.775 138.546 199.647 138.581 199.531 138.64C199.414 138.699 199.311 138.781 199.227 138.881C199.143 138.982 199.08 139.098 199.043 139.223L166.977 300.933C166.95 301.205 167.027 301.476 167.191 301.694C167.355 301.912 167.595 302.06 167.864 302.109Z" fill="#374A7B"/>
<path d="M126.124 313.17L126.168 313.197C126.393 313.339 126.666 313.387 126.927 313.33C127.187 313.273 127.415 313.116 127.561 312.892L208.247 165.378C208.358 165.134 208.368 164.856 208.277 164.604C208.185 164.351 207.999 164.145 207.758 164.028H207.714C207.603 163.957 207.478 163.908 207.348 163.884C207.217 163.861 207.084 163.863 206.954 163.891C206.825 163.92 206.702 163.973 206.593 164.049C206.484 164.125 206.392 164.221 206.321 164.333L125.634 311.847C125.532 312.088 125.526 312.36 125.617 312.606C125.708 312.851 125.889 313.053 126.124 313.17Z" fill="#374A7B"/>
<path d="M82.3172 245.54H82.3706C82.5301 245.535 82.6863 245.494 82.8269 245.419C82.9675 245.345 83.0888 245.239 83.1816 245.111C83.2744 244.983 83.336 244.835 83.3619 244.679C83.3877 244.524 83.3771 244.365 83.3307 244.214L15.0177 51.8854C14.8675 51.5735 14.6163 51.3199 14.3038 51.1649C13.9913 51.0099 13.6352 50.9624 13.2922 51.0299H13.2385C13.079 51.0352 12.9231 51.0765 12.7825 51.151C12.6419 51.2254 12.5206 51.3311 12.4278 51.4593C12.335 51.5875 12.2731 51.7351 12.2472 51.8906C12.2214 52.0461 12.2323 52.2055 12.2787 52.3563L80.5917 244.685C80.7428 244.996 80.9944 245.249 81.3066 245.404C81.6189 245.559 81.9743 245.607 82.3172 245.54Z" fill="#374A7B"/>
<path d="M103.995 263.526H104.049C104.199 263.493 104.34 263.427 104.46 263.332C104.58 263.237 104.677 263.115 104.742 262.977C104.807 262.839 104.839 262.689 104.835 262.536C104.831 262.384 104.792 262.235 104.72 262.1L-0.00556087 82.4254C-0.208616 82.1429 -0.499047 81.9332 -0.833234 81.828C-1.16742 81.7227 -1.5271 81.7276 -1.85824 81.8419H-1.91855C-2.07001 81.8741 -2.21189 81.9406 -2.33288 82.0362C-2.45387 82.1318 -2.55067 82.2538 -2.61576 82.3927C-2.68085 82.5316 -2.7127 82.6834 -2.7082 82.8364C-2.7037 82.9894 -2.663 83.1393 -2.58987 83.2742L102.136 262.942C102.338 263.227 102.63 263.439 102.965 263.544C103.301 263.649 103.663 263.643 103.995 263.526Z" fill="#374A7B"/>
<path d="M132.438 276.14H132.486C132.629 276.084 132.757 275.994 132.859 275.879C132.961 275.764 133.034 275.627 133.072 275.479C133.11 275.331 133.112 275.176 133.078 275.027C133.043 274.878 132.974 274.739 132.875 274.621L-5.03363 113.052C-5.28068 112.804 -5.60256 112.641 -5.95111 112.588C-6.29966 112.536 -6.65604 112.596 -6.96694 112.76H-7.0207C-7.16332 112.818 -7.29039 112.909 -7.39143 113.024C-7.49247 113.139 -7.56467 113.275 -7.60253 113.423C-7.64038 113.57 -7.64283 113.725 -7.60941 113.874C-7.57599 114.022 -7.50767 114.161 -7.41011 114.279L130.505 275.822C130.749 276.075 131.069 276.242 131.418 276.3C131.767 276.357 132.125 276.301 132.438 276.14Z" fill="#374A7B"/>
<path d="M176.013 274.409L176.053 274.37C176.174 274.274 176.27 274.152 176.333 274.012C176.397 273.873 176.427 273.721 176.42 273.568C176.412 273.416 176.369 273.267 176.292 273.134C176.216 273.001 176.108 272.889 175.979 272.805L-3.60498 147.459C-3.90203 147.274 -4.25179 147.19 -4.60179 147.218C-4.95179 147.247 -5.2831 147.387 -5.54517 147.618L-5.58517 147.658C-5.70503 147.754 -5.80067 147.876 -5.86412 148.015C-5.92756 148.154 -5.95718 148.305 -5.95065 148.457C-5.94413 148.61 -5.90153 148.758 -5.82642 148.891C-5.75131 149.024 -5.64593 149.138 -5.5183 149.224L174.072 274.569C174.369 274.754 174.719 274.838 175.069 274.81C175.419 274.781 175.75 274.64 176.013 274.409Z" fill="#374A7B"/>
<path d="M221.213 258.294V258.247C221.298 258.119 221.352 257.973 221.371 257.82C221.391 257.668 221.374 257.513 221.324 257.368C221.273 257.223 221.19 257.091 221.08 256.982C220.97 256.874 220.836 256.792 220.689 256.742L11.6683 176.116C11.3413 175.999 10.9837 175.994 10.6535 176.102C10.3232 176.211 10.0399 176.426 9.84906 176.713V176.766C9.76396 176.894 9.70965 177.04 9.69041 177.192C9.67117 177.344 9.68737 177.498 9.73794 177.643C9.78851 177.788 9.87213 177.919 9.98215 178.027C10.0922 178.135 10.2256 178.216 10.3725 178.265L219.4 258.897C219.727 259.011 220.084 259.014 220.412 258.905C220.741 258.795 221.023 258.58 221.213 258.294Z" fill="#374A7B"/>
<path d="M75.1352 268.66H75.1955C75.9474 268.66 76.4845 268.142 76.3972 267.532L46.544 68.3591C46.4563 68.0295 46.2561 67.7398 45.9772 67.5392C45.6983 67.3386 45.3576 67.2393 45.0132 67.2581H44.9529C44.201 67.2581 43.6639 67.7689 43.7512 68.3857L73.6048 267.552C73.6911 267.883 73.8905 268.174 74.1696 268.376C74.4486 268.578 74.7899 268.678 75.1352 268.66Z" fill="#374A7B"/>
<path d="M56.627 302.384H56.6873C56.8406 302.427 57.0015 302.438 57.1593 302.415C57.3171 302.392 57.468 302.337 57.6025 302.252C57.737 302.167 57.8519 302.056 57.9394 301.924C58.027 301.792 58.0853 301.644 58.1105 301.488L72.0941 101.865C72.0769 101.53 71.9395 101.214 71.707 100.97C71.4745 100.727 71.1619 100.574 70.8252 100.538H70.7649C70.6121 100.495 70.4516 100.484 70.2942 100.506C70.1368 100.529 69.9861 100.583 69.8517 100.667C69.7173 100.751 69.6023 100.862 69.5144 100.993C69.4265 101.124 69.3677 101.272 69.3417 101.427L55.3512 301.051C55.3684 301.386 55.5065 301.705 55.7403 301.95C55.9741 302.194 56.2886 302.348 56.627 302.384Z" fill="#374A7B"/>
<path d="M26.1886 319.706H26.2493C26.3949 319.775 26.5531 319.814 26.7144 319.821C26.8758 319.827 27.037 319.801 27.1877 319.744C27.3385 319.687 27.4759 319.6 27.5916 319.488C27.7073 319.377 27.7987 319.244 27.8604 319.096L87.8491 127.179C87.9168 126.853 87.8587 126.515 87.6859 126.23C87.5131 125.945 87.2382 125.735 86.9159 125.64H86.8556C86.7098 125.572 86.5516 125.534 86.3905 125.528C86.2294 125.522 86.069 125.549 85.9184 125.606C85.7679 125.663 85.6304 125.749 85.5146 125.86C85.3988 125.971 85.307 126.104 85.2445 126.25L25.2557 318.181C25.1918 318.504 25.2517 318.84 25.4242 319.122C25.5967 319.404 25.8691 319.612 26.1886 319.706Z" fill="#374A7B"/>
<path d="M-26.395 327.844L-26.3482 327.877C-26.0906 328.081 -25.7617 328.176 -25.4333 328.142C-25.1049 328.107 -24.8039 327.945 -24.5961 327.691L93.2199 159.112C93.3883 158.83 93.4377 158.494 93.3573 158.176C93.2769 157.858 93.0731 157.585 92.7902 157.414L92.7433 157.381C92.4854 157.18 92.1575 157.087 91.8308 157.123C91.504 157.159 91.2045 157.321 90.9978 157.573L-26.8248 326.139C-26.9935 326.422 -27.0431 326.76 -26.9628 327.078C-26.8824 327.397 -26.6785 327.672 -26.395 327.844Z" fill="#374A7B"/>
</svg>
