<svg viewBox="0 0 174 263" fill="none" xmlns="http://www.w3.org/2000/svg">
<path d="M59.0466 219.002C51.4034 216.22 44.2739 212.247 37.9362 207.238C33.3833 203.646 21.5355 194.156 13.8612 177.724C3.89029 156.385 -0.217416 120.873 13.664 110.144C15.6875 108.59 22.8861 103.835 37.8704 110.41C36.6664 101.837 30.0697 50.4172 56.411 22.7735C59.9522 19.0837 71.38 7.36322 82.4437 10.54C96.8563 14.6786 103.928 40.5613 104.03 61.3187C104.181 92.0948 104.247 106.144 104.247 106.144C104.247 106.144 107.637 168.707 120.268 128.884C132.9 89.0612 153.348 87.6454 153.348 87.6454C181.617 82.6632 162.96 151.679 162.96 151.679C155.21 185.212 153.473 219.801 157.825 253.912" fill="#8A6F8E"/>
<path d="M21.839 131.27C21.839 131.27 44.9294 202.728 86.3688 228.491L21.839 131.27Z" fill="#8A6F8E"/>
<path d="M21.839 131.27C21.839 131.27 44.9294 202.728 86.3688 228.491" stroke="#C0AAC4" stroke-width="4" stroke-miterlimit="10" stroke-linecap="round"/>
<path d="M36.8706 167.922C36.8706 167.922 33.6224 152.543 35.4246 141.991L36.8706 167.922Z" fill="#8A6F8E"/>
<path d="M36.8706 167.922C36.8706 167.922 33.6224 152.543 35.4246 141.991" stroke="#C0AAC4" stroke-width="4" stroke-miterlimit="10" stroke-linecap="round"/>
<path d="M56.3309 199.275C56.3309 199.275 52.9789 187.866 53.6134 177.116L56.3309 199.275Z" fill="#8A6F8E"/>
<path d="M56.3309 199.275C56.3309 199.275 52.9789 187.866 53.6134 177.116" stroke="#C0AAC4" stroke-width="4" stroke-miterlimit="10" stroke-linecap="round"/>
<path d="M65.36 210.451C65.36 210.451 62.8724 200.217 65.2407 192.739L65.36 210.451Z" fill="#8A6F8E"/>
<path d="M65.36 210.451C65.36 210.451 62.8724 200.217 65.2407 192.739" stroke="#C0AAC4" stroke-width="4" stroke-miterlimit="10" stroke-linecap="round"/>
<path d="M26.5408 176.783C26.5408 176.783 38.3791 187.417 50.7831 192.174L26.5408 176.783Z" fill="#8A6F8E"/>
<path d="M26.5408 176.783C26.5408 176.783 38.3791 187.417 50.7831 192.174" stroke="#C0AAC4" stroke-width="4" stroke-miterlimit="10" stroke-linecap="round"/>
<path d="M16.6418 148.183C16.6418 148.183 28.4157 165.473 38.3446 170.585L16.6418 148.183Z" fill="#8A6F8E"/>
<path d="M16.6418 148.183C16.6418 148.183 28.4157 165.473 38.3446 170.585" stroke="#C0AAC4" stroke-width="4" stroke-miterlimit="10" stroke-linecap="round"/>
<path d="M44.2135 206.293C44.2135 206.293 56.9913 216.272 72.7936 217.585L44.2135 206.293Z" fill="#8A6F8E"/>
<path d="M44.2135 206.293C44.2135 206.293 56.9913 216.272 72.7936 217.585" stroke="#C0AAC4" stroke-width="4" stroke-miterlimit="10" stroke-linecap="round"/>
<path d="M149.939 116.519C149.939 116.519 118.961 204.282 141.908 259.362L149.939 116.519Z" fill="#8A6F8E"/>
<path d="M149.939 116.519C149.939 116.519 118.961 204.282 141.908 259.362" stroke="#C0AAC4" stroke-width="4" stroke-miterlimit="10" stroke-linecap="round"/>
<path d="M140.204 153.047C140.204 153.047 148.587 135.525 158.446 126.323L140.204 153.047Z" fill="#8A6F8E"/>
<path d="M140.204 153.047C140.204 153.047 148.587 135.525 158.446 126.323" stroke="#C0AAC4" stroke-width="4" stroke-miterlimit="10" stroke-linecap="round"/>
<path d="M134.966 183.889C134.966 183.889 147.152 155.645 153.872 149.958L134.966 183.889Z" fill="#8A6F8E"/>
<path d="M134.966 183.889C134.966 183.889 147.152 155.645 153.872 149.958" stroke="#C0AAC4" stroke-width="4" stroke-miterlimit="10" stroke-linecap="round"/>
<path d="M133.443 208.841C133.443 208.841 138.706 195.167 147.535 184.942L133.443 208.841Z" fill="#8A6F8E"/>
<path d="M133.443 208.841C133.443 208.841 138.706 195.167 147.535 184.942" stroke="#C0AAC4" stroke-width="4" stroke-miterlimit="10" stroke-linecap="round"/>
<path d="M134.2 226.474C134.2 226.474 139.443 214.593 147.536 208.84L134.2 226.474Z" fill="#8A6F8E"/>
<path d="M134.2 226.474C134.2 226.474 139.443 214.593 147.536 208.84" stroke="#C0AAC4" stroke-width="4" stroke-miterlimit="10" stroke-linecap="round"/>
<path d="M120.381 165.399C120.381 165.399 124.381 184.299 133.443 197.749L120.381 165.399Z" fill="#8A6F8E"/>
<path d="M120.381 165.399C120.381 165.399 124.381 184.299 133.443 197.749" stroke="#C0AAC4" stroke-width="4" stroke-miterlimit="10" stroke-linecap="round"/>
<path d="M131.47 127.67C131.47 127.67 130.345 153.27 136.651 165.399L131.47 127.67Z" fill="#8A6F8E"/>
<path d="M131.47 127.67C131.47 127.67 130.345 153.27 136.651 165.399" stroke="#C0AAC4" stroke-width="4" stroke-miterlimit="10" stroke-linecap="round"/>
<path d="M116.091 207.584C116.091 207.584 121.526 226.429 136.634 238.795L116.091 207.584Z" fill="#8A6F8E"/>
<path d="M116.091 207.584C116.091 207.584 121.526 226.429 136.634 238.795" stroke="#C0AAC4" stroke-width="4" stroke-miterlimit="10" stroke-linecap="round"/>
<path d="M81.8737 179.861L83.7581 189.563C83.7581 189.563 87.0575 170.504 104.699 150.012" stroke="#C0AAC4" stroke-width="4" stroke-miterlimit="10" stroke-linecap="round"/>
<path d="M73.0081 58.2897C73.0081 58.2897 70.9765 197.309 107.378 259.752" stroke="#C0AAC4" stroke-width="4" stroke-miterlimit="10" stroke-linecap="round"/>
<path d="M54.014 79.8652C54.014 79.8652 55.5151 90.1975 74.2076 113.403" stroke="#C0AAC4" stroke-width="4" stroke-miterlimit="10" stroke-linecap="round"/>
<path d="M55.8409 113.935C55.8409 113.935 57.7869 125.659 76.626 144.407" stroke="#C0AAC4" stroke-width="4" stroke-miterlimit="10" stroke-linecap="round"/>
<path d="M75.0115 120.018C75.0115 120.018 74.8952 108.153 88.8482 88.2678" stroke="#C0AAC4" stroke-width="4" stroke-miterlimit="10" stroke-linecap="round"/>
<path d="M79.1129 153.514C79.1129 153.514 79.3674 137.476 97.1874 121" stroke="#C0AAC4" stroke-width="4" stroke-miterlimit="10" stroke-linecap="round"/>
<path d="M102.523 250.267C102.523 250.267 99.7962 234.736 110.103 217.935" stroke="#C0AAC4" stroke-width="4" stroke-miterlimit="10" stroke-linecap="round"/>
<path d="M89.75 216.89C89.75 216.89 90.9325 199.968 105.122 189.529" stroke="#C0AAC4" stroke-width="4" stroke-miterlimit="10" stroke-linecap="round"/>
<path d="M60.9209 151.41C60.9209 151.41 65.1558 166.066 81.2969 177.961L60.9209 151.41Z" fill="#8A6F8E"/>
<path d="M60.9209 151.41C60.9209 151.41 65.1558 166.066 81.2969 177.961" stroke="#C0AAC4" stroke-width="4" stroke-miterlimit="10" stroke-linecap="round"/>
<path d="M70.184 190.303C74.504 196.673 80.4418 201.821 87.3951 205.225L70.184 190.303Z" fill="#8A6F8E"/>
<path d="M70.184 190.303C74.504 196.673 80.4418 201.821 87.3951 205.225" stroke="#C0AAC4" stroke-width="4" stroke-miterlimit="10" stroke-linecap="round"/>
<path d="M79.5181 220.785C83.4746 227.38 89.1166 232.845 95.8718 236.624L79.5181 220.785Z" fill="#8A6F8E"/>
<path d="M79.5181 220.785C83.4746 227.38 89.1166 232.845 95.8718 236.624" stroke="#C0AAC4" stroke-width="4" stroke-miterlimit="10" stroke-linecap="round"/>
<mask id="path-46-inside-1_483_855" fill="white">
<path d="M60.8697 218.503C53.0056 215.595 45.6701 211.441 39.1492 206.204C34.4646 202.449 22.2744 192.527 14.3784 175.349C4.11934 153.039 -0.10708 115.913 14.1755 104.697C16.2575 103.072 23.6642 98.1006 39.0814 104.975C37.8426 96.012 31.0554 42.2545 58.1579 13.3541C61.8014 9.49664 73.5595 -2.75664 84.9429 0.564527C99.772 4.89133 107.049 31.9506 107.153 53.6516C107.309 85.8267 107.376 100.514 107.376 100.514C107.376 100.514 110.864 165.922 123.861 124.288C136.858 82.6552 157.896 81.1751 157.896 81.1751C186.982 75.9664 167.786 148.119 167.786 148.119C159.812 183.177 158.025 219.338 162.503 255"/>
</mask>
<path d="M39.1492 206.204L41.0277 203.865L41.0253 203.863L39.1492 206.204ZM14.3784 175.349L17.1043 174.096L17.1041 174.095L14.3784 175.349ZM14.1755 104.697L12.33 102.331L12.3226 102.337L14.1755 104.697ZM39.0814 104.975L37.8597 107.715L42.7926 109.915L42.0532 104.564L39.0814 104.975ZM58.1579 13.3541L55.9769 11.2942L55.9696 11.302L58.1579 13.3541ZM84.9429 0.564527L85.7832 -2.31539L85.7831 -2.3154L84.9429 0.564527ZM107.153 53.6516L104.153 53.666V53.6662L107.153 53.6516ZM107.376 100.514L104.376 100.528L104.377 100.601L104.381 100.674L107.376 100.514ZM157.896 81.1751L158.107 84.1677L158.267 84.1564L158.425 84.1281L157.896 81.1751ZM167.786 148.119L164.887 147.348L164.873 147.401L164.861 147.454L167.786 148.119ZM61.9104 215.69C54.3485 212.893 47.296 208.899 41.0277 203.865L37.2706 208.543C44.0441 213.983 51.6627 218.297 59.829 221.317L61.9104 215.69ZM41.0253 203.863C36.4333 200.183 24.6992 190.619 17.1043 174.096L11.6526 176.602C19.8497 194.435 32.496 204.716 37.273 208.545L41.0253 203.863ZM17.1041 174.095C12.1422 163.305 8.60934 148.832 8.07131 135.74C7.80258 129.201 8.28683 123.134 9.63639 118.109C10.9917 113.062 13.1486 109.318 16.0284 107.056L12.3226 102.337C8.06112 105.684 5.39031 110.786 3.84172 116.553C2.28736 122.34 1.79142 129.053 2.07637 135.986C2.64567 149.839 6.35554 165.083 11.6528 176.602L17.1041 174.095ZM16.021 107.062C16.8009 106.453 18.696 105.106 22.0589 104.618C25.4375 104.127 30.5697 104.464 37.8597 107.715L40.3031 102.235C32.1759 98.6112 25.8961 97.9973 21.1965 98.6799C16.4814 99.3648 13.6321 101.316 12.33 102.331L16.021 107.062ZM42.0532 104.564C41.4449 100.163 39.4725 84.7387 40.981 66.8938C42.4964 48.9668 47.4832 29.1226 60.3462 15.4063L55.9696 11.302C41.7301 26.486 36.5592 47.9708 35.0023 66.3884C33.4385 84.8881 35.4792 100.824 36.1097 105.386L42.0532 104.564ZM60.3388 15.4141C62.1478 13.4989 65.789 9.70255 70.2824 6.78297C74.8511 3.81454 79.6781 2.15356 84.1027 3.44446L85.7831 -2.3154C78.8243 -4.34567 72.0806 -1.5406 67.0134 1.7517C61.8711 5.09284 57.8115 9.35187 55.9769 11.2942L60.3388 15.4141ZM84.1026 3.44444C90.0619 5.18325 95.135 11.7913 98.7542 21.6286C102.298 31.2616 104.102 43.0964 104.153 53.666L110.153 53.6372C110.099 42.5058 108.213 29.9604 104.385 19.5569C100.633 9.35756 94.6529 0.272609 85.7832 -2.31539L84.1026 3.44444ZM104.153 53.6662C104.231 69.7536 104.287 81.4691 104.323 89.1628C104.341 93.0096 104.355 95.8509 104.363 97.7306C104.368 98.6704 104.371 99.3698 104.373 99.8342C104.374 100.066 104.375 100.24 104.376 100.355C104.376 100.413 104.376 100.456 104.376 100.485C104.376 100.499 104.376 100.51 104.376 100.517C104.376 100.521 104.376 100.524 104.376 100.525C104.376 100.526 104.376 100.527 104.376 100.527C104.376 100.528 104.376 100.528 104.376 100.528C104.376 100.528 104.376 100.528 107.376 100.514C110.376 100.5 110.376 100.5 110.376 100.5C110.376 100.5 110.376 100.5 110.376 100.5C110.376 100.499 110.376 100.499 110.376 100.498C110.376 100.496 110.376 100.493 110.376 100.49C110.376 100.482 110.376 100.472 110.376 100.457C110.376 100.428 110.376 100.385 110.376 100.328C110.375 100.212 110.374 100.039 110.373 99.8063C110.371 99.3419 110.368 98.6424 110.363 97.7025C110.355 95.8228 110.341 92.9813 110.323 89.1344C110.287 81.4405 110.231 69.7247 110.153 53.6371L104.153 53.6662ZM107.376 100.514C104.381 100.674 104.381 100.675 104.381 100.675C104.381 100.676 104.381 100.677 104.381 100.678C104.381 100.681 104.381 100.684 104.381 100.689C104.382 100.697 104.383 100.71 104.384 100.727C104.385 100.76 104.388 100.808 104.392 100.872C104.399 100.998 104.41 101.183 104.424 101.422C104.454 101.899 104.498 102.591 104.559 103.455C104.681 105.182 104.87 107.601 105.138 110.372C105.672 115.886 106.527 122.91 107.817 128.669C108.458 131.529 109.239 134.237 110.214 136.33C110.701 137.373 111.299 138.403 112.056 139.238C112.811 140.071 113.923 140.921 115.419 141.113C116.974 141.313 118.328 140.728 119.364 139.916C120.362 139.133 121.218 138.035 121.982 136.782C123.515 134.269 125.078 130.458 126.725 125.182L120.997 123.394C119.395 128.527 118.005 131.78 116.86 133.658C116.284 134.602 115.87 135.031 115.663 135.193C115.494 135.326 115.707 135.101 116.185 135.162C116.604 135.216 116.701 135.428 116.501 135.207C116.303 134.989 116.005 134.551 115.653 133.794C114.95 132.287 114.28 130.073 113.672 127.358C112.466 121.97 111.637 115.244 111.111 109.795C110.848 107.085 110.664 104.719 110.544 103.032C110.485 102.188 110.441 101.516 110.413 101.055C110.399 100.825 110.389 100.648 110.382 100.53C110.379 100.47 110.376 100.426 110.374 100.396C110.374 100.381 110.373 100.371 110.373 100.364C110.372 100.36 110.372 100.358 110.372 100.356C110.372 100.355 110.372 100.355 110.372 100.355C110.372 100.354 110.372 100.354 107.376 100.514ZM126.725 125.182C133.088 104.799 141.312 94.5745 147.64 89.4509C150.812 86.8829 153.553 85.5578 155.429 84.877C156.37 84.5358 157.099 84.3543 157.563 84.2602C157.795 84.2131 157.961 84.1879 158.054 84.1755C158.101 84.1693 158.129 84.1663 158.138 84.1654C158.142 84.1649 158.142 84.1649 158.137 84.1654C158.135 84.1656 158.131 84.1659 158.126 84.1663C158.123 84.1665 158.12 84.1667 158.117 84.167C158.116 84.1671 158.113 84.1673 158.112 84.1673C158.11 84.1675 158.107 84.1677 157.896 81.1751C157.686 78.1825 157.683 78.1827 157.68 78.1829C157.679 78.183 157.676 78.1832 157.674 78.1834C157.669 78.1837 157.664 78.1841 157.659 78.1845C157.649 78.1852 157.638 78.1862 157.625 78.1873C157.6 78.1894 157.569 78.1923 157.533 78.1959C157.462 78.2031 157.371 78.2135 157.26 78.2283C157.038 78.2579 156.739 78.3051 156.371 78.3798C155.634 78.5293 154.618 78.7887 153.383 79.2368C150.908 80.1346 147.577 81.7816 143.865 84.7878C136.424 90.8125 127.631 102.144 120.997 123.394L126.725 125.182ZM158.425 84.1281C161.467 83.5835 163.537 84.0921 165.032 85.0683C166.586 86.0825 167.901 87.8518 168.908 90.5027C170.956 95.8967 171.331 103.878 170.755 112.494C170.186 121.004 168.722 129.718 167.39 136.335C166.725 139.636 166.097 142.399 165.636 144.333C165.405 145.3 165.217 146.059 165.086 146.574C165.021 146.831 164.97 147.027 164.937 147.158C164.92 147.223 164.907 147.272 164.898 147.304C164.894 147.32 164.891 147.332 164.889 147.339C164.888 147.343 164.887 147.345 164.887 147.347C164.887 147.347 164.887 147.348 164.887 147.348C164.887 147.348 164.887 147.348 167.786 148.119C170.685 148.891 170.685 148.89 170.686 148.889C170.686 148.888 170.686 148.887 170.686 148.885C170.687 148.882 170.688 148.878 170.69 148.873C170.692 148.863 170.696 148.849 170.701 148.83C170.711 148.793 170.725 148.738 170.744 148.667C170.781 148.525 170.834 148.316 170.903 148.047C171.039 147.507 171.235 146.721 171.472 145.725C171.947 143.734 172.591 140.901 173.272 137.519C174.63 130.77 176.148 121.771 176.742 112.894C177.328 104.123 177.049 95.0424 174.517 88.3727C173.233 84.9918 171.276 81.9787 168.312 80.044C165.29 78.0713 161.598 77.4645 157.368 78.2221L158.425 84.1281ZM164.861 147.454C156.81 182.852 155.005 219.365 159.526 255.374L165.48 254.626C161.045 219.311 162.815 183.502 170.711 148.785L164.861 147.454Z" fill="#FEFEFE" mask="url(#path-46-inside-1_483_855)"/>
</svg>
