<svg viewBox="0 0 205 264" fill="none" xmlns="http://www.w3.org/2000/svg">
<path d="M6.13232 193.351C9.45872 179.72 37.0581 70.0704 77.1998 70.2225C84.5114 70.2225 96.4832 73.9308 111.171 96.2968C116.795 83.4769 153.024 2.86379 178.534 7.16605C201.666 11.0555 207.018 83.2161 202.566 119.025C197.745 157.521 179.997 193.344 179.997 193.344" fill="#32467A"/>
<mask id="path-2-inside-1_483_890" fill="white">
<path d="M0 193C3.4463 178.883 32.0406 65.3207 73.6292 65.4782C81.2044 65.4782 93.6078 69.3188 108.825 92.4828C114.652 79.2055 152.187 -4.28378 178.616 0.171978C202.582 4.20017 208.126 78.9354 203.515 116.022C198.52 155.891 180.131 192.992 180.131 192.992"/>
</mask>
<path d="M0 193C3.4463 178.883 32.0406 65.3207 73.6292 65.4782C81.2044 65.4782 93.6078 69.3188 108.825 92.4828C114.652 79.2055 152.187 -4.28378 178.616 0.171978C202.582 4.20017 208.126 78.9354 203.515 116.022C198.52 155.891 180.131 192.992 180.131 192.992" fill="#32467A"/>
<path d="M73.6292 65.4782L73.6179 68.4782H73.6292V65.4782ZM108.825 92.4828L106.317 94.13L109.351 98.7482L111.572 93.6884L108.825 92.4828ZM178.616 0.171978L178.118 3.13023L178.119 3.13048L178.616 0.171978ZM203.515 116.022L206.491 116.395L206.492 116.392L203.515 116.022ZM2.91442 193.711C4.62902 186.688 12.5935 154.961 25.2732 125.057C31.62 110.089 39.0771 95.7506 47.4165 85.2135C55.8346 74.5769 64.6418 68.4442 73.6179 68.4782L73.6406 62.4782C61.8223 62.4334 51.4595 70.4369 42.7117 81.49C33.8851 92.6426 26.1804 107.548 19.7493 122.715C6.8731 153.082 -1.18272 185.195 -2.91442 192.289L2.91442 193.711ZM73.6292 68.4782C79.8571 68.4782 91.4403 71.4834 106.317 94.13L111.332 90.8357C95.7753 67.1543 82.5517 62.4782 73.6292 62.4782V68.4782ZM111.572 93.6884C114.473 87.0778 125.248 63.0373 138.555 41.2407C145.219 30.3255 152.429 20.1219 159.514 12.9582C163.056 9.377 166.469 6.6563 169.668 4.96782C172.861 3.28325 175.662 2.71618 178.118 3.13023L179.115 -2.78628C174.964 -3.48617 170.81 -2.41889 166.868 -0.338639C162.934 1.73771 159.033 4.91232 155.248 8.73908C147.68 16.3913 140.186 27.0544 133.434 38.1143C119.909 60.2678 109.004 84.6106 106.078 91.2772L111.572 93.6884ZM178.119 3.13048C182.572 3.87886 186.824 8.07672 190.549 16.03C194.197 23.8193 196.937 34.3861 198.82 46.1732C202.582 69.728 202.807 97.3994 200.538 115.652L206.492 116.392C208.834 97.5578 208.593 69.3183 204.745 45.2269C202.822 33.1908 199.971 22.0007 195.983 13.4853C192.072 5.1338 186.644 -1.52081 179.114 -2.78652L178.119 3.13048ZM200.538 115.649C198.079 135.276 192.312 154.284 187.133 168.427C184.547 175.488 182.117 181.312 180.336 185.366C179.446 187.392 178.718 188.974 178.215 190.046C177.964 190.582 177.769 190.99 177.638 191.262C177.572 191.398 177.522 191.499 177.49 191.566C177.473 191.6 177.461 191.624 177.454 191.64C177.45 191.648 177.447 191.653 177.445 191.657C177.444 191.659 177.444 191.66 177.444 191.66C177.443 191.661 177.443 191.661 177.443 191.661C177.443 191.661 177.443 191.66 180.131 192.992C182.819 194.325 182.82 194.324 182.82 194.323C182.82 194.323 182.821 194.322 182.821 194.321C182.822 194.32 182.823 194.317 182.824 194.315C182.827 194.309 182.831 194.301 182.836 194.291C182.846 194.271 182.86 194.241 182.879 194.203C182.916 194.127 182.971 194.016 183.041 193.87C183.181 193.579 183.386 193.151 183.647 192.595C184.17 191.482 184.918 189.854 185.829 187.779C187.652 183.63 190.131 177.688 192.767 170.49C198.031 156.114 203.956 136.637 206.491 116.395L200.538 115.649Z" fill="#FEFEFE" mask="url(#path-2-inside-1_483_890)"/>
<path d="M125.782 215.972C154.747 149.521 171.892 54.0581 171.892 54.0581L125.782 215.972Z" fill="#32467A"/>
<path d="M125.782 215.972C154.747 149.521 171.892 54.0581 171.892 54.0581" stroke="#1D193F" stroke-width="4" stroke-miterlimit="10" stroke-linecap="round"/>
<path d="M162.453 101.206C162.453 101.206 181.248 93.6483 187.288 76.8296L162.453 101.206Z" fill="#32467A"/>
<path d="M162.453 101.206C162.453 101.206 181.248 93.6483 187.288 76.8296" stroke="#1D193F" stroke-width="4" stroke-miterlimit="10" stroke-linecap="round"/>
<path d="M156.082 127.413C156.082 127.413 176.663 123.432 187.705 108.161L156.082 127.413Z" fill="#32467A"/>
<path d="M156.082 127.413C156.082 127.413 176.663 123.432 187.705 108.161" stroke="#1D193F" stroke-width="4" stroke-miterlimit="10" stroke-linecap="round"/>
<path d="M150.611 146.415C150.611 146.415 171.604 143.987 184.546 129.61L150.611 146.415Z" fill="#32467A"/>
<path d="M150.611 146.415C150.611 146.415 171.604 143.987 184.546 129.61" stroke="#1D193F" stroke-width="4" stroke-miterlimit="10" stroke-linecap="round"/>
<path d="M145 167.094C145 167.094 166.144 168.586 183.216 157L145 167.094Z" fill="#32467A"/>
<path d="M145 167.094C145 167.094 166.144 168.586 183.216 157" stroke="#1D193F" stroke-width="4" stroke-miterlimit="10" stroke-linecap="round"/>
<path d="M153.634 134.246C153.634 134.246 133.054 130.265 122.017 114.994L153.634 134.246Z" fill="#32467A"/>
<path d="M153.634 134.246C153.634 134.246 133.054 130.265 122.017 114.994" stroke="#1D193F" stroke-width="4" stroke-miterlimit="10" stroke-linecap="round"/>
<path d="M145.876 159.483C145.876 159.483 125.291 155.502 114.254 140.231L145.876 159.483Z" fill="#32467A"/>
<path d="M145.876 159.483C145.876 159.483 125.291 155.502 114.254 140.231" stroke="#1D193F" stroke-width="4" stroke-miterlimit="10" stroke-linecap="round"/>
<path d="M138.567 183.12C138.567 183.12 117.684 180.118 105.441 165.398L138.567 183.12Z" fill="#32467A"/>
<path d="M138.567 183.12C138.567 183.12 117.684 180.118 105.441 165.398" stroke="#1D193F" stroke-width="4" stroke-miterlimit="10" stroke-linecap="round"/>
<path d="M159.596 110.839C159.596 110.839 141.893 101.898 138.077 84.6885L159.596 110.839Z" fill="#32467A"/>
<path d="M159.596 110.839C159.596 110.839 141.893 101.898 138.077 84.6885" stroke="#1D193F" stroke-width="4" stroke-miterlimit="10" stroke-linecap="round"/>
<path d="M132.934 199.276C132.934 199.276 153.514 203.261 172.742 193.85L132.934 199.276Z" fill="#32467A"/>
<path d="M132.934 199.276C132.934 199.276 153.514 203.261 172.742 193.85" stroke="#1D193F" stroke-width="4" stroke-miterlimit="10" stroke-linecap="round"/>
<path d="M130.063 204.937C130.063 204.937 108.976 203.054 95.4073 189.026L130.063 204.937Z" fill="#32467A"/>
<path d="M130.063 204.937C130.063 204.937 108.976 203.054 95.4073 189.026" stroke="#1D193F" stroke-width="4" stroke-miterlimit="10" stroke-linecap="round"/>
<path d="M125.353 214.889C125.353 214.889 144.79 221.421 165.788 214.564L125.353 214.889Z" fill="#32467A"/>
<path d="M125.353 214.889C125.353 214.889 144.79 221.421 165.788 214.564" stroke="#1D193F" stroke-width="4" stroke-miterlimit="10" stroke-linecap="round"/>
<path d="M135.158 193.271C135.158 193.271 151.953 196.123 164.917 189.036L135.158 193.271Z" fill="#32467A"/>
<path d="M135.158 193.271C135.158 193.271 151.953 196.123 164.917 189.036" stroke="#1D193F" stroke-width="4" stroke-miterlimit="10" stroke-linecap="round"/>
<path d="M148.174 152C148.174 152 131.661 148.32 124.774 137.328L148.174 152Z" fill="#32467A"/>
<path d="M148.174 152C148.174 152 131.661 148.32 124.774 137.328" stroke="#1D193F" stroke-width="4" stroke-miterlimit="10" stroke-linecap="round"/>
<path d="M163.574 88.5222C163.574 88.5222 151.253 81.6846 150 72L163.574 88.5222Z" fill="#32467A"/>
<path d="M163.574 88.5222C163.574 88.5222 151.253 81.6846 150 72" stroke="#1D193F" stroke-width="4" stroke-miterlimit="10" stroke-linecap="round"/>
<path d="M141.434 175.431C141.434 175.431 158.449 177.375 170.728 169.601L141.434 175.431Z" fill="#32467A"/>
<path d="M141.434 175.431C141.434 175.431 158.449 177.375 170.728 169.601" stroke="#1D193F" stroke-width="4" stroke-miterlimit="10" stroke-linecap="round"/>
<path d="M127.447 210.414C127.447 210.414 109.42 210.457 99.3176 201.826L127.447 210.414Z" fill="#32467A"/>
<path d="M127.447 210.414C127.447 210.414 109.42 210.457 99.3176 201.826" stroke="#1D193F" stroke-width="4" stroke-miterlimit="10" stroke-linecap="round"/>
<path d="M33.3746 259.737C62.3395 193.285 79.4847 97.8228 79.4847 97.8228L33.3746 259.737Z" fill="#32467A"/>
<path d="M33.3746 259.737C62.3395 193.285 79.4847 97.8228 79.4847 97.8228" stroke="#1D193F" stroke-width="4" stroke-miterlimit="10" stroke-linecap="round"/>
<path d="M70.0455 144.971C70.0455 144.971 88.8402 137.413 94.8807 120.594L70.0455 144.971Z" fill="#32467A"/>
<path d="M70.0455 144.971C70.0455 144.971 88.8402 137.413 94.8807 120.594" stroke="#1D193F" stroke-width="4" stroke-miterlimit="10" stroke-linecap="round"/>
<path d="M63.675 171.177C63.675 171.177 84.2555 167.196 95.2975 151.926L63.675 171.177Z" fill="#32467A"/>
<path d="M63.675 171.177C63.675 171.177 84.2555 167.196 95.2975 151.926" stroke="#1D193F" stroke-width="4" stroke-miterlimit="10" stroke-linecap="round"/>
<path d="M58.2039 190.18C58.2039 190.18 79.1966 187.751 92.1389 173.375L58.2039 190.18Z" fill="#32467A"/>
<path d="M58.2039 190.18C58.2039 190.18 79.1966 187.751 92.1389 173.375" stroke="#1D193F" stroke-width="4" stroke-miterlimit="10" stroke-linecap="round"/>
<path d="M50.9368 210.843C50.9368 210.843 72.081 212.334 89.153 200.749L50.9368 210.843Z" fill="#32467A"/>
<path d="M50.9368 210.843C50.9368 210.843 72.081 212.334 89.153 200.749" stroke="#1D193F" stroke-width="4" stroke-miterlimit="10" stroke-linecap="round"/>
<path d="M59.6171 177.252C59.6171 177.252 39.0367 173.27 28 158L59.6171 177.252Z" fill="#32467A"/>
<path d="M59.6171 177.252C59.6171 177.252 39.0367 173.27 28 158" stroke="#1D193F" stroke-width="4" stroke-miterlimit="10" stroke-linecap="round"/>
<path d="M53.4689 203.248C53.4689 203.248 32.8835 199.267 21.8468 183.996L53.4689 203.248Z" fill="#32467A"/>
<path d="M53.4689 203.248C53.4689 203.248 32.8835 199.267 21.8468 183.996" stroke="#1D193F" stroke-width="4" stroke-miterlimit="10" stroke-linecap="round"/>
<path d="M46.1599 226.885C46.1599 226.885 25.2767 223.882 13.0339 209.163L46.1599 226.885Z" fill="#32467A"/>
<path d="M46.1599 226.885C46.1599 226.885 25.2767 223.882 13.0339 209.163" stroke="#1D193F" stroke-width="4" stroke-miterlimit="10" stroke-linecap="round"/>
<path d="M67.1891 154.603C67.1891 154.603 49.4856 145.662 45.6692 128.453L67.1891 154.603Z" fill="#32467A"/>
<path d="M67.1891 154.603C67.1891 154.603 49.4856 145.662 45.6692 128.453" stroke="#1D193F" stroke-width="4" stroke-miterlimit="10" stroke-linecap="round"/>
<path d="M40.5261 243.04C40.5261 243.04 61.1064 247.026 80.3345 237.614L40.5261 243.04Z" fill="#32467A"/>
<path d="M40.5261 243.04C40.5261 243.04 61.1064 247.026 80.3345 237.614" stroke="#1D193F" stroke-width="4" stroke-miterlimit="10" stroke-linecap="round"/>
<path d="M37.6555 248.701C37.6555 248.701 16.5688 246.819 3 232.791L37.6555 248.701Z" fill="#32467A"/>
<path d="M37.6555 248.701C37.6555 248.701 16.5688 246.819 3 232.791" stroke="#1D193F" stroke-width="4" stroke-miterlimit="10" stroke-linecap="round"/>
<path d="M32.946 258.654C32.946 258.654 52.3831 265.186 73.3811 258.33L32.946 258.654Z" fill="#32467A"/>
<path d="M32.946 258.654C32.946 258.654 52.3831 265.186 73.3811 258.33" stroke="#1D193F" stroke-width="4" stroke-miterlimit="10" stroke-linecap="round"/>
<path d="M42.7507 237.036C42.7507 237.036 59.546 239.887 72.5092 232.8L42.7507 237.036Z" fill="#32467A"/>
<path d="M42.7507 237.036C42.7507 237.036 59.546 239.887 72.5092 232.8" stroke="#1D193F" stroke-width="4" stroke-miterlimit="10" stroke-linecap="round"/>
<path d="M55.7664 195.765C55.7664 195.765 39.2532 192.085 32.3669 181.092L55.7664 195.765Z" fill="#32467A"/>
<path d="M55.7664 195.765C55.7664 195.765 39.2532 192.085 32.3669 181.092" stroke="#1D193F" stroke-width="4" stroke-miterlimit="10" stroke-linecap="round"/>
<path d="M71.574 131.522C71.574 131.522 59.253 124.685 58 115L71.574 131.522Z" fill="#32467A"/>
<path d="M71.574 131.522C71.574 131.522 59.253 124.685 58 115" stroke="#1D193F" stroke-width="4" stroke-miterlimit="10" stroke-linecap="round"/>
<path d="M49.0266 219.196C49.0266 219.196 66.041 221.139 78.3203 213.365L49.0266 219.196Z" fill="#32467A"/>
<path d="M49.0266 219.196C49.0266 219.196 66.041 221.139 78.3203 213.365" stroke="#1D193F" stroke-width="4" stroke-miterlimit="10" stroke-linecap="round"/>
<path d="M35.0399 254.179C35.0399 254.179 17.0124 254.221 6.91016 245.591L35.0399 254.179Z" fill="#32467A"/>
<path d="M35.0399 254.179C35.0399 254.179 17.0124 254.221 6.91016 245.591" stroke="#1D193F" stroke-width="4" stroke-miterlimit="10" stroke-linecap="round"/>
</svg>
