<svg viewBox="0 0 294 233" fill="none" xmlns="http://www.w3.org/2000/svg">
<path d="M294 131.655C294 204.364 228.185 231.41 147 231.41C65.8153 231.41 0 204.364 0 131.655C0 58.9458 65.8153 0 147 0C228.185 0 294 58.9812 294 131.655Z" fill="#7384AE"/>
<path d="M146.058 230V29M146.058 230L181.842 34.5767M146.058 230L215.5 50.5M146.058 230L242.108 75.9163M146.058 230L255.292 114.437M146.058 230L260 149.2M146.058 230L245.875 183.963M146.058 230L220.45 213.088M146.058 230L110.275 34.5767M146.058 230L76 50.5M146.058 230L46.2417 75.9163M146.058 230L34 114.437M146.058 230L34 149.2M146.058 230L46.2417 183.963M146.058 230L71.6667 213.088" stroke="#374A7B" stroke-width="4" stroke-linecap="round"/>
</svg>
