<svg viewBox="0 0 163 222" fill="none" xmlns="http://www.w3.org/2000/svg">
<path d="M153.219 60.836C169.021 104.617 164.065 162.92 140.688 195.092C122.106 220.666 97.5861 220.957 81.2368 221.196C63.7229 221.454 36.7427 221.842 17.832 193.433C-4.88352 159.298 -4.21361 101.267 10.3886 61.4429C12.8406 54.7604 26.1512 20.0569 54.6595 6.0205C88.654 -10.7147 133.927 7.40212 153.219 60.836Z" fill="#8A6F8E"/>
<path d="M81.5083 216V28M81.5083 216L117.892 46.3628M81.5083 216L138.542 108.447M81.5083 216L133.625 173.153M81.5083 216L120.35 200.26M81.5083 216L45.125 46.3628M81.5083 216L23 108.447M81.5083 216L29.3917 173.153M81.5083 216L42.6667 200.26" stroke="#C0AAC4" stroke-width="4" stroke-linecap="round"/>
</svg>
