<svg viewBox="0 0 263 246" fill="none" xmlns="http://www.w3.org/2000/svg">
<path d="M301 139.789C301 216.99 233.618 245.707 150.5 245.707C67.3823 245.707 0 216.99 0 139.789C0 62.5877 67.3823 0 150.5 0C233.618 0 301 62.6252 301 139.789Z" fill="#45406A"/>
<path d="M149.025 243V34M149.025 243L186.075 40.8047M149.025 243L221.175 54.414M149.025 243L248.475 83.5767M149.025 243L262.125 123.433M149.025 243L267 159.4M149.025 243L252.375 195.367M149.025 243L226.05 225.502M149.025 243L111.975 40.8047M149.025 243L76.875 54.414M149.025 243L45.675 83.5767M149.025 243L33 123.433M149.025 243L33 159.4M149.025 243L45.675 195.367M149.025 243L72 225.502" stroke="#866F8A" stroke-width="4" stroke-linecap="round"/>
</svg>
