<svg viewBox="0 0 150 390" fill="none" xmlns="http://www.w3.org/2000/svg">
<path d="M149.991 209.174C149.447 267.445 121.032 297.95 75.0583 297.95C29.0845 297.95 0.542404 267.406 0.00560718 209.112C-0.467622 157.442 29.0492 0 75.0018 0C120.954 0 150.584 146.347 149.991 209.174Z" fill="#7384AE"/>
<path d="M75.2304 57.8435H74.3315C72.3762 57.8435 70.791 59.5841 70.791 61.7313V385.788C70.791 387.935 72.3762 389.676 74.3315 389.676H75.2304C77.1857 389.676 78.7709 387.935 78.7709 385.788V61.7313C78.7709 59.5841 77.1857 57.8435 75.2304 57.8435Z" fill="#222F58"/>
<path d="M75.6161 134.88L76.1534 135.437C76.377 135.669 76.7297 135.658 76.9409 135.412L107.606 99.7527C107.817 99.5071 107.807 99.1198 107.583 98.8879L107.046 98.3308C106.822 98.0988 106.47 98.11 106.259 98.3556L75.5937 134.015C75.3825 134.261 75.3925 134.648 75.6161 134.88Z" fill="#222F58"/>
<path d="M76.2299 162.06L76.687 162.534C76.9328 162.789 77.3204 162.777 77.5525 162.507L114.715 119.292C114.947 119.022 114.936 118.596 114.69 118.342L114.233 117.868C113.987 117.613 113.6 117.625 113.368 117.895L76.2053 161.11C75.9732 161.38 75.9842 161.805 76.2299 162.06Z" fill="#222F58"/>
<path d="M76.6716 209.461L77.1287 209.935C77.3745 210.19 77.7618 210.178 77.994 209.908L115.156 166.693C115.388 166.423 115.377 165.998 115.132 165.743L114.675 165.269C114.429 165.014 114.041 165.026 113.809 165.296L76.6468 208.511C76.4147 208.781 76.4258 209.207 76.6716 209.461Z" fill="#222F58"/>
<path d="M71.0407 98.5507L71.5779 99.1079C71.8016 99.3398 72.154 99.3288 72.3652 99.0832L103.03 63.4236C103.242 63.178 103.231 62.791 103.008 62.559L102.471 62.0019C102.247 61.77 101.894 61.7809 101.683 62.0265L71.0181 97.6862C70.8069 97.9318 70.817 98.3188 71.0407 98.5507Z" fill="#222F58"/>
<path d="M76.2309 223.929L76.688 224.403C76.9338 224.658 77.3212 224.646 77.5533 224.376L114.716 181.161C114.948 180.891 114.937 180.466 114.691 180.211L114.234 179.737C113.988 179.482 113.601 179.494 113.368 179.764L76.2061 222.979C75.974 223.249 75.9851 223.674 76.2309 223.929Z" fill="#222F58"/>
<path d="M76.6733 297.219L77.1304 297.693C77.3762 297.948 77.7637 297.935 77.9958 297.665L115.158 254.45C115.39 254.181 115.379 253.755 115.133 253.5L114.676 253.026C114.43 252.771 114.043 252.784 113.811 253.053L76.6487 296.268C76.4166 296.538 76.4275 296.964 76.6733 297.219Z" fill="#222F58"/>
<path d="M76.6662 256.869L77.1233 257.343C77.3691 257.598 77.7565 257.586 77.9886 257.316L115.151 214.101C115.383 213.831 115.372 213.406 115.126 213.151L114.669 212.677C114.423 212.422 114.036 212.434 113.804 212.704L76.6414 255.919C76.4093 256.189 76.4204 256.614 76.6662 256.869Z" fill="#222F58"/>
<path d="M75.6169 268.839L76.1541 269.396C76.3778 269.628 76.7304 269.617 76.9416 269.372L107.607 233.712C107.818 233.467 107.808 233.079 107.584 232.847L107.047 232.29C106.823 232.058 106.471 232.069 106.259 232.315L75.5944 267.975C75.3832 268.22 75.3932 268.607 75.6169 268.839Z" fill="#222F58"/>
<path d="M75.7257 81.5479L76.3993 82.2465C76.5853 82.4393 76.8786 82.43 77.0543 82.2257L97.2919 58.692C97.4675 58.4877 97.4591 58.1659 97.2731 57.973L96.5995 57.2744C96.4135 57.0815 96.1203 57.0907 95.9447 57.295L75.7071 80.8287C75.5314 81.0329 75.5397 81.355 75.7257 81.5479Z" fill="#222F58"/>
<path d="M42.7208 78.5046L42.2958 78.9453C42.0699 79.1795 42.0598 79.5705 42.273 79.8185L76.6108 119.749C76.8241 119.997 77.1801 120.008 77.406 119.774L77.831 119.333C78.0568 119.099 78.067 118.708 77.8537 118.46L43.516 78.5296C43.3027 78.2815 42.9467 78.2703 42.7208 78.5046Z" fill="#222F58"/>
<path d="M37.7871 122.693L37.3621 123.134C37.1362 123.368 37.126 123.759 37.3393 124.007L71.6771 163.938C71.8904 164.186 72.2464 164.197 72.4723 163.963L72.8973 163.522C73.1232 163.288 73.1334 162.897 72.9201 162.649L38.5823 122.718C38.369 122.47 38.013 122.459 37.7871 122.693Z" fill="#222F58"/>
<path d="M37.7896 164.03L37.3645 164.471C37.1387 164.705 37.1285 165.096 37.3418 165.344L71.6795 205.275C71.8928 205.523 72.2488 205.534 72.4747 205.3L72.8997 204.859C73.1256 204.625 73.1357 204.234 72.9225 203.986L38.5848 164.055C38.3715 163.807 38.0154 163.796 37.7896 164.03Z" fill="#222F58"/>
<path d="M45.79 69.785L45.3008 70.2923C45.0927 70.5081 45.0833 70.8684 45.2798 71.097L73.605 104.036C73.8016 104.264 74.1296 104.274 74.3378 104.059L74.827 103.551C75.0351 103.335 75.0445 102.975 74.848 102.747L46.5228 69.808C46.3262 69.5795 45.9982 69.5691 45.79 69.785Z" fill="#222F58"/>
<path d="M37.7863 172.898L37.3612 173.339C37.1354 173.573 37.1252 173.964 37.3385 174.212L71.6762 214.143C71.8895 214.391 72.2455 214.402 72.4714 214.168L72.8964 213.727C73.1223 213.493 73.1324 213.102 72.9192 212.854L38.5815 172.923C38.3682 172.675 38.0121 172.664 37.7863 172.898Z" fill="#222F58"/>
<path d="M37.7871 202.146L37.3621 202.587C37.1362 202.821 37.126 203.212 37.3393 203.46L71.6771 243.391C71.8904 243.639 72.2464 243.65 72.4723 243.416L72.8973 242.975C73.1232 242.741 73.1334 242.35 72.9201 242.102L38.5823 202.171C38.369 201.923 38.013 201.912 37.7871 202.146Z" fill="#222F58"/>
<path d="M37.9002 242.672L37.4832 243.104C37.2551 243.341 37.2447 243.736 37.4601 243.986L71.5632 283.644C71.7786 283.894 72.138 283.905 72.3661 283.669L72.7831 283.236C73.0112 283 73.0216 282.605 72.8062 282.355L38.7031 242.697C38.4877 242.447 38.1283 242.435 37.9002 242.672Z" fill="#222F58"/>
<path d="M37.7919 254.719L37.3669 255.16C37.141 255.394 37.1308 255.785 37.3441 256.033L71.6818 295.964C71.8951 296.212 72.2511 296.223 72.477 295.989L72.902 295.548C73.1279 295.314 73.1381 294.923 72.9248 294.675L38.5871 254.744C38.3738 254.496 38.0178 254.485 37.7919 254.719Z" fill="#222F58"/>
<path d="M37.7815 103.122L37.3565 103.563C37.1306 103.797 37.1204 104.188 37.3337 104.436L71.6715 144.366C71.8848 144.614 72.2408 144.626 72.4667 144.391L72.8917 143.951C73.1176 143.716 73.1278 143.325 72.9145 143.077L38.5767 103.147C38.3634 102.899 38.0074 102.888 37.7815 103.122Z" fill="#222F58"/>
</svg>
