<svg width="269" height="254" viewBox="0 0 269 254" fill="none" xmlns="http://www.w3.org/2000/svg">
<path d="M307 145.789C307 222.99 239.618 251.707 156.5 251.707C73.3823 251.707 6 222.99 6 145.789C6 68.5877 73.3823 6 156.5 6C239.618 6 307 68.6252 307 145.789Z" fill="#45406A"/>
<path d="M155.025 249V40M155.025 249L192.075 46.8047M155.025 249L227.175 60.414M155.025 249L254.475 89.5767M155.025 249L268.125 129.433M155.025 249L273 165.4M155.025 249L258.375 201.367M155.025 249L232.05 231.502M155.025 249L117.975 46.8047M155.025 249L82.875 60.414M155.025 249L51.675 89.5767M155.025 249L39 129.433M155.025 249L39 165.4M155.025 249L51.675 201.367M155.025 249L78 231.502" stroke="#866F8A" stroke-width="4" stroke-linecap="round"/>
<path d="M309.3 144.34C309.3 183.67 292.182 210.533 264.496 227.641C236.71 244.81 198.18 252.207 155.4 252.207C112.62 252.207 74.09 244.81 46.3046 227.641C18.6181 210.533 1.5 183.67 1.5 144.34C1.5 65.5563 70.2984 1.5 155.4 1.5C240.501 1.5 309.3 65.5947 309.3 144.34Z" stroke="#FEFEFE" stroke-width="3"/>
</svg>
