<svg width="1413" height="329" viewBox="0 0 1413 329" fill="none" xmlns="http://www.w3.org/2000/svg">
<circle cx="170" cy="106" r="6" fill="#FEFEFE"/>
<circle cx="364" cy="221" r="6" fill="#FEFEFE"/>
<circle cx="957" cy="63" r="6" fill="#FEFEFE"/>
<circle cx="1305" cy="273" r="6" fill="#FEFEFE"/>
<circle cx="531" cy="158" r="3" fill="#FEFEFE"/>
<circle cx="665" cy="87" r="3" fill="#FEFEFE"/>
<circle cx="458" cy="69" r="3" fill="#FEFEFE"/>
<circle cx="173" cy="276" r="3" fill="#FEFEFE"/>
<circle cx="153" cy="221" r="3" fill="#FEFEFE"/>
<circle cx="267" cy="198" r="3" fill="#FEFEFE"/>
<circle cx="34" cy="129" r="3" fill="#FEFEFE"/>
<circle cx="128" cy="75" r="3" fill="#FEFEFE"/>
<circle cx="841" cy="54" r="3" fill="#FEFEFE"/>
<circle cx="800" cy="192" r="3" fill="#FEFEFE"/>
<circle cx="596" cy="48" r="3" fill="#FEFEFE"/>
<circle cx="1148" cy="152" r="3" fill="#FEFEFE"/>
<circle cx="1268" cy="72" r="3" fill="#FEFEFE"/>
<circle cx="1249" cy="264" r="3" fill="#FEFEFE"/>
<circle cx="1360" cy="176" r="3" fill="#FEFEFE"/>
<circle cx="1381" cy="123" r="3" fill="#FEFEFE"/>
<circle cx="991" cy="189" r="3" fill="#FEFEFE"/>
<circle cx="991" cy="189" r="3" fill="#FEFEFE"/>
<circle cx="1122" cy="20" r="3" fill="#FEFEFE"/>
<circle cx="813" cy="72" r="3" fill="#FEFEFE"/>
<circle cx="435" cy="90" r="3" fill="#FEFEFE"/>
<circle cx="1191" cy="158" r="3" fill="#FEFEFE"/>
<circle cx="1199" cy="112" r="3" fill="#FEFEFE"/>
<circle cx="1410" cy="241" r="3" fill="#FEFEFE"/>
<circle cx="3" cy="258" r="3" fill="#FEFEFE"/>
<circle cx="395" cy="326" r="3" fill="#FEFEFE"/>
<circle cx="1021" cy="258" r="3" fill="#FEFEFE"/>
<circle cx="902" cy="135" r="3" fill="#FEFEFE"/>
<circle cx="639" cy="215" r="3" fill="#FEFEFE"/>
<circle cx="740" cy="26" r="3" fill="#FEFEFE"/>
<circle cx="285" cy="90" r="3" fill="#FEFEFE"/>
<circle cx="402" cy="20" r="3" fill="#FEFEFE"/>
<circle cx="183" cy="3" r="3" fill="#FEFEFE"/>
<circle cx="1104" cy="315" r="3" fill="#FEFEFE"/>
<circle cx="21" cy="29" r="3" fill="#FEFEFE"/>
<circle cx="293" cy="38" r="3" fill="#FEFEFE"/>
<circle cx="1378" cy="29" r="6" fill="#FEFEFE"/>
</svg>
