<svg width="1370" height="329" viewBox="0 0 1370 329" fill="none" xmlns="http://www.w3.org/2000/svg">
<g opacity="0.5">
<circle r="6" transform="matrix(-1 0 0 1 1200 106)" fill="#FEFEFE"/>
<circle r="6" transform="matrix(-1 0 0 1 1006 221)" fill="#FEFEFE"/>
<circle r="6" transform="matrix(-1 0 0 1 413 63)" fill="#FEFEFE"/>
<circle r="6" transform="matrix(-1 0 0 1 65 273)" fill="#FEFEFE"/>
<circle r="3" transform="matrix(-1 0 0 1 839 158)" fill="#FEFEFE"/>
<circle r="3" transform="matrix(-1 0 0 1 705 87)" fill="#FEFEFE"/>
<circle r="3" transform="matrix(-1 0 0 1 912 69)" fill="#FEFEFE"/>
<circle r="3" transform="matrix(-1 0 0 1 1197 276)" fill="#FEFEFE"/>
<circle r="3" transform="matrix(-1 0 0 1 1217 221)" fill="#FEFEFE"/>
<circle r="3" transform="matrix(-1 0 0 1 1103 198)" fill="#FEFEFE"/>
<circle r="3" transform="matrix(-1 0 0 1 1336 129)" fill="#FEFEFE"/>
<circle r="3" transform="matrix(-1 0 0 1 1242 75)" fill="#FEFEFE"/>
<circle r="3" transform="matrix(-1 0 0 1 529 54)" fill="#FEFEFE"/>
<circle r="3" transform="matrix(-1 0 0 1 570 192)" fill="#FEFEFE"/>
<circle r="3" transform="matrix(-1 0 0 1 774 48)" fill="#FEFEFE"/>
<circle r="3" transform="matrix(-1 0 0 1 222 152)" fill="#FEFEFE"/>
<circle r="3" transform="matrix(-1 0 0 1 102 72)" fill="#FEFEFE"/>
<circle r="3" transform="matrix(-1 0 0 1 121 264)" fill="#FEFEFE"/>
<circle r="3" transform="matrix(-1 0 0 1 10 176)" fill="#FEFEFE"/>
<circle r="3" transform="matrix(-1 0 0 1 379 189)" fill="#FEFEFE"/>
<circle r="3" transform="matrix(-1 0 0 1 379 189)" fill="#FEFEFE"/>
<circle r="3" transform="matrix(-1 0 0 1 248 20)" fill="#FEFEFE"/>
<circle r="3" transform="matrix(-1 0 0 1 557 72)" fill="#FEFEFE"/>
<circle r="3" transform="matrix(-1 0 0 1 935 90)" fill="#FEFEFE"/>
<circle r="3" transform="matrix(-1 0 0 1 179 158)" fill="#FEFEFE"/>
<circle r="3" transform="matrix(-1 0 0 1 171 112)" fill="#FEFEFE"/>
<circle r="3" transform="matrix(-1 0 0 1 1367 258)" fill="#FEFEFE"/>
<circle r="3" transform="matrix(-1 0 0 1 975 326)" fill="#FEFEFE"/>
<circle r="3" transform="matrix(-1 0 0 1 349 258)" fill="#FEFEFE"/>
<circle r="3" transform="matrix(-1 0 0 1 468 135)" fill="#FEFEFE"/>
<circle r="3" transform="matrix(-1 0 0 1 731 215)" fill="#FEFEFE"/>
<circle r="3" transform="matrix(-1 0 0 1 630 26)" fill="#FEFEFE"/>
<circle r="3" transform="matrix(-1 0 0 1 1085 90)" fill="#FEFEFE"/>
<circle r="3" transform="matrix(-1 0 0 1 968 20)" fill="#FEFEFE"/>
<circle r="3" transform="matrix(-1 0 0 1 1187 3)" fill="#FEFEFE"/>
<circle r="3" transform="matrix(-1 0 0 1 266 315)" fill="#FEFEFE"/>
<circle r="3" transform="matrix(-1 0 0 1 1349 29)" fill="#FEFEFE"/>
<circle r="3" transform="matrix(-1 0 0 1 1077 38)" fill="#FEFEFE"/>
</g>
</svg>
