<svg width="422" height="420" viewBox="0 0 422 420" fill="none" xmlns="http://www.w3.org/2000/svg">
<rect width="422" height="420" fill="#E5E5E5"/>
<g clip-path="url(#clip0)">
<rect width="1024" height="1624" transform="translate(-548 -120)" fill="#FBE6DB"/>
<g filter="url(#filter0_dd)">
<path d="M265.98 334.766H262.979V351.902H265.98V334.766Z" fill="#FBE6DB"/>
<path d="M276.159 330.849H273.159V347.986H276.159V330.849Z" fill="#FBE6DB"/>
<path d="M232.031 408.302H276.148V335.495H232.031V408.302Z" fill="#FBE6DB"/>
<path d="M242.127 346.37C243.012 345.39 243.996 344.607 244.881 344.068C244.881 344.068 244.881 344.068 244.93 344.068C244.93 344.068 244.93 344.068 244.979 344.068C245.865 344.607 246.848 345.39 247.734 346.37C249.258 348.132 249.849 349.944 250.045 351.364V364.828H239.913V351.364C240.012 349.944 240.602 348.132 242.127 346.37Z" fill="#FBE6DB"/>
<path d="M247.076 364.128H249.387V353.503H247.076V364.128Z" fill="#FBE6DB"/>
<path d="M247.594 351.951C247.791 351.657 248.037 351.413 248.234 351.217C248.43 351.413 248.676 351.609 248.873 351.951C249.217 352.49 249.365 353.077 249.414 353.518H247.103C247.152 353.077 247.25 352.49 247.594 351.951Z" fill="#FBE6DB"/>
<path d="M228.958 335.507H276.174V331.541H228.958V335.507Z" fill="#FBE6DB"/>
<path d="M253.681 375.882H257.96V337.006H253.681V375.882Z" fill="#FBE6DB"/>
<path d="M255.797 368.305L257.961 375.062H253.682L255.797 368.305Z" fill="#FBE6DB"/>
<path d="M257.374 329.331H254.374V346.468H257.374V329.331Z" fill="#FBE6DB"/>
<path d="M255.797 341.424L257.961 348.132H253.682L255.797 341.424Z" fill="#FBE6DB"/>
<path d="M276.146 375.887H280.179V363.989H276.146V375.887Z" fill="#FBE6DB"/>
<path d="M243.763 364.128H246.075V353.503H243.763V364.128Z" fill="#FBE6DB"/>
<path d="M244.295 351.951C244.492 351.658 244.738 351.413 244.934 351.217C245.131 351.413 245.377 351.609 245.574 351.951C245.918 352.49 246.066 353.077 246.115 353.518H243.803C243.803 353.077 243.951 352.49 244.295 351.951Z" fill="#FBE6DB"/>
<path d="M276.136 387.037H283.71V371.613H276.136V387.037Z" fill="#FBE6DB"/>
<path d="M265.328 375.913H269.607V337.037H265.328V375.913Z" fill="#FBE6DB"/>
<path d="M280.19 372.01H284.469V366.135H280.19V372.01Z" fill="#FBE6DB"/>
<path d="M240.466 364.128H242.777V353.503H240.466V364.128Z" fill="#FBE6DB"/>
<path d="M241.003 351.951C241.2 351.658 241.446 351.413 241.642 351.217C241.839 351.413 242.085 351.609 242.282 351.951C242.626 352.49 242.774 353.077 242.823 353.518H240.511C240.511 353.077 240.659 352.49 241.003 351.951Z" fill="#FBE6DB"/>
<path d="M269.08 329.38H266.08V346.516H269.08V329.38Z" fill="#FBE6DB"/>
<path d="M267.503 341.424L269.618 348.132H265.388L267.503 341.424Z" fill="#FBE6DB"/>
<path d="M276.132 348.118H280.165V342.243H276.132V348.118Z" fill="#FBE6DB"/>
<path d="M276.146 363.989H280.179V361.931H276.146V363.989Z" fill="#FBE6DB"/>
<path d="M276.133 361.927H279.674V347.973H276.133V361.927Z" fill="#FBE6DB"/>
<path d="M267.503 368.011L269.618 374.719H265.388L267.503 368.011Z" fill="#FBE6DB"/>
<path d="M239.862 338.634C240.351 338.634 240.748 338.239 240.748 337.752C240.748 337.266 240.351 336.871 239.862 336.871C239.374 336.871 238.977 337.266 238.977 337.752C238.977 338.239 239.374 338.634 239.862 338.634Z" fill="#FBE6DB"/>
<path d="M249.454 338.634C249.943 338.634 250.339 338.239 250.339 337.752C250.339 337.266 249.943 336.871 249.454 336.871C248.965 336.871 248.568 337.266 248.568 337.752C248.568 338.239 248.965 338.634 249.454 338.634Z" fill="#FBE6DB"/>
<path d="M115.272 334.144H118.272V351.28H115.272V334.144Z" fill="#FBE6DB"/>
<path d="M105.092 330.226H108.093V347.363H105.092V330.226Z" fill="#FBE6DB"/>
<path d="M149.223 407.68H105.106V334.872H149.223V407.68Z" fill="#FBE6DB"/>
<path d="M139.127 345.748C138.241 344.768 137.258 343.985 136.372 343.446C136.372 343.446 136.372 343.446 136.323 343.446C136.323 343.446 136.323 343.446 136.274 343.446C135.389 343.985 134.405 344.768 133.52 345.748C131.995 347.51 131.405 349.322 131.208 350.742V364.206H141.34V350.742C141.241 349.322 140.651 347.51 139.127 345.748Z" fill="#FBE6DB"/>
<path d="M134.176 363.506H131.864V352.881H134.176V363.506Z" fill="#FBE6DB"/>
<path d="M133.659 351.329C133.462 351.036 133.217 350.791 133.02 350.595C132.823 350.791 132.577 350.987 132.38 351.329C132.036 351.868 131.889 352.455 131.839 352.896H134.151C134.102 352.455 134.004 351.868 133.659 351.329Z" fill="#FBE6DB"/>
<path d="M152.295 334.884H105.079V330.918H152.295V334.884Z" fill="#FBE6DB"/>
<path d="M127.572 375.26H123.294V336.383H127.572V375.26Z" fill="#FBE6DB"/>
<path d="M125.455 367.683L123.291 374.439H127.57L125.455 367.683Z" fill="#FBE6DB"/>
<path d="M123.88 328.709H126.88V345.846H123.88V328.709Z" fill="#FBE6DB"/>
<path d="M125.455 340.802L123.291 347.51H127.57L125.455 340.802Z" fill="#FBE6DB"/>
<path d="M105.107 375.265H101.074V363.367H105.107V375.265Z" fill="#FBE6DB"/>
<path d="M137.487 363.506H135.175V352.881H137.487V363.506Z" fill="#FBE6DB"/>
<path d="M136.958 351.329C136.761 351.036 136.515 350.791 136.319 350.595C136.122 350.791 135.876 350.987 135.679 351.329C135.335 351.868 135.188 352.455 135.138 352.896H137.45C137.45 352.455 137.302 351.868 136.958 351.329Z" fill="#FBE6DB"/>
<path d="M105.116 386.415H97.5415V370.991H105.116V386.415Z" fill="#FBE6DB"/>
<path d="M115.923 375.291H111.644V336.415H115.923V375.291Z" fill="#FBE6DB"/>
<path d="M101.063 371.388H96.7841V365.513H101.063V371.388Z" fill="#FBE6DB"/>
<path d="M140.784 363.506H138.473V352.881H140.784V363.506Z" fill="#FBE6DB"/>
<path d="M140.25 351.329C140.054 351.036 139.808 350.791 139.611 350.595C139.414 350.791 139.168 350.987 138.972 351.329C138.627 351.868 138.48 352.455 138.431 352.896H140.742C140.742 352.455 140.595 351.868 140.25 351.329Z" fill="#FBE6DB"/>
<path d="M112.174 328.758H115.175V345.894H112.174V328.758Z" fill="#FBE6DB"/>
<path d="M113.751 340.802L111.636 347.51H115.866L113.751 340.802Z" fill="#FBE6DB"/>
<path d="M105.119 347.496H101.086V341.621H105.119V347.496Z" fill="#FBE6DB"/>
<path d="M105.107 363.367H101.074V361.309H105.107V363.367Z" fill="#FBE6DB"/>
<path d="M105.118 361.305H101.577V347.351H105.118V361.305Z" fill="#FBE6DB"/>
<path d="M113.751 367.389L111.636 374.097H115.866L113.751 367.389Z" fill="#FBE6DB"/>
<path d="M141.389 338.012C140.9 338.012 140.503 337.617 140.503 337.13C140.503 336.643 140.9 336.249 141.389 336.249C141.878 336.249 142.274 336.643 142.274 337.13C142.274 337.617 141.878 338.012 141.389 338.012Z" fill="#FBE6DB"/>
<path d="M131.8 338.012C131.311 338.012 130.914 337.617 130.914 337.13C130.914 336.643 131.311 336.249 131.8 336.249C132.289 336.249 132.685 336.643 132.685 337.13C132.685 337.617 132.289 338.012 131.8 338.012Z" fill="#FBE6DB"/>
<path d="M329.279 380.986H48.2458V408.503H329.279V380.986Z" fill="#FBE6DB"/>
<path d="M327.672 376.286H232.404V387.057C265.603 387.008 298.801 387.008 332 386.959C330.525 383.434 329.098 379.86 327.672 376.286Z" fill="#FBE6DB"/>
<path d="M49.3281 376.286H144.596V387.057C111.398 387.008 78.1988 387.008 45 386.96C46.4263 383.434 47.9018 379.86 49.3281 376.286Z" fill="#FBE6DB"/>
<path d="M265.293 391.317H258.259V408.454H265.293V391.317Z" fill="#FBE6DB"/>
<path d="M265.293 391.317H258.259L261.801 383.287L265.293 391.317Z" fill="#FBE6DB"/>
<path d="M245.964 391.366H238.931V408.503H245.964V391.366Z" fill="#FBE6DB"/>
<path d="M245.964 391.366H238.931L242.423 383.287L245.964 391.366Z" fill="#FBE6DB"/>
<path d="M284.674 391.366H277.64V408.503H284.674V391.366Z" fill="#FBE6DB"/>
<path d="M284.674 391.366H277.64L281.132 383.287L284.674 391.366Z" fill="#FBE6DB"/>
<path d="M303.999 391.366H296.966V408.503H303.999V391.366Z" fill="#FBE6DB"/>
<path d="M303.999 391.366H296.966L300.507 383.287L303.999 391.366Z" fill="#FBE6DB"/>
<path d="M255.505 393.863C254.423 392.786 253.242 391.954 252.16 391.366C252.16 391.366 252.16 391.366 252.111 391.366C252.111 391.366 252.111 391.366 252.062 391.366C250.98 391.954 249.799 392.786 248.717 393.863C246.848 395.773 246.16 397.78 245.914 399.298V408.454H258.21V399.298C258.062 397.78 257.374 395.773 255.505 393.863Z" fill="#FBE6DB"/>
<path d="M254.865 395.087C253.98 394.108 252.996 393.325 252.111 392.786C252.111 392.786 252.111 392.786 252.062 392.786C252.062 392.786 252.062 392.786 252.013 392.786C251.128 393.325 250.144 394.108 249.259 395.087C247.734 396.85 247.144 398.661 246.947 400.081V408.503H257.079V400.081C256.98 398.661 256.439 396.85 254.865 395.087Z" fill="#FBE6DB"/>
<path d="M274.833 393.863C273.751 392.786 272.571 391.954 271.489 391.366C271.489 391.366 271.489 391.366 271.44 391.366C271.44 391.366 271.44 391.366 271.39 391.366C270.308 391.954 269.128 392.786 268.046 393.863C266.177 395.773 265.488 397.78 265.243 399.298V408.454H277.538V399.298C277.391 397.731 276.702 395.773 274.833 393.863Z" fill="#FBE6DB"/>
<path d="M274.243 395.087C273.358 394.108 272.375 393.325 271.489 392.786C271.489 392.786 271.489 392.786 271.44 392.786C271.44 392.786 271.44 392.786 271.391 392.786C270.506 393.325 269.522 394.108 268.637 395.087C267.112 396.85 266.522 398.661 266.325 400.081V408.503H276.457V400.081C276.358 398.661 275.768 396.85 274.243 395.087Z" fill="#FBE6DB"/>
<path d="M294.211 393.863C293.129 392.786 291.949 391.954 290.867 391.366C290.867 391.366 290.867 391.366 290.818 391.366C290.818 391.366 290.818 391.366 290.768 391.366C289.686 391.954 288.506 392.786 287.424 393.863C285.555 395.773 284.867 397.78 284.621 399.298V408.454H296.916V399.298C296.769 397.78 296.08 395.773 294.211 393.863Z" fill="#FBE6DB"/>
<path d="M293.622 395.087C292.736 394.108 291.753 393.325 290.867 392.786C290.867 392.786 290.867 392.786 290.818 392.786C290.818 392.786 290.818 392.786 290.769 392.786C289.884 393.325 288.9 394.108 288.015 395.087C286.49 396.85 285.9 398.661 285.703 400.081V408.503H295.835V400.081C295.737 398.661 295.146 396.85 293.622 395.087Z" fill="#FBE6DB"/>
<path d="M313.54 393.863C312.458 392.786 311.277 391.954 310.195 391.366C310.195 391.366 310.195 391.366 310.146 391.366C310.146 391.366 310.146 391.366 310.097 391.366C309.015 391.954 307.835 392.786 306.753 393.863C304.884 395.773 304.195 397.78 303.949 399.298V408.454H316.245V399.298C316.098 397.731 315.409 395.773 313.54 393.863Z" fill="#FBE6DB"/>
<path d="M312.95 395.087C312.065 394.108 311.081 393.325 310.196 392.786C310.196 392.786 310.196 392.786 310.147 392.786C310.147 392.786 310.147 392.786 310.098 392.786C309.212 393.325 308.229 394.108 307.343 395.087C305.819 396.85 305.228 398.661 305.032 400.081V408.503H315.163V400.081C315.065 398.661 314.475 396.85 312.95 395.087Z" fill="#FBE6DB"/>
<path d="M112.452 408.502H119.485V391.365H112.452V408.502Z" fill="#FBE6DB"/>
<path d="M112.478 391.317H119.511L115.97 383.287L112.478 391.317Z" fill="#FBE6DB"/>
<path d="M131.835 408.47H138.868V391.333H131.835V408.47Z" fill="#FBE6DB"/>
<path d="M131.81 391.366H138.843L135.351 383.287L131.81 391.366Z" fill="#FBE6DB"/>
<path d="M93.1161 408.461H100.149V391.324H93.1161V408.461Z" fill="#FBE6DB"/>
<path d="M93.1001 391.366H100.133L96.6413 383.287L93.1001 391.366Z" fill="#FBE6DB"/>
<path d="M73.7361 408.47H80.7693V391.333H73.7361V408.47Z" fill="#FBE6DB"/>
<path d="M73.7715 391.366H80.8047L77.2635 383.287L73.7715 391.366Z" fill="#FBE6DB"/>
<path d="M122.268 393.863C123.35 392.786 124.531 391.954 125.613 391.366C125.613 391.366 125.613 391.366 125.662 391.366C125.662 391.366 125.662 391.366 125.711 391.366C126.793 391.954 127.973 392.786 129.055 393.863C130.924 395.773 131.613 397.78 131.859 399.298V408.454H119.563V399.298C119.711 397.78 120.399 395.773 122.268 393.863Z" fill="#FBE6DB"/>
<path d="M122.858 395.087C123.743 394.108 124.727 393.325 125.612 392.786C125.612 392.786 125.612 392.786 125.661 392.786C125.661 392.786 125.661 392.786 125.711 392.786C126.596 393.325 127.579 394.108 128.465 395.087C129.989 396.85 130.58 398.661 130.776 400.081V408.503H120.645V400.081C120.743 398.661 121.333 396.85 122.858 395.087Z" fill="#FBE6DB"/>
<path d="M102.937 393.863C104.019 392.786 105.199 391.954 106.281 391.366C106.281 391.366 106.281 391.366 106.33 391.366C106.33 391.366 106.33 391.366 106.379 391.366C107.461 391.954 108.642 392.786 109.724 393.863C111.593 395.773 112.281 397.78 112.527 399.298V408.454H100.231V399.298C100.379 397.731 101.068 395.773 102.937 393.863Z" fill="#FBE6DB"/>
<path d="M103.529 395.087C104.414 394.108 105.398 393.325 106.283 392.786C106.283 392.786 106.283 392.786 106.333 392.786C106.333 392.786 106.333 392.786 106.382 392.786C107.267 393.325 108.251 394.108 109.136 395.087C110.661 396.85 111.251 398.661 111.448 400.081V408.503H101.316V400.081C101.414 398.661 101.955 396.85 103.529 395.087Z" fill="#FBE6DB"/>
<path d="M83.5585 393.863C84.6406 392.786 85.8209 391.954 86.903 391.366C86.903 391.366 86.9029 391.366 86.9521 391.366C86.9521 391.366 86.9522 391.366 87.0014 391.366C88.0834 391.954 89.2638 392.786 90.3458 393.863C92.2148 395.773 92.9034 397.78 93.1493 399.298V408.454H80.8534V399.298C81.001 397.78 81.6896 395.773 83.5585 393.863Z" fill="#FBE6DB"/>
<path d="M84.1512 395.087C85.0365 394.108 86.0202 393.325 86.9055 392.786C86.9055 392.786 86.9055 392.786 86.9547 392.786C86.9547 392.786 86.9547 392.786 87.0039 392.786C87.8892 393.325 88.8728 394.108 89.7581 395.087C91.2828 396.85 91.873 398.661 92.0697 400.081V408.503H81.938V400.081C82.0364 398.661 82.6266 396.85 84.1512 395.087Z" fill="#FBE6DB"/>
<path d="M64.2299 393.863C65.3119 392.786 66.4923 391.954 67.5743 391.366C67.5743 391.366 67.5743 391.366 67.6235 391.366C67.6235 391.366 67.6235 391.366 67.6727 391.366C68.7547 391.954 69.9351 392.786 71.0171 393.863C72.8861 395.773 73.5746 397.78 73.8205 399.298V408.454H61.5248V399.298C61.6724 397.731 62.3609 395.773 64.2299 393.863Z" fill="#FBE6DB"/>
<path d="M64.8206 395.087C65.7059 394.108 66.6896 393.325 67.5749 392.786C67.5749 392.786 67.5749 392.786 67.6241 392.786C67.6241 392.786 67.6241 392.786 67.6733 392.786C68.5586 393.325 69.5422 394.108 70.4275 395.087C71.9522 396.85 72.5425 398.661 72.7392 400.081V408.503H62.6073V400.081C62.7057 398.661 63.2467 396.85 64.8206 395.087Z" fill="#FBE6DB"/>
<path d="M141.643 393.863C142.725 392.786 143.906 391.954 144.988 391.366C144.988 391.366 144.988 391.366 145.037 391.366C145.037 391.366 145.037 391.366 145.086 391.366C146.168 391.954 147.348 392.786 148.43 393.863C150.299 395.773 150.988 397.78 151.234 399.298V408.454H138.938V399.298C139.086 397.78 139.774 395.773 141.643 393.863Z" fill="#FBE6DB"/>
<path d="M142.236 395.087C143.121 394.108 144.105 393.325 144.99 392.786C144.99 392.786 144.99 392.786 145.039 392.786C145.039 392.786 145.039 392.786 145.089 392.786C145.974 393.325 146.958 394.108 147.843 395.087C149.367 396.85 149.958 398.661 150.154 400.081V408.503H140.023V400.081C140.121 398.661 140.711 396.85 142.236 395.087Z" fill="#FBE6DB"/>
<path d="M236.127 393.863C235.045 392.786 233.864 391.954 232.782 391.366C232.782 391.366 232.782 391.366 232.733 391.366C232.733 391.366 232.733 391.366 232.684 391.366C231.602 391.954 230.421 392.786 229.339 393.863C227.47 395.773 226.782 397.78 226.536 399.298V408.454H238.832V399.298C238.684 397.731 237.996 395.773 236.127 393.863Z" fill="#FBE6DB"/>
<path d="M235.536 395.087C234.651 394.108 233.667 393.325 232.782 392.786C232.782 392.786 232.782 392.786 232.733 392.786C232.733 392.786 232.733 392.786 232.683 392.786C231.798 393.325 230.814 394.108 229.929 395.087C228.404 396.85 227.814 398.661 227.617 400.081V408.503H237.749V400.081C237.651 398.661 237.061 396.85 235.536 395.087Z" fill="#FBE6DB"/>
<path d="M161.906 247.661H152.119V408.503H161.906V247.661Z" fill="#FBE6DB"/>
<path d="M163.187 184.108H162.99C159.301 184.108 156.301 181.122 156.301 177.449V128.585C156.301 124.913 159.301 121.926 162.99 121.926H163.187C166.875 121.926 169.876 124.913 169.876 128.585V177.449C169.876 181.122 166.875 184.108 163.187 184.108Z" fill="#FBE6DB"/>
<path d="M212.222 247.809H207.55V164.768H204.304V169.762H200.123V164.768H195.598V169.762H191.123V164.768H186.204V169.762H181.68V164.768H177.155V169.958H172.63V164.768H169.384V247.809H164.219H212.222Z" fill="#FBE6DB"/>
<path d="M164.219 247.809V363.36H212.222V247.809H164.219Z" fill="#FBE6DB"/>
<path d="M164.219 181.464C161.071 181.464 158.563 178.918 158.563 175.834V127.557C158.563 124.423 161.121 121.926 164.219 121.926C167.367 121.926 169.875 124.472 169.875 127.557V175.834C169.875 178.918 167.318 181.464 164.219 181.464Z" fill="#FBE6DB"/>
<path d="M171.009 176.078H155.172V249.816H171.009V176.078Z" fill="#FBE6DB"/>
<path d="M167.711 118.205H158.563V127.312H167.711V118.205Z" fill="#FBE6DB"/>
<path d="M152.119 345.341H143.857V408.503L152.119 408.503L152.119 345.341Z" fill="#FBE6DB"/>
<path d="M158.516 176.078H155.172V247.661H158.516V176.078Z" fill="#FBE6DB"/>
<path d="M163.09 109L160.188 118.254H165.992L163.09 109Z" fill="#FBE6DB"/>
<path d="M152.121 298.191H145.874V345.293H152.121V298.191Z" fill="#FBE6DB"/>
<path d="M152.119 349.895H143.857V353.518H152.119V349.895Z" fill="#FBE6DB"/>
<path d="M152.121 302.499H145.874V305.045H152.121V302.499Z" fill="#FBE6DB"/>
<path d="M164.319 193.901H159.351V222.005H164.319V193.901Z" fill="#FBE6DB"/>
<path d="M161.859 188.221L159.351 193.901L164.368 193.901L161.859 188.221Z" fill="#FBE6DB"/>
<path d="M165.203 222.054H158.563V254.369H165.203V222.054Z" fill="#FBE6DB"/>
<path d="M161.858 215.493L158.563 222.054H165.203L161.858 215.493Z" fill="#FBE6DB"/>
<path d="M186.844 249.767H165.203V255.985H186.844V249.767Z" fill="#FBE6DB"/>
<path d="M168.795 255.985H166.139V359.394H168.795V255.985Z" fill="#FBE6DB"/>
<path d="M166.875 257.454H156.891V305.976H166.875V257.454Z" fill="#FBE6DB"/>
<path d="M161.859 247.661L156.891 257.454L166.826 257.454L161.859 247.661Z" fill="#FBE6DB"/>
<path d="M166.875 305.045H156.891V353.567H166.875V305.045Z" fill="#FBE6DB"/>
<path d="M166.878 353.616H156.992V408.503H166.878V353.616Z" fill="#FBE6DB"/>
<path d="M215.996 408.514H225.783V247.673H215.996V408.514Z" fill="#FBE6DB"/>
<path d="M214.239 182.786H214.436C218.124 182.786 221.125 179.8 221.125 176.128V128.683C221.125 125.011 218.124 122.024 214.436 122.024H214.239C210.55 122.024 207.55 125.011 207.55 128.683V176.128C207.55 179.8 210.55 182.786 214.239 182.786Z" fill="#FBE6DB"/>
<path d="M213.206 181.562C216.354 181.562 218.862 179.016 218.862 175.932V127.655C218.862 124.521 216.305 122.024 213.206 122.024C210.058 122.024 207.55 124.57 207.55 127.655V175.932C207.55 179.016 210.058 181.562 213.206 181.562Z" fill="#FBE6DB"/>
<path d="M206.335 249.787H222.173V176.245H206.335V249.787Z" fill="#FBE6DB"/>
<path d="M209.71 127.43H218.859V118.323H209.71V127.43Z" fill="#FBE6DB"/>
<path d="M225.788 408.51H234.05V345.349H225.788V408.51Z" fill="#FBE6DB"/>
<path d="M214.337 109.147L217.239 118.401H211.436L214.337 109.147Z" fill="#FBE6DB"/>
<path d="M218.88 247.845H222.225V177.584H218.88V247.845Z" fill="#FBE6DB"/>
<path d="M225.807 345.439H232.053V298.338H225.807V345.439Z" fill="#FBE6DB"/>
<path d="M225.82 353.663H234.034V350.04H225.82V353.663Z" fill="#FBE6DB"/>
<path d="M225.788 305.169H232.035V302.623H225.788V305.169Z" fill="#FBE6DB"/>
<path d="M211.879 255.006H209.223V358.415H211.879V255.006Z" fill="#FBE6DB"/>
<path d="M213.068 222.167H218.036V194.063H213.068V222.167Z" fill="#FBE6DB"/>
<path d="M215.567 188.368L218.026 194.048H213.059L215.567 188.368Z" fill="#FBE6DB"/>
<path d="M212.763 249.767H191.122V255.985H212.763V249.767Z" fill="#FBE6DB"/>
<path d="M212.231 254.494H218.87V222.179H212.231V254.494Z" fill="#FBE6DB"/>
<path d="M215.566 215.64L218.861 222.152H212.222L215.566 215.64Z" fill="#FBE6DB"/>
<path d="M211.05 306.08H221.035V257.558H211.05V306.08Z" fill="#FBE6DB"/>
<path d="M216.058 247.76L221.025 257.552H211.041L216.058 247.76Z" fill="#FBE6DB"/>
<path d="M211.05 353.656H221.035V305.134H211.05V353.656Z" fill="#FBE6DB"/>
<path d="M211.048 408.468H220.934V353.581H211.048V408.468Z" fill="#FBE6DB"/>
<path d="M184.19 201.294H174.059V239.779H184.19V201.294Z" fill="#FBE6DB"/>
<path d="M181.04 362.919H176.761V375.306H181.04V362.919Z" fill="#FBE6DB"/>
<path d="M179.131 191.257C179.072 191.257 179.072 191.257 179.131 191.257V191.257Z" fill="#FBE6DB"/>
<path d="M181.879 194.439C180.993 193.069 180.01 192.04 179.124 191.257H179.075C178.19 192.04 177.206 193.069 176.321 194.439C174.796 196.839 174.206 199.336 174.059 201.294H184.19C183.994 199.336 183.403 196.839 181.879 194.439Z" fill="#FBE6DB"/>
<path d="M178.039 202.029C177.99 202.322 177.99 202.812 178.186 203.4C178.432 204.036 178.777 204.477 178.973 204.673C179.17 204.477 179.564 204.036 179.76 203.4C179.957 202.812 179.957 202.322 179.908 202.029C180.203 202.078 180.695 202.078 181.285 201.882C181.924 201.637 182.367 201.294 182.564 201.098C182.367 200.902 181.924 200.511 181.285 200.315C180.695 200.119 180.203 200.119 179.908 200.168H180.006C180.055 199.874 180.055 199.385 179.859 198.797C179.613 198.161 179.268 197.72 179.072 197.524C178.875 197.72 178.481 198.161 178.285 198.797C178.088 199.385 178.088 199.874 178.137 200.168C177.842 200.119 177.35 200.119 176.76 200.315C176.121 200.56 175.678 200.902 175.481 201.098C175.678 201.294 176.121 201.686 176.76 201.882C177.35 202.078 177.842 202.078 178.137 202.029" fill="#FBE6DB"/>
<path d="M204.057 201.294H193.925V239.779H204.057V201.294Z" fill="#FBE6DB"/>
<path d="M201.745 194.439C200.86 193.069 199.876 192.04 198.991 191.257H198.942C198.057 192.04 197.073 193.069 196.188 194.439C194.663 196.839 194.073 199.336 193.925 201.294H204.057C203.86 199.336 203.319 196.839 201.745 194.439Z" fill="#FBE6DB"/>
<path d="M197.958 202.029C197.909 202.322 197.909 202.812 198.105 203.4C198.351 204.036 198.696 204.477 198.892 204.673C199.089 204.477 199.482 204.036 199.679 203.4C199.876 202.812 199.876 202.322 199.827 202.029C200.122 202.078 200.614 202.078 201.204 201.882C201.843 201.637 202.286 201.294 202.483 201.098C202.286 200.902 201.843 200.511 201.204 200.315C200.614 200.119 200.122 200.119 199.827 200.168H199.925C199.974 199.874 199.974 199.385 199.778 198.797C199.532 198.161 199.187 197.72 198.991 197.524C198.794 197.72 198.4 198.161 198.204 198.797C198.007 199.385 198.007 199.874 198.056 200.168C197.761 200.119 197.269 200.119 196.679 200.315C196.04 200.56 195.597 200.902 195.4 201.098C195.597 201.294 196.04 201.686 196.679 201.882C197.269 202.078 197.761 202.078 198.056 202.029" fill="#FBE6DB"/>
<path d="M187.24 255.98H190.141V159.279H187.24V255.98Z" fill="#FBE6DB"/>
<path d="M188.714 155.71L190.141 159.333H187.288L188.714 155.71Z" fill="#FBE6DB"/>
<path d="M181.678 334.912H176.022V356.358H181.678V334.912Z" fill="#FBE6DB"/>
<path d="M178.884 329.282C178.825 329.34 178.825 329.34 178.884 329.282C178.884 329.34 178.884 329.34 178.884 329.282Z" fill="#FBE6DB"/>
<path d="M180.399 331.1C179.908 330.316 179.367 329.778 178.875 329.337H178.826C178.334 329.778 177.793 330.316 177.301 331.1C176.465 332.471 176.12 333.842 176.022 334.919H181.678C181.58 333.842 181.236 332.422 180.399 331.1Z" fill="#FBE6DB"/>
<path d="M201.896 334.912H196.24V356.358H201.896V334.912Z" fill="#FBE6DB"/>
<path d="M200.617 331.044C200.125 330.261 199.584 329.722 199.092 329.282H199.043C198.551 329.722 198.01 330.261 197.518 331.044C196.682 332.415 196.338 333.786 196.24 334.863H201.896C201.797 333.786 201.453 332.415 200.617 331.044Z" fill="#FBE6DB"/>
<path d="M191.369 249.767H186.5V354.987H191.369V249.767Z" fill="#FBE6DB"/>
<path d="M206.123 357.925V363.213H201.254V359.1H196.336V361.94H191.417V354.987H186.5L186.499 361.94H181.581V359.1H176.662V363.213H171.744V357.925H166.826V408.503H211.041V357.925H206.123Z" fill="#FBE6DB"/>
<path d="M191.122 352.343H186.843V369.48H191.122V352.343Z" fill="#FBE6DB"/>
<path d="M196.976 373.642C194.467 371.047 191.615 369.088 189.008 367.668C188.959 367.668 188.959 367.62 188.91 367.62C188.861 367.62 188.861 367.668 188.811 367.668C186.205 369.088 183.352 371.047 180.844 373.642C176.368 378.195 174.745 382.945 174.204 386.617V408.454H203.566V386.617C203.124 382.945 201.451 378.244 196.976 373.642Z" fill="#FBE6DB"/>
<path d="M196.334 376.482C194.023 374.131 191.416 372.32 189.006 370.998C188.957 370.998 188.957 370.949 188.908 370.949C188.859 370.949 188.859 370.998 188.809 370.998C186.449 372.32 183.793 374.131 181.481 376.482C177.399 380.692 175.874 385.001 175.382 388.428V408.503H202.335V388.428C201.941 385.001 200.466 380.643 196.334 376.482Z" fill="#FBE6DB"/>
<path d="M187.579 391.856H177.595V408.454H187.579V391.856Z" fill="#FBE6DB"/>
<path d="M182.621 385.197C182.563 385.197 182.563 385.197 182.621 385.197V385.197Z" fill="#FBE6DB"/>
<path d="M185.317 387.302C184.481 386.421 183.497 385.736 182.612 385.197H182.563C181.677 385.687 180.694 386.372 179.858 387.302C178.333 388.918 177.792 390.534 177.595 391.856H187.579C187.383 390.534 186.842 388.918 185.317 387.302Z" fill="#FBE6DB"/>
<path d="M200.32 391.856H190.336V408.454H200.32V391.856Z" fill="#FBE6DB"/>
<path d="M198.058 387.351C197.222 386.47 196.238 385.784 195.353 385.246H195.303C194.418 385.735 193.435 386.421 192.599 387.351C191.074 388.967 190.533 390.583 190.336 391.905H200.32C200.124 390.583 199.583 388.918 198.058 387.351Z" fill="#FBE6DB"/>
<path d="M209.913 160.459H205.634V177.596H209.913V160.459Z" fill="#FBE6DB"/>
<path d="M171.302 160.459H167.023V177.596H171.302V160.459Z" fill="#FBE6DB"/>
<path d="M191.027 285.412H186.896V292.168H191.027V285.412Z" fill="#FBE6DB"/>
<path d="M209.666 285.412H205.535V292.168H209.666V285.412Z" fill="#FBE6DB"/>
<path d="M172.338 285.412H168.207V292.168H172.338V285.412Z" fill="#FBE6DB"/>
<path d="M162.89 393.276H160.922V397.731H162.89V393.276Z" fill="#FBE6DB"/>
<path d="M162.89 393.276H160.922L161.906 391.905L162.89 393.276Z" fill="#FBE6DB"/>
<path d="M216.992 393.276H215.025V397.731H216.992V393.276Z" fill="#FBE6DB"/>
<path d="M217.042 393.276H215.025L216.058 391.905L217.042 393.276Z" fill="#FBE6DB"/>
<path d="M187.579 407.181H177.595V408.503H187.579V407.181Z" fill="#FBE6DB"/>
<path d="M200.32 407.181H190.336V408.503H200.32V407.181Z" fill="#FBE6DB"/>
<path d="M156.988 406.642H143.857V411H156.988V406.642Z" fill="#FBE6DB"/>
<path d="M234.061 406.642H220.929V411H234.061V406.642Z" fill="#FBE6DB"/>
</g>
<path d="M302 287.875V287.875C299.503 286.723 296.572 287.059 294.401 288.746L291.5 291L288.599 288.746C286.428 287.059 283.497 286.723 281 287.875V287.875" stroke="#FBE6DB" stroke-linecap="round" stroke-linejoin="round"/>
<path d="M312 298.75V298.75C310.92 298.285 309.675 298.423 308.723 299.113L307.5 300L306.277 299.113C305.325 298.423 304.08 298.285 303 298.75V298.75" stroke="#FBE6DB" stroke-linecap="round" stroke-linejoin="round"/>
</g>
<defs>
<filter id="filter0_dd" x="0" y="0" width="422" height="420" filterUnits="userSpaceOnUse" color-interpolation-filters="sRGB">
<feFlood flood-opacity="0" result="BackgroundImageFix"/>
<feColorMatrix in="SourceAlpha" type="matrix" values="0 0 0 0 0 0 0 0 0 0 0 0 0 0 0 0 0 0 127 0"/>
<feOffset dx="50" dy="-31"/>
<feGaussianBlur stdDeviation="20"/>
<feColorMatrix type="matrix" values="0 0 0 0 1 0 0 0 0 0.304167 0 0 0 0 0.304167 0 0 0 0.4 0"/>
<feBlend mode="normal" in2="BackgroundImageFix" result="effect1_dropShadow"/>
<feColorMatrix in="SourceAlpha" type="matrix" values="0 0 0 0 0 0 0 0 0 0 0 0 0 0 0 0 0 0 127 0"/>
<feOffset dx="-5" dy="-69"/>
<feGaussianBlur stdDeviation="20"/>
<feColorMatrix type="matrix" values="0 0 0 0 0.964706 0 0 0 0 0.815686 0 0 0 0 0.0666667 0 0 0 0.3 0"/>
<feBlend mode="normal" in2="effect1_dropShadow" result="effect2_dropShadow"/>
<feBlend mode="normal" in="SourceGraphic" in2="effect2_dropShadow" result="shape"/>
</filter>
<clipPath id="clip0">
<rect width="1024" height="5863" fill="white" transform="translate(-548 -887)"/>
</clipPath>
</defs>
</svg>
