<svg width="169" height="1066" viewBox="0 0 169 1066" fill="none" xmlns="http://www.w3.org/2000/svg">
<path d="M9.61635 1029C9.61635 1029 298.947 817.859 93.02 608.913C-112.907 399.966 -22.818 244.347 37.8587 168.065C98.5353 91.7819 52.6543 1.25635 52.6543 1.25635" stroke="white" stroke-width="3" stroke-miterlimit="10"/>
<path d="M39.0968 1C39.0968 1 81.4262 95.3877 17.9322 166.294C-45.5619 237.2 -141.465 384.761 56.1208 611.184C253.706 837.607 -43.2567 1023.35 -43.2567 1023.35" stroke="white" stroke-width="3" stroke-miterlimit="10"/>
<path d="M17.1036 2.25757C17.1036 2.25757 58.195 97.8771 -6.20403 166.949C-70.6031 236.02 -168.418 380.656 26.1449 612.878C220.708 845.101 -78.5942 1022.03 -78.5942 1022.03" stroke="white" stroke-width="3" stroke-miterlimit="10"/>
<path d="M-8.41467 1.61597C-8.41467 1.61597 31.9084 97.9669 -33.0627 165.858C-98.0337 233.749 -196.984 376.626 -4.28246 612.39C188.419 848.155 -112.292 1019.62 -112.292 1019.62" stroke="white" stroke-width="3" stroke-miterlimit="10"/>
<path d="M-20.4404 235.931C-18.5095 228.018 -2.4884 164.368 20.8134 164.456C25.0577 164.456 32.0072 166.609 40.5331 179.592C43.798 172.15 64.8283 125.355 79.6368 127.853C93.0647 130.11 96.171 171.999 93.5871 192.785C90.7886 215.132 80.4856 235.927 80.4856 235.927" fill="#32467A"/>
<path d="M-24 235.727C-21.9995 227.532 -5.40085 161.611 18.7409 161.702C23.1382 161.702 30.3382 163.932 39.1715 177.378C42.554 169.671 64.3424 121.206 79.6847 123.793C93.5966 126.131 96.8149 169.514 94.1378 191.042C91.2385 214.186 80.5641 235.723 80.5641 235.723" fill="#32467A"/>
<mask id="mask0_658_7754" style="mask-type:alpha" maskUnits="userSpaceOnUse" x="-24" y="123" width="119" height="113">
<mask id="path-7-inside-1_658_7754" fill="white">
<path d="M-24 235.727C-21.9995 227.532 -5.40085 161.611 18.7409 161.702C23.1382 161.702 30.3382 163.932 39.1715 177.378C42.554 169.671 64.3424 121.206 79.6847 123.793C93.5966 126.131 96.8149 169.514 94.1378 191.042C91.2385 214.186 80.5641 235.723 80.5641 235.723"/>
</mask>
<path d="M-24 235.727C-21.9995 227.532 -5.40085 161.611 18.7409 161.702C23.1382 161.702 30.3382 163.932 39.1715 177.378C42.554 169.671 64.3424 121.206 79.6847 123.793C93.5966 126.131 96.8149 169.514 94.1378 191.042C91.2385 214.186 80.5641 235.723 80.5641 235.723" fill="#222F58"/>
<path d="M18.7409 161.702L18.7295 164.702H18.7409V161.702ZM39.1715 177.378L36.6641 179.025L39.6979 183.643L41.9185 178.584L39.1715 177.378ZM79.6847 123.793L79.186 126.751L79.1874 126.751L79.6847 123.793ZM94.1378 191.042L97.1146 191.415L97.1149 191.412L94.1378 191.042ZM-21.0856 236.438C-20.0939 232.376 -15.4898 214.04 -8.17054 196.778C-4.50402 188.131 -0.227169 179.927 4.51155 173.939C9.32904 167.852 14.1152 164.685 18.7295 164.702L18.7522 158.702C11.2957 158.674 4.95387 163.712 -0.193262 170.216C-5.41916 176.819 -9.94356 185.59 -13.6945 194.436C-21.2101 212.161 -25.9056 230.883 -26.9144 235.016L-21.0856 236.438ZM18.7409 164.702C21.7909 164.702 28.1707 166.096 36.6641 179.025L41.6788 175.731C32.5057 161.767 24.4855 158.702 18.7409 158.702V164.702ZM41.9185 178.584C43.5975 174.758 49.825 160.866 57.5037 148.288C61.3534 141.983 65.4792 136.156 69.4906 132.1C71.4957 130.073 73.3747 128.588 75.0778 127.69C76.7736 126.795 78.1159 126.571 79.186 126.751L80.1834 120.834C77.4179 120.368 74.7232 121.093 72.2776 122.383C69.8394 123.67 67.4726 125.608 65.2246 127.881C60.73 132.425 56.3206 138.712 52.3826 145.162C44.486 158.097 38.1279 172.291 36.4244 176.172L41.9185 178.584ZM79.1874 126.751C81.1265 127.077 83.3487 128.999 85.4717 133.532C87.518 137.901 89.0851 143.904 90.1697 150.694C92.3357 164.255 92.4631 180.199 91.1608 190.672L97.1149 191.412C98.4896 180.357 98.3464 163.845 96.0946 149.748C94.9702 142.709 93.2916 136.083 90.9054 130.987C88.5959 126.056 85.1989 121.677 80.1819 120.834L79.1874 126.751ZM91.1611 190.669C89.75 201.933 86.4351 212.869 83.4467 221.03C81.9562 225.1 80.5558 228.456 79.5307 230.789C79.0184 231.955 78.6004 232.864 78.3126 233.478C78.1687 233.784 78.0574 234.017 77.9831 234.171C77.946 234.248 77.9182 234.305 77.9001 234.342C77.8911 234.36 77.8846 234.373 77.8806 234.381C77.8785 234.386 77.8772 234.388 77.8764 234.39C77.8761 234.391 77.8759 234.391 77.8758 234.391C77.8758 234.391 77.8759 234.391 77.8759 234.391C77.876 234.391 77.8762 234.39 80.5641 235.723C83.2521 237.055 83.2523 237.054 83.2526 237.054C83.2528 237.054 83.2531 237.053 83.2534 237.052C83.254 237.051 83.2548 237.049 83.2557 237.048C83.2575 237.044 83.26 237.039 83.2632 237.032C83.2694 237.02 83.2782 237.002 83.2895 236.979C83.3121 236.933 83.3445 236.866 83.3863 236.78C83.4698 236.607 83.5907 236.354 83.7443 236.026C84.0516 235.372 84.4902 234.417 85.0239 233.203C86.0909 230.774 87.5402 227.3 89.0808 223.093C92.1544 214.699 95.6263 203.295 97.1146 191.415L91.1611 190.669Z" fill="#FEFEFE" mask="url(#path-7-inside-1_658_7754)"/>
</mask>
<g mask="url(#mask0_658_7754)">
<path d="M49.9492 234.51C64.5264 201.067 73.155 153.024 73.155 153.024" stroke="#1D193F" stroke-width="3" stroke-miterlimit="10" stroke-linecap="round"/>
<path d="M68.4043 176.752C68.4043 176.752 77.8631 172.948 80.9031 164.484" stroke="#1D193F" stroke-width="3" stroke-miterlimit="10" stroke-linecap="round"/>
<path d="M65.1982 189.941C65.1982 189.941 75.5558 187.938 81.1128 180.252" stroke="#1D193F" stroke-width="3" stroke-miterlimit="10" stroke-linecap="round"/>
<path d="M62.4443 199.504C62.4443 199.504 73.0093 198.282 79.5228 191.047" stroke="#1D193F" stroke-width="3" stroke-miterlimit="10" stroke-linecap="round"/>
<path d="M59.6201 209.912C59.6201 209.912 70.2614 210.662 78.8532 204.832" stroke="#1D193F" stroke-width="3" stroke-miterlimit="10" stroke-linecap="round"/>
<path d="M63.9656 193.38C63.9656 193.38 53.6082 191.376 48.0537 183.691" stroke="#1D193F" stroke-width="3" stroke-miterlimit="10" stroke-linecap="round"/>
<path d="M60.0619 206.081C60.0619 206.081 49.7019 204.077 44.1475 196.392" stroke="#1D193F" stroke-width="3" stroke-miterlimit="10" stroke-linecap="round"/>
<path d="M56.3831 217.977C56.3831 217.977 45.8733 216.466 39.7119 209.058" stroke="#1D193F" stroke-width="3" stroke-miterlimit="10" stroke-linecap="round"/>
<path d="M66.966 181.6C66.966 181.6 58.0564 177.1 56.1357 168.439" stroke="#1D193F" stroke-width="3" stroke-miterlimit="10" stroke-linecap="round"/>
<path d="M53.5479 226.107C53.5479 226.107 63.9053 228.113 73.5822 223.377" stroke="#1D193F" stroke-width="3" stroke-miterlimit="10" stroke-linecap="round"/>
<path d="M52.1032 228.956C52.1032 228.956 41.4909 228.009 34.6621 220.949" stroke="#1D193F" stroke-width="3" stroke-miterlimit="10" stroke-linecap="round"/>
<path d="M49.7334 233.965C49.7334 233.965 59.5155 237.253 70.0831 233.802" stroke="#1D193F" stroke-width="3" stroke-miterlimit="10" stroke-linecap="round"/>
<path d="M54.668 223.086C54.668 223.086 63.1205 224.521 69.6445 220.954" stroke="#1D193F" stroke-width="3" stroke-miterlimit="10" stroke-linecap="round"/>
<path d="M61.2176 202.316C61.2176 202.316 52.907 200.463 49.4414 194.931" stroke="#1D193F" stroke-width="3" stroke-miterlimit="10" stroke-linecap="round"/>
<path d="M68.9681 170.369C68.9681 170.369 62.7673 166.928 62.1367 162.054" stroke="#1D193F" stroke-width="3" stroke-miterlimit="10" stroke-linecap="round"/>
<path d="M57.8262 214.107C57.8262 214.107 66.389 215.085 72.5688 211.173" stroke="#1D193F" stroke-width="3" stroke-miterlimit="10" stroke-linecap="round"/>
<path d="M50.7867 231.713C50.7867 231.713 41.714 231.735 36.6299 227.391" stroke="#1D193F" stroke-width="3" stroke-miterlimit="10" stroke-linecap="round"/>
<path d="M-2.84668 259.888C11.7304 226.445 20.3591 178.401 20.3591 178.401" stroke="#1D193F" stroke-width="3" stroke-miterlimit="10" stroke-linecap="round"/>
<path d="M15.6084 202.129C15.6084 202.129 25.0672 198.326 28.1072 189.862" stroke="#1D193F" stroke-width="3" stroke-miterlimit="10" stroke-linecap="round"/>
<path d="M12.4023 215.318C12.4023 215.318 22.7599 213.315 28.3169 205.63" stroke="#1D193F" stroke-width="3" stroke-miterlimit="10" stroke-linecap="round"/>
<path d="M9.64844 224.882C9.64844 224.882 20.2134 223.66 26.7269 216.425" stroke="#1D193F" stroke-width="3" stroke-miterlimit="10" stroke-linecap="round"/>
<path d="M5.99121 235.281C5.99121 235.281 16.6325 236.032 25.2242 230.201" stroke="#1D193F" stroke-width="3" stroke-miterlimit="10" stroke-linecap="round"/>
<path d="M10.3602 218.376C10.3602 218.376 0.00269953 216.372 -5.55176 208.687" stroke="#1D193F" stroke-width="3" stroke-miterlimit="10" stroke-linecap="round"/>
<path d="M7.26601 231.458C7.26601 231.458 -3.094 229.455 -8.64844 221.77" stroke="#1D193F" stroke-width="3" stroke-miterlimit="10" stroke-linecap="round"/>
<path d="M3.58728 243.354C3.58728 243.354 -6.9226 241.843 -13.084 234.435" stroke="#1D193F" stroke-width="3" stroke-miterlimit="10" stroke-linecap="round"/>
<path d="M14.1701 206.977C14.1701 206.977 5.26051 202.478 3.33984 193.817" stroke="#1D193F" stroke-width="3" stroke-miterlimit="10" stroke-linecap="round"/>
<path d="M8.42175 227.693C8.42175 227.693 0.11113 225.841 -3.35449 220.309" stroke="#1D193F" stroke-width="3" stroke-miterlimit="10" stroke-linecap="round"/>
<path d="M16.3773 195.361C16.3773 195.361 10.1765 191.92 9.5459 187.046" stroke="#1D193F" stroke-width="3" stroke-miterlimit="10" stroke-linecap="round"/>
<path d="M5.03027 239.485C5.03027 239.485 13.5931 240.463 19.7729 236.55" stroke="#1D193F" stroke-width="3" stroke-miterlimit="10" stroke-linecap="round"/>
</g>
<path d="M-33.6835 697.326C-83.7665 642.684 -81.4859 581.099 -73.8245 576.606C-68.9337 573.736 -59.0827 574.472 -33.4017 611.734C-39.0383 550.188 -27.8172 517.7 -17.68 516.069C-6.15977 514.199 17.1106 550.56 35.824 627.612C43.3394 606.894 50.0382 596.762 55.9204 597.215C66.257 598.007 87.225 630.204 79.3555 697.702" fill="#96A3C4"/>
<path d="M51.6798 696.572L57.3344 619.292M51.6798 696.572L67.5128 642.664M51.6798 696.572L71.6595 669.429M51.6798 696.572L67.5128 690.163M51.6798 696.572L43.0093 642.664M51.6798 696.572L33.9619 669.429M51.6798 696.572L36.9777 690.163" stroke="#32467A" stroke-width="4" stroke-linecap="round"/>
<path d="M-5.46546 697.837L-13.2056 550.756M-5.46546 697.837L7.70743 593.132M-5.46546 697.837L19.9256 642.99M-5.46546 697.837L17.8942 682.917M-5.46546 697.837L-30.5715 597.475M-5.46546 697.837L-38.9651 649.672M-5.46546 697.837L-29.8072 688.329" stroke="#32467A" stroke-width="4" stroke-linecap="round"/>
<path d="M91.0489 1041.45C85.6933 1039.5 80.6975 1036.72 76.2566 1033.21C73.0663 1030.69 64.7644 1024.04 59.387 1012.53C52.4002 997.574 49.5219 972.69 59.2488 965.172C60.6667 964.083 65.7109 960.751 76.2105 965.359C75.3668 959.351 70.7445 923.321 89.2021 903.951C91.6835 901.365 99.6911 893.152 107.444 895.378C117.543 898.278 122.498 916.415 122.569 930.96C122.675 952.525 122.721 962.369 122.721 962.369C122.721 962.369 125.097 1006.21 133.948 978.304C142.799 950.399 157.127 949.407 157.127 949.407C176.935 945.916 163.862 994.276 163.862 994.276C158.432 1017.77 157.215 1042.01 160.264 1065.91" fill="#8A6F8E"/>
<mask id="mask1_658_7754" style="mask-type:alpha" maskUnits="userSpaceOnUse" x="53" y="895" width="116" height="171">
<path d="M91.0489 1041.45C85.6933 1039.5 80.6975 1036.72 76.2566 1033.21C73.0663 1030.69 64.7644 1024.04 59.387 1012.53C52.4002 997.574 49.5219 972.69 59.2488 965.172C60.6667 964.083 65.7109 960.751 76.2105 965.359C75.3668 959.351 70.7445 923.321 89.2021 903.951C91.6835 901.365 99.6911 893.152 107.444 895.378C117.543 898.278 122.498 916.415 122.569 930.96C122.675 952.525 122.721 962.369 122.721 962.369C122.721 962.369 125.097 1006.21 133.948 978.304C142.799 950.399 157.127 949.407 157.127 949.407C176.935 945.916 163.862 994.276 163.862 994.276C158.432 1017.77 157.215 1042.01 160.264 1065.91" fill="#8A6F8E"/>
</mask>
<g mask="url(#mask1_658_7754)">
<path d="M64.9774 979.976C64.9774 979.976 81.157 1030.05 110.194 1048.1" stroke="#45406A" stroke-width="4" stroke-miterlimit="10" stroke-linecap="round"/>
<path d="M75.5101 1005.66C75.5101 1005.66 73.2341 994.882 74.4969 987.487" stroke="#45406A" stroke-width="4" stroke-miterlimit="10" stroke-linecap="round"/>
<path d="M89.1456 1027.63C89.1456 1027.63 86.7968 1019.63 87.2414 1012.1" stroke="#45406A" stroke-width="4" stroke-miterlimit="10" stroke-linecap="round"/>
<path d="M95.4722 1035.46C95.4722 1035.46 93.7291 1028.29 95.3886 1023.05" stroke="#45406A" stroke-width="4" stroke-miterlimit="10" stroke-linecap="round"/>
<path d="M68.2715 1011.87C68.2715 1011.87 76.5667 1019.32 85.2583 1022.65" stroke="#45406A" stroke-width="4" stroke-miterlimit="10" stroke-linecap="round"/>
<path d="M61.3354 991.827C61.3354 991.827 69.5855 1003.94 76.5428 1007.52" stroke="#45406A" stroke-width="4" stroke-miterlimit="10" stroke-linecap="round"/>
<path d="M79.8047 1032.56C79.8047 1032.56 88.7583 1039.56 99.8311 1040.48" stroke="#45406A" stroke-width="4" stroke-miterlimit="10" stroke-linecap="round"/>
<path d="M154.737 969.639C154.737 969.639 133.031 1031.14 149.11 1069.73" stroke="#45406A" stroke-width="4" stroke-miterlimit="10" stroke-linecap="round"/>
<path d="M147.916 995.235C147.916 995.235 153.79 982.957 160.699 976.509" stroke="#45406A" stroke-width="4" stroke-miterlimit="10" stroke-linecap="round"/>
<path d="M144.246 1016.85C144.246 1016.85 152.785 997.055 157.494 993.07" stroke="#45406A" stroke-width="4" stroke-miterlimit="10" stroke-linecap="round"/>
<path d="M143.179 1034.33C143.179 1034.33 146.867 1024.75 153.054 1017.58" stroke="#45406A" stroke-width="4" stroke-miterlimit="10" stroke-linecap="round"/>
<path d="M143.71 1046.69C143.71 1046.69 147.384 1038.36 153.055 1034.33" stroke="#45406A" stroke-width="4" stroke-miterlimit="10" stroke-linecap="round"/>
<path d="M134.026 1003.89C134.026 1003.89 136.829 1017.13 143.179 1026.56" stroke="#45406A" stroke-width="4" stroke-miterlimit="10" stroke-linecap="round"/>
<path d="M141.797 977.453C141.797 977.453 141.009 995.391 145.427 1003.89" stroke="#45406A" stroke-width="4" stroke-miterlimit="10" stroke-linecap="round"/>
<path d="M130.256 1033.04C130.256 1033.04 134.064 1046.24 144.651 1054.91" stroke="#45406A" stroke-width="4" stroke-miterlimit="10" stroke-linecap="round"/>
<path d="M109.026 1020.11C109.026 1020.11 111.338 1006.76 123.699 992.399" stroke="#45406A" stroke-width="4" stroke-miterlimit="10" stroke-linecap="round"/>
<path d="M100.831 928.837C100.831 928.837 99.4077 1026.25 124.915 1070" stroke="#45406A" stroke-width="4" stroke-miterlimit="10" stroke-linecap="round"/>
<path d="M87.5215 943.956C87.5215 943.956 88.5733 951.196 101.671 967.456" stroke="#45406A" stroke-width="4" stroke-miterlimit="10" stroke-linecap="round"/>
<path d="M88.8027 967.829C88.8027 967.829 90.1663 976.044 103.367 989.181" stroke="#45406A" stroke-width="4" stroke-miterlimit="10" stroke-linecap="round"/>
<path d="M102.236 972.091C102.236 972.091 102.154 963.777 111.931 949.843" stroke="#45406A" stroke-width="4" stroke-miterlimit="10" stroke-linecap="round"/>
<path d="M105.108 995.562C105.108 995.562 105.287 984.324 117.774 972.779" stroke="#45406A" stroke-width="4" stroke-miterlimit="10" stroke-linecap="round"/>
<path d="M121.513 1063.36C121.513 1063.36 119.602 1052.48 126.825 1040.7" stroke="#45406A" stroke-width="4" stroke-miterlimit="10" stroke-linecap="round"/>
<path d="M113.216 1038.9C113.216 1038.9 114.045 1027.04 123.988 1019.73" stroke="#45406A" stroke-width="4" stroke-miterlimit="10" stroke-linecap="round"/>
<path d="M92.3623 994.087C92.3623 994.087 95.3297 1004.36 106.64 1012.69" stroke="#45406A" stroke-width="4" stroke-miterlimit="10" stroke-linecap="round"/>
<path d="M98.8525 1021.34C101.88 1025.8 106.04 1029.41 110.913 1031.8" stroke="#45406A" stroke-width="4" stroke-miterlimit="10" stroke-linecap="round"/>
<path d="M105.73 1042.65C108.503 1047.27 112.456 1051.1 117.19 1053.75" stroke="#45406A" stroke-width="4" stroke-miterlimit="10" stroke-linecap="round"/>
</g>
</svg>
