<svg width="170" height="873" viewBox="0 0 170 873" fill="none" xmlns="http://www.w3.org/2000/svg">
<path d="M256.833 45.0271C274.718 77.4315 269.108 120.583 242.651 144.396C221.619 163.324 193.868 163.539 175.364 163.716C155.542 163.907 125.006 164.194 103.603 143.167C77.8937 117.902 78.6519 74.9514 95.1787 45.4763C97.9538 40.5304 113.019 14.8449 145.284 4.45599C183.759 -7.93041 234.999 5.47859 256.833 45.0271Z" fill="#8A6F8E"/>
<path d="M174.405 164V30.9971M174.405 164L198.842 35.3274M174.405 164L221.993 43.988M174.405 164L239.999 62.5465M174.405 164L249.002 87.9098M174.405 164L252.217 110.799M174.405 164L242.571 133.687M174.405 164L225.208 152.865M174.405 164L149.968 35.3274M174.405 164L126.817 43.988M174.405 164L106.239 62.5465M174.405 164L97.8789 87.9098M174.405 164L97.8789 110.799M174.405 164L106.239 133.687M174.405 164L123.602 152.865" stroke="#45406A" stroke-width="4" stroke-linecap="round"/>
<path d="M174.979 135C174.979 135 -32.2025 223.608 8.65684 427.604C49.5161 631.6 255.657 673.883 255.657 673.883" stroke="white" stroke-width="3" stroke-miterlimit="10"/>
<path d="M227.486 171.051C227.486 171.051 48.0369 247.819 83.4191 424.488C118.801 601.157 297.319 637.888 297.319 637.888" stroke="white" stroke-width="3" stroke-miterlimit="10"/>
<path d="M197.8 146.803C197.8 146.803 -0.289088 231.54 38.781 426.584C77.8511 621.629 274.9 662.042 274.9 662.042" stroke="white" stroke-width="3" stroke-miterlimit="10"/>
<path d="M152.905 113.899C163.794 131.73 157.747 157.116 141.638 170.218C128.833 180.634 118.75 179.11 107.484 179.208C95.4152 179.313 86.2917 181.788 73.2605 170.218C57.6074 156.316 50.7658 130.118 60.8281 113.899C73.2605 93.8601 91.1319 91.0002 107.484 91C122.213 90.9998 139.611 92.1375 152.905 113.899Z" fill="#45406A"/>
<path d="M107.522 177.727V113.151M107.522 177.727L130.277 119.458M107.522 177.727L143.192 140.783M107.522 177.727L131.815 163.46M107.522 177.727L124.156 173.973M107.522 177.727L84.7672 119.458M107.522 177.727L70.9297 140.783M107.522 177.727L78.6999 163.46M107.522 177.727L89.9667 173.973" stroke="#C0AAC4" stroke-width="2" stroke-linecap="round"/>
<path d="M64.5845 850.62C36.2553 843.672 15.6674 829.911 13.9375 814.308C13.7782 812.896 12.5846 802.136 19.0736 796.889C25.1396 791.972 31.8154 796.957 38.395 793.229C48.4585 787.545 38.4918 770.053 47.7947 751.516C48.5213 750.07 57.62 732.679 77.5888 728.114C97.9478 723.467 114.395 735.623 116.759 737.434C119.158 739.334 122.779 742.184 127.205 745.627C134.579 751.372 138.267 754.244 139.107 754.81C152.598 763.88 167.935 750.772 178.475 757.136C191.477 764.983 187.866 796.796 178.157 818.144C171.384 833.079 161.562 843.069 154.992 848.757" fill="#7384AE"/>
<mask id="mask0_658_7716" style="mask-type:alpha" maskUnits="userSpaceOnUse" x="13" y="727" width="174" height="124">
<path d="M64.5845 850.62C36.2553 843.672 15.6674 829.911 13.9375 814.308C13.7782 812.896 12.5846 802.136 19.0736 796.889C25.1396 791.972 31.8154 796.957 38.395 793.229C48.4585 787.545 38.4917 770.053 47.7947 751.516C48.5213 750.07 57.62 732.679 77.5888 728.114C97.9478 723.467 114.395 735.623 116.759 737.434C119.158 739.334 122.779 742.184 127.205 745.627C134.579 751.372 138.267 754.244 139.107 754.81C152.598 763.88 167.935 750.772 178.475 757.136C191.477 764.983 187.866 796.796 178.157 818.144C171.384 833.079 161.562 843.069 154.992 848.757" fill="#7384AE"/>
</mask>
<g mask="url(#mask0_658_7716)">
<path d="M117.211 884.682C111.428 810.917 93.8069 821.295 88.201 794.025C82.595 766.756 96.2764 752.597 96.2764 752.597" stroke="#32467A" stroke-width="4" stroke-miterlimit="10" stroke-linecap="round"/>
<path d="M107.305 831.229C107.305 831.229 114.275 813.475 132.593 813.999C150.911 814.522 169.829 797.886 169.829 797.886" stroke="#32467A" stroke-width="4" stroke-miterlimit="10" stroke-linecap="round"/>
<path d="M89.365 794.967C116.341 789.453 121.346 765.698 122.097 754.667" stroke="#32467A" stroke-width="4" stroke-miterlimit="10" stroke-linecap="round"/>
<path d="M144.029 813.131C144.029 813.131 150.388 827.061 168.608 824.393" stroke="#32467A" stroke-width="4" stroke-miterlimit="10" stroke-linecap="round"/>
<path d="M100.563 820.569C100.563 820.569 95.1328 818.024 89.6189 822.616C84.105 827.207 79.7196 829.662 67.4647 830.523C55.2098 831.384 48.7926 826.519 48.7926 826.519" stroke="#32467A" stroke-width="4" stroke-miterlimit="10" stroke-linecap="round"/>
<path d="M134.424 781.612C134.424 781.612 120.698 789.331 110.584 783.603" stroke="#32467A" stroke-width="4" stroke-miterlimit="10" stroke-linecap="round"/>
<path d="M125.142 827.393L180.127 819.028L125.142 827.393Z" fill="#32467A"/>
<path d="M78.4492 829.121C78.4492 829.121 74.4503 839.237 61.982 837.547" stroke="#32467A" stroke-width="4" stroke-miterlimit="10" stroke-linecap="round"/>
<path d="M86.6068 823.77C86.6068 823.77 78.1919 815.861 64.7975 819.664" stroke="#32467A" stroke-width="4" stroke-miterlimit="10" stroke-linecap="round"/>
<path d="M160.142 804.9C160.142 804.9 163.356 811.214 178.801 806.267" stroke="#32467A" stroke-width="4" stroke-miterlimit="10" stroke-linecap="round"/>
<path d="M70.9127 793.831C70.9127 793.831 77.7603 798.673 74.6015 806.08" stroke="#32467A" stroke-width="4" stroke-miterlimit="10" stroke-linecap="round"/>
<path d="M78.6099 773.436C78.6099 773.436 69.6702 775.254 64.3972 768.405" stroke="#32467A" stroke-width="4" stroke-miterlimit="10" stroke-linecap="round"/>
<path d="M88.106 773.551C88.106 773.551 98.3123 775.371 105.79 758.719" stroke="#32467A" stroke-width="4" stroke-miterlimit="10" stroke-linecap="round"/>
<path d="M113.582 822.97C113.582 822.97 113.397 831.518 125.408 831.689" stroke="#32467A" stroke-width="4" stroke-miterlimit="10" stroke-linecap="round"/>
<path d="M150.508 821.362C150.508 821.362 146.442 826.831 157.769 832.603" stroke="#32467A" stroke-width="4" stroke-miterlimit="10" stroke-linecap="round"/>
<path d="M119.132 768.708C119.132 768.708 127.291 770.318 134.844 760.26" stroke="#32467A" stroke-width="4" stroke-miterlimit="10" stroke-linecap="round"/>
<path d="M151.299 808.525C151.299 808.525 147.526 798.756 162.849 786.468" stroke="#32467A" stroke-width="4" stroke-miterlimit="10" stroke-linecap="round"/>
<path d="M154.35 795.442C154.35 795.442 151.391 793.336 155.202 786.774" stroke="#32467A" stroke-width="4" stroke-miterlimit="10" stroke-linecap="round"/>
<path d="M125.558 813.879C125.558 813.879 120.071 807.21 135.152 794.524" stroke="#32467A" stroke-width="4" stroke-miterlimit="10" stroke-linecap="round"/>
<path d="M126.187 805.343C126.187 805.343 128.096 807.263 139.058 802.678" stroke="#32467A" stroke-width="4" stroke-miterlimit="10" stroke-linecap="round"/>
<path d="M86.6392 781.493C86.6392 781.493 76.3864 778.892 73.4581 755.927" stroke="#32467A" stroke-width="4" stroke-miterlimit="10" stroke-linecap="round"/>
<path d="M90.1401 804.094C90.1401 804.094 66.0713 811.065 54.8008 798.661" stroke="#32467A" stroke-width="4" stroke-miterlimit="10" stroke-linecap="round"/>
</g>
</svg>
