<svg width="1440" height="1482" viewBox="0 0 1440 1482" fill="none" xmlns="http://www.w3.org/2000/svg">
<path d="M1394.5 815.942C1394.5 970.36 1344.98 1075.76 1265.41 1142.62C1185.73 1209.58 1075.4 1238.34 953 1238.34C830.602 1238.34 720.27 1209.58 640.59 1142.62C561.017 1075.76 511.5 970.36 511.5 815.942C511.5 506.638 709.888 257.344 953 257.344C1196.11 257.344 1394.5 506.788 1394.5 815.942Z" fill="#1D193F" stroke="#45406A" stroke-width="7"/>
<path d="M952.208 1241.84V368.844M952.208 1241.84L1058.29 397.267M952.208 1241.84L1158.79 454.114M952.208 1241.84L1236.96 575.927M952.208 1241.84L1276.04 742.407M952.208 1241.84L1290 892.644M952.208 1241.84L1248.13 1042.88M952.208 1241.84L1172.75 1168.76M952.208 1241.84L846.125 397.267M952.208 1241.84L745.625 454.114M952.208 1241.84L656.292 575.927M952.208 1241.84L620 742.407M952.208 1241.84L620 892.644M952.208 1241.84L656.292 1042.88M952.208 1241.84L731.667 1168.76" stroke="#45406A" stroke-width="7" stroke-linecap="round"/>
<path d="M1325.5 2.5C1331.13 2.5 1336.84 4.99713 1342.66 10.1275C1348.5 15.2692 1354.3 22.9358 1360.03 32.9337C1371.49 52.9265 1382.39 81.7607 1392.64 116.928C1413.12 187.224 1430.85 282.25 1445.38 381.011C1474.44 578.54 1490.65 790.518 1490.65 848.451C1490.65 906.099 1474.55 949.401 1446.06 978.29C1417.58 1007.18 1376.38 1021.98 1325.5 1021.98C1274.67 1021.98 1233.47 1006.4 1204.97 976.724C1176.46 947.034 1160.36 902.921 1160.36 845.272C1160.36 787.34 1176.57 576.157 1205.63 379.422C1220.16 281.06 1237.89 186.431 1258.37 116.434C1268.62 81.416 1279.52 52.7065 1290.97 32.8011C1296.7 22.8471 1302.51 15.2143 1308.34 10.0953C1314.16 4.98786 1319.87 2.5 1325.5 2.5Z" fill="#1D193F" stroke="#45406A" stroke-width="5"/>
<path d="M1325.95 299.771H1325.94C1321.09 299.771 1317.17 303.312 1317.17 307.678V1069.46C1317.17 1073.83 1321.09 1077.37 1325.94 1077.37H1325.95C1330.8 1077.37 1334.73 1073.83 1334.73 1069.46V307.678C1334.73 303.312 1330.8 299.771 1325.95 299.771Z" fill="#45406A"/>
<path d="M1328.78 481.481L1327.6 480.18C1327.37 479.885 1327.24 479.531 1327.24 479.169C1327.24 478.806 1327.37 478.453 1327.6 478.158L1395.07 394.601C1395.17 394.47 1395.29 394.362 1395.45 394.287C1395.6 394.212 1395.77 394.173 1395.94 394.173C1396.12 394.173 1396.29 394.212 1396.44 394.287C1396.59 394.362 1396.72 394.47 1396.81 394.601L1397.99 395.902C1398.22 396.197 1398.35 396.551 1398.35 396.914C1398.35 397.276 1398.22 397.63 1397.99 397.925L1330.52 481.481C1330.43 481.616 1330.3 481.727 1330.15 481.805C1330 481.882 1329.83 481.922 1329.65 481.922C1329.48 481.922 1329.3 481.882 1329.15 481.805C1329 481.727 1328.87 481.616 1328.78 481.481Z" fill="#45406A"/>
<path d="M1329.96 544.983L1328.95 543.866C1328.7 543.542 1328.56 543.154 1328.56 542.755C1328.56 542.357 1328.7 541.97 1328.95 541.646L1410.68 440.367C1410.79 440.227 1410.93 440.113 1411.1 440.034C1411.26 439.955 1411.45 439.913 1411.63 439.913C1411.82 439.913 1412.01 439.955 1412.17 440.034C1412.34 440.113 1412.48 440.227 1412.58 440.367L1413.59 441.485C1413.84 441.809 1413.98 442.197 1413.98 442.595C1413.98 442.993 1413.84 443.382 1413.59 443.706L1331.87 544.983C1331.77 545.126 1331.62 545.244 1331.46 545.325C1331.29 545.406 1331.1 545.449 1330.91 545.449C1330.72 545.449 1330.54 545.406 1330.37 545.325C1330.2 545.244 1330.06 545.126 1329.96 544.983Z" fill="#45406A"/>
<path d="M1330.91 656.034L1329.91 654.931C1329.66 654.605 1329.52 654.218 1329.52 653.821C1329.52 653.423 1329.66 653.036 1329.91 652.71L1411.64 551.433C1411.74 551.286 1411.87 551.163 1412.03 551.075C1412.2 550.987 1412.38 550.938 1412.57 550.931C1412.76 550.924 1412.95 550.959 1413.12 551.034C1413.29 551.11 1413.43 551.223 1413.54 551.362L1414.54 552.479C1414.8 552.803 1414.94 553.191 1414.94 553.589C1414.94 553.987 1414.8 554.376 1414.54 554.7L1332.81 656.034C1332.71 656.174 1332.57 656.289 1332.4 656.368C1332.23 656.447 1332.05 656.488 1331.86 656.488C1331.68 656.488 1331.49 656.447 1331.33 656.368C1331.16 656.289 1331.02 656.174 1330.91 656.034Z" fill="#45406A"/>
<path d="M1326.49 400.583L1325.31 399.282C1325.07 398.985 1324.95 398.629 1324.95 398.264C1324.95 397.898 1325.07 397.542 1325.31 397.245L1392.78 313.689C1392.88 313.56 1393 313.455 1393.15 313.382C1393.3 313.309 1393.47 313.271 1393.64 313.271C1393.81 313.271 1393.98 313.309 1394.13 313.382C1394.28 313.455 1394.41 313.56 1394.51 313.689L1395.68 314.99C1395.92 315.288 1396.04 315.644 1396.04 316.008C1396.04 316.373 1395.92 316.728 1395.68 317.026L1328.21 400.583C1328.12 400.711 1327.99 400.817 1327.84 400.889C1327.69 400.962 1327.52 401.001 1327.35 401.001C1327.18 401.001 1327.01 400.962 1326.86 400.889C1326.71 400.817 1326.58 400.711 1326.49 400.583Z" fill="#45406A"/>
<path d="M1329.96 689.976L1328.95 688.873C1328.69 688.546 1328.56 688.155 1328.56 687.755C1328.56 687.355 1328.69 686.965 1328.95 686.638L1410.62 585.318C1410.73 585.178 1410.87 585.063 1411.03 584.983C1411.2 584.904 1411.38 584.863 1411.57 584.863C1411.76 584.863 1411.94 584.904 1412.11 584.983C1412.27 585.063 1412.41 585.178 1412.52 585.318L1413.52 586.435C1413.78 586.759 1413.92 587.147 1413.92 587.545C1413.92 587.944 1413.78 588.331 1413.52 588.655L1331.85 689.976C1331.75 690.116 1331.61 690.231 1331.44 690.31C1331.28 690.389 1331.09 690.43 1330.9 690.43C1330.72 690.43 1330.53 690.389 1330.37 690.31C1330.2 690.231 1330.06 690.116 1329.96 689.976Z" fill="#45406A"/>
<path d="M1329.33 356.839L1327.86 355.212C1327.66 354.963 1327.56 354.668 1327.56 354.364C1327.56 354.061 1327.66 353.765 1327.86 353.516L1372.35 298.358C1372.44 298.253 1372.54 298.167 1372.67 298.108C1372.79 298.049 1372.93 298.018 1373.08 298.018C1373.22 298.018 1373.36 298.049 1373.48 298.108C1373.61 298.167 1373.72 298.253 1373.8 298.358L1375.27 299.984C1375.47 300.233 1375.57 300.53 1375.57 300.833C1375.57 301.136 1375.47 301.433 1375.27 301.682L1330.77 356.839C1330.7 356.947 1330.59 357.035 1330.46 357.097C1330.34 357.158 1330.2 357.191 1330.05 357.191C1329.91 357.191 1329.77 357.158 1329.64 357.097C1329.52 357.035 1329.41 356.947 1329.33 356.839Z" fill="#45406A"/>
<path d="M1334.4 451.06L1335.32 450.027C1335.56 449.728 1335.69 449.37 1335.69 449.002C1335.69 448.635 1335.56 448.276 1335.32 447.977L1259.82 354.407C1259.72 354.276 1259.59 354.168 1259.44 354.093C1259.29 354.019 1259.12 353.979 1258.94 353.979C1258.77 353.979 1258.6 354.019 1258.44 354.093C1258.29 354.168 1258.16 354.276 1258.06 354.407L1257.14 355.439C1256.9 355.739 1256.77 356.097 1256.77 356.465C1256.77 356.832 1256.9 357.191 1257.14 357.49L1332.64 450.961C1332.73 451.098 1332.85 451.214 1333 451.297C1333.15 451.381 1333.31 451.43 1333.49 451.439C1333.66 451.449 1333.84 451.419 1334 451.353C1334.16 451.287 1334.29 451.186 1334.4 451.06Z" fill="#45406A"/>
<path d="M1320.76 548.645L1321.69 547.627C1321.92 547.328 1322.05 546.969 1322.05 546.602C1322.05 546.234 1321.92 545.876 1321.69 545.576L1246.18 451.993C1246.09 451.864 1245.96 451.759 1245.8 451.687C1245.65 451.614 1245.48 451.576 1245.31 451.576C1245.13 451.576 1244.96 451.614 1244.81 451.687C1244.66 451.759 1244.53 451.864 1244.43 451.993L1243.5 453.025C1243.26 453.324 1243.14 453.683 1243.14 454.05C1243.14 454.418 1243.26 454.777 1243.5 455.076L1319 548.547C1319.09 548.684 1319.21 548.799 1319.36 548.883C1319.51 548.966 1319.68 549.015 1319.85 549.025C1320.03 549.035 1320.2 549.005 1320.36 548.939C1320.52 548.873 1320.66 548.772 1320.76 548.645Z" fill="#45406A"/>
<path d="M1320.76 633.545L1321.68 632.513C1321.92 632.213 1322.05 631.855 1322.05 631.487C1322.05 631.119 1321.92 630.761 1321.68 630.462L1246.18 536.892C1246.09 536.76 1245.96 536.653 1245.8 536.578C1245.65 536.503 1245.48 536.465 1245.3 536.465C1245.13 536.465 1244.96 536.503 1244.8 536.578C1244.65 536.653 1244.52 536.76 1244.42 536.892L1243.5 537.91C1243.26 538.212 1243.13 538.573 1243.13 538.943C1243.13 539.313 1243.26 539.673 1243.5 539.975L1319 633.545C1319.1 633.676 1319.23 633.784 1319.38 633.858C1319.53 633.933 1319.71 633.972 1319.88 633.972C1320.05 633.972 1320.23 633.933 1320.38 633.858C1320.53 633.784 1320.66 633.676 1320.76 633.545Z" fill="#45406A"/>
<path d="M1324.86 415.872L1325.94 414.669C1326.15 414.397 1326.27 414.071 1326.27 413.736C1326.27 413.402 1326.15 413.075 1325.94 412.803L1263.65 335.597C1263.56 335.486 1263.44 335.395 1263.3 335.333C1263.17 335.271 1263.02 335.238 1262.86 335.238C1262.71 335.238 1262.56 335.271 1262.42 335.333C1262.29 335.395 1262.17 335.486 1262.08 335.597L1260.98 336.798C1260.77 337.074 1260.65 337.402 1260.65 337.739C1260.65 338.075 1260.77 338.404 1260.98 338.679L1323.27 415.872C1323.36 415.986 1323.48 416.078 1323.62 416.142C1323.76 416.206 1323.91 416.24 1324.06 416.24C1324.22 416.24 1324.37 416.206 1324.51 416.142C1324.65 416.078 1324.77 415.986 1324.86 415.872Z" fill="#45406A"/>
<path d="M1320.76 666.301L1321.68 665.269C1321.92 664.969 1322.05 664.611 1322.05 664.244C1322.05 663.876 1321.92 663.518 1321.68 663.218L1246.18 569.648C1246.09 569.517 1245.96 569.409 1245.8 569.335C1245.65 569.26 1245.48 569.221 1245.3 569.221C1245.13 569.221 1244.96 569.26 1244.8 569.335C1244.65 569.409 1244.52 569.517 1244.42 569.648L1243.5 570.667C1243.26 570.968 1243.13 571.329 1243.13 571.699C1243.13 572.069 1243.26 572.43 1243.5 572.732L1319 666.301C1319.1 666.432 1319.23 666.541 1319.38 666.615C1319.53 666.69 1319.71 666.728 1319.88 666.728C1320.05 666.728 1320.23 666.69 1320.38 666.615C1320.53 666.541 1320.66 666.432 1320.76 666.301Z" fill="#45406A"/>
<path d="M1320.76 734.837L1321.69 733.804C1321.92 733.505 1322.05 733.146 1322.05 732.779C1322.05 732.411 1321.92 732.053 1321.69 731.753L1246.18 638.183C1246.09 638.052 1245.96 637.944 1245.8 637.87C1245.65 637.795 1245.48 637.756 1245.31 637.756C1245.13 637.756 1244.96 637.795 1244.81 637.87C1244.65 637.944 1244.52 638.052 1244.43 638.183L1243.5 639.216C1243.26 639.515 1243.14 639.874 1243.14 640.241C1243.14 640.609 1243.26 640.967 1243.5 641.267L1319 734.837C1319.1 734.968 1319.23 735.076 1319.38 735.15C1319.54 735.225 1319.71 735.264 1319.88 735.264C1320.06 735.264 1320.23 735.225 1320.38 735.15C1320.54 735.076 1320.67 734.968 1320.76 734.837Z" fill="#45406A"/>
<path d="M1321.09 763.012L1322 762.007C1322.24 761.704 1322.37 761.34 1322.37 760.967C1322.37 760.594 1322.24 760.231 1322 759.928L1247.02 666.995C1246.92 666.864 1246.79 666.756 1246.64 666.681C1246.48 666.607 1246.31 666.567 1246.14 666.567C1245.96 666.567 1245.79 666.607 1245.64 666.681C1245.49 666.756 1245.36 666.864 1245.26 666.995L1244.33 668.013C1244.1 668.315 1243.97 668.676 1243.97 669.046C1243.97 669.416 1244.1 669.777 1244.33 670.078L1319.32 763.012C1319.42 763.143 1319.55 763.25 1319.7 763.324C1319.86 763.399 1320.03 763.438 1320.21 763.438C1320.38 763.438 1320.55 763.399 1320.71 763.324C1320.86 763.25 1321 763.143 1321.09 763.012Z" fill="#45406A"/>
<path d="M1326.93 509.018L1327.85 507.985C1328.09 507.685 1328.21 507.327 1328.21 506.96C1328.21 506.593 1328.09 506.235 1327.85 505.935L1252.35 412.365C1252.25 412.234 1252.12 412.126 1251.97 412.051C1251.82 411.977 1251.65 411.938 1251.47 411.938C1251.3 411.938 1251.13 411.977 1250.97 412.051C1250.82 412.126 1250.69 412.234 1250.59 412.365L1249.65 413.384C1249.42 413.687 1249.29 414.047 1249.29 414.416C1249.29 414.785 1249.42 415.145 1249.65 415.448L1325.17 508.947C1325.26 509.083 1325.38 509.196 1325.53 509.277C1325.68 509.357 1325.85 509.404 1326.03 509.411C1326.2 509.418 1326.38 509.385 1326.53 509.317C1326.69 509.248 1326.83 509.145 1326.93 509.018Z" fill="#45406A"/>
<path d="M1321.45 809.542L1320.45 808.424C1320.19 808.1 1320.06 807.712 1320.06 807.314C1320.06 806.916 1320.19 806.528 1320.45 806.204L1402.06 704.926C1402.16 704.783 1402.3 704.666 1402.47 704.584C1402.63 704.503 1402.82 704.46 1403.01 704.46C1403.2 704.46 1403.38 704.503 1403.55 704.584C1403.71 704.666 1403.85 704.783 1403.96 704.926L1404.96 706.043C1405.22 706.367 1405.35 706.756 1405.35 707.154C1405.35 707.552 1405.22 707.94 1404.96 708.264L1323.24 809.542C1323.14 809.663 1323 809.76 1322.85 809.827C1322.69 809.894 1322.52 809.929 1322.35 809.929C1322.18 809.929 1322.01 809.894 1321.85 809.827C1321.7 809.76 1321.56 809.663 1321.45 809.542Z" fill="#45406A"/>
<path d="M1321.45 876.323L1320.46 875.248C1320.21 874.922 1320.07 874.531 1320.07 874.131C1320.07 873.731 1320.21 873.341 1320.46 873.014L1402.05 771.708C1402.16 771.568 1402.3 771.453 1402.46 771.374C1402.63 771.295 1402.81 771.253 1403 771.253C1403.19 771.253 1403.37 771.295 1403.54 771.374C1403.7 771.453 1403.85 771.568 1403.95 771.708L1404.96 772.825C1405.21 773.149 1405.35 773.538 1405.35 773.936C1405.35 774.334 1405.21 774.722 1404.96 775.046L1323.24 876.323C1323.13 876.442 1322.99 876.537 1322.84 876.603C1322.68 876.668 1322.52 876.703 1322.34 876.703C1322.17 876.703 1322.01 876.668 1321.85 876.603C1321.7 876.537 1321.56 876.442 1321.45 876.323Z" fill="#45406A"/>
<path d="M1330.91 902.417L1329.91 901.3C1329.66 900.974 1329.52 900.586 1329.52 900.189C1329.52 899.792 1329.66 899.405 1329.91 899.079L1411.64 797.802C1411.75 797.662 1411.89 797.547 1412.05 797.468C1412.22 797.388 1412.4 797.347 1412.59 797.347C1412.78 797.347 1412.96 797.388 1413.13 797.468C1413.29 797.547 1413.44 797.662 1413.54 797.802L1414.54 798.905C1414.8 799.229 1414.94 799.617 1414.94 800.015C1414.94 800.413 1414.8 800.801 1414.54 801.125L1332.83 902.417C1332.72 902.56 1332.58 902.677 1332.41 902.759C1332.25 902.84 1332.06 902.882 1331.87 902.882C1331.68 902.882 1331.49 902.84 1331.33 902.759C1331.16 902.677 1331.02 902.56 1330.91 902.417Z" fill="#45406A"/>
<path d="M1329.96 985.904L1328.95 984.786C1328.7 984.462 1328.56 984.074 1328.56 983.676C1328.56 983.278 1328.7 982.889 1328.95 982.565L1410.68 881.288C1410.78 881.144 1410.92 881.023 1411.08 880.938C1411.24 880.852 1411.43 880.804 1411.61 880.797C1411.8 880.79 1411.99 880.824 1412.16 880.898C1412.33 880.971 1412.47 881.081 1412.58 881.217L1413.59 882.334C1413.84 882.658 1413.98 883.046 1413.98 883.444C1413.98 883.843 1413.84 884.231 1413.59 884.555L1331.87 985.832C1331.78 985.982 1331.64 986.109 1331.48 986.198C1331.31 986.288 1331.13 986.339 1330.94 986.346C1330.74 986.353 1330.55 986.316 1330.38 986.238C1330.21 986.161 1330.06 986.046 1329.96 985.904Z" fill="#45406A"/>
<path d="M1320.97 840.343L1321.97 839.226C1322.23 838.902 1322.37 838.514 1322.37 838.116C1322.37 837.718 1322.23 837.33 1321.97 837.006L1240.25 735.728C1240.16 735.584 1240.02 735.464 1239.86 735.378C1239.7 735.293 1239.51 735.244 1239.33 735.237C1239.14 735.23 1238.95 735.265 1238.78 735.338C1238.61 735.411 1238.47 735.521 1238.36 735.657L1237.34 736.774C1237.08 737.098 1236.94 737.487 1236.94 737.885C1236.94 738.283 1237.08 738.671 1237.34 738.995L1319.05 840.273C1319.15 840.423 1319.28 840.549 1319.45 840.639C1319.61 840.729 1319.8 840.779 1319.99 840.786C1320.18 840.793 1320.37 840.756 1320.54 840.679C1320.71 840.601 1320.86 840.486 1320.97 840.343Z" fill="#45406A"/>
<path d="M1320.97 883.028L1321.97 881.911C1322.23 881.587 1322.37 881.198 1322.37 880.8C1322.37 880.402 1322.23 880.014 1321.97 879.69L1240.25 778.412C1240.16 778.268 1240.02 778.148 1239.86 778.063C1239.7 777.977 1239.51 777.929 1239.33 777.922C1239.14 777.915 1238.95 777.949 1238.78 778.023C1238.61 778.096 1238.47 778.205 1238.36 778.342L1237.34 779.459C1237.08 779.783 1236.94 780.171 1236.94 780.569C1236.94 780.968 1237.08 781.355 1237.34 781.679L1319.05 882.957C1319.15 883.107 1319.28 883.233 1319.45 883.323C1319.61 883.413 1319.8 883.463 1319.99 883.471C1320.18 883.478 1320.37 883.441 1320.54 883.363C1320.71 883.286 1320.86 883.17 1320.97 883.028Z" fill="#45406A"/>
<path d="M1320.97 955.185L1321.97 954.068C1322.23 953.744 1322.37 953.355 1322.37 952.957C1322.37 952.559 1322.23 952.171 1321.97 951.848L1240.25 850.569C1240.16 850.425 1240.02 850.305 1239.86 850.22C1239.7 850.134 1239.51 850.086 1239.33 850.079C1239.14 850.072 1238.95 850.107 1238.78 850.18C1238.61 850.253 1238.47 850.363 1238.36 850.499L1237.34 851.616C1237.08 851.94 1236.94 852.329 1236.94 852.727C1236.94 853.125 1237.08 853.513 1237.34 853.836L1319.05 955.115C1319.15 955.265 1319.28 955.39 1319.45 955.48C1319.61 955.57 1319.8 955.621 1319.99 955.628C1320.18 955.635 1320.37 955.598 1320.54 955.521C1320.71 955.443 1320.86 955.328 1320.97 955.185Z" fill="#45406A"/>
<path d="M1318.6 973.218L1319.62 972.115C1319.87 971.788 1320.01 971.398 1320.01 970.997C1320.01 970.597 1319.87 970.207 1319.62 969.88L1237.9 868.602C1237.8 868.462 1237.65 868.348 1237.49 868.268C1237.32 868.189 1237.14 868.147 1236.95 868.147C1236.76 868.147 1236.58 868.189 1236.41 868.268C1236.25 868.348 1236.11 868.462 1236 868.602L1235 869.719C1234.74 870.043 1234.6 870.432 1234.6 870.83C1234.6 871.228 1234.74 871.616 1235 871.94L1316.71 973.218C1316.82 973.355 1316.96 973.467 1317.12 973.544C1317.29 973.622 1317.47 973.662 1317.66 973.662C1317.84 973.662 1318.02 973.622 1318.19 973.544C1318.35 973.467 1318.49 973.355 1318.6 973.218Z" fill="#45406A"/>
<path d="M1318.72 470.605L1317.55 469.303C1317.31 469.008 1317.19 468.654 1317.19 468.292C1317.19 467.929 1317.31 467.576 1317.55 467.281L1385.01 383.724C1385.11 383.593 1385.24 383.485 1385.39 383.41C1385.54 383.335 1385.71 383.296 1385.89 383.296C1386.06 383.296 1386.23 383.335 1386.38 383.41C1386.53 383.485 1386.66 383.593 1386.76 383.724L1387.93 385.025C1388.16 385.322 1388.29 385.675 1388.29 386.037C1388.29 386.398 1388.16 386.751 1387.93 387.048L1320.46 470.605C1320.37 470.736 1320.24 470.844 1320.09 470.919C1319.94 470.994 1319.77 471.033 1319.59 471.033C1319.42 471.033 1319.25 470.994 1319.1 470.919C1318.94 470.844 1318.82 470.736 1318.72 470.605Z" fill="#45406A"/>
<path d="M767.157 1012.94C767.157 1012.94 881.611 1293.43 845.232 1400.43" stroke="#45406A" stroke-width="5" stroke-miterlimit="10"/>
<path d="M767.157 1012.94C767.157 1012.94 881.611 1293.43 845.232 1400.43" stroke="#45406A" stroke-width="5" stroke-miterlimit="10"/>
<path d="M767.157 1012.94C767.157 1012.94 881.611 1293.43 845.232 1400.43" stroke="#45406A" stroke-width="5" stroke-miterlimit="10"/>
<path d="M757.909 863.787C841.807 1000.42 815.42 1182.27 691.471 1282.54C593.008 1362.19 462.959 1363.31 375.074 1364.06L374.737 1364.06C280.54 1364.88 137.248 1365.95 36.9709 1277.4C-83.231 1171.23 -80.0135 990.291 -2.30421 865.722C10.6804 844.921 81.4871 736.386 233.175 692.487C323.673 666.301 429.289 667.367 525.123 695.93C620.954 724.491 706.723 780.455 757.909 863.787Z" fill="#1D193F" stroke="#45406A" stroke-width="7"/>
<path d="M376.142 1367.81H376.321C378.39 1367.81 380.065 1366.36 380.065 1364.57L380.065 783.385C380.065 781.591 378.39 780.137 376.321 780.137H376.142C374.074 780.137 372.398 781.591 372.398 783.385L372.398 1364.57C372.398 1366.36 374.074 1367.81 376.142 1367.81Z" fill="#45406A"/>
<path d="M375.786 1368.4H375.608C375.128 1368.33 374.668 1368.18 374.254 1367.96C373.841 1367.73 373.483 1367.44 373.2 1367.1C372.917 1366.76 372.713 1366.37 372.603 1365.96C372.493 1365.55 372.477 1365.12 372.557 1364.7L487.075 804.421C487.262 803.582 487.822 802.84 488.633 802.355C489.444 801.87 490.443 801.68 491.413 801.826H491.572C492.053 801.891 492.513 802.038 492.927 802.259C493.342 802.479 493.702 802.769 493.986 803.111C494.27 803.454 494.472 803.842 494.582 804.253C494.691 804.663 494.705 805.089 494.623 805.505L380.105 1365.79C379.931 1366.63 379.378 1367.38 378.568 1367.87C377.758 1368.36 376.758 1368.55 375.786 1368.4Z" fill="#45406A"/>
<path d="M375.13 1368.26H374.992C374.534 1368.13 374.111 1367.92 373.747 1367.65C373.382 1367.38 373.085 1367.05 372.871 1366.68C372.657 1366.3 372.531 1365.9 372.5 1365.48C372.47 1365.06 372.535 1364.65 372.693 1364.25L595.151 841.781C595.518 840.994 596.224 840.362 597.119 840.019C598.014 839.676 599.029 839.648 599.947 839.943H600.105C600.56 840.072 600.982 840.279 601.344 840.552C601.706 840.825 602.001 841.157 602.214 841.53C602.426 841.902 602.55 842.309 602.579 842.724C602.608 843.139 602.542 843.554 602.384 843.946L379.924 1366.42C379.554 1367.2 378.848 1367.83 377.954 1368.17C377.06 1368.52 376.048 1368.55 375.13 1368.26Z" fill="#45406A"/>
<path d="M374.399 1368.07H374.241C373.826 1367.92 373.454 1367.7 373.148 1367.41C372.842 1367.12 372.61 1366.79 372.468 1366.42C372.325 1366.05 372.275 1365.66 372.321 1365.27C372.368 1364.88 372.509 1364.51 372.735 1364.17L692.317 916.184C692.865 915.494 693.685 915.001 694.623 914.798C695.561 914.596 696.552 914.697 697.409 915.084H697.547C697.964 915.233 698.338 915.457 698.646 915.741C698.954 916.026 699.189 916.364 699.333 916.734C699.478 917.104 699.529 917.496 699.484 917.885C699.439 918.273 699.299 918.648 699.073 918.986L379.472 1366.95C378.927 1367.64 378.112 1368.14 377.179 1368.34C376.245 1368.55 375.257 1368.45 374.399 1368.07Z" fill="#45406A"/>
<path d="M374.063 1367.71L373.944 1367.62C373.579 1367.44 373.263 1367.19 373.017 1366.89C372.771 1366.6 372.6 1366.26 372.516 1365.9C372.432 1365.54 372.436 1365.17 372.529 1364.81C372.621 1364.45 372.8 1364.12 373.053 1363.82L733.884 1030.41C734.574 1029.9 735.448 1029.62 736.351 1029.62C737.254 1029.62 738.128 1029.9 738.818 1030.41L738.956 1030.49C739.319 1030.68 739.632 1030.93 739.876 1031.22C740.121 1031.52 740.291 1031.86 740.375 1032.22C740.459 1032.58 740.456 1032.95 740.365 1033.3C740.274 1033.66 740.098 1033.99 739.848 1034.29L379.016 1367.71C378.313 1368.2 377.44 1368.46 376.54 1368.46C375.639 1368.46 374.766 1368.2 374.063 1367.71Z" fill="#45406A"/>
<path d="M373.607 1367.28L373.488 1367.18C372.141 1365.89 371.943 1364.24 373.072 1363.52L738.163 1131.27C738.941 1130.97 739.814 1130.91 740.637 1131.1C741.46 1131.29 742.181 1131.72 742.68 1132.32L742.799 1132.42C744.147 1133.71 744.345 1135.36 743.215 1136.09L378.124 1368.33C377.347 1368.63 376.474 1368.69 375.651 1368.5C374.828 1368.31 374.106 1367.88 373.607 1367.28Z" fill="#45406A"/>
<path d="M373.151 1366.78V1366.66C372.081 1365.18 372.021 1363.64 373.032 1363.22L695.843 1231.44C696.833 1231.04 698.517 1231.92 699.587 1233.41V1233.53C700.657 1235.01 700.717 1236.56 699.726 1236.97L376.896 1368.74C375.945 1369.15 374.26 1368.28 373.151 1366.78Z" fill="#45406A"/>
<path d="M372.875 1366.01V1365.89C372.142 1364.26 372.142 1362.79 372.875 1362.66L614.771 1314.1C615.504 1313.97 616.751 1315.17 617.445 1316.8V1316.94C618.178 1318.56 618.178 1320.02 617.445 1320.17L375.55 1368.71C374.817 1368.86 373.608 1367.62 372.875 1366.01Z" fill="#45406A"/>
<path d="M376.617 1368.4H376.776C377.257 1368.33 377.718 1368.18 378.132 1367.96C378.547 1367.74 378.907 1367.44 379.19 1367.1C379.474 1366.76 379.676 1366.37 379.785 1365.96C379.895 1365.54 379.909 1365.12 379.827 1364.7L265.328 804.419C265.136 803.582 264.575 802.843 263.765 802.358C262.955 801.874 261.96 801.682 260.99 801.824H260.811C259.845 801.963 258.983 802.428 258.411 803.117C257.84 803.806 257.605 804.664 257.759 805.502L372.278 1365.78C372.457 1366.63 373.013 1367.38 373.826 1367.87C374.639 1368.36 375.643 1368.55 376.617 1368.4Z" fill="#45406A"/>
<path d="M377.234 1368.26H377.393C377.848 1368.13 378.269 1367.92 378.631 1367.65C378.993 1367.38 379.289 1367.05 379.501 1366.67C379.713 1366.3 379.837 1365.89 379.867 1365.48C379.896 1365.06 379.83 1364.65 379.671 1364.26L157.193 841.715C156.83 840.93 156.127 840.297 155.236 839.954C154.344 839.61 153.333 839.583 152.417 839.877H152.259C151.803 840.006 151.382 840.213 151.02 840.486C150.658 840.758 150.363 841.091 150.151 841.464C149.939 841.836 149.814 842.243 149.785 842.658C149.756 843.073 149.822 843.488 149.98 843.88L372.44 1366.35C372.791 1367.15 373.49 1367.8 374.387 1368.16C375.284 1368.51 376.306 1368.55 377.234 1368.26Z" fill="#45406A"/>
<path d="M378.005 1368.07H378.143C378.56 1367.92 378.934 1367.7 379.242 1367.42C379.55 1367.13 379.785 1366.79 379.929 1366.42C380.074 1366.05 380.125 1365.66 380.08 1365.27C380.035 1364.88 379.895 1364.51 379.669 1364.17L60.1074 916.134C59.5593 915.443 58.7388 914.951 57.8011 914.748C56.8633 914.546 55.8732 914.648 55.0159 915.034H54.8765C54.462 915.185 54.0893 915.41 53.7834 915.695C53.4774 915.98 53.2459 916.319 53.1033 916.688C52.9606 917.058 52.911 917.45 52.9572 917.837C53.0034 918.225 53.1445 918.599 53.3712 918.936L372.952 1366.9C373.487 1367.6 374.295 1368.1 375.225 1368.31C376.154 1368.53 377.143 1368.44 378.005 1368.07Z" fill="#45406A"/>
<path d="M378.322 1367.71L378.461 1367.62C378.826 1367.44 379.142 1367.19 379.388 1366.89C379.634 1366.6 379.804 1366.26 379.888 1365.9C379.972 1365.54 379.969 1365.17 379.877 1364.81C379.784 1364.45 379.605 1364.12 379.352 1363.82L18.5202 1030.41C17.8302 1029.9 16.9572 1029.62 16.0542 1029.62C15.1513 1029.62 14.2772 1029.9 13.5873 1030.41L13.449 1030.49C13.0841 1030.67 12.7682 1030.92 12.5222 1031.22C12.2761 1031.52 12.1052 1031.86 12.021 1032.22C11.9368 1032.58 11.9412 1032.95 12.0336 1033.3C12.126 1033.66 12.3042 1034 12.557 1034.29L373.389 1367.71C374.079 1368.21 374.953 1368.49 375.856 1368.49C376.759 1368.49 377.632 1368.21 378.322 1367.71Z" fill="#45406A"/>
<path d="M378.797 1367.28V1367.18C380.165 1365.89 380.342 1364.24 379.233 1363.52L14.1219 1131.27C13.3447 1130.97 12.4709 1130.91 11.6482 1131.1C10.8254 1131.29 10.1033 1131.72 9.60401 1132.32L9.50533 1132.42C8.13824 1133.71 7.96047 1135.36 9.06999 1136.09L374.181 1368.33C374.969 1368.65 375.865 1368.73 376.71 1368.53C377.554 1368.34 378.294 1367.9 378.797 1367.28Z" fill="#45406A"/>
<path d="M379.193 1366.78L379.293 1366.66C380.343 1365.18 380.402 1363.64 379.412 1363.22L56.5811 1231.44C55.5904 1231.04 53.9061 1231.92 52.8362 1233.41V1233.53C51.7663 1235.01 51.7067 1236.56 52.7172 1236.97L375.528 1368.74C376.46 1369.15 378.143 1368.28 379.193 1366.78Z" fill="#45406A"/>
<path d="M379.53 1366.01V1365.89C380.263 1364.26 380.243 1362.79 379.53 1362.66L137.634 1314.1C136.881 1313.97 135.653 1315.17 134.94 1316.8V1316.94C134.207 1318.56 134.227 1320.02 134.94 1320.17L376.835 1368.71C377.588 1368.86 378.797 1367.62 379.53 1366.01Z" fill="#45406A"/>
<path d="M156.093 493.95C156.093 493.95 -83.8061 475.849 -95.6504 337.838C-107.495 199.828 -68.3754 97.3788 11.9647 52.1028C92.3048 6.82689 222.311 10.8124 207.033 311.873C191.755 612.934 195.352 504.222 195.352 504.222" fill="#1D193F"/>
<path d="M-25.4968 527.79L207.791 519.866L315.966 516.189C657.418 504.588 477.896 708.039 477.896 708.039C477.896 708.039 414.762 763.196 335.695 777.656C256.628 792.115 189.113 762.401 189.113 762.401C189.113 762.401 -16.2572 842.052 -98.9218 785.674C-181.586 729.295 -325.026 658.754 -270.15 543.352C-215.273 427.95 -201.011 448.459 -95.1604 390.953C10.6905 333.448 192.525 593.242 192.525 593.242" fill="#1D193F"/>
<path d="M20.3857 367.361C20.3857 367.361 101.766 529.866 173.812 575.889C245.859 621.913 393.27 623.134 454.208 576.127C515.147 529.119 508.582 381.595 505.277 354.764C501.971 327.933 470.164 254.308 401.633 236.717C333.102 219.126 369.663 134.849 284.511 141.456C199.358 148.063 182.281 150.328 116.098 209.708C49.9146 269.087 57.5656 345.903 57.5656 345.903" fill="#1D193F"/>
<path d="M178.555 720.97C178.555 720.97 -22.8091 717.578 -96.6664 607.703C-170.524 497.828 -229.301 433.147 -213.591 355.512C-197.88 277.878 -172.112 139.808 10.0253 220.681C192.163 301.554 204.229 363.412 204.229 363.412L224.974 405.521" fill="#1D193F"/>
<path d="M105.873 1185.12C82.7215 810.98 95.8274 675.621 116.164 630.686C119.983 622.231 140.039 576.427 152.899 511.125C156.625 491.623 158.522 471.82 158.564 451.97C159.732 336.213 88.375 230.291 88.375 230.291" stroke="#45406A" stroke-width="15" stroke-miterlimit="10" stroke-linecap="round"/>
<path d="M141.135 553.773C141.135 553.773 154.205 452.433 289.702 445.718C425.199 439.002 445.5 366.344 445.5 366.344" stroke="#45406A" stroke-width="7" stroke-miterlimit="10" stroke-linecap="round"/>
<path d="M101.35 663.927C101.35 663.927 55.8893 572.296 -23.9135 593.522C-103.716 614.748 -200.573 541.141 -200.573 541.141" stroke="#45406A" stroke-width="7" stroke-miterlimit="10" stroke-linecap="round"/>
<path d="M339.52 440.894C339.52 440.894 348.642 487.869 418.388 499.028" stroke="#45406A" stroke-width="7" stroke-miterlimit="10" stroke-linecap="round"/>
<path d="M241.426 453.373C241.426 453.373 207.459 390.229 263.445 336.815" stroke="#45406A" stroke-width="7" stroke-miterlimit="10" stroke-linecap="round"/>
<path d="M149.578 466.131C26.7789 462.338 -15.1199 335.666 -27.6533 275.178" stroke="#45406A" stroke-width="7" stroke-miterlimit="10" stroke-linecap="round"/>
<path d="M134.885 586.459C134.885 586.459 156.541 566.95 184.551 586.946C212.562 606.943 233.833 616.176 288.23 608.787C342.627 601.399 366.666 568.04 366.666 568.04" stroke="#45406A" stroke-width="7" stroke-miterlimit="10" stroke-linecap="round"/>
<path d="M-73.791 423.11C-73.791 423.11 -7.21072 452.281 32.3052 410.467" stroke="#45406A" stroke-width="7" stroke-miterlimit="10" stroke-linecap="round"/>
<path d="M299 447.844C299 447.844 321.065 529.465 392.539 523.318" stroke="#45406A" stroke-width="7" stroke-miterlimit="10" stroke-linecap="round"/>
<path d="M281.864 612.127C281.864 612.127 307.877 664.252 361.071 642.493" stroke="#45406A" stroke-width="7" stroke-miterlimit="10" stroke-linecap="round"/>
<path d="M198.453 595.889C198.453 595.889 228.672 543.694 290.544 551.477" stroke="#45406A" stroke-width="7" stroke-miterlimit="10" stroke-linecap="round"/>
<path d="M189.903 301.892C189.903 301.892 227.725 303.759 237.923 260.345" stroke="#45406A" stroke-width="7" stroke-miterlimit="10" stroke-linecap="round"/>
<path d="M278.117 444.024C278.117 444.024 278.829 430.604 295.918 414.818C302.966 408.452 310.796 402.996 319.222 398.579" stroke="#45406A" stroke-width="7" stroke-miterlimit="10" stroke-linecap="round"/>
<path d="M183.267 328.301C183.267 328.301 223.963 329.461 241.297 286.255" stroke="#45406A" stroke-width="7" stroke-miterlimit="10" stroke-linecap="round"/>
<path d="M141.753 338.322C141.753 338.322 98.5345 358.539 51.8115 273.635" stroke="#45406A" stroke-width="7" stroke-miterlimit="10" stroke-linecap="round"/>
<path d="M392 424.844C392 424.844 413.166 447.612 448.57 431.084" stroke="#45406A" stroke-width="7" stroke-miterlimit="10" stroke-linecap="round"/>
<path d="M51.3802 610.699C51.3802 610.699 60.4323 647.561 2.72949 662.024" stroke="#45406A" stroke-width="7" stroke-miterlimit="10" stroke-linecap="round"/>
<path d="M71.3302 624.109C71.3302 624.109 79.3078 671.329 26.8379 684.204" stroke="#45406A" stroke-width="7" stroke-miterlimit="10" stroke-linecap="round"/>
<path d="M308.615 600.679C308.615 600.679 307.143 574.685 334.312 553.784" stroke="#45406A" stroke-width="7" stroke-miterlimit="10" stroke-linecap="round"/>
<path d="M137.933 314.093C137.933 314.093 162.159 293.737 121.429 176.065" stroke="#45406A" stroke-width="7" stroke-miterlimit="10" stroke-linecap="round"/>
<path d="M371.023 427.483C371.023 427.483 348.561 392.687 404.29 334.298" stroke="#45406A" stroke-width="7" stroke-miterlimit="10" stroke-linecap="round"/>
<path d="M-2.67774 348.9C-2.67774 348.9 -37.0775 365.927 -78.6025 317.664" stroke="#45406A" stroke-width="7" stroke-miterlimit="10" stroke-linecap="round"/>
<path d="M47.7955 599.114C47.7955 599.114 66.2279 556.673 -10.4912 501.323" stroke="#45406A" stroke-width="7" stroke-miterlimit="10" stroke-linecap="round"/>
<path d="M37.8638 552.405C37.8638 552.405 31.1124 564.944 -20.7617 550.41" stroke="#45406A" stroke-width="7" stroke-miterlimit="10" stroke-linecap="round"/>
<path d="M154.86 380.892C154.86 380.892 197.588 356.29 191.071 226.046" stroke="#45406A" stroke-width="7" stroke-miterlimit="10" stroke-linecap="round"/>
<path d="M241 610.844C241 610.844 260.857 679.602 339.34 690.134" stroke="#45406A" stroke-width="7" stroke-miterlimit="10" stroke-linecap="round"/>
<path d="M10.7412 385.159C10.7412 385.159 50.4557 358.342 30.0144 315.751" stroke="#45406A" stroke-width="7" stroke-miterlimit="10" stroke-linecap="round"/>
<path d="M80.8506 445.637C80.8506 445.637 108.767 416.152 88.548 375.301" stroke="#45406A" stroke-width="7" stroke-miterlimit="10" stroke-linecap="round"/>
<path d="M144.908 523.523C144.908 523.523 33.6262 538.288 -5.31738 458.313" stroke="#45406A" stroke-width="7" stroke-miterlimit="10" stroke-linecap="round"/>
<path d="M216 463.844C216 463.844 220.369 495.555 271.192 512.432" stroke="#45406A" stroke-width="7" stroke-miterlimit="10" stroke-linecap="round"/>
<path d="M471.357 548.103C558.124 601.881 458.77 712.715 458.77 712.715C458.77 712.715 394.353 768.143 313.668 782.668C232.984 797.192 164.11 767.342 164.11 767.342C164.11 767.342 -45.4716 847.394 -129.826 790.731C-214.179 734.069 -360.561 663.144 -304.562 547.214C-291.431 520.03 -280.579 500.35 -270.266 485.404" stroke="#45406A" stroke-width="7"/>
<path d="M195.937 148.358C166.17 -1.03823 69.5478 3.97289 4.67808 39.9642C-52.1192 71.4767 -88.7343 130.572 -101.85 210.031" stroke="#45406A" stroke-width="7"/>
<path d="M468.277 550.778C530.474 503.536 510.479 377.318 507.086 350.398C503.694 323.477 471.254 249.438 401.317 231.753C331.379 214.069 368.691 129.376 281.794 136.021C241.515 139.101 216.163 141.241 193.829 148.593" stroke="#45406A" stroke-width="7"/>
<path d="M492.921 163.344C497.004 163.344 501.325 165.55 505.896 170.454C510.46 175.35 515.022 182.679 519.538 192.27C528.561 211.436 537.141 239.077 545.207 272.78C561.33 340.147 575.281 431.205 586.715 525.829C609.585 715.083 622.343 918.191 622.343 973.718C622.343 1029.04 609.642 1070.57 587.248 1098.22C564.913 1125.8 532.694 1139.87 492.921 1139.87C453.192 1139.87 420.969 1125.07 398.615 1096.72C376.2 1068.3 363.5 1026 363.5 970.672C363.5 915.145 376.258 712.799 399.128 524.307C410.562 430.064 424.513 339.388 440.635 272.307C448.701 238.747 457.281 211.225 466.303 192.143C470.818 182.594 475.38 175.298 479.943 170.424C484.513 165.543 488.835 163.344 492.921 163.344Z" fill="#1D193F" stroke="#68527E" stroke-width="5"/>
<path d="M494.655 428.543H494.642C490.441 428.543 487.035 432.085 487.035 436.453V1198.57C487.035 1202.94 490.441 1206.48 494.642 1206.48H494.655C498.856 1206.48 502.262 1202.94 502.262 1198.57V436.453C502.262 432.085 498.856 428.543 494.655 428.543Z" fill="#68527E"/>
<path d="M497.106 610.335L496.085 609.033C495.882 608.738 495.773 608.384 495.773 608.021C495.773 607.658 495.882 607.305 496.085 607.009L554.596 523.416C554.677 523.284 554.789 523.176 554.921 523.101C555.053 523.026 555.201 522.987 555.351 522.987C555.501 522.987 555.649 523.026 555.781 523.101C555.913 523.176 556.025 523.284 556.106 523.416L557.127 524.717C557.33 525.012 557.439 525.367 557.439 525.729C557.439 526.092 557.33 526.446 557.127 526.741L498.616 610.335C498.537 610.469 498.426 610.581 498.294 610.658C498.162 610.735 498.013 610.775 497.861 610.775C497.709 610.775 497.56 610.735 497.428 610.658C497.296 610.581 497.185 610.469 497.106 610.335Z" fill="#68527E"/>
<path d="M498.127 673.865L497.256 672.747C497.034 672.423 496.914 672.034 496.914 671.636C496.914 671.238 497.034 670.85 497.256 670.526L568.136 569.203C568.227 569.063 568.35 568.948 568.493 568.869C568.637 568.79 568.797 568.748 568.959 568.748C569.122 568.748 569.282 568.79 569.426 568.869C569.569 568.948 569.692 569.063 569.783 569.203L570.653 570.32C570.876 570.645 570.996 571.033 570.996 571.431C570.996 571.83 570.876 572.218 570.653 572.542L499.787 673.865C499.697 674.008 499.574 674.126 499.429 674.207C499.284 674.288 499.122 674.331 498.957 674.331C498.793 674.331 498.631 674.288 498.486 674.207C498.341 674.126 498.218 674.008 498.127 673.865Z" fill="#68527E"/>
<path d="M498.955 784.963L498.084 783.86C497.865 783.534 497.748 783.146 497.748 782.749C497.748 782.352 497.865 781.964 498.084 781.638L568.964 680.316C569.047 680.169 569.164 680.046 569.305 679.958C569.445 679.87 569.605 679.82 569.769 679.813C569.933 679.806 570.095 679.842 570.243 679.917C570.39 679.992 570.516 680.106 570.61 680.245L571.481 681.362C571.704 681.686 571.824 682.075 571.824 682.473C571.824 682.872 571.704 683.26 571.481 683.584L500.602 784.963C500.511 785.103 500.388 785.218 500.245 785.298C500.101 785.377 499.941 785.418 499.778 785.418C499.616 785.418 499.456 785.377 499.312 785.298C499.169 785.218 499.046 785.103 498.955 784.963Z" fill="#68527E"/>
<path d="M495.119 529.4L494.098 528.098C493.892 527.802 493.781 527.446 493.781 527.08C493.781 526.714 493.892 526.357 494.098 526.061L552.609 442.467C552.691 442.339 552.802 442.233 552.932 442.16C553.063 442.087 553.209 442.05 553.357 442.05C553.505 442.05 553.651 442.087 553.782 442.16C553.912 442.233 554.024 442.339 554.105 442.467L555.126 443.769C555.328 444.067 555.437 444.423 555.437 444.788C555.437 445.153 555.328 445.508 555.126 445.806L496.615 529.4C496.533 529.528 496.422 529.634 496.292 529.707C496.161 529.78 496.015 529.818 495.867 529.818C495.719 529.818 495.573 529.78 495.442 529.707C495.312 529.634 495.2 529.528 495.119 529.4Z" fill="#68527E"/>
<path d="M498.126 818.922L497.255 817.818C497.033 817.491 496.914 817.101 496.914 816.7C496.914 816.3 497.033 815.91 497.255 815.583L568.08 714.217C568.171 714.077 568.294 713.962 568.437 713.883C568.581 713.804 568.741 713.763 568.904 713.763C569.066 713.763 569.226 713.804 569.37 713.883C569.513 713.962 569.636 714.077 569.727 714.217L570.598 715.335C570.82 715.659 570.94 716.048 570.94 716.446C570.94 716.844 570.82 717.232 570.598 717.556L499.773 818.922C499.682 819.062 499.559 819.177 499.415 819.256C499.272 819.335 499.112 819.376 498.949 819.376C498.787 819.376 498.627 819.335 498.483 819.256C498.34 819.177 498.217 819.062 498.126 818.922Z" fill="#68527E"/>
<path d="M497.582 485.637L496.303 484.009C496.136 483.76 496.047 483.464 496.047 483.161C496.047 482.857 496.136 482.561 496.303 482.312L534.893 427.13C534.963 427.025 535.057 426.939 535.166 426.88C535.275 426.82 535.396 426.789 535.519 426.789C535.642 426.789 535.763 426.82 535.872 426.88C535.981 426.939 536.075 427.025 536.145 427.13L537.424 428.757C537.591 429.006 537.68 429.302 537.68 429.606C537.68 429.909 537.591 430.206 537.424 430.455L498.834 485.637C498.766 485.745 498.673 485.833 498.564 485.895C498.455 485.956 498.332 485.989 498.208 485.989C498.084 485.989 497.962 485.956 497.852 485.895C497.743 485.833 497.65 485.745 497.582 485.637Z" fill="#68527E"/>
<path d="M501.977 579.9L502.78 578.867C502.985 578.567 503.095 578.209 503.095 577.842C503.095 577.474 502.985 577.115 502.78 576.816L437.302 483.204C437.219 483.073 437.106 482.965 436.973 482.89C436.84 482.816 436.691 482.776 436.54 482.776C436.389 482.776 436.24 482.816 436.107 482.89C435.974 482.965 435.861 483.073 435.778 483.204L434.976 484.237C434.77 484.536 434.66 484.895 434.66 485.263C434.66 485.631 434.77 485.989 434.976 486.289L500.453 579.801C500.528 579.938 500.634 580.054 500.763 580.137C500.891 580.221 501.038 580.27 501.189 580.28C501.341 580.29 501.492 580.26 501.629 580.193C501.767 580.127 501.886 580.026 501.977 579.9Z" fill="#68527E"/>
<path d="M490.152 677.528L490.955 676.51C491.16 676.21 491.27 675.852 491.27 675.484C491.27 675.116 491.16 674.758 490.955 674.458L425.477 580.833C425.392 580.704 425.278 580.599 425.146 580.527C425.013 580.454 424.865 580.416 424.715 580.416C424.565 580.416 424.417 580.454 424.285 580.527C424.152 580.599 424.038 580.704 423.953 580.833L423.15 581.865C422.945 582.165 422.835 582.524 422.835 582.891C422.835 583.259 422.945 583.618 423.15 583.917L488.628 677.429C488.703 677.567 488.809 677.682 488.938 677.766C489.066 677.85 489.213 677.898 489.364 677.908C489.515 677.918 489.667 677.888 489.804 677.822C489.942 677.756 490.061 677.655 490.152 677.528Z" fill="#68527E"/>
<path d="M490.153 762.468L490.956 761.435C491.161 761.136 491.271 760.777 491.271 760.409C491.271 760.041 491.161 759.683 490.956 759.383L425.478 665.772C425.395 665.64 425.282 665.533 425.149 665.458C425.016 665.383 424.867 665.345 424.716 665.345C424.565 665.345 424.416 665.383 424.283 665.458C424.15 665.533 424.037 665.64 423.954 665.772L423.151 666.791C422.945 667.092 422.834 667.453 422.834 667.824C422.834 668.194 422.945 668.555 423.151 668.856L488.629 762.468C488.712 762.599 488.825 762.707 488.958 762.782C489.091 762.856 489.24 762.896 489.391 762.896C489.542 762.896 489.691 762.856 489.824 762.782C489.957 762.707 490.07 762.599 490.153 762.468Z" fill="#68527E"/>
<path d="M493.704 544.696L494.643 543.493C494.829 543.22 494.93 542.894 494.93 542.559C494.93 542.225 494.829 541.898 494.643 541.625L440.623 464.385C440.544 464.274 440.442 464.183 440.324 464.121C440.206 464.059 440.075 464.026 439.942 464.026C439.81 464.026 439.679 464.059 439.561 464.121C439.443 464.183 439.34 464.274 439.262 464.385L438.31 465.587C438.124 465.863 438.024 466.191 438.024 466.528C438.024 466.865 438.124 467.193 438.31 467.469L492.33 544.696C492.408 544.81 492.511 544.902 492.631 544.966C492.75 545.031 492.883 545.064 493.017 545.064C493.152 545.064 493.284 545.031 493.404 544.966C493.523 544.902 493.626 544.81 493.704 544.696Z" fill="#68527E"/>
<path d="M490.153 795.236L490.956 794.203C491.161 793.903 491.271 793.545 491.271 793.178C491.271 792.81 491.161 792.451 490.956 792.152L425.478 698.54C425.395 698.409 425.282 698.301 425.149 698.226C425.016 698.152 424.867 698.112 424.716 698.112C424.565 698.112 424.416 698.152 424.283 698.226C424.15 698.301 424.037 698.409 423.954 698.54L423.151 699.559C422.945 699.861 422.834 700.222 422.834 700.592C422.834 700.962 422.945 701.323 423.151 701.625L488.629 795.236C488.712 795.367 488.825 795.475 488.958 795.55C489.091 795.625 489.24 795.663 489.391 795.663C489.542 795.663 489.691 795.625 489.824 795.55C489.957 795.475 490.07 795.367 490.153 795.236Z" fill="#68527E"/>
<path d="M490.152 863.804L490.955 862.771C491.16 862.471 491.27 862.113 491.27 861.745C491.27 861.377 491.16 861.018 490.955 860.719L425.477 767.107C425.394 766.976 425.281 766.868 425.148 766.794C425.015 766.719 424.866 766.68 424.715 766.68C424.564 766.68 424.415 766.719 424.282 766.794C424.149 766.868 424.036 766.976 423.953 767.107L423.15 768.14C422.945 768.44 422.835 768.798 422.835 769.166C422.835 769.534 422.945 769.893 423.15 770.192L488.628 863.804C488.711 863.935 488.824 864.043 488.957 864.117C489.09 864.192 489.239 864.231 489.39 864.231C489.541 864.231 489.69 864.192 489.823 864.117C489.956 864.043 490.069 863.935 490.152 863.804Z" fill="#68527E"/>
<path d="M490.438 891.99L491.227 890.985C491.436 890.682 491.549 890.318 491.549 889.945C491.549 889.572 491.436 889.208 491.227 888.905L426.199 795.931C426.116 795.799 426.003 795.692 425.869 795.617C425.736 795.542 425.588 795.503 425.437 795.503C425.285 795.503 425.137 795.542 425.004 795.617C424.871 795.692 424.758 795.799 424.675 795.931L423.872 796.95C423.665 797.251 423.555 797.612 423.555 797.983C423.555 798.353 423.665 798.714 423.872 799.015L488.9 891.99C488.985 892.121 489.099 892.229 489.233 892.303C489.367 892.377 489.517 892.416 489.669 892.416C489.821 892.416 489.971 892.377 490.105 892.303C490.239 892.229 490.353 892.121 490.438 891.99Z" fill="#68527E"/>
<path d="M495.499 637.881L496.302 636.848C496.505 636.548 496.614 636.19 496.614 635.823C496.614 635.456 496.505 635.097 496.302 634.797L430.824 541.185C430.741 541.054 430.628 540.946 430.495 540.872C430.362 540.797 430.213 540.758 430.062 540.758C429.911 540.758 429.762 540.797 429.629 540.872C429.496 540.946 429.383 541.054 429.3 541.185L428.484 542.205C428.281 542.508 428.173 542.868 428.173 543.237C428.173 543.607 428.281 543.967 428.484 544.27L493.975 637.811C494.052 637.946 494.161 638.059 494.291 638.14C494.42 638.221 494.567 638.267 494.719 638.274C494.87 638.281 495.02 638.249 495.157 638.18C495.293 638.112 495.411 638.009 495.499 637.881Z" fill="#68527E"/>
<path d="M490.752 938.54L489.882 937.422C489.659 937.098 489.539 936.709 489.539 936.311C489.539 935.913 489.659 935.525 489.882 935.201L560.652 833.877C560.741 833.734 560.863 833.617 561.007 833.535C561.151 833.454 561.312 833.411 561.476 833.411C561.639 833.411 561.8 833.454 561.944 833.535C562.088 833.617 562.21 833.734 562.299 833.877L563.17 834.995C563.392 835.319 563.512 835.708 563.512 836.106C563.512 836.505 563.392 836.893 563.17 837.217L492.304 938.54C492.211 938.661 492.093 938.758 491.958 938.825C491.824 938.892 491.677 938.927 491.528 938.927C491.379 938.927 491.232 938.892 491.098 938.825C490.964 938.758 490.846 938.661 490.752 938.54Z" fill="#68527E"/>
<path d="M490.751 1005.35L489.894 1004.28C489.672 1003.95 489.553 1003.56 489.553 1003.16C489.553 1002.76 489.672 1002.37 489.894 1002.04L560.651 900.692C560.742 900.552 560.865 900.437 561.008 900.357C561.152 900.278 561.312 900.236 561.474 900.236C561.637 900.236 561.797 900.278 561.94 900.357C562.084 900.437 562.207 900.552 562.298 900.692L563.168 901.809C563.391 902.134 563.511 902.522 563.511 902.92C563.511 903.319 563.391 903.707 563.168 904.031L492.302 1005.35C492.208 1005.47 492.089 1005.57 491.955 1005.63C491.821 1005.7 491.675 1005.73 491.527 1005.73C491.379 1005.73 491.232 1005.7 491.098 1005.63C490.964 1005.57 490.846 1005.47 490.751 1005.35Z" fill="#68527E"/>
<path d="M498.955 1031.46L498.084 1030.34C497.865 1030.01 497.748 1029.63 497.748 1029.23C497.748 1028.83 497.865 1028.44 498.084 1028.12L568.964 926.796C569.055 926.656 569.178 926.541 569.321 926.462C569.465 926.382 569.625 926.341 569.787 926.341C569.95 926.341 570.11 926.382 570.253 926.462C570.397 926.541 570.52 926.656 570.61 926.796L571.481 927.899C571.704 928.223 571.824 928.612 571.824 929.01C571.824 929.409 571.704 929.797 571.481 930.121L500.615 1031.46C500.525 1031.6 500.402 1031.72 500.257 1031.8C500.112 1031.88 499.95 1031.92 499.785 1031.92C499.621 1031.92 499.459 1031.88 499.314 1031.8C499.169 1031.72 499.046 1031.6 498.955 1031.46Z" fill="#68527E"/>
<path d="M498.127 1114.98L497.256 1113.86C497.034 1113.54 496.914 1113.15 496.914 1112.75C496.914 1112.35 497.034 1111.97 497.256 1111.64L568.136 1010.32C568.221 1010.18 568.339 1010.05 568.48 1009.97C568.62 1009.88 568.779 1009.84 568.941 1009.83C569.104 1009.82 569.266 1009.86 569.412 1009.93C569.559 1010 569.686 1010.11 569.783 1010.25L570.653 1011.37C570.876 1011.69 570.996 1012.08 570.996 1012.48C570.996 1012.88 570.876 1013.26 570.653 1013.59L499.787 1114.91C499.705 1115.06 499.588 1115.19 499.446 1115.28C499.304 1115.37 499.142 1115.42 498.976 1115.42C498.81 1115.43 498.645 1115.39 498.497 1115.32C498.348 1115.24 498.221 1115.12 498.127 1114.98Z" fill="#68527E"/>
<path d="M490.329 969.358L491.199 968.24C491.422 967.916 491.542 967.528 491.542 967.13C491.542 966.731 491.422 966.343 491.199 966.019L420.333 864.696C420.248 864.552 420.13 864.432 419.99 864.346C419.849 864.26 419.691 864.212 419.528 864.205C419.366 864.198 419.204 864.233 419.057 864.306C418.91 864.379 418.783 864.489 418.687 864.625L417.802 865.743C417.58 866.067 417.46 866.456 417.46 866.854C417.46 867.252 417.58 867.641 417.802 867.965L488.668 969.287C488.751 969.437 488.868 969.564 489.01 969.653C489.152 969.743 489.314 969.794 489.48 969.801C489.646 969.808 489.811 969.771 489.959 969.694C490.108 969.616 490.235 969.5 490.329 969.358Z" fill="#68527E"/>
<path d="M490.329 1012.06L491.199 1010.94C491.422 1010.62 491.542 1010.23 491.542 1009.83C491.542 1009.43 491.422 1009.05 491.199 1008.72L420.333 907.398C420.248 907.253 420.13 907.134 419.99 907.048C419.849 906.962 419.691 906.914 419.528 906.907C419.366 906.9 419.204 906.935 419.057 907.008C418.91 907.081 418.783 907.191 418.687 907.327L417.802 908.445C417.58 908.769 417.46 909.158 417.46 909.556C417.46 909.954 417.58 910.342 417.802 910.666L488.668 1011.99C488.751 1012.14 488.868 1012.27 489.01 1012.36C489.152 1012.44 489.314 1012.5 489.48 1012.5C489.646 1012.51 489.811 1012.47 489.959 1012.4C490.108 1012.32 490.235 1012.2 490.329 1012.06Z" fill="#68527E"/>
<path d="M490.329 1084.25L491.199 1083.13C491.422 1082.81 491.542 1082.42 491.542 1082.02C491.542 1081.62 491.422 1081.23 491.199 1080.91L420.333 979.587C420.248 979.443 420.13 979.323 419.99 979.238C419.849 979.152 419.691 979.104 419.528 979.097C419.366 979.09 419.204 979.124 419.057 979.197C418.91 979.271 418.783 979.38 418.687 979.517L417.802 980.634C417.58 980.959 417.46 981.347 417.46 981.745C417.46 982.144 417.58 982.532 417.802 982.856L488.668 1084.18C488.751 1084.33 488.868 1084.45 489.01 1084.54C489.152 1084.63 489.314 1084.69 489.48 1084.69C489.646 1084.7 489.811 1084.66 489.959 1084.59C490.108 1084.51 490.235 1084.39 490.329 1084.25Z" fill="#68527E"/>
<path d="M488.275 1102.29L489.159 1101.19C489.381 1100.86 489.501 1100.47 489.501 1100.07C489.501 1099.67 489.381 1099.28 489.159 1098.95L418.293 997.626C418.202 997.486 418.08 997.372 417.936 997.293C417.793 997.213 417.633 997.172 417.47 997.172C417.308 997.172 417.148 997.213 417.004 997.293C416.86 997.372 416.738 997.486 416.647 997.626L415.776 998.744C415.553 999.068 415.434 999.457 415.434 999.855C415.434 1000.25 415.553 1000.64 415.776 1000.97L486.642 1102.29C486.733 1102.43 486.855 1102.54 486.998 1102.62C487.14 1102.69 487.298 1102.73 487.459 1102.73C487.619 1102.73 487.777 1102.69 487.919 1102.62C488.061 1102.54 488.184 1102.43 488.275 1102.29Z" fill="#68527E"/>
<path d="M488.383 599.454L487.363 598.152C487.16 597.857 487.051 597.503 487.051 597.14C487.051 596.777 487.16 596.424 487.363 596.129L545.873 512.535C545.955 512.403 546.066 512.295 546.198 512.22C546.33 512.146 546.478 512.106 546.629 512.106C546.779 512.106 546.927 512.146 547.059 512.22C547.191 512.295 547.302 512.403 547.384 512.535L548.404 513.836C548.603 514.133 548.71 514.487 548.71 514.849C548.71 515.21 548.603 515.563 548.404 515.86L489.894 599.454C489.812 599.585 489.7 599.693 489.568 599.768C489.437 599.843 489.289 599.882 489.138 599.882C488.988 599.882 488.84 599.843 488.708 599.768C488.576 599.693 488.465 599.585 488.383 599.454Z" fill="#68527E"/>
<path d="M1232.48 883.479L1234.98 883.499L1232.48 883.48C1231.96 951.401 1217.97 1002.77 1193.32 1037.1C1168.75 1071.31 1133.45 1088.81 1089.61 1088.81C1045.78 1088.81 1010.41 1071.29 985.786 1037.05C961.079 1002.69 947.029 951.281 946.511 883.334C946.054 823.106 960.104 700.933 985.415 593.815C998.071 540.255 1013.51 490.616 1031.28 454.422C1040.16 436.318 1049.57 421.712 1059.41 411.665C1069.24 401.617 1079.28 396.344 1089.5 396.344C1099.79 396.344 1109.85 401.274 1119.67 410.659C1129.5 420.05 1138.9 433.743 1147.79 450.824C1165.56 484.979 1181.01 532.174 1193.68 584.111C1219.01 687.971 1233.06 810.178 1232.48 883.479Z" fill="#1D193F" stroke="#68527E" stroke-width="5"/>
<path d="M1089.95 529.25H1088.2C1084.41 529.25 1081.33 533.325 1081.33 538.351V1296.93C1081.33 1301.96 1084.41 1306.03 1088.2 1306.03H1089.95C1093.74 1306.03 1096.82 1301.96 1096.82 1296.93V538.351C1096.82 533.325 1093.74 529.25 1089.95 529.25Z" fill="#68527E"/>
<path d="M1090.7 709.584L1091.74 710.888C1092.17 711.431 1092.86 711.405 1093.27 710.83L1152.76 627.355C1153.17 626.78 1153.15 625.873 1152.71 625.33L1151.67 624.026C1151.24 623.483 1150.55 623.51 1150.14 624.084L1090.65 707.56C1090.24 708.134 1090.26 709.041 1090.7 709.584Z" fill="#68527E"/>
<path d="M1091.89 773.209L1092.77 774.319C1093.25 774.916 1094 774.887 1094.45 774.255L1166.55 673.093C1167 672.461 1166.98 671.466 1166.5 670.869L1165.61 669.759C1165.13 669.163 1164.38 669.191 1163.93 669.823L1091.84 770.985C1091.39 771.617 1091.41 772.613 1091.89 773.209Z" fill="#68527E"/>
<path d="M1092.74 884.171L1093.63 885.281C1094.11 885.878 1094.86 885.849 1095.31 885.217L1167.4 784.056C1167.85 783.424 1167.83 782.427 1167.36 781.831L1166.47 780.721C1165.99 780.125 1165.24 780.153 1164.79 780.785L1092.7 881.947C1092.25 882.579 1092.27 883.575 1092.74 884.171Z" fill="#68527E"/>
<path d="M1081.82 624.542L1082.86 625.846C1083.29 626.389 1083.98 626.363 1084.39 625.788L1143.88 542.313C1144.29 541.738 1144.27 540.832 1143.83 540.289L1142.79 538.985C1142.36 538.442 1141.68 538.468 1141.27 539.043L1081.77 622.518C1081.36 623.093 1081.38 623.999 1081.82 624.542Z" fill="#68527E"/>
<path d="M1091.89 918.039L1092.78 919.148C1093.25 919.745 1094 919.716 1094.45 919.085L1166.55 817.923C1167 817.291 1166.98 816.295 1166.5 815.698L1165.62 814.589C1165.14 813.992 1164.39 814.021 1163.94 814.653L1091.84 915.814C1091.39 916.446 1091.41 917.442 1091.89 918.039Z" fill="#68527E"/>
<path d="M1092.75 1089.6L1093.63 1090.71C1094.11 1091.31 1094.86 1091.28 1095.31 1090.65L1167.41 989.486C1167.86 988.854 1167.84 987.858 1167.36 987.262L1166.47 986.152C1166 985.555 1165.24 985.584 1164.79 986.216L1092.7 1087.38C1092.25 1088.01 1092.27 1089.01 1092.75 1089.6Z" fill="#68527E"/>
<path d="M1092.73 995.149L1093.62 996.259C1094.1 996.855 1094.85 996.827 1095.3 996.195L1167.39 895.033C1167.84 894.401 1167.82 893.406 1167.35 892.809L1166.46 891.699C1165.98 891.103 1165.23 891.131 1164.78 891.763L1092.69 992.925C1092.23 993.556 1092.26 994.552 1092.73 995.149Z" fill="#68527E"/>
<path d="M1090.7 1023.17L1091.74 1024.47C1092.17 1025.02 1092.86 1024.99 1093.27 1024.42L1152.76 940.941C1153.17 940.366 1153.15 939.459 1152.71 938.916L1151.67 937.612C1151.24 937.069 1150.55 937.096 1150.14 937.67L1090.65 1021.15C1090.24 1021.72 1090.26 1022.63 1090.7 1023.17Z" fill="#68527E"/>
<path d="M1090.91 584.74L1092.22 586.375C1092.58 586.826 1093.15 586.804 1093.49 586.326L1132.75 531.236C1133.09 530.758 1133.07 530.005 1132.71 529.553L1131.41 527.918C1131.05 527.466 1130.48 527.488 1130.14 527.966L1090.87 583.056C1090.53 583.534 1090.55 584.288 1090.91 584.74Z" fill="#68527E"/>
<path d="M1026.88 577.615L1026.05 578.647C1025.61 579.195 1025.6 580.11 1026.01 580.691L1092.62 674.164C1093.04 674.744 1093.73 674.771 1094.17 674.222L1094.99 673.191C1095.43 672.642 1095.45 671.727 1095.04 671.147L1028.42 577.674C1028.01 577.093 1027.32 577.067 1026.88 577.615Z" fill="#68527E"/>
<path d="M1017.31 681.056L1016.48 682.088C1016.05 682.637 1016.03 683.552 1016.44 684.132L1083.06 777.605C1083.47 778.186 1084.16 778.212 1084.6 777.664L1085.42 776.632C1085.86 776.084 1085.88 775.168 1085.47 774.588L1018.85 681.115C1018.44 680.534 1017.75 680.508 1017.31 681.056Z" fill="#68527E"/>
<path d="M1017.31 777.821L1016.49 778.853C1016.05 779.401 1016.03 780.316 1016.44 780.897L1083.06 874.37C1083.47 874.95 1084.16 874.977 1084.6 874.428L1085.43 873.397C1085.86 872.848 1085.88 871.933 1085.47 871.353L1018.85 777.88C1018.44 777.299 1017.75 777.273 1017.31 777.821Z" fill="#68527E"/>
<path d="M1032.83 557.204L1031.88 558.392C1031.48 558.897 1031.46 559.74 1031.84 560.275L1086.79 637.381C1087.18 637.916 1087.81 637.94 1088.22 637.435L1089.17 636.247C1089.57 635.742 1089.59 634.899 1089.21 634.364L1034.26 557.258C1033.87 556.723 1033.24 556.699 1032.83 557.204Z" fill="#68527E"/>
<path d="M1017.31 798.58L1016.48 799.612C1016.04 800.16 1016.02 801.075 1016.44 801.656L1083.05 895.129C1083.47 895.709 1084.16 895.736 1084.6 895.187L1085.42 894.156C1085.86 893.607 1085.88 892.692 1085.46 892.111L1018.85 798.638C1018.44 798.058 1017.74 798.032 1017.31 798.58Z" fill="#68527E"/>
<path d="M1017.31 867.048L1016.48 868.079C1016.05 868.628 1016.03 869.543 1016.44 870.124L1083.06 963.596C1083.47 964.177 1084.16 964.203 1084.6 963.655L1085.42 962.623C1085.86 962.075 1085.88 961.16 1085.47 960.579L1018.85 867.106C1018.44 866.526 1017.75 866.499 1017.31 867.048Z" fill="#68527E"/>
<path d="M1017.53 961.915L1016.72 962.927C1016.28 963.481 1016.26 964.405 1016.67 964.991L1082.83 1057.83C1083.25 1058.41 1083.95 1058.44 1084.39 1057.88L1085.2 1056.87C1085.64 1056.32 1085.66 1055.39 1085.25 1054.81L1019.09 961.974C1018.67 961.387 1017.97 961.361 1017.53 961.915Z" fill="#68527E"/>
<path d="M1017.32 990.116L1016.49 991.148C1016.05 991.696 1016.03 992.611 1016.45 993.192L1083.06 1086.66C1083.48 1087.25 1084.17 1087.27 1084.61 1086.72L1085.43 1085.69C1085.87 1085.14 1085.89 1084.23 1085.48 1083.65L1018.86 990.175C1018.45 989.594 1017.76 989.568 1017.32 990.116Z" fill="#68527E"/>
<path d="M1017.3 635.241L1016.47 636.273C1016.03 636.821 1016.01 637.736 1016.43 638.317L1083.04 731.79C1083.46 732.37 1084.15 732.397 1084.59 731.848L1085.41 730.817C1085.85 730.268 1085.87 729.353 1085.45 728.772L1018.84 635.3C1018.43 634.719 1017.73 634.693 1017.3 635.241Z" fill="#68527E"/>
<path d="M579.509 1026.68L577.009 1026.7L579.509 1026.68C579.119 982.257 590.978 892.025 612.361 812.893C623.052 773.329 636.08 736.709 651.056 710.033C658.546 696.694 666.457 685.961 674.709 678.589C682.949 671.228 691.381 667.344 699.998 667.344C717.382 667.344 733.903 682.027 748.995 707.39C763.969 732.555 777.006 767.365 787.704 805.724C809.098 882.434 820.962 972.687 820.486 1026.77C820.039 1076.85 808.235 1114.62 787.529 1139.83C766.883 1164.96 737.14 1177.91 700.089 1177.91C663.038 1177.91 633.243 1164.94 612.548 1139.78C591.793 1114.55 579.945 1076.75 579.509 1026.68Z" fill="#1D193F" stroke="#68527E" stroke-width="5"/>
<path d="M699.621 794.936H697.874C694.075 794.936 690.995 797.712 690.995 801.136V1317.97C690.995 1321.4 694.075 1324.17 697.874 1324.17H699.621C703.42 1324.17 706.5 1321.4 706.5 1317.97V801.136C706.5 797.712 703.42 794.936 699.621 794.936Z" fill="#68527E"/>
<path d="M700.37 917.8L701.414 918.689C701.849 919.059 702.534 919.041 702.944 918.649L762.528 861.776C762.939 861.384 762.919 860.767 762.485 860.397L761.441 859.508C761.006 859.138 760.321 859.156 759.911 859.548L700.327 916.421C699.916 916.813 699.936 917.43 700.37 917.8Z" fill="#68527E"/>
<path d="M701.564 961.15L702.452 961.906C702.929 962.312 703.682 962.292 704.133 961.862L776.342 892.938C776.793 892.508 776.771 891.83 776.294 891.423L775.406 890.667C774.928 890.26 774.175 890.28 773.724 890.71L701.516 959.634C701.065 960.064 701.086 960.743 701.564 961.15Z" fill="#68527E"/>
<path d="M702.424 1036.75L703.312 1037.51C703.79 1037.91 704.542 1037.89 704.993 1037.46L777.202 968.538C777.653 968.108 777.632 967.429 777.154 967.023L776.266 966.267C775.788 965.86 775.035 965.88 774.584 966.31L702.376 1035.23C701.925 1035.66 701.946 1036.34 702.424 1036.75Z" fill="#68527E"/>
<path d="M691.481 859.858L692.525 860.746C692.959 861.116 693.644 861.099 694.054 860.707L753.639 803.834C754.049 803.442 754.029 802.825 753.595 802.455L752.551 801.566C752.116 801.196 751.431 801.214 751.021 801.605L691.437 858.479C691.026 858.871 691.046 859.488 691.481 859.858Z" fill="#68527E"/>
<path d="M701.564 1059.82L702.453 1060.58C702.93 1060.99 703.683 1060.97 704.134 1060.54L776.343 991.614C776.794 991.183 776.772 990.504 776.295 990.098L775.407 989.342C774.929 988.935 774.176 988.955 773.725 989.385L701.516 1058.31C701.065 1058.74 701.087 1059.42 701.564 1059.82Z" fill="#68527E"/>
<path d="M702.424 1176.71L703.312 1177.47C703.79 1177.88 704.543 1177.86 704.994 1177.43L777.202 1108.5C777.653 1108.07 777.632 1107.39 777.154 1106.99L776.266 1106.23C775.788 1105.82 775.036 1105.84 774.585 1106.27L702.376 1175.2C701.925 1175.63 701.946 1176.31 702.424 1176.71Z" fill="#68527E"/>
<path d="M702.411 1112.36L703.299 1113.11C703.777 1113.52 704.53 1113.5 704.981 1113.07L777.189 1044.15C777.64 1043.72 777.619 1043.04 777.141 1042.63L776.253 1041.88C775.775 1041.47 775.023 1041.49 774.572 1041.92L702.363 1110.84C701.912 1111.27 701.934 1111.95 702.411 1112.36Z" fill="#68527E"/>
<path d="M700.372 1131.45L701.416 1132.34C701.851 1132.71 702.536 1132.69 702.946 1132.3L762.53 1075.43C762.941 1075.04 762.921 1074.42 762.487 1074.05L761.443 1073.16C761.008 1072.79 760.323 1072.81 759.913 1073.2L700.329 1130.07C699.918 1130.46 699.938 1131.08 700.372 1131.45Z" fill="#68527E"/>
<path d="M700.584 832.741L701.892 833.855C702.254 834.163 702.824 834.148 703.165 833.822L742.488 796.288C742.829 795.962 742.813 795.449 742.451 795.141L741.143 794.027C740.781 793.72 740.212 793.734 739.87 794.06L700.547 831.594C700.206 831.92 700.222 832.433 700.584 832.741Z" fill="#68527E"/>
<path d="M636.455 827.886L635.63 828.589C635.191 828.963 635.171 829.586 635.585 829.982L702.306 893.667C702.72 894.062 703.412 894.08 703.851 893.707L704.677 893.004C705.116 892.63 705.135 892.007 704.721 891.611L638 827.926C637.586 827.531 636.894 827.513 636.455 827.886Z" fill="#68527E"/>
<path d="M626.869 898.363L626.043 899.066C625.604 899.439 625.584 900.063 625.998 900.458L692.719 964.143C693.133 964.539 693.825 964.557 694.264 964.183L695.09 963.48C695.529 963.107 695.548 962.483 695.134 962.088L628.414 898.403C627.999 898.007 627.307 897.989 626.869 898.363Z" fill="#68527E"/>
<path d="M626.873 964.291L626.048 964.994C625.609 965.367 625.589 965.991 626.003 966.386L692.724 1030.07C693.138 1030.47 693.83 1030.48 694.269 1030.11L695.095 1029.41C695.534 1029.03 695.553 1028.41 695.139 1028.02L628.419 964.33C628.004 963.935 627.312 963.917 626.873 964.291Z" fill="#68527E"/>
<path d="M642.419 813.98L641.469 814.789C641.064 815.133 641.046 815.708 641.428 816.072L696.465 868.606C696.847 868.97 697.485 868.987 697.889 868.642L698.84 867.833C699.244 867.489 699.262 866.915 698.881 866.55L643.843 814.016C643.461 813.652 642.824 813.635 642.419 813.98Z" fill="#68527E"/>
<path d="M626.864 978.435L626.038 979.138C625.599 979.512 625.579 980.135 625.994 980.531L692.714 1044.22C693.128 1044.61 693.82 1044.63 694.259 1044.26L695.085 1043.55C695.524 1043.18 695.544 1042.56 695.129 1042.16L628.409 978.475C627.994 978.079 627.303 978.062 626.864 978.435Z" fill="#68527E"/>
<path d="M626.869 1025.08L626.043 1025.79C625.604 1026.16 625.584 1026.78 625.998 1027.18L692.719 1090.86C693.133 1091.26 693.825 1091.28 694.264 1090.9L695.09 1090.2C695.529 1089.83 695.548 1089.2 695.134 1088.81L628.414 1025.12C627.999 1024.73 627.307 1024.71 626.869 1025.08Z" fill="#68527E"/>
<path d="M627.083 1089.72L626.273 1090.41C625.83 1090.78 625.81 1091.41 626.228 1091.81L692.493 1155.06C692.911 1155.46 693.61 1155.48 694.053 1155.1L694.863 1154.41C695.306 1154.04 695.327 1153.41 694.908 1153.01L628.643 1089.76C628.225 1089.36 627.527 1089.34 627.083 1089.72Z" fill="#68527E"/>
<path d="M626.876 1108.93L626.051 1109.63C625.612 1110.01 625.592 1110.63 626.006 1111.03L692.727 1174.71C693.141 1175.11 693.833 1175.12 694.272 1174.75L695.098 1174.05C695.537 1173.67 695.556 1173.05 695.142 1172.65L628.421 1108.97C628.007 1108.57 627.315 1108.56 626.876 1108.93Z" fill="#68527E"/>
<path d="M626.856 867.148L626.03 867.851C625.591 868.224 625.571 868.848 625.986 869.244L692.706 932.928C693.121 933.324 693.812 933.342 694.251 932.968L695.077 932.265C695.516 931.892 695.536 931.268 695.121 930.873L628.401 867.188C627.987 866.792 627.295 866.774 626.856 867.148Z" fill="#68527E"/>
<path d="M536.351 1093.57C553.729 1141.72 559.713 1197.93 554.895 1250.98C550.075 1304.05 534.467 1353.72 508.897 1388.91C468.543 1444.45 415.474 1445.23 379.26 1445.76L379.074 1445.76C340.249 1446.33 281.745 1447.1 240.617 1385.32C215.779 1348 203.623 1297.42 201.756 1245.03C199.889 1192.66 208.312 1138.75 224.38 1094.93M536.351 1093.57L538.702 1092.72M536.351 1093.57C536.351 1093.57 536.351 1093.57 536.351 1093.57L538.702 1092.72M536.351 1093.57C493.934 976.087 394.952 937.171 321.29 973.435C290.261 988.712 267.386 1015.31 251.552 1040.09C235.735 1064.85 227.071 1087.6 224.38 1094.93M538.702 1092.72C573.737 1189.79 562.748 1319.05 510.92 1390.38C469.83 1446.93 415.647 1447.72 379.4 1448.25L379.111 1448.26C340.28 1448.83 280.462 1449.69 238.535 1386.7L320.186 971.192C395.555 934.088 495.931 974.255 538.702 1092.72ZM224.38 1094.93L222.033 1094.07L224.38 1094.93Z" fill="#1D193F" stroke="#8A6F8E" stroke-width="5"/>
<path d="M379.712 1436.74V1019.92M379.712 1436.74L460.378 1060.64M379.712 1436.74L506.161 1198.28M379.712 1436.74L495.26 1341.74M379.712 1436.74L465.828 1401.84M379.712 1436.74L299.047 1060.64M379.712 1436.74L249.993 1198.28M379.712 1436.74L264.164 1341.74M379.712 1436.74L293.596 1401.84" stroke="#8A6F8E" stroke-width="4" stroke-linecap="round"/>
<mask id="path-149-inside-1_1012_1333" fill="white">
<path d="M364.601 1250.54C357.239 1228.83 296.199 1054.26 207.429 1054.47C191.253 1054.47 164.723 1060.37 132.294 1096.01C119.766 1075.6 39.7359 947.277 -16.6808 954.107C-67.8366 960.299 -79.6807 1075.22 -69.8247 1132.2C-59.2278 1193.49 -19.9162 1250.53 -19.9162 1250.53"/>
</mask>
<path d="M364.601 1250.54C357.239 1228.83 296.199 1054.26 207.429 1054.47C191.253 1054.47 164.723 1060.37 132.294 1096.01C119.766 1075.6 39.7359 947.277 -16.6808 954.107C-67.8366 960.299 -79.6807 1075.22 -69.8247 1132.2C-59.2278 1193.49 -19.9162 1250.53 -19.9162 1250.53" fill="#1D193F"/>
<path d="M207.429 1054.47V1059.47L207.441 1059.47L207.429 1054.47ZM132.294 1096.01L128.033 1098.63L131.515 1104.3L135.993 1099.38L132.294 1096.01ZM-16.6808 954.107L-16.08 959.07L-16.0799 959.07L-16.6808 954.107ZM-69.8247 1132.2L-64.8978 1131.35L-64.8979 1131.35L-69.8247 1132.2ZM369.336 1248.93C365.625 1237.99 348.394 1188.53 320.852 1141.75C307.086 1118.37 290.607 1095.42 271.768 1078.27C252.941 1061.13 231.327 1049.41 207.418 1049.47L207.441 1059.47C227.916 1059.42 247.222 1069.45 265.036 1085.66C282.838 1101.87 298.724 1123.88 312.234 1146.82C339.244 1192.7 356.214 1241.38 359.866 1252.14L369.336 1248.93ZM207.429 1049.47C189.7 1049.47 161.87 1056.07 128.596 1092.65L135.993 1099.38C167.576 1064.66 192.805 1059.47 207.429 1059.47V1049.47ZM136.556 1093.4C130.263 1083.15 106.962 1045.69 78.0793 1011.61C63.6497 994.585 47.6706 978.21 31.5798 966.487C15.6414 954.875 -1.25581 947.203 -17.2817 949.143L-16.0799 959.07C-3.89746 957.596 10.3653 963.404 25.6912 974.57C40.8647 985.624 56.2543 1001.33 70.4503 1018.08C98.8194 1051.55 121.797 1088.47 128.033 1098.63L136.556 1093.4ZM-17.2816 949.143C-32.0703 950.933 -43.5323 960.564 -52.1438 973.808C-60.7462 987.039 -66.884 1004.41 -71.0136 1023.03C-79.2718 1060.26 -79.7954 1103.9 -74.7515 1133.05L-64.8979 1131.35C-69.71 1103.53 -69.2396 1061.21 -61.2508 1025.19C-57.2569 1007.18 -51.4579 991.099 -43.76 979.259C-36.0711 967.433 -26.8692 960.376 -16.08 959.07L-17.2816 949.143ZM-74.7516 1133.05C-69.3334 1164.39 -56.6167 1194.48 -45.353 1216.62C-39.7078 1227.71 -34.3968 1236.87 -30.4912 1243.27C-28.5378 1246.46 -26.9341 1248.97 -25.8136 1250.69C-25.2534 1251.55 -24.8138 1252.21 -24.5115 1252.66C-24.3603 1252.89 -24.2435 1253.06 -24.1631 1253.18C-24.1229 1253.23 -24.0918 1253.28 -24.07 1253.31C-24.0591 1253.33 -24.0506 1253.34 -24.0444 1253.35C-24.0414 1253.35 -24.0389 1253.36 -24.037 1253.36C-24.036 1253.36 -24.0351 1253.36 -24.0346 1253.36C-24.0338 1253.37 -24.0331 1253.37 -19.9162 1250.53C-15.7993 1247.69 -15.799 1247.69 -15.7987 1247.69C-15.7989 1247.69 -15.7988 1247.69 -15.799 1247.69C-15.7995 1247.69 -15.8006 1247.69 -15.8023 1247.69C-15.8057 1247.68 -15.8114 1247.67 -15.8195 1247.66C-15.8356 1247.64 -15.861 1247.6 -15.8955 1247.55C-15.9645 1247.45 -16.0697 1247.29 -16.2091 1247.09C-16.4878 1246.67 -16.9032 1246.05 -17.4385 1245.23C-18.5093 1243.58 -20.0596 1241.16 -21.9572 1238.05C-25.7537 1231.84 -30.933 1222.91 -36.4402 1212.08C-47.4815 1190.38 -59.7192 1161.3 -64.8978 1131.35L-74.7516 1133.05Z" fill="#8A6F8E" mask="url(#path-149-inside-1_1012_1333)"/>
<path d="M309.345 1334.66H309.424C309.625 1334.63 309.817 1334.56 309.986 1334.44C310.154 1334.33 310.294 1334.18 310.396 1334C310.498 1333.83 310.559 1333.63 310.574 1333.43C310.589 1333.22 310.558 1333.02 310.483 1332.83L195.604 1089.6C195.367 1089.21 195.007 1088.91 194.582 1088.75C194.157 1088.59 193.691 1088.58 193.259 1088.72H193.189C192.987 1088.75 192.795 1088.82 192.627 1088.94C192.459 1089.05 192.318 1089.2 192.215 1089.38C192.113 1089.55 192.051 1089.75 192.035 1089.95C192.018 1090.16 192.048 1090.36 192.121 1090.55L307 1333.78C307.237 1334.17 307.596 1334.47 308.021 1334.63C308.447 1334.79 308.912 1334.8 309.345 1334.66Z" fill="#8A6F8E"/>
<path d="M339.915 1355.34H339.985C340.178 1355.28 340.353 1355.17 340.498 1355.03C340.642 1354.89 340.752 1354.72 340.818 1354.53C340.885 1354.34 340.905 1354.13 340.879 1353.93C340.853 1353.73 340.781 1353.54 340.668 1353.37L180.34 1131.68C180.038 1131.33 179.632 1131.09 179.183 1131C178.734 1130.91 178.267 1130.97 177.854 1131.17H177.784C177.592 1131.23 177.417 1131.34 177.272 1131.48C177.128 1131.62 177.018 1131.79 176.952 1131.98C176.885 1132.17 176.865 1132.38 176.891 1132.58C176.917 1132.78 176.989 1132.97 177.102 1133.14L337.43 1354.83C337.731 1355.18 338.138 1355.42 338.587 1355.51C339.036 1355.6 339.503 1355.54 339.915 1355.34Z" fill="#8A6F8E"/>
<path d="M378.521 1368.06L378.582 1368.01C378.761 1367.92 378.915 1367.79 379.032 1367.62C379.149 1367.46 379.225 1367.27 379.254 1367.07C379.283 1366.87 379.264 1366.66 379.199 1366.47C379.134 1366.28 379.025 1366.11 378.88 1365.97L177.969 1172.55C177.615 1172.25 177.175 1172.08 176.716 1172.06C176.256 1172.04 175.802 1172.17 175.422 1172.42L175.36 1172.47C175.183 1172.56 175.03 1172.7 174.915 1172.86C174.799 1173.03 174.724 1173.22 174.695 1173.42C174.666 1173.62 174.684 1173.82 174.748 1174.01C174.812 1174.2 174.92 1174.37 175.063 1174.52L375.974 1367.94C376.328 1368.23 376.768 1368.4 377.227 1368.42C377.687 1368.45 378.141 1368.32 378.521 1368.06Z" fill="#8A6F8E"/>
<path d="M434.771 1359.91L434.823 1359.85C434.966 1359.71 435.073 1359.53 435.136 1359.34C435.2 1359.15 435.217 1358.95 435.187 1358.75C435.157 1358.55 435.081 1358.36 434.965 1358.2C434.848 1358.04 434.695 1357.9 434.517 1357.81L184.507 1217.52C184.096 1217.32 183.631 1217.26 183.181 1217.34C182.731 1217.43 182.321 1217.66 182.013 1218L181.969 1218.05C181.826 1218.19 181.719 1218.36 181.656 1218.56C181.593 1218.75 181.575 1218.95 181.605 1219.15C181.635 1219.35 181.711 1219.54 181.827 1219.7C181.944 1219.87 182.097 1220 182.275 1220.1L432.285 1360.38C432.695 1360.58 433.158 1360.65 433.606 1360.56C434.055 1360.48 434.463 1360.25 434.771 1359.91Z" fill="#8A6F8E"/>
<path d="M491.202 1332.65V1332.58C491.296 1332.4 491.347 1332.2 491.352 1332C491.357 1331.8 491.315 1331.6 491.231 1331.41C491.146 1331.23 491.021 1331.07 490.864 1330.94C490.707 1330.81 490.524 1330.72 490.327 1330.68L208.267 1253.07C207.827 1252.97 207.363 1253.01 206.951 1253.2C206.538 1253.38 206.2 1253.7 205.992 1254.11V1254.18C205.898 1254.36 205.847 1254.55 205.842 1254.76C205.837 1254.96 205.879 1255.16 205.963 1255.34C206.048 1255.52 206.173 1255.69 206.33 1255.81C206.486 1255.94 206.67 1256.03 206.867 1256.08L488.927 1333.68C489.367 1333.79 489.83 1333.74 490.242 1333.55C490.655 1333.37 490.992 1333.05 491.202 1332.65Z" fill="#8A6F8E"/>
<path d="M303.193 1365.97H303.271C304.243 1365.86 304.873 1365.1 304.672 1364.34L238.743 1106.94C238.582 1106.52 238.283 1106.17 237.894 1105.94C237.506 1105.72 237.052 1105.63 236.607 1105.7H236.529C235.557 1105.81 234.927 1106.57 235.128 1107.34L301.057 1364.73C301.217 1365.15 301.516 1365.51 301.905 1365.73C302.294 1365.96 302.748 1366.04 303.193 1365.97Z" fill="#8A6F8E"/>
<path d="M283.806 1412.75H283.885C284.092 1412.78 284.304 1412.78 284.508 1412.73C284.713 1412.67 284.904 1412.58 285.069 1412.45C285.235 1412.32 285.37 1412.16 285.468 1411.97C285.566 1411.79 285.623 1411.58 285.635 1411.37L276.498 1147.45C276.434 1147.01 276.214 1146.6 275.878 1146.31C275.543 1146.02 275.114 1145.86 274.669 1145.85H274.59C274.384 1145.81 274.172 1145.82 273.968 1145.87C273.764 1145.92 273.573 1146.01 273.407 1146.14C273.241 1146.27 273.105 1146.43 273.007 1146.62C272.91 1146.8 272.852 1147.01 272.84 1147.22L282.003 1411.15C282.067 1411.59 282.284 1411.99 282.614 1412.28C282.944 1412.57 283.366 1412.74 283.806 1412.75Z" fill="#8A6F8E"/>
<path d="M246.742 1439.59H246.821C247.019 1439.66 247.229 1439.69 247.439 1439.67C247.649 1439.66 247.853 1439.61 248.041 1439.51C248.228 1439.42 248.395 1439.28 248.529 1439.12C248.664 1438.96 248.765 1438.77 248.825 1438.57L300.383 1178.57C300.426 1178.13 300.303 1177.69 300.038 1177.34C299.774 1176.99 299.388 1176.76 298.957 1176.68H298.878C298.68 1176.61 298.47 1176.58 298.26 1176.59C298.05 1176.6 297.845 1176.66 297.658 1176.75C297.47 1176.85 297.304 1176.98 297.169 1177.14C297.035 1177.3 296.934 1177.49 296.874 1177.69L245.316 1437.7C245.274 1438.13 245.396 1438.57 245.661 1438.92C245.925 1439.27 246.311 1439.51 246.742 1439.59Z" fill="#8A6F8E"/>
<path d="M179.63 1457.37L179.7 1457.42C180.064 1457.64 180.502 1457.72 180.921 1457.63C181.34 1457.54 181.706 1457.28 181.941 1456.93L311.672 1219.75C311.85 1219.35 311.867 1218.91 311.719 1218.5C311.572 1218.1 311.273 1217.76 310.884 1217.58H310.814C310.635 1217.46 310.435 1217.38 310.225 1217.34C310.016 1217.31 309.801 1217.31 309.593 1217.36C309.384 1217.4 309.187 1217.49 309.012 1217.61C308.837 1217.73 308.689 1217.89 308.574 1218.07L178.843 1455.25C178.678 1455.63 178.669 1456.07 178.815 1456.46C178.961 1456.86 179.253 1457.18 179.63 1457.37Z" fill="#8A6F8E"/>
<path d="M109.197 1348.63H109.283C109.539 1348.63 109.791 1348.56 110.017 1348.44C110.243 1348.32 110.438 1348.15 110.587 1347.94C110.736 1347.74 110.835 1347.5 110.877 1347.25C110.918 1347 110.901 1346.74 110.827 1346.5L0.990202 1037.27C0.748744 1036.77 0.34478 1036.36 -0.157685 1036.11C-0.66015 1035.86 -1.23273 1035.78 -1.78412 1035.89H-1.87056C-2.12691 1035.9 -2.3776 1035.97 -2.60366 1036.09C-2.82973 1036.21 -3.02473 1036.38 -3.17392 1036.58C-3.32311 1036.79 -3.42275 1037.03 -3.46432 1037.28C-3.50588 1037.53 -3.48834 1037.78 -3.41372 1038.02L106.423 1347.26C106.666 1347.76 107.07 1348.17 107.572 1348.41C108.074 1348.66 108.646 1348.74 109.197 1348.63Z" fill="#8A6F8E"/>
<path d="M144.051 1377.55H144.137C144.379 1377.5 144.606 1377.39 144.799 1377.24C144.992 1377.09 145.147 1376.89 145.252 1376.67C145.356 1376.45 145.408 1376.21 145.401 1375.96C145.395 1375.72 145.332 1375.48 145.216 1375.26L-23.1656 1086.37C-23.4921 1085.92 -23.9591 1085.58 -24.4964 1085.41C-25.0337 1085.24 -25.612 1085.25 -26.1444 1085.43H-26.2414C-26.4849 1085.49 -26.7131 1085.59 -26.9076 1085.75C-27.1021 1085.9 -27.2578 1086.1 -27.3624 1086.32C-27.4671 1086.54 -27.5183 1086.79 -27.511 1087.03C-27.5038 1087.28 -27.4384 1087.52 -27.3208 1087.74L141.061 1376.62C141.387 1377.07 141.856 1377.41 142.396 1377.58C142.936 1377.75 143.517 1377.74 144.051 1377.55Z" fill="#8A6F8E"/>
<path d="M189.783 1397.83H189.859C190.09 1397.74 190.295 1397.6 190.459 1397.41C190.623 1397.23 190.74 1397.01 190.801 1396.77C190.862 1396.53 190.866 1396.28 190.811 1396.04C190.756 1395.8 190.644 1395.58 190.485 1395.39L-31.2506 1135.61C-31.6478 1135.22 -32.1654 1134.95 -32.7258 1134.87C-33.2862 1134.78 -33.8592 1134.88 -34.3591 1135.15H-34.4455C-34.6748 1135.24 -34.8791 1135.38 -35.0416 1135.57C-35.204 1135.75 -35.3201 1135.97 -35.381 1136.21C-35.4419 1136.45 -35.4458 1136.7 -35.3921 1136.94C-35.3383 1137.17 -35.2285 1137.4 -35.0716 1137.59L186.674 1397.32C187.067 1397.73 187.582 1398 188.142 1398.09C188.703 1398.18 189.279 1398.09 189.783 1397.83Z" fill="#8A6F8E"/>
<path d="M259.843 1395.05L259.908 1394.99C260.102 1394.83 260.257 1394.64 260.359 1394.41C260.462 1394.19 260.509 1393.94 260.498 1393.7C260.486 1393.45 260.416 1393.21 260.293 1393C260.17 1392.79 259.997 1392.61 259.789 1392.47L-28.9537 1190.94C-29.4313 1190.64 -29.9936 1190.5 -30.5564 1190.55C-31.1191 1190.59 -31.6518 1190.82 -32.0732 1191.19L-32.1375 1191.25C-32.3302 1191.41 -32.484 1191.61 -32.586 1191.83C-32.688 1192.05 -32.7356 1192.3 -32.7251 1192.54C-32.7146 1192.78 -32.6462 1193.02 -32.5254 1193.24C-32.4046 1193.45 -32.2352 1193.63 -32.03 1193.77L256.724 1395.31C257.201 1395.6 257.764 1395.74 258.327 1395.69C258.89 1395.65 259.422 1395.42 259.843 1395.05Z" fill="#8A6F8E"/>
<path d="M332.518 1369.14V1369.06C332.655 1368.86 332.742 1368.62 332.773 1368.38C332.804 1368.13 332.778 1367.88 332.696 1367.65C332.615 1367.42 332.481 1367.21 332.304 1367.03C332.127 1366.86 331.912 1366.72 331.676 1366.64L-4.39707 1237.01C-4.92278 1236.82 -5.49785 1236.81 -6.02878 1236.99C-6.55971 1237.16 -7.01534 1237.51 -7.32213 1237.97V1238.06C-7.45896 1238.26 -7.54628 1238.5 -7.57721 1238.74C-7.60815 1238.98 -7.58211 1239.23 -7.50079 1239.47C-7.41948 1239.7 -7.28504 1239.91 -7.10815 1240.08C-6.93126 1240.26 -6.71664 1240.39 -6.48045 1240.47L329.604 1370.11C330.129 1370.29 330.702 1370.3 331.231 1370.12C331.759 1369.95 332.212 1369.6 332.518 1369.14Z" fill="#8A6F8E"/>
<path d="M97.6484 1385.81H97.7454C98.9543 1385.81 99.8178 1384.97 99.6775 1383.99L51.6781 1063.75C51.5372 1063.22 51.2153 1062.76 50.7669 1062.44C50.3185 1062.11 49.7707 1061.95 49.2169 1061.98H49.1199C47.911 1061.98 47.0475 1062.81 47.1878 1063.8L95.1877 1384.03C95.3265 1384.56 95.6471 1385.03 96.0958 1385.35C96.5444 1385.67 97.0931 1385.84 97.6484 1385.81Z" fill="#8A6F8E"/>
<path d="M67.8901 1440.03H67.9871C68.2336 1440.1 68.4923 1440.12 68.746 1440.08C68.9997 1440.04 69.2423 1439.95 69.4586 1439.82C69.6748 1439.68 69.8596 1439.5 70.0004 1439.29C70.1411 1439.08 70.235 1438.84 70.2755 1438.59L92.7589 1117.63C92.7312 1117.09 92.5103 1116.58 92.1364 1116.19C91.7625 1115.8 91.2599 1115.55 90.7187 1115.49H90.6217C90.376 1115.42 90.1179 1115.41 89.8649 1115.44C89.6119 1115.48 89.3695 1115.57 89.1534 1115.7C88.9373 1115.84 88.7524 1116.01 88.6111 1116.22C88.4698 1116.43 88.3752 1116.67 88.3333 1116.92L65.8389 1437.89C65.8666 1438.43 66.0885 1438.94 66.4645 1439.33C66.8404 1439.72 67.346 1439.97 67.8901 1440.03Z" fill="#8A6F8E"/>
<path d="M18.9503 1467.88H19.0478C19.2819 1467.99 19.5362 1468.05 19.7956 1468.06C20.055 1468.08 20.3142 1468.03 20.5567 1467.94C20.7991 1467.85 21.02 1467.71 21.206 1467.53C21.3919 1467.35 21.5389 1467.14 21.6381 1466.9L118.091 1158.33C118.199 1157.8 118.106 1157.26 117.828 1156.8C117.55 1156.34 117.108 1156.01 116.59 1155.85H116.493C116.259 1155.74 116.004 1155.68 115.745 1155.67C115.486 1155.66 115.228 1155.71 114.986 1155.8C114.744 1155.89 114.523 1156.03 114.337 1156.21C114.151 1156.38 114.003 1156.6 113.903 1156.83L17.4503 1465.43C17.3474 1465.95 17.4439 1466.49 17.7212 1466.94C17.9985 1467.39 18.4365 1467.73 18.9503 1467.88Z" fill="#8A6F8E"/>
<path d="M-65.5961 1480.96L-65.5207 1481.02C-65.1066 1481.35 -64.5777 1481.5 -64.0497 1481.44C-63.5218 1481.39 -63.0378 1481.13 -62.7037 1480.72L126.726 1209.67C126.997 1209.22 127.076 1208.68 126.947 1208.17C126.818 1207.65 126.49 1207.21 126.035 1206.94L125.96 1206.89C125.545 1206.56 125.018 1206.41 124.492 1206.47C123.967 1206.53 123.486 1206.79 123.153 1207.2L-66.287 1478.22C-66.5583 1478.68 -66.6381 1479.22 -66.5089 1479.73C-66.3797 1480.25 -66.0517 1480.69 -65.5961 1480.96Z" fill="#8A6F8E"/>
<path d="M797.521 1140.67C672.103 1120.17 771.994 1262.1 849.688 1290.48L1077.22 1319.92C1180.99 1268.4 1223.49 1099.19 1160.46 1104.4C1020.61 1115.97 1055.12 962.435 905.183 1004C791.417 1035.54 869.025 1152.36 797.521 1140.67Z" fill="#1D193F" stroke="#8A6F8E" stroke-width="5"/>
<path d="M947.258 1394.28C968.127 1210.77 919.195 1228.48 918.257 1159.12C917.319 1089.76 958.23 1061.03 958.23 1061.03" stroke="#8A6F8E" stroke-width="4" stroke-miterlimit="10" stroke-linecap="round"/>
<path d="M948.118 1258.79C948.118 1258.79 974.004 1218.29 1019.46 1227.63C1064.91 1236.96 1120.08 1204.46 1120.08 1204.46" stroke="#8A6F8E" stroke-width="4" stroke-miterlimit="10" stroke-linecap="round"/>
<path d="M920.71 1161.94C990.657 1160.27 1014.51 1104.19 1021.66 1077.46" stroke="#8A6F8E" stroke-width="4" stroke-miterlimit="10" stroke-linecap="round"/>
<path d="M1048.41 1230.52C1048.41 1230.52 1057.61 1267.49 1104.35 1268.95" stroke="#8A6F8E" stroke-width="4" stroke-miterlimit="10" stroke-linecap="round"/>
<path d="M933.842 1218.65C933.842 1218.65 921.51 1210.02 905.555 1218.86C889.6 1227.7 877.483 1231.8 846.494 1228.52C815.505 1225.25 801.822 1210.49 801.822 1210.49" stroke="#8A6F8E" stroke-width="4" stroke-miterlimit="10" stroke-linecap="round"/>
<path d="M1039.53 1148.98C1039.53 1148.98 1001.59 1161.88 979.091 1143.39" stroke="#8A6F8E" stroke-width="4" stroke-miterlimit="10" stroke-linecap="round"/>
<path d="M868.644 1230C868.644 1230 853.825 1253.07 823.524 1243.44" stroke="#8A6F8E" stroke-width="4" stroke-miterlimit="10" stroke-linecap="round"/>
<path d="M903.695 1217.85C903.695 1217.85 886.484 1194.75 851.244 1198.19" stroke="#8A6F8E" stroke-width="4" stroke-miterlimit="10" stroke-linecap="round"/>
<path d="M1092.55 1217.41C1092.55 1217.41 1097.55 1234.31 1138.45 1228.96" stroke="#8A6F8E" stroke-width="4" stroke-miterlimit="10" stroke-linecap="round"/>
<path d="M875.21 1151.05C875.21 1151.05 889.979 1165.94 878.553 1182.72" stroke="#8A6F8E" stroke-width="4" stroke-miterlimit="10" stroke-linecap="round"/>
<path d="M904.177 1104.39C904.177 1104.39 881.001 1104.92 871.122 1085.81" stroke="#8A6F8E" stroke-width="4" stroke-miterlimit="10" stroke-linecap="round"/>
<path d="M927.817 1108.85C927.817 1108.85 952.412 1117.8 979.038 1080.23" stroke="#8A6F8E" stroke-width="4" stroke-miterlimit="10" stroke-linecap="round"/>
<path d="M976.435 1233.5C976.435 1233.5 967.774 1247.91 1024.63 1251.84" stroke="#8A6F8E" stroke-width="4" stroke-miterlimit="10" stroke-linecap="round"/>
<path d="M962.74 1241.48C962.74 1241.48 959.007 1208.9 983.516 1200.01" stroke="#8A6F8E" stroke-width="4" stroke-miterlimit="10" stroke-linecap="round"/>
<path d="M837.388 1226.89C837.388 1226.89 838.248 1215.39 822.758 1206.15" stroke="#8A6F8E" stroke-width="4" stroke-miterlimit="10" stroke-linecap="round"/>
<path d="M1060.64 1253.56C1060.64 1253.56 1047.87 1265.19 1073.37 1284.33" stroke="#8A6F8E" stroke-width="4" stroke-miterlimit="10" stroke-linecap="round"/>
<path d="M1007.55 1110.6C1007.55 1110.6 1027.14 1118.14 1050.79 1096.78" stroke="#8A6F8E" stroke-width="4" stroke-miterlimit="10" stroke-linecap="round"/>
<path d="M1068.75 1222.42C1068.75 1222.42 1064.01 1196.79 1108.12 1173.38" stroke="#8A6F8E" stroke-width="4" stroke-miterlimit="10" stroke-linecap="round"/>
<path d="M1082.62 1191.66C1082.62 1191.66 1076.25 1185.2 1088.9 1170.77" stroke="#8A6F8E" stroke-width="4" stroke-miterlimit="10" stroke-linecap="round"/>
<path d="M1001.96 1224.24C1001.96 1224.24 991.465 1205.47 1035.17 1180.97" stroke="#8A6F8E" stroke-width="4" stroke-miterlimit="10" stroke-linecap="round"/>
<path d="M1007.62 1203.58C1007.62 1203.58 1011.46 1209.13 1041.01 1202.69" stroke="#8A6F8E" stroke-width="4" stroke-miterlimit="10" stroke-linecap="round"/>
<path d="M920.356 1127.69C920.356 1127.69 896.02 1116.8 899.703 1059.17" stroke="#8A6F8E" stroke-width="4" stroke-miterlimit="10" stroke-linecap="round"/>
<path d="M966.578 1149.05C966.578 1149.05 950.683 1136.01 962.198 1117.93" stroke="#8A6F8E" stroke-width="4" stroke-miterlimit="10" stroke-linecap="round"/>
<path d="M918.275 1184.67C918.275 1184.67 854.886 1191.2 832.7 1155.82" stroke="#8A6F8E" stroke-width="4" stroke-miterlimit="10" stroke-linecap="round"/>
<path d="M1523.21 1124.52C1523.21 1182.05 1497.25 1221.36 1455.2 1246.41C1412.98 1271.57 1354.41 1282.41 1289.35 1282.41C1224.3 1282.41 1165.73 1271.57 1123.51 1246.41C1081.45 1221.36 1055.5 1182.05 1055.5 1124.52C1055.5 1009.25 1159.94 915.344 1289.35 915.344C1418.77 915.344 1523.21 1009.31 1523.21 1124.52Z" fill="#1D193F" stroke="#8A6F8E" stroke-width="5"/>
<path d="M1287.84 1282.65V959.472M1287.84 1282.65L1345.37 968.438M1287.84 1282.65L1399.49 994.04M1287.84 1282.65L1442.27 1034.91M1287.84 1282.65L1463.47 1096.84M1287.84 1282.65L1471.04 1152.73M1287.84 1282.65L1448.33 1208.63M1287.84 1282.65L1407.45 1255.46M1287.84 1282.65L1230.31 968.438M1287.84 1282.65L1175.2 994.04M1287.84 1282.65L1127.35 1034.91M1287.84 1282.65L1107.67 1096.84M1287.84 1282.65L1107.67 1152.73M1287.84 1282.65L1127.35 1208.63M1287.84 1282.65L1168.23 1255.46" stroke="#8A6F8E" stroke-width="4" stroke-linecap="round"/>
</svg>
